<svg width="17" height="17" version="1.1" viewBox="0 0 17 17" xmlns="http://www.w3.org/2000/svg">
 <path d="m8.5 1c-4.1362 0-7.5 3.3638-7.5 7.5 0 4.1362 3.3638 7.5 7.5 7.5 4.1362 0 7.5-3.3638 7.5-7.5 0-4.1362-3.3638-7.5-7.5-7.5zm0 1c3.5958 0 6.5 2.9042 6.5 6.5s-2.9042 6.5-6.5 6.5-6.5-2.9042-6.5-6.5 2.9042-6.5 6.5-6.5zm0 1c-0.8225 0-1.5 0.6775-1.5 1.5s0.6775 1.5 1.5 1.5 1.5-0.6775 1.5-1.5-0.6775-1.5-1.5-1.5zm0 1c0.28206 0 0.5 0.21794 0.5 0.5s-0.21794 0.5-0.5 0.5-0.5-0.21794-0.5-0.5 0.21794-0.5 0.5-0.5zm-3.041 2.0039a0.5 0.5 0 0 0-0.47656 0.3457 0.5 0.5 0 0 0 0.31836 0.63086l2.6992 0.88672v1.5078l-1.9336 3.3828a0.5 0.5 0 0 0 0.18555 0.68164 0.5 0.5 0 0 0 0.68164-0.18555l1.5664-2.7422 1.5664 2.7422a0.5 0.5 0 0 0 0.68164 0.18555 0.5 0.5 0 0 0 0.18555-0.68164l-1.9336-3.3828v-1.5117l2.5801-0.88477a0.5 0.5 0 0 0 0.31055-0.63477 0.5 0.5 0 0 0-0.63477-0.3125l-2.7598 0.94727-2.8828-0.94922a0.5 0.5 0 0 0-0.1543-0.025391z"/>
</svg>
