<svg width="17" height="17" version="1.1" viewBox="0 0 17 17" xmlns="http://www.w3.org/2000/svg">
    <path d="m16 12h-15c.14062-1.3594.60937-2.6718 1.3594-3.7968.5625-.89062 1.3594-1.6406 2.2969-2.2031l.23437-.14062-1.2187-2.1094c-.093749-.14062-.046875-.375.093749-.46875.14062-.046875.32812 0 .42187.14062l1.3125 2.2031c.98437-.375 1.9687-.5625 3.0469-.5625 1.0312 0 2.0156.1875 2.9531.5625l1.2656-2.2031c.09375-.14062.28125-.1875.42187-.093749.14062.093749.1875.28125.09375.42187l-1.2656 2.1562.32812.1875c.93749.5625 1.6875 1.3594 2.25 2.25.75 1.0781 1.2187 2.3437 1.4062 3.6562zm-4.6875-2.7656c0 .32812.28125.60937.60937.60937s.60937-.28125.60937-.60937c0-.32812-.28125-.60937-.60937-.60937s-.60937.23437-.60937.60937zm-6.8905 0c0 .32812.28125.60937.60937.60937.32812 0 .60937-.28125.60937-.60937 0-.32812-.28125-.60937-.60937-.60937-.32812 0-.60937.23437-.60937.60937z"/>
</svg>
