<svg width="16" height="16" version="1.1" viewBox="0 0 16 16" xmlns="http://www.w3.org/2000/svg">
    <path d="m15 12.077h-14c.13125-1.2688.56875-2.4937 1.2688-3.5437.525-.83125 1.2688-1.5312 2.1438-2.0562l.21875-.13125-1.1375-1.9688c-.0875-.13125-.04375-.35.0875-.4375.13125-.04375.30625 0 .39375.13125l1.225 2.0562c.91875-.35 1.8375-.525 2.8438-.525.9625 0 1.8812.175 2.7562.525l1.1812-2.0562c.0875-.13125.2625-.175.39375-.0875s.175.2625.0875.39375l-1.1812 2.0125.30625.175c.875.525 1.575 1.2688 2.1 2.1.7 1.0062 1.1375 2.1875 1.3125 3.4125zm-4.375-2.5812c0 .30625.2625.56875.56875.56875s.56875-.2625.56875-.56875-.2625-.56875-.56875-.56875-.56875.21875-.56875.56875zm-6.4312 0c0 .30625.2625.56875.56875.56875s.56875-.2625.56875-.56875-.2625-.56875-.56875-.56875-.56875.21875-.56875.56875z"/>
</svg>
