<svg width="17" height="17" version="1.1" viewBox="0 0 17 17" xmlns="http://www.w3.org/2000/svg">
    <path d="m1.0003 8.6148c.028323 1.9137.78834 3.7864 2.1953 5.1934 2.144 2.144 5.3726 2.7873 8.1738 1.627s4.6309-3.8977 4.6309-6.9297a.5.5 0 00-.01563-.058594.5.5 0 00-.03516-.13672.5.5 0 00-.04297-.082031.5.5 0 00-.13476-.13477.5.5 0 00-.06445-.033203.5.5 0 00-.19727-.052734.5.5 0 00-.0098-.00195.5.5 0 00-.0059 0h-1a.5.5 0 00-.5.5.5.5 0 00.5.5h.48633c-.18629 2.4272-1.7189 4.5634-3.9941 5.5059-2.4302 1.0066-5.224.44984-7.084-1.4102-1.86-1.86-2.4148-4.6538-1.4082-7.084.94167-2.2734 3.0752-3.8041 5.5-3.9922v.48047a.5.5 0 00.5.5.5.5 0 00.5-.5v-.97852a.5.5 0 00.00586-.021484.5.5 0 00-.015625-.058594.5.5 0 00-.035156-.13672.5.5 0 00-.042969-.082032.5.5 0 00-.13477-.13476.5.5 0 00-.064453-.033203.5.5 0 00-.21094-.054688h-.00195a.5.5 0 00-.00781 0c-3.0265.00551-5.7575 1.8319-6.916 4.6289-.29008.70031-.46764 1.4281-.53711 2.1582-.026051.27378-.037249.54888-.033203.82227zm6.9941-.10938a.5.5 0 00.5.5h1a.5.5 0 00.5-.5.5.5 0 00-.5-.5h-.5v-.5a.5.5 0 00-.5-.5.5.5 0 00-.5.5zm0-3a.5.5 0 00.5.5.5.5 0 00.5-.5v-1a.5.5 0 00-.5-.5.5.5 0 00-.5.5zm3 3a.5.5 0 00.5.5h1a.5.5 0 00.5-.5.5.5 0 00-.5-.5h-1a.5.5 0 00-.5.5z"/>
</svg>
