<svg width="17" height="17" version="1.1" viewBox="0 0 17 17" xmlns="http://www.w3.org/2000/svg">
 <path d="m2.5 2a0.5 0.5 0 0 0-0.35352 0.14648 0.5 0.5 0 0 0 0 0.70703l2.1445 2.1445-0.79102 0.0019531a0.5 0.5 0 0 0-0.5 0.5 0.5 0.5 0 0 0 0.5 0.5l1.9883-0.0019531a0.5 0.5 0 0 0 0.023438 0h0.48828v-0.49805-1.998a0.5 0.5 0 0 0-0.5-0.5 0.5 0.5 0 0 0-0.5 0.5v0.79102l-2.1465-2.1465a0.5 0.5 0 0 0-0.35352-0.14648zm12 0a0.5 0.5 0 0 0-0.35352 0.14648l-2.1445 2.1445-0.001953-0.79102a0.5 0.5 0 0 0-0.5-0.5 0.5 0.5 0 0 0-0.5 0.5l0.001953 1.9883a0.5 0.5 0 0 0 0 0.023438v0.48828h0.49805 1.998a0.5 0.5 0 0 0 0.5-0.5 0.5 0.5 0 0 0-0.5-0.5h-0.79102l2.1465-2.1465a0.5 0.5 0 0 0 0.14648-0.35352 0.5 0.5 0 0 0-0.14648-0.35352 0.5 0.5 0 0 0-0.35352-0.14648zm-10.998 9a0.5 0.5 0 0 0-0.5 0.5 0.5 0.5 0 0 0 0.5 0.5h0.79102l-2.1465 2.1465a0.5 0.5 0 0 0-0.14648 0.35352 0.5 0.5 0 0 0 0.14648 0.35352 0.5 0.5 0 0 0 0.70703 0l2.1445-2.1445 0.0019531 0.79102a0.5 0.5 0 0 0 0.5 0.5 0.5 0.5 0 0 0 0.5-0.5l-0.0019531-1.9883a0.5 0.5 0 0 0 0-0.001953 0.5 0.5 0 0 0 0-0.001954 0.5 0.5 0 0 0 0-0.001953 0.5 0.5 0 0 0 0-0.001953 0.5 0.5 0 0 0 0-0.001953 0.5 0.5 0 0 0 0-0.001953 0.5 0.5 0 0 0 0-0.001953 0.5 0.5 0 0 0 0-0.001953 0.5 0.5 0 0 0 0-0.001953 0.5 0.5 0 0 0 0-0.001953 0.5 0.5 0 0 0 0-0.001954 0.5 0.5 0 0 0 0-0.001953v-0.48828h-0.49805-1.998zm9.998 0-1.9883 0.001953a0.5 0.5 0 0 0-0.023438 0h-0.48828v0.49805 1.998a0.5 0.5 0 0 0 0.5 0.5 0.5 0.5 0 0 0 0.5-0.5v-0.79102l2.1465 2.1465a0.5 0.5 0 0 0 0.35352 0.14648 0.5 0.5 0 0 0 0.35352-0.14648 0.5 0.5 0 0 0 0-0.70703l-2.1445-2.1445 0.79102-0.001953a0.5 0.5 0 0 0 0.5-0.5 0.5 0.5 0 0 0-0.5-0.5z"/>
</svg>
