<svg width="16" height="16" version="1.1" viewBox="0 0 16 16" xmlns="http://www.w3.org/2000/svg">
    <path d="m7 3a.50005.50005 0 00-.5.5v.5h-3.6367a1 1 0 00-.86328-.5 1 1 0 00-1 1 1 1 0 001 1 1 1 0 00.86328-.5h1.8184c-1.6328 1.0857-2.6816 2.941-2.6816 5h-.5a.50005.50005 0 00-.5.5v2a.50005.50005 0 00.5.5h2a.50005.50005 0 00.5-.5v-2a.50005.50005 0 00-.5-.5h-.5c0-2.207 1.4368-4.1227 3.5-4.7695v.26953a.50005.50005 0 00.5.5h2a.50005.50005 0 00.5-.5v-.26953c2.0642.6467 3.5 2.5629 3.5 4.7695h-.5a.50005.50005 0 00-.5.5v2a.50005.50005 0 00.5.5h2a.50005.50005 0 00.5-.5v-2a.50005.50005 0 00-.5-.5h-.5c0-2.059-1.0494-3.9144-2.6836-5h1.8203a1 1 0 00.86328.5 1 1 0 001-1 1 1 0 00-1-1 1 1 0 00-.86328.5h-3.6367v-.5a.50005.50005 0 00-.5-.5zm.5 1h1v1h-1zm-5.5 7h1v1h-1zm11 0h1v1h-1z"/>
</svg>
