<svg width="17" height="17" version="1.1" viewBox="0 0 17 17" xmlns="http://www.w3.org/2000/svg">
    <path d="m7.5 3c-.27613 2.76e-5-.49997.22387-.5.5v.5h-4.1367c-.17814-.30855-.507-.49902-.86328-.5-.55228 0-1 .44772-1 1s.44772 1 1 1c.35628-.0009789.68514-.19145.86328-.5h2.1738c-1.7063 1.0762-2.8555 2.9154-3.0156 5h-.52148c-.27613 2.8e-5-.49997.22387-.5.5v2c2.76e-5.27613.22387.49997.5.5h2c.27613-2.8e-5.49997-.22387.5-.5v-2c-2.76e-5-.27613-.22387-.49997-.5-.5h-.47852c.20496-2.269 1.792-4.1738 3.9785-4.791v.29102c2.76e-5.27613.22387.49997.5.5h2c.27613-2.76e-5.49997-.22387.5-.5v-.28906c2.1861.61764 3.774 2.5196 3.9785 4.7891h-.47852c-.27613 2.8e-5-.49997.22387-.5.5v2c2.8e-5.27613.22387.49997.5.5h2c.27613-2.8e-5.49997-.22387.5-.5v-2c-2.8e-5-.27613-.22387-.49997-.5-.5h-.52148c-.16034-2.0839-1.3103-3.9238-3.0156-5h2.1738c.17814.30855.507.49902.86328.5.55228 0 1-.44772 1-1s-.44772-1-1-1c-.35628.0009789-.68514.19145-.86328.5h-4.1367v-.5c-2.76e-5-.27613-.22387-.49997-.5-.5h-2zm.5 1h1v1h-1v-1zm-6 7h1v1h-1v-1zm12 0h1v1h-1v-1z"/>
</svg>
