<svg width="16" height="16" version="1.1" viewBox="0 0 16 16" xmlns="http://www.w3.org/2000/svg">
    <g transform="translate(-107.74 -120.06)">
        <path d="m115.63 121.57c-2.4332.50968-4.3071 1.2718-5.5293 2.3672-1.2222 1.0954-1.7375 2.5856-1.3555 4.2344.12121.52305.50946.8727.93945 1.166s.94066.53954 1.4492.77344c.50856.23391 1.0148.45529 1.418.66992s.6913.44267.76367.55274c.4878.74182.42444 1.4558.50391 2.1914.0397.36782.12973.78818.46484 1.1016.33511.31338.81748.43164 1.4492.43164 1.95 0 3.2359-1.6587 4.3301-2.625.66651-.58867 1.3175-1.1174 1.8242-1.793.50667-.67553.8457-1.5128.8457-2.582 0-1.109-.35187-1.7969-.88476-2.2148-.5329-.41796-1.1155-.62331-1.8027-1.1738-.4626-.3706-1.1029-1.2012-1.8106-1.9141-.3538-.35643-.73084-.68921-1.1582-.92383-.42735-.23461-.93033-.37-1.4473-.26171zm.20507.97851c.23495-.0492.46998.001.75977.16016.28979.15909.61053.42847.92969.75.63831.64306 1.2466 1.4696 1.8965 1.9902.79975.64068 1.4652.90881 1.8106 1.1797.34536.27088.50195.48519.50195 1.4297 0 .8714-.23833 1.4408-.64453 1.9824s-1.0055 1.0422-1.6875 1.6445c-1.1979 1.058-2.3194 2.373-3.668 2.373-.50465 0-.69616-.0953-.76758-.16211-.0714-.0668-.12141-.1922-.15234-.47852-.0619-.57264.012-1.6077-.66211-2.6328-.26428-.4019-.67169-.64334-1.1289-.88672-.45721-.24338-.97559-.46759-1.4707-.69531s-.9663-.46192-1.3027-.69141-.50184-.44597-.5293-.56445c-.31327-1.3519.0394-2.3609 1.0488-3.2656 1.0094-.90471 2.731-1.6436 5.0664-2.1328z" color="#000000" style="-inkscape-stroke:none"/>
    </g>
</svg>
