<svg width="17" height="17" version="1.1" viewBox="0 0 17 17" xmlns="http://www.w3.org/2000/svg">
    <path d="m6.9609 2.1628c-.93235.21314-1.8264.61653-2.5898 1.0976-1.4293.90078-2.528 1.7352-3.1348 3.1348-.18745.43239-.23635.9234-.23633 1.375 1e-5.2258.0143.43865.043.6289.0287.19026.0547.34505.16016.53125.57766 1.0203 1.606 1.4309 2.5293 1.7812.92331.3504 1.7605.6603 2.2539 1.2754.24461.30495.31884.657.4375 1.1074.11866.45042.31515 1.0187.86914 1.418.47849.34487 1.0932.40783 1.7539.45703.66072.0492 1.2829.0489 1.7676-.1211 1.0936-.38361 1.6575-.96572 1.9668-1.5332s.40975-1.0319.72266-1.4082c.35853-.43119.94821-.87106 1.4805-1.3867.53225-.51566 1.043-1.1622 1.043-2.0195 0-.87272-.64891-1.4839-1.2949-1.9727-.646-.48875-1.3752-.90077-1.7773-1.2305-.45941-.37663-.85909-.98834-1.3203-1.5976-.46122-.60932-1.01-1.2394-1.8516-1.4941-.91866-.27816-1.8899-.25612-2.8223-.043zm.21289.99218c.80148-.18343 1.6103-.20657 2.3184.008.512.15502.91677.57654 1.3438 1.1406s.85011 1.2476 1.4844 1.7676c.52728.43226 1.2423.82545 1.8086 1.2539s.89843.84664.89843 1.1758c0 .45903-.27561.85253-.73828 1.3008-.46266.44824-1.0769.89454-1.5527 1.4668-.48103.57852-.60985 1.1572-.83399 1.5684-.22413.41122-.4975.74548-1.418 1.0684-.14446.0507-.78487.10948-1.3633.0664-.57841-.0431-1.1798-.2246-1.2422-.26953-.30114-.21705-.37924-.45484-.48633-.86133s-.21004-.96317-.625-1.4805c-.72278-.90103-1.7768-1.2413-2.6797-1.584-.90292-.34266-1.6357-.6668-2.0156-1.3379.0233.0412-.0196-.0586-.0391-.1875-.0194-.12892-.0332-.29994-.0332-.48047-2e-5-.36106.0626-.77147.15234-.97852.49084-1.1322 1.3612-1.8091 2.752-2.6855.67452-.4251 1.468-.76774 2.2695-.95118z"/>
</svg>
