<svg width="16" height="16" version="1.1" viewBox="0 0 16 16" xmlns="http://www.w3.org/2000/svg">
    <path d="m1.5 1c-.27613 2.76e-5-.49997.22387-.5.5v4c2.76e-5.27613.22387.49997.5.5h.5c.27614 0 .5-.22386.5-.5s-.22386-.5-.5-.5v-3h3v.015625c0 .27614.22386.48438.5.48438s.5-.22386.5-.5v-.5c-2.76e-5-.27613-.22387-.49997-.5-.5h-4zm3 3c-.27613 2.76e-5-.49997.22387-.5.5v7c2.76e-5.27613.22387.49997.5.5h7c.27613-2.8e-5.49997-.22387.5-.5v-7c-2.8e-5-.27613-.22387-.49997-.5-.5h-7zm.5 1h6v6h-6v-6zm9 5c-.27614 0-.50195.22386-.50195.5s.22386.5.5.5h.001953v3h-3v-.015625c0-.27614-.22386-.48438-.5-.48438s-.5.22386-.5.5v.5c2.8e-5.27613.22387.49997.5.5h4c.27613-2.8e-5.49997-.22387.5-.5v-4c-2.8e-5-.27613-.22387-.49997-.5-.5h-.5z"/>
</svg>
