<svg width="17" height="17" version="1.1" viewBox="0 0 17 17" xmlns="http://www.w3.org/2000/svg">
    <path d="m1.5 1c-.27613 2.76e-5-.49997.22387-.5.5v4c2.76e-5.27613.22387.49997.5.5h.5c.27614 0 .5-.22386.5-.5s-.22386-.5-.5-.5v-3h3v.015625c0 .27614.22386.48438.5.48438s.5-.22386.5-.5v-.5c-2.76e-5-.27613-.22387-.49997-.5-.5h-4zm3 3c-.27613 2.76e-5-.49997.22387-.5.5v8c2.76e-5.27613.22387.49997.5.5h8c.27613-2.8e-5.49997-.22387.5-.5v-8c-2.8e-5-.27613-.22387-.49997-.5-.5zm.5 1h7v7h-7zm10 6c-.27614 0-.50195.22386-.50195.5s.22386.5.5.5h.002v3h-3v-.01563c0-.27614-.22386-.48438-.5-.48438s-.5.22386-.5.5v.5c2.8e-5.27613.22387.49997.5.5h4c.27613-2.8e-5.49997-.22387.5-.5v-4c-2.8e-5-.27613-.22387-.49997-.5-.5h-.5z"/>
</svg>
