<svg width="17" height="17" version="1.1" viewBox="0 0 17 17" xml:space="preserve" xmlns="http://www.w3.org/2000/svg">
    <path d="m14.961 1.9512c-.053794.0001608-.10512.0045829-.15039.011719-.18107.028544-.33854.091732-.51172.17383-.34635.16419-.74379.41691-1.1953.73633-.90304.63883-2.0093 1.5424-3.0938 2.4688-2.017 1.7229-3.8796 3.4555-4.1406 3.6992-.22545.05549-.67795.18728-1.1523.44141-.6683.35801-1.4463 1.013-1.5703 2.0703-.12548 1.0694-.46031 1.6682-.73828 2.0039-.27797.33571-.44922.38867-.44922.38867a.50005.50005 0 00.13867.96094s.77122.07749 1.7031.0625 2.0164-.080861 2.8066-.53516c1.2711-.73076 1.8205-2.2644 1.9492-2.6777.21262-.22742 1.9717-2.1139 3.7129-4.1523.92637-1.0845 1.8319-2.1927 2.4707-3.0957.31942-.45152.57214-.84701.73633-1.1934.0821-.17317.14528-.3326.17383-.51367.02854-.18107.0197-.44905-.18555-.6543-.15393-.15393-.34253-.1958-.50391-.19531zm-.64258 1.3418c-.12135.20313-.21054.37663-.39453.63672-.60416.85402-1.4977 1.9506-2.4141 3.0234-.73685.86263-1.4129 1.6204-1.9844 2.2539l-1.1211-1.1211c.63352-.57152 1.3913-1.2475 2.2539-1.9844 1.0728-.91639 2.1694-1.808 3.0234-2.4121.26023-.18409.43352-.27511.63672-.39648zm-6.6562 5.4648 1.1914 1.1914c-.3595.39159-.65224.7069-.76172.82422l-1.2539-1.2539c.11732-.10948.43263-.40222.82422-.76172zm-1.7031 1.2969 1.5684 1.5684c-.0002961.000704.0002972.001246 0 .001953-.2084.49531-.71376 1.5366-1.418 1.9414-.4329.24887-1.4556.38837-2.3242.40234-.28171.0045-.28437-.009598-.51562-.017578.3642-.49604.74006-1.1645.87109-2.2812.073555-.62689.53069-1.0282 1.0469-1.3047.29682-.159.57697-.2547.77148-.31055z"/>
</svg>
