<svg width="17" height="17" version="1.1" viewBox="0 0 17 17" xmlns="http://www.w3.org/2000/svg">
 <path d="m4.5 2.9941a0.5 0.5 0 0 0-0.5 0.5v2a0.50005 0.50005 0 0 0 0.27734 0.44727l1.7227 0.86133v1.1973h-2.5a0.5 0.5 0 0 0-0.5 0.5 0.5 0.5 0 0 0 0.5 0.5h2.5v1.1914l-1.7227 0.86133a0.50005 0.50005 0 0 0-0.27734 0.44727v2a0.5 0.5 0 0 0 0.5 0.5 0.5 0.5 0 0 0 0.5-0.5v-1.6914l1.0195-0.50977c0.093695 0.77479 0.54509 1.4715 1.2305 1.8672 0.77281 0.44618 1.7272 0.44618 2.5 0 0.68367-0.39472 1.1352-1.0889 1.2305-1.8613l1.0195 0.50976v1.6914a0.5 0.5 0 0 0 0.5 0.5 0.5 0.5 0 0 0 0.5-0.5v-2a0.50005 0.50005 0 0 0-0.27734-0.44726l-1.7227-0.86133v-1.1973h2.5a0.5 0.5 0 0 0 0.5-0.5 0.5 0.5 0 0 0-0.5-0.5h-2.5v-1.1914l1.7227-0.86133a0.50005 0.50005 0 0 0 0.27734-0.44727v-2a0.5 0.5 0 0 0-0.5-0.5 0.5 0.5 0 0 0-0.5 0.5v1.6914l-1 0.5v-0.19141a0.5 0.5 0 0 0 0-0.0039062 0.5 0.5 0 0 0-0.001953-0.048828 0.5 0.5 0 0 0-0.49805-0.45312h-0.5v-0.49414a0.5 0.5 0 0 0 0-0.0058594 0.5 0.5 0 0 0-0.0019531-0.025391c-0.0089717-0.52529-0.29203-1.0102-0.74805-1.2734-0.46341-0.26755-1.0366-0.26755-1.5 0s-0.75 0.76373-0.75 1.2988a0.5 0.5 0 0 0 0 0.0019532 0.5 0.5 0 0 0 0 0.0039062v0.49414h-0.5a0.5 0.5 0 0 0-0.4043 0.21289 0.5 0.5 0 0 0-0.070312 0.13867 0.5 0.5 0 0 0-0.025391 0.14844 0.5 0.5 0 0 0 0 0.0039063 0.5 0.5 0 0 0 0 0.0019531v0.18555l-1-0.5v-1.6914a0.5 0.5 0 0 0-0.5-0.5zm3.9668 1.002c0.096772-0.0063083 0.19579 0.01594 0.2832 0.066406 0.15539 0.089717 0.25 0.25221 0.25 0.43164a0.5 0.5 0 0 0 0 0.0019532 0.5 0.5 0 0 0 0 0.0039062v0.49414h-1v-0.49414a0.5 0.5 0 0 0 0-0.0039062 0.5 0.5 0 0 0 0-0.0019532c0-0.17943 0.094606-0.34192 0.25-0.43164 0.067985-0.039251 0.14153-0.0615 0.2168-0.066406zm-1.4668 1.998h0.43555a0.5 0.5 0 0 0 0.064453 0.0058594 0.5 0.5 0 0 0 0.064453-0.0058594h1.8711a0.5 0.5 0 0 0 0.064453 0.0058594 0.5 0.5 0 0 0 0.064453-0.0058594h0.43555v5.0059c0 0.5367-0.28521 1.0305-0.75 1.2988s-1.0352 0.26835-1.5 0-0.75-0.76213-0.75-1.2988v-5.0059z"/>
</svg>
