<svg width="17" height="17" version="1.1" viewBox="0 0 17 17" xmlns="http://www.w3.org/2000/svg">
    <path d="m3.5 1c-.27613 2.76e-5-.49997.22387-.5.5v14c2.8e-5.27613.22387.49997.5.5h10c.27613-2.8e-5.49997-.22387.5-.5v-14c-2.8e-5-.27613-.22387-.49997-.5-.5h-10zm.5 1h9v13h-9v-13zm2.5 4a.5.5 0 00-.5.5v4a.5.5 0 00.017578.12695.5.5 0 00.0019531.007813.5.5 0 00.041016.099609.5.5 0 00.025391.039063.5.5 0 00.046875.0625.5.5 0 00.03125.03125.5.5 0 00.0625.046874.5.5 0 00.039062.025391.5.5 0 00.099609.041016.5.5 0 00.0058594.001953.5.5 0 00.0019531 0 .5.5 0 00.12695.017578h2a.5.5 0 00.5-.5.5.5 0 00-.5-.5h-1.5v-3.5a.5.5 0 00-.5-.5zm4 1a.5.49742 0 00-.5.49805.5.49742 0 00.5.49609.5.49742 0 00.5-.49609.5.49742 0 00-.5-.49805zm0 2a.5.5 0 00-.5.5v1a.5.5 0 00.5.5.5.5 0 00.5-.5v-1a.5.5 0 00-.5-.5z"/>
</svg>
