<svg width="17" height="17" version="1.1" viewBox="0 0 17 17" xmlns="http://www.w3.org/2000/svg">
    <path d="m8.5 1c-2.1519 0-4.087.90309-5.4534 2.3501l2.3982 4.156c.42062-1.286 1.6328-2.2203 3.0553-2.2203h6.7801c-1.2014-2.5366-3.7822-4.2857-6.7801-4.2857zm-6.1775 3.2415c-.83341 1.2087-1.3226 2.6762-1.3226 4.2585 0 3.5476 2.4525 6.5104 5.7568 7.2949l2.396-4.1496c-.21083.04386-.42951.06906-.65291.06906-1.1836 0-2.2212-.64889-2.7791-1.6071-.014177-.01526-.027454-.03132-.03976-.04813zm6.1775 2.1156c-1.1898 0-2.1429.95305-2.1429 2.1429s.95305 2.1429 2.1429 2.1429c.73496 0 1.3786-.36647 1.7641-.92494l.16322-.28041c.0028-.00352.0055-.00701.0084-.010467.13359-.28019.20717-.59405.20717-.92703 0-1.1898-.95305-2.1429-2.1429-2.1429zm2.3919 0c.51087.56953.82241 1.3216.82241 2.1429 0 .50183-.11731.97584-.32436 1.3999-.0093.025216-.0205.049701-.03348.073237l-.03139.054409c-.0248.04554-.05053.09184-.07743.13602l-3.3545 5.8092c.20053.016022.40213.027202.60686.027202 4.1485 0 7.5-3.3515 7.5-7.5 0-.74513-.11036-1.464-.31181-2.1429z"/>
</svg>
