<svg width="16" height="16" version="1.1" viewBox="0 0 16 16" xmlns="http://www.w3.org/2000/svg">
    <path d="m8 1c-2.0084 0-3.8145.84288-5.0898 2.1934l2.2383 3.8789c.39258-1.2003 1.5239-2.0723 2.8516-2.0723h6.3281c-1.1213-2.3675-3.53-4-6.3281-4zm-5.7656 3.0254c-.77785 1.1281-1.2344 2.4978-1.2344 3.9746 0 3.3111 2.289 6.0764 5.373 6.8086l2.2363-3.873c-.19677.04093-.40087.06445-.60938.06445-1.1047 0-2.0731-.60563-2.5938-1.5-.013232-.014237-.025623-.029236-.037109-.044919zm5.7656 1.9746c-1.1105 0-2 .88951-2 2s.88951 2 2 2c.68596 0 1.2867-.34204 1.6465-.86328l.15234-.26172c.00256-.00329.00517-.00654.00781-.00977.12468-.26151.19336-.55445.19336-.86523 0-1.1105-.88951-2-2-2zm2.2324 0c.47681.53156.76758 1.2335.76758 2 0 .46837-.10949.91078-.30273 1.3066-.0087.023538-.01913.046389-.03125.068359l-.0293.050781c-.02315.0425-.04715.085714-.07227.12695l-3.1309 5.4219c.18717.01495.37533.02539.56641.02539 3.8719 0 7-3.1281 7-7 0-.69545-.103-1.3664-.29102-2z"/>
</svg>
