<svg width="17" height="17" version="1.1" viewBox="0 0 17 17" xmlns="http://www.w3.org/2000/svg">
 <path d="m8.5 1c-4.1362 0-7.5 3.3638-7.5 7.5 0 4.1362 3.3638 7.5 7.5 7.5 1.3883 0 2.6887-0.38068 3.8047-1.041a0.50005 0.50005 0 0 0 0.19531 0.041016h2a0.50005 0.50005 0 0 0 0.5-0.5v-2a0.50005 0.50005 0 0 0-0.041016-0.19531c0.66032-1.1159 1.041-2.4164 1.041-3.8047 0-4.1362-3.3638-7.5-7.5-7.5zm0 1c3.5958 0 6.5 2.9042 6.5 6.5 0 1.2904-0.37744 2.4902-1.0234 3.5h-1.2695l-2.707-2.707v-1.793a0.50005 0.50005 0 0 0-0.5-0.5h-2a0.50005 0.50005 0 0 0-0.5 0.5v2a0.50005 0.50005 0 0 0 0.5 0.5h1.793l2.707 2.707v1.2734c-1.0097 0.64507-2.2104 1.0195-3.5 1.0195-3.5958 0-6.5-2.9042-6.5-6.5 0-3.5958 2.9042-6.5 6.5-6.5zm-0.5 6h1v1h-1v-1zm5 5h1v1h-1v-1z"/>
</svg>
