<svg width="16" height="16" version="1.1" viewBox="0 0 16 16" xmlns="http://www.w3.org/2000/svg">
    <path d="m10.035 3.502a.5.5 0 00-.48242.27539l-4 8a.5.5 0 00.22461.66992.5.5 0 00.66992-.22461l4-8a.5.5 0 00-.22461-.66992.5.5 0 00-.1875-.050781zm-6.0859 1a.5.5 0 00-.33789.18164l-2.4395 3a.50005.50005 0 000 .63281l2.4395 3a.5.5 0 00.70508.072266.5.5 0 00.072266-.70508l-2.1855-2.6836 2.1855-2.6836a.5.5 0 00-.072266-.70508.5.5 0 00-.36719-.10938zm8.0957 0a.5.5 0 00-.36523.11328.5.5 0 00-.064454.70508l2.2344 2.6797-2.2344 2.6797a.5.5 0 00.064454.70508.5.5 0 00.70508-.064454l2.5-3a.50005.50005 0 000-.64062l-2.5-3a.5.5 0 00-.33984-.17773z"/>
</svg>
