<svg width="17" height="17" version="1.1" viewBox="0 0 17 17" xmlns="http://www.w3.org/2000/svg">
    <path d="m9.9648 3.5a.5.5 0 00-.43945.3418l-3 9a.5.5 0 00.31641.63281.5.5 0 00.63281-.31641l3-9a.5.5 0 00-.31641-.63281.5.5 0 00-.19336-.025391zm-5.4648 1.5a.5.5 0 00-.35352.14648l-3 3a.50005.50005 0 000 .70703l3 3a.5.5 0 00.70703 0 .5.5 0 000-.70703l-2.6465-2.6465 2.6465-2.6465a.5.5 0 000-.70703.5.5 0 00-.35352-.14648zm7.9219.0058594a.5.5 0 00-.27539.14062.5.5 0 000 .70703l2.6465 2.6465-2.6465 2.6465a.5.5 0 000 .70703.5.5 0 00.70703 0l3-3a.50005.50005 0 000-.70703l-3-3a.5.5 0 00-.43164-.14062z"/>
</svg>
