<svg width="17" height="17" version="1.1" viewBox="0 0 17 17" xml:space="preserve" xmlns="http://www.w3.org/2000/svg"><path d="m4.5547 2c-0.18274-0.003716-0.36475 0.013377-0.54297 0.048828-0.47526 0.094536-0.92231 0.3266-1.2793 0.68359-0.71398 0.71398-0.92937 1.7918-0.54297 2.7246 0.3864 0.93286 1.3008 1.543 2.3105 1.543h1.5v3h-1.5c-1.0097 0-1.9241 0.61011-2.3105 1.543-0.1932 0.46643-0.23516 0.97005-0.14062 1.4453 0.094536 0.47526 0.3266 0.92231 0.68359 1.2793 0.71398 0.71398 1.7918 0.92937 2.7246 0.54297 0.93286-0.3864 1.543-1.3008 1.543-2.3105v-1.5h3v1.5c0 1.0097 0.61011 1.9241 1.543 2.3105 0.46643 0.1932 0.97005 0.23516 1.4453 0.14062 0.47526-0.09454 0.92231-0.3266 1.2793-0.68359 0.71398-0.71398 0.92937-1.7918 0.54297-2.7246-0.3864-0.93286-1.3008-1.543-2.3105-1.543h-1.5v-3h1.5c1.0097 0 1.9241-0.61011 2.3105-1.543 0.1932-0.46643 0.23516-0.97005 0.14062-1.4453-0.09454-0.47526-0.3266-0.92231-0.68359-1.2793-0.71398-0.71398-1.7918-0.92937-2.7246-0.54297-0.93286 0.3864-1.543 1.3008-1.543 2.3105v1.5h-3v-1.5c0-1.0097-0.61011-1.9241-1.543-2.3105-0.29152-0.12075-0.59777-0.18326-0.90234-0.18945zm-0.13086 1c0.21799-0.011241 0.4397 0.026011 0.65039 0.11328 0.56184 0.23272 0.92578 0.77859 0.92578 1.3867v1.5h-1.5c-0.60813 0-1.154-0.36394-1.3867-0.92578-0.23272-0.56184-0.10384-1.2048 0.32617-1.6348 0.26876-0.26876 0.62106-0.42072 0.98438-0.43945zm8.043 0c0.40136-0.0086798 0.79812 0.14382 1.0938 0.43945 0.43001 0.43001 0.55889 1.0729 0.32617 1.6348s-0.77859 0.92578-1.3867 0.92578h-1.5v-1.5c0-0.60813 0.36394-1.154 0.92578-1.3867 0.17557-0.072725 0.35858-0.10934 0.54102-0.11328zm-5.4668 4h3v3h-3v-3zm-2.5 4h1.5v1.5c0 0.60813-0.36394 1.154-0.92578 1.3867s-1.2048 0.10384-1.6348-0.32617c-0.43001-0.43001-0.55889-1.0729-0.32617-1.6348 0.23272-0.56184 0.77859-0.92578 1.3867-0.92578zm6.5 0h1.5c0.60813 0 1.154 0.36394 1.3867 0.92578 0.23272 0.56184 0.10384 1.2048-0.32617 1.6348-0.43001 0.43001-1.0729 0.55889-1.6348 0.32617-0.56184-0.23272-0.92578-0.77859-0.92578-1.3867v-1.5z"/></svg>
