<svg width="17" height="17" version="1.1" viewBox="0 0 17 17" xmlns="http://www.w3.org/2000/svg">
 <path d="m3.5 1a0.50005 0.50005 0 0 0-0.5 0.5v10a0.50005 0.50005 0 0 0 0.5 0.5h0.5a0.5 0.5 0 0 0 0.5-0.5 0.5 0.5 0 0 0-0.5-0.5v-9h6v1a0.5 0.5 0 0 0 0.5 0.5 0.5 0.5 0 0 0 0.5-0.5v-1.5a0.50005 0.50005 0 0 0-0.5-0.5h-7zm3 4a0.50005 0.50005 0 0 0-0.5 0.5v10a0.50005 0.50005 0 0 0 0.5 0.5h7a0.50005 0.50005 0 0 0 0.5-0.5v-10a0.50005 0.50005 0 0 0-0.5-0.5h-7zm0.5 1h6v9h-6v-9zm1.5 2a0.5 0.5 0 0 0-0.5 0.5 0.5 0.5 0 0 0 0.5 0.5h3a0.5 0.5 0 0 0 0.5-0.5 0.5 0.5 0 0 0-0.5-0.5h-3zm0 2a0.5 0.5 0 0 0-0.5 0.5 0.5 0.5 0 0 0 0.5 0.5h3a0.5 0.5 0 0 0 0.5-0.5 0.5 0.5 0 0 0-0.5-0.5h-3zm0 2a0.5 0.5 0 0 0-0.5 0.5 0.5 0.5 0 0 0 0.5 0.5h3a0.5 0.5 0 0 0 0.5-0.5 0.5 0.5 0 0 0-0.5-0.5h-3z"/>
</svg>
