<svg width="17" height="17" version="1.1" viewBox="0 0 17 17" xmlns="http://www.w3.org/2000/svg">
 <path d="m4.9277 2.5059a0.5 0.5 0 0 0-0.18359 0.064453 0.5 0.5 0 0 0-0.17383 0.68555l3.3516 5.623-1.3145 2.209c-0.19038-0.060749-0.39192-0.09375-0.60156-0.09375-1.0986 0-2 0.90136-2 2s0.90136 2 2 2 2-0.90136 2-2c0-0.5302-0.21007-1.0139-0.55078-1.373l1.0488-1.7637 1.0508 1.7617c-0.3396 0.35897-0.54883 0.84188-0.54883 1.3711 0 1.0986 0.90136 2 2 2 1.0986 0 2-0.90136 2-2s-0.90136-2-2-2c-0.21093 0-0.41406 0.032283-0.60547 0.09375l-1.3145-2.2051 3.3438-5.623a0.5 0.5 0 0 0-0.17383-0.68555 0.5 0.5 0 0 0-0.68555 0.17383l-3.0664 5.1562-3.0742-5.1562a0.5 0.5 0 0 0-0.30664-0.22852 0.5 0.5 0 0 0-0.19531-0.0097656zm6.0781 9.4844c0.55821 0 1 0.4418 1 1 0 0.55821-0.44179 1-1 1-0.5582 0-1-0.44179-1-1 0-0.35352 0.17747-0.65845 0.44922-0.83594a0.5 0.5 0 0 0 0.013672-0.009766c0.15454-0.097309 0.33838-0.1543 0.53711-0.1543zm-5 0.003907c0.20028 0 0.38574 0.057535 0.54102 0.15625a0.5 0.5 0 0 0 0.0078125 0.007812 0.5 0.5 0 0 0 0.0097656 0.003906c0.0011823 7.87e-4 0.0027277 0.001162 0.0039063 0.001953 0.26571 0.17849 0.4375 0.4812 0.4375 0.83008 0 0.5582-0.44179 1-1 1-0.55821 0-1-0.4418-1-1 0-0.55821 0.44179-1 1-1z"/>
</svg>
