<svg width="17" height="17" version="1.1" viewBox="0 0 17 17" xmlns="http://www.w3.org/2000/svg">
    <path d="m11.906 1.8867c-.33031-.00807-.61499.32747-.47852.68164.37824.97663.57327 2.0152.57422 3.0625-.0049 4.1771-3.0352 7.7247-7.1602 8.3828-.46022.07342-.57864.68098-.17969.92188 1.1576.69482 2.4819 1.0653 3.832 1.0703h.0019532c4.1362 0 7.5-3.3638 7.5-7.5-.000974-2.7224-1.4793-5.233-3.8594-6.5547-.07661-.042456-.15424-.062592-.23047-.064453zm-7.4102.11328a.49753.49753 0 00-.49609.49805l.0019531.50586-.50586.0019532a.49753.49753 0 00-.49609.49805.49753.49753 0 00.49805.49609l.50586-.0019531.0019532.50586a.49753.49753 0 00.49805.49609.49753.49753 0 00.49609-.49805l-.0019531-.50586.50586-.0019532a.49753.49753 0 00.49609-.49805.49753.49753 0 00-.49805-.49609l-.50586.0019531-.0019532-.50586a.49753.49753 0 00-.49805-.49609zm8.2832 1.6094c1.3648 1.2177 2.2161 3.0224 2.2168 4.8965 0 3.5951-2.9033 6.4989-6.498 6.5-.68901-.0026-1.4121-.1252-2.0605-.33984 3.9014-1.319 6.5596-4.9381 6.5645-9.0352-.000563-.62274-.1013-1.4134-.22266-2.0215zm-4.2832 1.3906a.49753.49753 0 00-.49609.49805l.0019531.50586-.50586.0019532a.49753.49753 0 00-.49609.49805.49753.49753 0 00.49805.49609l.50586-.0019531.0019532.50586a.49753.49753 0 00.49805.49609.49753.49753 0 00.49609-.49805l-.0019531-.50586.50586-.0019532a.49753.49753 0 00.49609-.49805.49753.49753 0 00-.49805-.49609l-.50586.0019531-.0019532-.50586a.49753.49753 0 00-.49805-.49609zm-5 4a.49753.49753 0 00-.49609.49805l.0019531.50586-.50586.001953a.49753.49753 0 00-.49609.49805.49753.49753 0 00.49805.49609l.50586-.001953.0019532.50586a.49753.49753 0 00.49805.49609.49753.49753 0 00.49609-.49805l-.0019531-.50586.50586-.001953a.49753.49753 0 00.49609-.49805.49753.49753 0 00-.49805-.49609l-.50586.001953-.0019532-.50586a.49753.49753 0 00-.49805-.49609z"/>
</svg>
