<svg width="17" height="17" version="1.1" viewBox="0 0 17 17" xmlns="http://www.w3.org/2000/svg">
 <path d="m6.5 1a0.50005 0.50005 0 0 0-0.5 0.5v1.5h-2.5a0.50005 0.50005 0 0 0-0.5 0.5v2a0.50005 0.50005 0 0 0 0.5 0.5h0.5v9.5a0.50005 0.50005 0 0 0 0.5 0.5h8a0.50005 0.50005 0 0 0 0.5-0.5v-9.5h0.5a0.50005 0.50005 0 0 0 0.5-0.5v-2a0.50005 0.50005 0 0 0-0.5-0.5h-2.5v-1.5a0.50005 0.50005 0 0 0-0.5-0.5h-4zm0.5 1h3v1h-3v-1zm-3 2h9v1h-9v-1zm1 2h7v9h-7v-9zm1.5 1.5a0.5 0.5 0 0 0-0.5 0.5v5a0.5 0.5 0 0 0 0.5 0.5 0.5 0.5 0 0 0 0.5-0.5v-5a0.5 0.5 0 0 0-0.5-0.5zm2 0a0.5 0.5 0 0 0-0.5 0.5v5a0.5 0.5 0 0 0 0.5 0.5 0.5 0.5 0 0 0 0.5-0.5v-5a0.5 0.5 0 0 0-0.5-0.5zm2 0a0.5 0.5 0 0 0-0.5 0.5v5a0.5 0.5 0 0 0 0.5 0.5 0.5 0.5 0 0 0 0.5-0.5v-5a0.5 0.5 0 0 0-0.5-0.5z"/>
</svg>
