<svg width="17" height="17" version="1.1" viewBox="0 0 17 17" xmlns="http://www.w3.org/2000/svg">
 <path d="m3.5 3a0.50005 0.50005 0 0 0-0.5 0.5v4a0.50005 0.50005 0 0 0 0.5 0.5h4a0.50005 0.50005 0 0 0 0.5-0.5v-4a0.50005 0.50005 0 0 0-0.5-0.5h-4zm6 0a0.50005 0.50005 0 0 0-0.5 0.5v4a0.50005 0.50005 0 0 0 0.5 0.5h4a0.50005 0.50005 0 0 0 0.5-0.5v-4a0.50005 0.50005 0 0 0-0.5-0.5h-4zm-5.5 1h3v3h-3v-3zm6 0h3v3h-3v-3zm-6.5 5a0.50005 0.50005 0 0 0-0.5 0.5v4a0.50005 0.50005 0 0 0 0.5 0.5h4a0.50005 0.50005 0 0 0 0.5-0.5v-4a0.50005 0.50005 0 0 0-0.5-0.5h-4zm5.9219 0.0058594a0.5 0.5 0 0 0-0.27539 0.14062 0.5 0.5 0 0 0 0 0.70703l1.6465 1.6465-1.6465 1.6465a0.5 0.5 0 0 0 0 0.70703 0.5 0.5 0 0 0 0.70703 0l1.6465-1.6465 1.6465 1.6465a0.5 0.5 0 0 0 0.70703 0 0.5 0.5 0 0 0 0-0.70703l-1.6465-1.6465 1.6465-1.6465a0.5 0.5 0 0 0 0-0.70703 0.5 0.5 0 0 0-0.70703 0l-1.6465 1.6465-1.6465-1.6465a0.5 0.5 0 0 0-0.43164-0.14062zm-5.4219 0.99414h3v3h-3v-3z"/>
</svg>
