<svg width="16" height="16" version="1.1" viewBox="0 0 16 16" xmlns="http://www.w3.org/2000/svg">
    <path d="m11 4.6986v-3.1986c-2.8e-5-.27613-.22387-.49997-.5-.5h-9c-.27613 2.76e-5-.49997.22387-.5.5v9c2.76e-5.27613.22387.49997.5.5h3.4443l-.1051-1h-2.8392v-8h8v2.5056z" color="#000000" stroke-linecap="round" stroke-linejoin="round" style="-inkscape-stroke:none"/>
    <path d="m9.5 4c-3.0316 0-5.5 2.4684-5.5 5.5 0 3.0316 2.4684 5.5 5.5 5.5 3.0316 0 5.5-2.4684 5.5-5.5 0-3.0316-2.4684-5.5-5.5-5.5zm0 1c2.4912 0 4.5 2.0088 4.5 4.5 0 2.4912-2.0088 4.5-4.5 4.5-2.4912 0-4.5-2.0088-4.5-4.5 0-2.4912 2.0088-4.5 4.5-4.5z" color="#000000" stroke-linecap="round" stroke-linejoin="round" style="-inkscape-stroke:none"/>
    <path d="m3 2v1h1v-1h-1zm1 1v1h1v-1h-1zm1 0h1v-1h-1v1zm1 0v1h1v-1h-1zm1 0h1v-1h-1v1zm1 0v1h1v-1h-1zm1 0h1v-1h-1v1zm0 1v1h1v-1h-1zm-1 0h-1v1h1v-1zm-1 1h-1v1l.57812-.29883.42188-.70117zm-1 1h-1v1l.50781-.42383.49219-.57617zm-1 1h-1v1h1v-1zm-1 1h-1v1h1v-1zm0 1v1h1v-1h-1zm-1 0h-1v1h1v-1zm0-1v-1h-1v1h1zm0-1h1v-1h-1v1zm0-1v-1h-1v1h1zm0-1h1v-1h-1v1zm0-1v-1h-1v1h1zm1 1v1h1v-1h-1zm1 0h1v-1h-1v1z" color="#000000" stroke-dasharray="1, 2" stroke-linecap="round" stroke-linejoin="round" style="-inkscape-stroke:none"/>
</svg>
