<svg width="16" height="16" version="1.1" viewBox="0 0 16 16" xmlns="http://www.w3.org/2000/svg">
    <path d="m1.5 1a.50005.50005 0 00-.5.5v8a.50005.50005 0 00.5.5h3.5c0 2.7555 2.2445 5.002 5 5.002s5-2.2464 5-5.002c0-2.7555-2.2445-5-5-5v-3.5a.50005.50005 0 00-.5-.5h-8zm.5 1h1v1h1v-1h1v1h1v-1h1v1h1v-1h1v1h-1v1h1v1h-1v.42383c-1.1492.50446-2.0757 1.4265-2.5801 2.5762h-.41992v1h-1v-1h-1v1h-1v-1h1v-1h-1v-1h1v-1h-1v-1h1v-1h-1v-1zm1 2v1h1v-1h-1zm1 0h1v-1h-1v1zm1 0v1h1v-1h-1zm1 0h1v-1h-1v1zm1 0v1h1v-1h-1zm0 1h-1v1h1v-1zm-1 1h-1v1h1v-1zm-1 1h-1v1h1v-1zm-1 0v-1h-1v1h1zm0-1h1v-1h-1v1zm6 0c2.2151-1e-5 4 1.7849 4 4s-1.7849 4.002-4 4.002-4-1.7869-4-4.002 1.7849-4 4-4z"/>
</svg>
