<svg width="17" height="17" version="1.1" viewBox="0 0 17 17" xmlns="http://www.w3.org/2000/svg">
  <path d="M 1.5 1 A 0.50005 0.50005 0 0 0 1 1.5 L 1 10.5 A 0.50005 0.50005 0 0 0 1.5 11 L 10.5 11 A 0.50005 0.50005 0 0 0 11 10.5 L 11 1.5 A 0.50005 0.50005 0 0 0 10.5 1 L 1.5 1 z M 2 2 L 10 2 L 10 4 C 6.6922204 4 4 6.6922204 4 10 L 2 10 L 2 2 z M 12.433594 4.5605469 A 0.5 0.5 0 0 0 11.947266 4.8320312 A 0.5 0.5 0 0 0 12.164062 5.5039062 L 12.361328 5.6054688 L 12.544922 5.7109375 L 12.720703 5.8203125 L 12.890625 5.9375 L 12.947266 5.9785156 A 0.5 0.5 0 0 0 13.646484 5.8769531 A 0.5 0.5 0 0 0 13.544922 5.1777344 L 13.480469 5.1289062 A 0.50005 0.50005 0 0 0 13.464844 5.1191406 L 13.277344 4.9882812 A 0.50005 0.50005 0 0 0 13.257812 4.9785156 L 13.064453 4.8554688 A 0.50005 0.50005 0 0 0 13.046875 4.8457031 L 12.845703 4.7304688 A 0.50005 0.50005 0 0 0 12.826172 4.7207031 L 12.621094 4.6152344 A 0.5 0.5 0 0 0 12.433594 4.5605469 z M 10 5 L 10 10 L 5 10 C 5 7.2326595 7.2326595 5 10 5 z M 15.0625 7.4140625 A 0.5 0.5 0 0 0 14.873047 7.453125 A 0.5 0.5 0 0 0 14.607422 8.109375 L 14.621094 8.1386719 L 14.693359 8.3261719 L 14.757812 8.5175781 L 14.8125 8.7128906 L 14.861328 8.9082031 L 14.873047 8.9667969 A 0.5 0.5 0 0 0 15.462891 9.3574219 A 0.5 0.5 0 0 0 15.851562 8.7675781 L 15.837891 8.6992188 A 0.50005 0.50005 0 0 0 15.833984 8.6796875 L 15.78125 8.4628906 A 0.50005 0.50005 0 0 0 15.777344 8.4433594 L 15.714844 8.2324219 A 0.50005 0.50005 0 0 0 15.708984 8.2109375 L 15.638672 8 A 0.50005 0.50005 0 0 0 15.632812 7.9804688 L 15.552734 7.7753906 A 0.50005 0.50005 0 0 0 15.544922 7.7558594 L 15.527344 7.7167969 A 0.5 0.5 0 0 0 15.0625 7.4140625 z M 15.144531 11.324219 A 0.5 0.5 0 0 0 14.699219 11.658203 L 14.664062 11.761719 L 14.587891 11.953125 L 14.503906 12.138672 L 14.412109 12.324219 L 14.318359 12.492188 A 0.5 0.5 0 0 0 14.517578 13.171875 A 0.5 0.5 0 0 0 15.195312 12.974609 L 15.292969 12.796875 A 0.50005 0.50005 0 0 0 15.304688 12.777344 L 15.404297 12.578125 A 0.50005 0.50005 0 0 0 15.412109 12.558594 L 15.503906 12.351562 A 0.50005 0.50005 0 0 0 15.511719 12.332031 L 15.597656 12.121094 A 0.50005 0.50005 0 0 0 15.603516 12.101562 L 15.642578 11.988281 A 0.5 0.5 0 0 0 15.337891 11.351562 A 0.5 0.5 0 0 0 15.144531 11.324219 z M 4.9882812 11.849609 A 0.5 0.5 0 0 0 4.7988281 11.896484 A 0.5 0.5 0 0 0 4.5566406 12.560547 L 4.5957031 12.646484 A 0.50005 0.50005 0 0 0 4.6054688 12.666016 L 4.7089844 12.867188 A 0.50005 0.50005 0 0 0 4.71875 12.886719 L 4.8320312 13.082031 A 0.50005 0.50005 0 0 0 4.84375 13.099609 L 4.9648438 13.292969 A 0.50005 0.50005 0 0 0 4.9746094 13.310547 L 5.1015625 13.494141 A 0.5 0.5 0 0 0 5.796875 13.623047 A 0.5 0.5 0 0 0 5.9257812 12.927734 L 5.8027344 12.751953 L 5.6953125 12.578125 L 5.59375 12.398438 L 5.4980469 12.214844 L 5.4609375 12.138672 A 0.5 0.5 0 0 0 4.9882812 11.849609 z M 12.59375 14.316406 A 0.5 0.5 0 0 0 12.408203 14.375 L 12.304688 14.433594 L 12.123047 14.523438 L 11.935547 14.607422 L 11.748047 14.681641 L 11.568359 14.746094 A 0.5 0.5 0 0 0 11.265625 15.384766 A 0.5 0.5 0 0 0 11.902344 15.6875 L 12.091797 15.621094 A 0.50005 0.50005 0 0 0 12.109375 15.615234 L 12.318359 15.53125 A 0.50005 0.50005 0 0 0 12.337891 15.523438 L 12.541016 15.431641 A 0.50005 0.50005 0 0 0 12.558594 15.421875 L 12.757812 15.324219 A 0.50005 0.50005 0 0 0 12.777344 15.314453 L 12.888672 15.251953 A 0.5 0.5 0 0 0 13.085938 14.572266 A 0.5 0.5 0 0 0 12.59375 14.316406 z M 7.8320312 14.5625 A 0.5 0.5 0 0 0 7.3652344 14.867188 A 0.5 0.5 0 0 0 7.6308594 15.523438 L 7.7324219 15.564453 A 0.50005 0.50005 0 0 0 7.75 15.574219 L 7.9589844 15.652344 A 0.50005 0.50005 0 0 0 7.9765625 15.658203 L 8.1894531 15.730469 A 0.50005 0.50005 0 0 0 8.2070312 15.734375 L 8.421875 15.796875 A 0.50005 0.50005 0 0 0 8.4433594 15.802734 L 8.65625 15.855469 A 0.5 0.5 0 0 0 9.2617188 15.490234 A 0.5 0.5 0 0 0 8.8964844 14.884766 L 8.6894531 14.833984 L 8.4960938 14.777344 L 8.3027344 14.712891 L 8.1132812 14.642578 L 8.0234375 14.601562 A 0.5 0.5 0 0 0 7.8320312 14.5625 z"/>
</svg>
