<svg width="17" height="17" version="1.1" viewBox="0 0 17 17" xmlns="http://www.w3.org/2000/svg">
 <path d="m1.5 1.0078a0.50005 0.50005 0 0 0-0.5 0.5v9a0.50005 0.50005 0 0 0 0.5 0.5h4.5v0.49219a0.5 0.5 0 0 0 0.5 0.5 0.5 0.5 0 0 0 0.5-0.5v-0.49219h2.5078 0.99219a0.50005 0.50005 0 0 0 0.12891-0.017578 0.50005 0.50005 0 0 0 0.12109-0.048828 0.50005 0.50005 0 0 0 0.25-0.43359v-0.007812-3-1-4.9922a0.50005 0.50005 0 0 0-0.5-0.5h-9zm0.5 1h8v3.9922h-3.5a0.50005 0.50005 0 0 0-0.5 0.5v3.5078h-4v-8zm11.5 3.9922a0.5 0.5 0 0 0-0.5 0.5 0.5 0.5 0 0 0 0.5 0.5h1a0.5 0.5 0 0 0 0.5-0.5 0.5 0.5 0 0 0-0.5-0.5h-1zm-6.5 1h3v0.5 2.5078h-0.49609-2.5039v-3.0078zm8.5 1a0.5 0.5 0 0 0-0.5 0.5v1a0.5 0.5 0 0 0 0.5 0.5 0.5 0.5 0 0 0 0.5-0.5v-1a0.5 0.5 0 0 0-0.5-0.5zm0 4a0.5 0.5 0 0 0-0.5 0.5v1a0.5 0.5 0 0 0 0.5 0.5 0.5 0.5 0 0 0 0.5-0.5v-1a0.5 0.5 0 0 0-0.5-0.5zm-9 2a0.5 0.5 0 0 0-0.5 0.5v1a0.5 0.5 0 0 0 0.5 0.5 0.5 0.5 0 0 0 0.5-0.5v-1a0.5 0.5 0 0 0-0.5-0.5zm3 1a0.5 0.5 0 0 0-0.5 0.5 0.5 0.5 0 0 0 0.5 0.5h1a0.5 0.5 0 0 0 0.5-0.5 0.5 0.5 0 0 0-0.5-0.5h-1zm4 0a0.5 0.5 0 0 0-0.5 0.5 0.5 0.5 0 0 0 0.5 0.5h1a0.5 0.5 0 0 0 0.5-0.5 0.5 0.5 0 0 0-0.5-0.5h-1z"/>
</svg>
