<svg width="17" height="17" version="1.1" viewBox="0 0 17 17" xmlns="http://www.w3.org/2000/svg">
  <path d="M 1.5 1 A 0.50005 0.50005 0 0 0 1 1.5 L 1 10.5 A 0.50005 0.50005 0 0 0 1.5 11 L 4.0839844 11 C 4.5618914 13.833338 7.0330876 16 10 16 C 13.30778 16 16 13.30778 16 10 C 16 7.0330876 13.833338 4.5618914 11 4.0839844 L 11 1.5 A 0.50005 0.50005 0 0 0 10.5 1 L 1.5 1 z M 2 2 L 10 2 L 10 4 C 6.6922204 4 4 6.6922204 4 10 L 2 10 L 2 2 z M 10 5 L 10 10 L 5 10 C 5 7.2326595 7.2326595 5 10 5 z M 11 5.0996094 C 13.286115 5.5610428 15 7.5751347 15 10 C 15 12.76734 12.76734 15 10 15 C 7.5751347 15 5.5610428 13.286115 5.0996094 11 L 10.5 11 A 0.50005 0.50005 0 0 0 11 10.5 L 11 5.0996094 z " />
</svg>
