<svg width="17" height="17" version="1.1" viewBox="0 0 17 17" xml:space="preserve" xmlns="http://www.w3.org/2000/svg"><path d="m8.5 4a0.5 0.5 0 0 0-0.5 0.5l-0.0039062 5.7891-1.1426-1.1426a0.5 0.5 0 0 0-0.35352-0.14648 0.5 0.5 0 0 0-0.35352 0.14648 0.5 0.5 0 0 0 0 0.70703l1.9551 1.9551a0.50005 0.50005 0 0 0 0.019531 0.019531l0.025391 0.025391a0.5 0.5 0 0 0 0.03125 0.023437 0.50005 0.50005 0 0 0 0.095703 0.066406 0.5 0.5 0 0 0 0.082031 0.033203 0.50005 0.50005 0 0 0 0.060547 0.013672 0.5 0.5 0 0 0 0.13477 0.00586 0.5 0.5 0 0 0 0.16016-0.044922 0.5 0.5 0 0 0 0.14258-0.097656 0.5 0.5 0 0 0 0.044922-0.050782l1.9551-1.9492a0.5 0.5 0 0 0 0-0.70703 0.5 0.5 0 0 0-0.70703 0l-1.1504 1.1484 0.0039062-5.7949a0.5 0.5 0 0 0-0.5-0.5zm5 7.4961a0.5 0.5 0 0 0-0.5 0.5v2.0039h-9v-1.9961a0.5 0.5 0 0 0-0.5-0.5 0.5 0.5 0 0 0-0.5 0.5v2.4961a0.50005 0.50005 0 0 0 0.5 0.5h10a0.50005 0.50005 0 0 0 0.5-0.5v-2.5039a0.5 0.5 0 0 0-0.5-0.5z"/></svg>
