<svg width="17" height="17" version="1.1" viewBox="0 0 17 17" xmlns="http://www.w3.org/2000/svg">
 <path d="m8.5 1c-4.1362 0-7.5 3.3638-7.5 7.5 0 0.76428 0.11673 1.5021 0.33008 2.1973 0.94128 3.0671 3.798 5.3027 7.1699 5.3027 3.3719 0 6.2286-2.2356 7.1699-5.3027 0.21335-0.69519 0.33008-1.433 0.33008-2.1973 0-4.1362-3.3638-7.5-7.5-7.5zm-0.5 1.1016v3.9043h-2.2578c0.1704-0.85208 0.42136-1.6142 0.73047-2.2324 0.44845-0.8969 0.98791-1.4564 1.5273-1.6719zm1 0c0.53943 0.21543 1.0789 0.77498 1.5273 1.6719 0.3091 0.61821 0.56007 1.3803 0.73047 2.2324h-2.2578v-3.9043zm-2.9004 0.35742c-0.19004 0.26445-0.36504 0.5543-0.52148 0.86719-0.38186 0.76373-0.67575 1.6748-0.85938 2.6797h-2.2246c0.67059-1.6174 1.9756-2.9004 3.6055-3.5469zm4.8008 0c1.6299 0.64645 2.9349 1.9295 3.6055 3.5469h-2.2246v-0.0019532c-0.18363-1.0049-0.47751-1.914-0.85938-2.6777-0.15645-0.31289-0.33145-0.60273-0.52148-0.86719zm-8.7266 4.5469h2.4023c-0.050287 0.48314-0.076172 0.98219-0.076172 1.4941 0 0.51614 0.027028 1.019 0.078125 1.5059h-2.4023c-0.11414-0.48312-0.17578-0.98735-0.17578-1.5059 0-0.51439 0.06144-1.0145 0.17383-1.4941zm3.4102 0h2.416v3h-2.4141c-0.055598-0.48379-0.085938-0.98714-0.085938-1.5059 0-0.51451 0.029255-1.0139 0.083984-1.4941zm3.416 0h2.416c0.054729 0.4802 0.083984 0.97963 0.083984 1.4941 0 0.51872-0.03034 1.0221-0.085938 1.5059h-2.4141v-3zm3.4238 0h2.4023c0.11239 0.47961 0.17383 0.97975 0.17383 1.4941 0 0.51851-0.061637 1.0227-0.17578 1.5059h-2.4023c0.051097-0.48682 0.078125-0.98972 0.078125-1.5059 0-0.51195-0.025885-1.011-0.076172-1.4941zm-9.9238 4h2.2207c0.18374 1.001 0.47681 1.9067 0.85742 2.668 0.15645 0.31289 0.33145 0.60273 0.52148 0.86719-1.6259-0.64486-2.9276-1.9234-3.5996-3.5352zm3.2441 0h2.2559v3.8926c-0.53943-0.21543-1.0789-0.77498-1.5273-1.6719-0.30771-0.61542-0.55815-1.3733-0.72852-2.2207zm3.2559 0h2.2559c-0.17037 0.8474-0.42081 1.6053-0.72852 2.2207-0.44845 0.8969-0.98791 1.4564-1.5273 1.6719v-3.8926zm3.2793 0h2.2207c-0.67205 1.6118-1.9737 2.8903-3.5996 3.5352 0.19004-0.26445 0.36504-0.5543 0.52148-0.86719 0.38062-0.76123 0.67368-1.667 0.85742-2.668z"/>
</svg>
