<svg width="16" height="16" version="1.1" viewBox="0 0 16 16" xmlns="http://www.w3.org/2000/svg">
    <path d="m5.571 9.3169c0 .33706.05034.64347.15321.91924.10943.27139.2517.51434.43336.72664.18166.21231.39397.39397.64347.54717.24076.15321.50339.28016.78354.37865.27796.10068.56906.17509.86453.22325.29985.04815.59094.07224.88641.07224.37208 0 .71789-.02846 1.0462-.08754.3283-.06128.64785-.14227.96302-.24513.31517-.10286.6194-.22543.92363-.36551.30641-.14008.6172-.29328.93675-.464v2.9679c-.35675.17509-.70695.32174-1.0571.44868-.35018.12256-.70038.2298-1.0571.31516-.35675.08754-.71789.15321-1.0878.1926-.36989.03941-.74852.06128-1.1425.06128-.52529 0-1.0331-.06128-1.5211-.18166-.48807-.12038-.94551-.2933-1.3745-.52092-.42899-.22762-.82076-.5034-1.1775-.82731-.35894-.32392-.66317-.68944-.91924-1.0943-.25608-.40491-.45305-.84921-.59532-1.3263-.13789-.47713-.20792-.98491-.20792-1.5233 0-.57563.078792-1.1228.23637-1.6459.15977-.52529.3852-1.0024.68287-1.4401.29547-.43774.65661-.82732 1.0834-1.1666.42679-.33924.90612-.6172 1.4401-.8317-.2911.2911-.51872.63471-.67849 1.0352-.16415.39834-.26702.79887-.31298 1.1994h4.9858c0-.50339-.05034-.94113-.15321-1.3175-.10287-.37646-.26702-.68944-.49683-.93675-.22762-.24951-.5209-.43774-.88204-.5603-.36113-.12475-.79668-.18823-1.3067-.18823-.60188 0-1.2038.087547-1.8056.26921-.60188.17509-1.1731.42679-1.7159.74415-.5428.32173-1.0418.70038-1.4971 1.1337-.45525.43774-.83827.9083-1.1491 1.4182.06566-.59094.19698-1.16.37864-1.7006.18166-.54064.42242-1.044.71132-1.5101.2889-.45962.62816-.87985 1.0155-1.2563.3874-.37646.81637-.70038 1.2913-.96302.47494-.26264.97834-.47494 1.5255-.6172.54717-.12475 1.1294-.19917 1.7422-.19917.35894 0 .7157.03283 1.0724.096302.35675.06566.70475.15321 1.044.26702.67411.232 1.276.55592 1.8056.9674.52966.41585.97397.88861 1.3352 1.4292.36113.5406.63471 1.1381.82294 1.7881.18823.65004.28453 1.3263.28453 2.0289v1.74z"/>
</svg>
