<svg width="17" height="17" version="1.1" viewBox="0 0 17 17" xmlns="http://www.w3.org/2000/svg">
    <path d="m5.8598 9.9062c0 .36094.053907.68906.16407.98437.11718.29062.26953.55078.46406.77812.19453.22735.42188.42188.68906.58594.25782.16406.53906.30001.83906.40548.29765.10781.60938.1875.92578.23907.3211.05156.63281.07736.94922.07736.39844 0 .76876-.03048 1.1203-.09374.35156-.06562.69375-.15235 1.0313-.2625.3375-.11015.66329-.2414.98907-.39141.32812-.15.66093-.31406 1.0031-.49688v3.1782c-.38203.1875-.75704.34454-1.132.48047-.37499.13124-.75.24608-1.132.33749-.38203.09374-.76876.16406-1.1649.20625-.3961.042198-.80155.065618-1.2234.065618-.56251 0-1.1063-.065622-1.6289-.19453-.52265-.12891-1.0125-.31408-1.4719-.55783-.45939-.24375-.87891-.53907-1.2609-.88593-.38437-.34687-.71016-.73829-.98437-1.1718-.27422-.4336-.48515-.90938-.6375-1.4203-.14766-.51094-.22265-1.0547-.22265-1.6312 0-.61642.084375-1.2024.25312-1.7625.17109-.56251.41249-1.0734.73125-1.5421.3164-.46876.70313-.88594 1.1602-1.2493.45703-.36328.97032-.66093 1.5421-.89063-.31173.31173-.55547.67968-.72656 1.1085-.17578.42656-.28594.85547-.33516 1.2844h5.3391c0-.53906-.05391-1.0078-.16406-1.4108-.11016-.40313-.28594-.73829-.53203-1.0031-.24375-.26719-.55781-.46876-.94454-.6-.38672-.13359-.85313-.20157-1.3993-.20157-.64453 0-1.2891.09375-1.9335.28828-.64453.1875-1.2562.45703-1.8375.79688-.58126.34453-1.1156.75-1.6032 1.214-.48751.46876-.89766.97266-1.2305 1.5187.070312-.63281.21094-1.2422.40547-1.8211.19453-.57895.45235-1.118.76172-1.6171.30937-.49219.67267-.94219 1.0875-1.3453.41485-.40313.87421-.75 1.3828-1.0313.50859-.28125 1.0477-.50859 1.6336-.66093.58594-.13359 1.2094-.21328 1.8656-.21328.38437 0 .76641.035156 1.1484.10313.38203.070312.75468.16407 1.118.28594.72187.24844 1.3664.59531 1.9335 1.0359.56719.44531 1.043.95157 1.4298 1.5305.38672.5789.67968 1.2187.88125 1.9148.20157.6961.30469 1.4203.30469 2.1727v1.8633z"/>
</svg>
