<svg width="17" height="17" version="1.1" viewBox="0 0 17 17" xmlns="http://www.w3.org/2000/svg">
    <path d="m12.5 2c-.27613 2.76e-5-.49997.22387-.5.5v.5c-4.9646 0-9 4.0354-9 9h-.5c-.27613 2.8e-5-.49997.22387-.5.5v2c2.76e-5.27613.22387.49997.5.5h2c.27613-2.8e-5.49997-.22387.5-.5v-2c-2.76e-5-.27613-.22387-.5-.5-.5h-.5c0-4.4242 3.5758-8 8-8v.5c2.8e-5.27613.22387.49997.5.5h2c.27613-2.76e-5.49997-.22387.5-.5v-2c-2.8e-5-.27613-.22387-.49997-.5-.5h-2zm.5 1h1v1h-1v-1zm-3.9766 5.5a.50005.50005 0 00-.48828.68555l2 5a.50005.50005 0 00.81836.16797l3-3a.50005.50005 0 00-.16797-.81836l-5-2a.50005.50005 0 00-.16211-.035156zm.875 1.3984 3.2109 1.2852-1.9258 1.9258-1.2852-3.2109zm-6.8984 3.1016h1v1h-1v-1z"/>
</svg>
