<svg width="17" height="17" version="1.1" viewBox="0 0 17 17" xmlns="http://www.w3.org/2000/svg">
    <path d="m12.5 2c-.27613 2.76e-5-.49997.22387-.5.5v.55078c-2.2846.22978-4.4323 1.2409-6.0703 2.8789-1.8752 1.8752-2.9297 4.4183-2.9297 7.0703h-.5c-.27613 2.8e-5-.49997.22387-.5.5v2c2.76e-5.27613.22387.49997.5.5h2c.27613-2.8e-5.49997-.22387.5-.5v-2c-2.76e-5-.27613-.22387-.49997-.5-.5h-.5c0-2.3871.94876-4.6753 2.6367-6.3633 1.4502-1.4502 3.3448-2.3521 5.3633-2.5781v.44141c2.8e-5.27613.22387.49997.5.5h2c.27613-2.76e-5.49997-.22387.5-.5v-2c-2.8e-5-.27613-.22387-.49997-.5-.5zm.5 1h1v1h-1zm-4.0859 5.3164c-.3639-.01759-.62385.34739-.48828.68555l2 5c.13317.3338.56447.42232.81836.16797l3-3c.25435-.25389.16583-.68519-.16797-.81836l-5-2c-.051702-.020662-.10649-.032544-.16211-.035156zm.875 1.3984 3.2109 1.2852-1.9258 1.9258zm-6.7891 4.2852h1v1h-1z"/>
</svg>
