<svg width="17" height="17" version="1.1" viewBox="0 0 17 17" xmlns="http://www.w3.org/2000/svg">
 <path d="m12.5 2c-0.27613 2.76e-5 -0.49997 0.22387-0.5 0.5v0.5c-4.9646 0-9 4.0354-9 9h-0.5c-0.27613 2.8e-5 -0.49997 0.22387-0.5 0.5v2c2.76e-5 0.27613 0.22387 0.49997 0.5 0.5h2c0.27613-2.8e-5 0.49997-0.22387 0.5-0.5v-2c-2.76e-5 -0.27613-0.22387-0.5-0.5-0.5h-0.5c0-4.4242 3.5758-8 8-8v0.5c2.8e-5 0.27613 0.22387 0.49997 0.5 0.5h2c0.27613-2.76e-5 0.49997-0.22387 0.5-0.5v-2c-2.8e-5 -0.27613-0.22387-0.49997-0.5-0.5h-2zm0.5 1h1v1h-1v-1zm-4.0117 5.5a0.50005 0.50005 0 0 0-0.45703 0.67383l2.0059 5.3984a0.50005 0.50005 0 0 0 0.92188 0.037109l1.002-2.1484 2.1484-1.002a0.50005 0.50005 0 0 0-0.037109-0.92188l-5.3984-2.0059a0.50005 0.50005 0 0 0-0.18555-0.03125zm0.86133 1.3496 3.2539 1.209-1.2305 0.57226a0.50005 0.50005 0 0 0-0.24219 0.24219l-0.57226 1.2305-1.209-3.2539zm-6.8496 3.1504h1v1h-1v-1z"/>
</svg>
