<svg width="16" height="16" version="1.1" viewBox="0 0 16 16" xmlns="http://www.w3.org/2000/svg">
    <path d="m8 3c-1.8885 0-3.6067.52611-4.8809 1.4082s-2.1191 2.154-2.1191 3.5918.84501 2.7117 2.1191 3.5938 2.9924 1.4062 4.8809 1.4062 3.6067-.52416 4.8809-1.4062 2.1191-2.156 2.1191-3.5938-.84501-2.7097-2.1191-3.5918-2.9924-1.4082-4.8809-1.4082zm0 1c1.7014 0 3.2321.48388 4.3106 1.2305s1.6894 1.722 1.6894 2.7695-.61104 2.0249-1.6894 2.7715-2.6092 1.2285-4.3106 1.2285-3.2341-.48193-4.3125-1.2285-1.6875-1.724-1.6875-2.7715.60909-2.0229 1.6875-2.7695 2.6111-1.2305 4.3125-1.2305z"/>
</svg>
