<svg width="17" height="17" version="1.1" viewBox="0 0 17 17" xmlns="http://www.w3.org/2000/svg">
    <path d="m8.5 3c-2.0295 0-3.8756.5819-5.2402 1.5566-1.3646.97474-2.2598 2.3735-2.2598 3.9434 0 1.5699.89513 2.9686 2.2598 3.9434 1.3646.97474 3.2107 1.5566 5.2402 1.5566 2.0295 0 3.8756-.5819 5.2402-1.5566 1.3646-.97474 2.2598-2.3735 2.2598-3.9434 0-1.5699-.89513-2.9686-2.2598-3.9434-1.3646-.97474-3.2107-1.5566-5.2402-1.5566zm0 1c1.8365 0 3.4893.53619 4.6582 1.3711 1.1689.8349 1.8418 1.9373 1.8418 3.1289s-.67293 2.294-1.8418 3.1289-2.8217 1.3711-4.6582 1.3711c-1.8365 0-3.4893-.53619-4.6582-1.3711s-1.8418-1.9373-1.8418-3.1289.67293-2.294 1.8418-3.1289c1.1689-.8349 2.8217-1.3711 4.6582-1.3711z"/>
</svg>
