<svg width="17" height="17" version="1.1" viewBox="0 0 17 17" xmlns="http://www.w3.org/2000/svg">
 <path d="m7.5 2a0.50005 0.50005 0 0 0-0.5 0.5v0.61328c-1.4322 0.21089-2.721 0.71532-3.7402 1.4434-1.3646 0.97474-2.2598 2.3735-2.2598 3.9434s0.8951 2.9686 2.2598 3.9434c1.3646 0.97474 3.2107 1.5566 5.2402 1.5566s3.8756-0.58194 5.2402-1.5566c0.90987-0.64992 1.6104-1.4894 1.9766-2.4414h0.7832a0.50005 0.50005 0 0 0 0.5-0.5v-2a0.50005 0.50005 0 0 0-0.5-0.5h-0.78516c-0.36517-0.95372-1.0635-1.7945-1.9746-2.4453-1.0193-0.72807-2.308-1.2325-3.7402-1.4434v-0.61328a0.50005 0.50005 0 0 0-0.5-0.5h-2zm0.5 1h1v1h-1v-1zm-1 1.125v0.375a0.50005 0.50005 0 0 0 0.5 0.5h2a0.50005 0.50005 0 0 0 0.5-0.5v-0.375c1.2276 0.20336 2.3187 0.64644 3.1582 1.2461 0.65717 0.46939 1.1546 1.0242 1.4668 1.6309h-0.125a0.50005 0.50005 0 0 0-0.5 0.5v2a0.50005 0.50005 0 0 0 0.5 0.5h0.125c-0.31211 0.6057-0.81052 1.1582-1.4668 1.627-1.1689 0.8349-2.8217 1.3711-4.6582 1.3711s-3.4893-0.53619-4.6582-1.3711-1.8418-1.9373-1.8418-3.1289 0.67293-2.294 1.8418-3.1289c0.83954-0.59965 1.9306-1.0427 3.1582-1.2461zm8 3.877h1v1h-1v-1z"/>
</svg>
