<svg width="17" height="17" version="1.1" viewBox="0 0 17 17" xmlns="http://www.w3.org/2000/svg">
 <path d="m8.5 1c-4.1362 0-7.5 3.3638-7.5 7.5s3.3638 7.5 7.5 7.5 7.5-3.3638 7.5-7.5-3.3638-7.5-7.5-7.5zm0 1c3.5958 0 6.5 2.9042 6.5 6.5s-2.9042 6.5-6.5 6.5-6.5-2.9042-6.5-6.5 2.9042-6.5 6.5-6.5zm-2.8281 3.1719a0.5 0.5 0 0 0-0.35352 0.14648 0.5 0.5 0 0 0 0 0.70703l2.4746 2.4746-2.4746 2.4746a0.5 0.5 0 0 0 0 0.70703 0.5 0.5 0 0 0 0.70703 0l2.4746-2.4746 2.4746 2.4746a0.5 0.5 0 0 0 0.70703 0 0.5 0.5 0 0 0 0-0.70703l-2.4746-2.4746 2.4746-2.4746a0.5 0.5 0 0 0 0-0.70703 0.5 0.5 0 0 0-0.70703 0l-2.4746 2.4746-2.4746-2.4746a0.5 0.5 0 0 0-0.35352-0.14648z"/>
</svg>
