<svg width="16" height="16" version="1.1" viewBox="0 0 16 16" xmlns="http://www.w3.org/2000/svg">
    <path d="m1.5 1c-.27613 2.76e-5-.49997.22387-.5.5v9c2.76e-5.27613.22387.49997.5.5h9c.27613-2.8e-5.49997-.22387.5-.5v-9c-2.8e-5-.27613-.22387-.49997-.5-.5zm.5 1h8v8h-8z" color="#000000" stroke-linecap="round" stroke-linejoin="round" style="-inkscape-stroke:none"/>
    <path d="m9.5 4c-3.0316 0-5.5 2.4684-5.5 5.5 0 3.0316 2.4684 5.5 5.5 5.5 3.0316 0 5.5-2.4684 5.5-5.5 0-3.0316-2.4684-5.5-5.5-5.5zm0 1c2.4912 0 4.5 2.0088 4.5 4.5 0 2.4912-2.0088 4.5-4.5 4.5-2.4912 0-4.5-2.0088-4.5-4.5 0-2.4912 2.0088-4.5 4.5-4.5z" color="#000000" stroke-linecap="round" stroke-linejoin="round" style="-inkscape-stroke:none"/>
    <path d="m3 2v1h1v-1h-1zm1 1v1h1v-1h-1zm1 0h1v-1h-1v1zm1 0v1h1v-1h-1zm1 0h1v-1h-1v1zm1 0v1h1v-1h-1zm1 0h1v-1h-1v1zm0 1v1h1v-1h-1zm-1 0h-1v1h1v-1zm-2 0h-1v1h1v-1zm-1 1h-1v1h1v-1zm-1 1h-1v1h1v-1zm0 1v1h1v-1h-1zm0 1h-1v1h1v-1zm0 1v1h1v-1h-1zm-1 0h-1v1h1v-1zm0-1v-1h-1v1h1zm0-2v-1h-1v1h1zm0-1h1v-1h-1v1zm0-1v-1h-1v1h1zm8 1v1h1v-1h-1zm1 1v1h1v-1h-1zm1 1v1h1v-1h-1zm0 1h-1v1h1v-1zm0 1v1h1v-1h-1zm0 1h-1v1h1v-1zm0 1v1h1v-1h-1zm0 1h-1v1h1v-1zm-1 1h-1v1h1v-1zm-1 0v-1h-1v1h1zm-1 0h-1v1h1v-1zm-1 0v-1h-1v1h1zm-1 0h-1v1h1v-1zm-1 0v-1h-1v1h1zm-1-1v-1h-1v1h1zm1 0h1v-1h-1v1zm2 0h1v-1h-1v1zm1-1h1v-1h-1v1zm1-1h1v-1h-1v1zm0 1v1h1v-1h-1zm1-3v-1h-1v1h1z" color="#000000" stroke-dasharray="1, 2" stroke-linecap="round" stroke-linejoin="round" style="-inkscape-stroke:none"/>
    <path d="m5 6h1l-.49313.57663-.50687.42337z" stop-color="#000000" stroke-dasharray="1, 2" stroke-linecap="round" stroke-linejoin="round"/>
    <path d="m6 5h1l-.42188.70024-.57812.29976z" stop-color="#000000" stroke-dasharray="1, 2" stroke-linecap="round" stroke-linejoin="round"/>
</svg>
