<svg width="17" height="17" version="1.1" viewBox="0 0 17 17" xmlns="http://www.w3.org/2000/svg">
    <path d="m1.5 1c-.27613 2.76e-5-.49997.22387-.5.5v9c2.76e-5.27613.22387.49997.5.5h2.584c.47791 2.8333 2.9491 5 5.916 5 3.3078 0 6-2.6922 6-6 0-2.9669-2.1667-5.4381-5-5.916v-2.584c-2.8e-5-.27613-.22387-.49997-.5-.5h-9zm.5 1h1v1h1v-1h1v1h1v-1h1v1h1v-1h1v1h1c-.33965 0-.67315.025294-1 .072266v-.072266h-1v.29102c-.34579.10324-.67877.23365-1 .38672v-.67773h-1v1h.40039c-.13645.082156-.27019.16878-.40039.25977v-.25977h-1v.5.5h.10742c-.036243.03547-.071952.071179-.10742.10742v-.10742h-1v1h.25977c-.090987.13021-.17761.26394-.25977.40039v-.40039h-1v1h.67773c-.15307.32123-.28348.65421-.38672 1h-.29102v1h.072266c-.046972.32685-.072266.66035-.072266 1v-1h-1v-1h1v-1h-1v-1h1v-1h-1v-1h1v-1h-1v-1zm1 2v1h1v-1h-1zm1 0h1v-1h-1v1zm6 0a6 6 0 011 .085938v.91406 1 1 1 1 1 1h-1-1-1-1-1-1-.9082a6 6 0 01-.091797-1c0-.08535.0023504-.16944.0058594-.25391.0002214-.0052077-.0002349-.010421 0-.015625.0020937-.046388.0066109-.092569.0097656-.13867.0027832-.041575.006144-.083664.0097656-.125.014067-.15726.032663-.31306.058594-.4668.057556-.34467.14435-.67807.25781-1h.0019531c.12392-.34925.27943-.68371.46289-1h-.0058594c.062922-.10901.12977-.21579.19922-.32031v.0078125c.16103-.24216.3397-.47169.5332-.6875h-.0078125c.14942-.16712.30749-.32519.47461-.47461v.0078125c.21581-.1935.44534-.37217.6875-.5332h-.0078125c.10452-.069444.2113-.1363.32031-.19922v.0058594c.31629-.18346.65075-.33897 1-.46289v-.0019531c.32193-.11346.65533-.20026 1-.25781.15374-.025931.30954-.044527.4668-.058594.041336-.0036216.083425-.0069824.125-.0097656.046103-.0031547.092284-.0076719.13867-.0097656.0051916-.000229.01043.0002158.015625 0 .084297-.003584.16869-.0058594.25391-.0058594zm2 1.416c.35762.15571.69219.35311 1 .58398.37903.28429.71571.62096 1 1 .23087.30781.42826.64238.58398 1h-.58398v1h.90039c.06517.32288.099609.65752.099609 1h-1v1h.90039c-.07028.3482-.17811.68237-.31641 1h-.58398v1h.003906c-.0011.0015-.002806.002406-.003906.003906v-.003906h-1v1h.003906c-.0015.0011-.002406.002806-.003906.003906v-.003906h-1v.58398c-.31763.1383-.6518.24612-1 .31641v-.90039h-1v1c-.34248 0-.67712-.034439-1-.099609v-.90039h-1v.58398c-.35762-.15571-.69219-.35311-1-.58398-.37903-.28429-.71571-.62096-1-1-.23087-.30781-.42826-.64238-.58398-1h.58398v1h1v-1h1v1h1v-1h1v1h1v-1h1v-1h1v-1h-1v-1h1v-1h-1v-1h1v-1h-1v-.58398zm1 1.584v1h1v-1h-1zm0 2v1h1v-1h-1zm0 2v1h1v-1h-1zm0 1h-1v1h1v-1zm-1 1h-1v1h1v-1zm-2 0h-1v1h1v-1zm-2 0h-1v1h1v-1z"/>
</svg>
