<svg width="17" height="17" version="1.1" viewBox="0 0 17 17" xmlns="http://www.w3.org/2000/svg">
    <path d="m1.5 1c-.27613 2.76e-5-.49997.22387-.5.5v9c2.76e-5.27613.22387.49997.5.5h2.584c.47791 2.8333 2.9491 5 5.916 5 3.3078 0 6-2.6922 6-6 0-2.9669-2.1667-5.4381-5-5.916v-2.584c-2.8e-5-.27613-.22387-.49997-.5-.5h-9zm.5 1h1v1h1v-1h1v1h1v-1h1v1h1v-1h1v1h1v1h-1v.083984c-.344.058024-.67836.14564-1 .25977v-.34375h-1v.80664c-.10633.061675-.21041.12547-.3125.19336h-.6875v.5332c-.16367.14676-.32004.30312-.4668.4668h-.5332v.6875c-.067886.10209-.13168.20617-.19336.3125h-.80664v1h.34375c-.11412.32164-.20174.656-.25977 1h-.083984v1h-1v-1h-1v-1h1v-1h-1v-1h1v-1h-1v-1h1v-1h-1v-1zm1 2v1h1v-1h-1zm1 0h1v-1h-1v1zm1 0v1h1v-1h-1zm1 0h1v-1h-1v1zm-1 1h-1v1h1v-1zm-1 1h-1v1h1v-1zm-1 2v1h1v-1h-1zm5-4h1v-1h-1v1zm2 1v5h-5c0-1.1268.37044-2.1651.99609-3h.0039062v-.0039062c.28353-.37748.61862-.71256.99609-.99609h.0039062v-.0039062c.83486-.62565 1.8732-.99609 3-.99609zm2 .41602c1.1556.50315 2.0808 1.4284 2.584 2.584h-.58398v1h.90039c.06517.32288.099609.65752.099609 1h-1v1h.90039c-.070282.3482-.17811.68237-.31641 1h-.58398v1h.003906c-.001094.00146-.00281.002447-.003906.003906v-.003906h-1v1h.003906c-.001459.001096-.002446.002812-.003906.003906v-.003906h-1v.58398c-.31763.1383-.6518.24612-1 .31641v-.90039h-1v1c-.34248 0-.67712-.034439-1-.099609v-.90039h-1v.58398c-1.1556-.50315-2.0808-1.4284-2.584-2.584h.58398v-1h1v1h1v-1h1v1h1v-1h.5.5v-.5-.5h1v-1h-1v-1h1v-1h-1v-1h1v-.58398zm0 .58398v1h1v-1h-1zm1 1v1h1v-1h-1zm0 1h-1v1h1v-1zm0 1v1h1v-1h-1zm0 1h-1v1h1v-1zm0 1v1h1v-1h-1zm0 1h-1v1h1v-1zm-1 1h-1v1h1v-1zm-1 0v-1h-1v1h1zm-1 0h-1v1h1v-1zm-1 0v-1h-1v1h1zm-1 0h-1v1h1v-1zm-1 0v-1h-1v1h1zm4-1h1v-1h-1v1z"/>
</svg>
