<svg width="17" height="17" version="1.1" viewBox="0 0 17 17" xml:space="preserve" xmlns="http://www.w3.org/2000/svg"><path d="m10.592 1.0098a0.50005 0.50005 0 0 0-0.22852 0.0097656l-7 2a0.50005 0.50005 0 0 0-0.36328 0.48047v10a0.50005 0.50005 0 0 0 0.36328 0.48047l7 2a0.50005 0.50005 0 0 0 0.63672-0.48047v-1.502a0.5 0.5 0 0 0 0.005859 0.001953h2.5a0.50005 0.50005 0 0 0 0.5-0.5v-10a0.50005 0.50005 0 0 0-0.5-0.5h-2.5a0.5 0.5 0 0 0-0.005859 0.0019531v-1.502a0.50005 0.50005 0 0 0-0.4082-0.49023zm-0.5918 1.1523v12.676l-6-1.7148v-9.2461l6-1.7148zm1 1.8359a0.5 0.5 0 0 0 0.005859 0.0019531h2v9h-2a0.5 0.5 0 0 0-0.005859 0.001953v-9.0039z"/></svg>
