<svg width="17" height="17" version="1.1" viewBox="0 0 17 17" xmlns="http://www.w3.org/2000/svg">
    <path d="m2.5 1c-.27613 3e-5-.49997.22387-.5.5v14c3e-5.27613.22387.49997.5.5h10c.27613-3e-5.49998-.22387.5-.5v-1.5c0-.27614-.22386-.5-.5-.5s-.5.22386-.5.5v1h-9v-13h5v3.5c3e-5.27613.22387.49997.5.5h3.5v1c0 .27614.22386.5.5.5s.5-.22386.5-.5v-1c.000368-.011065.000368-.022138 0-.033203v-.4668c0-.0295-.002813-.058891-.007812-.087891-.000632-.003-.000908-.0067657-.001954-.0097656-.001-.005-.001906-.010425-.003906-.015625-.005-.0239-.012584-.047413-.021484-.070313-.005-.0113-.010015-.022303-.015625-.033203-.007-.0154-.014938-.030422-.023438-.044922-.008-.0135-.017644-.026462-.027343-.039062-.012101-.0157-.025163-.030722-.039063-.044922-.002-.003-.003859-.0048125-.005859-.0078125l-.03125-.03125-3.9395-3.9375c-.009-.0108-.019097-.02125-.029297-.03125-.001-.00065-.0029062-.0009564-.0039062-.0019532-.0325-.0322-.06929-.059831-.10938-.082031l-.0039063-.0039062c-.003-.001-.0067656-.0029063-.0097656-.0039063-.0407-.0208-.084092-.035922-.12891-.044922-.032122-.0059934-.064856-.0097656-.097656-.0097656h-6zm6.5 1.709 2.291 2.291h-2.291v-2.291zm5 5.791a.5.5 0 00-.35352.14648.5.5 0 000 .70703l.64648.64648h-3.793c-.27614 0-.5.22386-.5.5s.22386.5.5.5h3.793l-.64648.64648a.5.5 0 000 .70703.5.5 0 00.70703 0l1.5-1.5a.50005.50005 0 000-.70703l-1.5-1.5a.5.5 0 00-.35352-.14648z"/>
</svg>
