<svg width="16" height="16" version="1.1" viewBox="0 0 16 16" xmlns="http://www.w3.org/2000/svg">
    <path d="m2.5 1c-.27613 3e-5-.49997.22387-.5.5v13c3e-5.27613.22387.49997.5.5h9c.27613-3e-5.49998-.22387.5-.5v-2.5a.5.5 0 00-.5-.5.5.5 0 00-.5.5v2h-8v-12h4v3.5c3e-5.27613.22387.49997.5.5h3.5v1a.5.5 0 00.5.5.5.5 0 00.5-.5v-1a.5.5 0 000-.033203v-.4668c0-.0295-.0028-.058891-.0078-.087891-.000631-.003-.000954-.00677-.002-.00977-.001-.005-.0019-.010425-.0039-.015625-.005-.0239-.01258-.047413-.02148-.070313-.005-.0113-.01002-.022303-.01563-.033203-.007-.0154-.01494-.030422-.02344-.044922-.008-.0135-.01764-.026462-.02734-.039062-.0121-.0157-.02516-.030722-.03906-.044922-.002-.003-.0039-.00481-.0059-.00781l-.03125-.03125-3.9395-3.9375c-.009-.0108-.019097-.02125-.029297-.03125-.001-.00065-.00291-.0009532-.00391-.00195-.0325-.0322-.069295-.059831-.10938-.082031l-.00391-.00391c-.003-.001-.00677-.00291-.00977-.00391-.0407-.0208-.084096-.035922-.12891-.044922-.032122-.0059934-.064778-.009759-.097578-.009759zm5.5 1.709 2.291 2.291h-2.291zm5.293 4.875a.5.5 0 00-.35352.14844.5.5 0 000 .70703l.55859.56055h-4.498a.5.5 0 00-.5.5.5.5 0 00.5.5h4.502l-.5625.5625a.5.5 0 000 .70703.5.5 0 00.70703 0l1.7676-1.7695-1.7676-1.7676a.5.5 0 00-.35352-.14844z"/>
</svg>
