<svg width="16" height="16" version="1.1" viewBox="0 0 16 16" xmlns="http://www.w3.org/2000/svg">
    <path d="m12.004 2c-.51289 3e-7-1.0256.1936-1.4141.58203a.5.5 0 00-.002.00195l-1.5781 1.5781-.35352-.35352a.5.5 0 00-.35352-.14648.5.5 0 00-.35352.14648.5.5 0 000 .70703l.70703.70703-5.207 5.209a.5.5 0 00-.00977.0078v.002c-.37762.37834-.52704.93086-.38867 1.4473.024055.08977.056363.17558.095703.25781l-.5.5a.5.5 0 000 .70898.5.5 0 00.70703 0l.5-.50195c.082229.03934.16804.07165.25781.0957.51641.13837 1.0689-.01105 1.4473-.38867h.00195l5.2168-5.2168.70703.70703a.5.5 0 00.70703 0 .5.5 0 000-.70703l-.35352-.35352 1.5781-1.5781a.5.5 0 00.002 0c.77686-.77686.77686-2.0532 0-2.8301-.38843-.38843-.90117-.58203-1.4141-.58203zm0 .99414c.25488-3e-7.50967.097565.70703.29492.39471.39471.39471 1.0213 0 1.416h-.002l-1.5781 1.5781-1.4141-1.4141 1.5781-1.5781a.5.5 0 00.002-.00195c.19736-.19736.45216-.29492.70703-.29492zm-2.6406 2.9355.70703.70703-5.207 5.209a.5.5 0 00-.00977.0078v.002c-.12684.12615-.30955.17523-.48242.12891-.17333-.04644-.30708-.1802-.35352-.35352-.046443-.17333.00203-.3575.12891-.48438a.5.5 0 00.027344-.0293l5.1895-5.1875z"/>
</svg>
