<svg width="17" height="17" version="1.1" viewBox="0 0 17 17" xmlns="http://www.w3.org/2000/svg">
    <path d="m12.504 2c-.64085 1e-7-1.2815.24245-1.7676.72852l-.072266.070312v.0019531l-.28125.28125-1.416 1.4141-.35352-.35352a.5.5 0 00-.35352-.14648.5.5 0 00-.35352.14648.5.5 0 000 .70703l.70703.70703-5.6543 5.6582v.001953c-.50394.50466-.70414 1.2407-.51953 1.9297.047442.17706.12011.34418.21094.49805a.5.5 0 00-.0039062.001953l-.5.5a.5.5 0 000 .70703.5.5 0 00.70703 0l.5-.5a.5.5 0 00.0019532-.001954c.15419.091157.3225.16142.5.20898.68894.1846 1.425-.013652 1.9297-.51758h.0019532l5.6562-5.6563.70703.70703a.5.5 0 00.70703 0 .5.5 0 000-.70703l-.35352-.35352 1.4141-1.416.28125-.28125h.001953l.070312-.072266c.97212-.97212.97212-2.563 0-3.5352-.48606-.48606-1.1267-.72852-1.7676-.72852zm0 .99414c.38284 1e-7.76556.14642 1.0605.44141.58997.58997.58997 1.5311 0 2.1211l-.35352.35352-1.4141 1.416-2.123-2.123 1.6973-1.6953.072265-.072266c.29499-.29499.67771-.44141 1.0605-.44141zm-3.1836 3.2695 1.416 1.416-5.6582 5.6563c-.25316.25243-.61945.35231-.96484.25976-.34587-.092674-.61436-.36116-.70703-.70703s.0065742-.71361.25977-.9668l.35352-.35352-.0019531-.001953 5.3027-5.3027z"/>
</svg>
