<svg width="17" height="17" version="1.1" viewBox="0 0 17 17" xmlns="http://www.w3.org/2000/svg">
    <path d="m1.418 8.0078a.5.5 0 00-.18164.068359.5.5 0 00-.16016.6875s.71901 1.1624 2.0938 2.2695l-1.0371 1.1289a.5.5 0 00.029297.70508.5.5 0 00.70508-.029297l1.1172-1.2129c.68851.44707 1.4943.84472 2.4141 1.0957l-.37305 1.1211a.5.5 0 00.31641.63281.5.5 0 00.63281-.31641l.41211-1.2383c.35718.05009.72765.080078 1.1133.080078.38632 0 .75747-.029817 1.1152-.080078l.42773 1.2422a.5.5 0 00.63672.31055.5.5 0 00.31055-.63476l-.38672-1.1191c.91977-.2513 1.7256-.64841 2.4141-1.0957l1.1133 1.2148a.5.5 0 00.70703.03125.5.5 0 00.03125-.70703l-1.0371-1.1309c1.3733-1.1066 2.0918-2.2676 2.0918-2.2676a.5.5 0 00-.16016-.6875.5.5 0 00-.6875.16016s-2.3567 3.7637-6.5762 3.7637c-4.2195 0-6.5762-3.7637-6.5762-3.7637a.5.5 0 00-.31055-.22266.5.5 0 00-.19531-.0058594z"/>
</svg>
