<svg width="17" height="17" version="1.1" viewBox="0 0 17 17" xmlns="http://www.w3.org/2000/svg">
    <path d="m8.5 3c-.085591 0-.17104.0023863-.25586.0078125-5.1388.16364-7.1429 5.1445-7.1992 5.2871a.5.5 0 00-.0019531.0019531.5.5 0 000 .0019531c-.0005792.0014721-.0097657.021484-.0097657.021484a.5.5 0 00-.015625.087891.5.5 0 00-.015625.091797.5.5 0 00.015625.091797.5.5 0 00.015625.087891s.32283.83502 1.0273 1.8223a.5.5 0 00.69727.11719.5.5 0 00.11719-.69727c-.45167-.63294-.71262-1.1632-.83008-1.4238.24779-.55586 1.1634-2.3654 3.0039-3.5176-.53587.91647-.69037 2.0162-.41211 3.0547a.5.5 0 00.61133.35352.5.5 0 00.35352-.61133c-.2415-.90129-.050446-1.8633.51758-2.6035.56802-.74026 1.4478-1.1738 2.3809-1.1738.92293 0 1.7245.17535 2.4258.45703a.5.5 0 00.65039-.27734.5.5 0 00-.27734-.65039c-.81359-.32677-1.7483-.5293-2.7988-.5293zm6.5898.50781a.5.5 0 00-.375.082031l-13 9a.5.5 0 00-.125.69531.5.5 0 00.69531.125l13-9a.5.5 0 00.125-.69531.5.5 0 00-.32031-.20703zm-6.5898 1.4922a2 2 0 00-2 2 2 2 0 00.048828.41797l3.0312-2.0996a2 2 0 00-1.0801-.31836zm6.1406 1.3262a.5.5 0 00-.375.085938.5.5 0 00-.11914.69531c.43947.62108.69329 1.1382.80859 1.3945-.37089.832-2.2421 4.498-6.4551 4.498-.90205 0-1.687-.16698-2.377-.4375a.5.5 0 00-.64844.2832.5.5 0 00.2832.64648c.80047.31388 1.7155.50781 2.7422.50781 5.3372 0 7.405-5.1648 7.457-5.2969a.5.5 0 00.001953-.0039062c.00046-.0011704.007813-.019531.007813-.019531a.5.5 0 00.007812-.029297.5.5 0 00.013672-.046875.5.5 0 00.001953-.013672.5.5 0 00.007813-.052734.5.5 0 00.001953-.037109.5.5 0 00-.001953-.037109.5.5 0 00-.009766-.066406.5.5 0 00-.001953-.0078125.5.5 0 00-.011719-.039062.5.5 0 00-.007812-.029297s-.008846-.021105-.009766-.023438a.5.5 0 000-.0019531c-.026617-.067324-.33641-.83414-.99414-1.7637a.5.5 0 00-.32227-.20508zm-3.1426 1.9258a.5.5 0 00-.095703.015625.5.5 0 00-.30469.23242c-.39792.68922-1.0516 1.1925-1.8203 1.3984a.5.5 0 00-.35352.61133.5.5 0 00.61133.35352c1.0245-.27452 1.8994-.94471 2.4297-1.8633a.5.5 0 00-.18359-.68359.5.5 0 00-.2832-.064453z"/>
</svg>
