<svg width="16" height="16" version="1.1" viewBox="0 0 16 16" xmlns="http://www.w3.org/2000/svg">
    <path d="m15.082 2.5059v.00195a.5.5 0 00-.37305.083984l-14 10a.5.5 0 00-.11719.69726.5.5 0 00.69922.11719l14-10a.5.5 0 00.11523-.69727.5.5 0 00-.32422-.20312zm-7.1133.49414c-.30354.00114-.60781.01758-.9082.052734-.92826.10864-1.8336.38046-2.6641.80664-1.6609.85237-2.8909 2.2661-3.3965 3.9434a.5.5 0 00.027344.34375.5.5 0 00-.027344.050781c.16662.55272.41432 1.0815.73438 1.5742a.5.5 0 00.69141.14844.5.5 0 00.14648-.69141c-.2518-.38766-.4463-.79933-.58398-1.2266.41206-1.2798 1.3394-2.3918 2.623-3.1211-.58537.93604-.76323 2.0791-.47461 3.1562a.5.5 0 00.61133.35352.5.5 0 00.35352-.61328c-.2415-.90129-.050402-1.8633.51758-2.6035.53253-.694 1.3395-1.1196 2.207-1.1699.60377-.015175 1.2113.046178 1.8047.1875a.5.5 0 00.60156-.37109.5.5 0 00-.36914-.60156c-.6087-.14498-1.2287-.21747-1.8477-.21875a.5.5 0 00-.015625 0c-.01044 0-.02082-8.17e-5-.03125 0zm.13672 2.002a2 2 0 00-1.3223.41211 2 2 0 00-.71484 2.1035l2.9316-2.25a2 2 0 00-.89453-.26562zm5.7461.99805a.5.5 0 00-.2793.080078.5.5 0 00-.14648.69141c.25133.38696.44806.79822.58594 1.2246-.43726 1.3598-1.4554 2.5324-2.8652 3.2559-1.4399.73893-3.1643.94084-4.7773.55664a.5.5 0 00-.60352.37305.5.5 0 00.37109.60156c.92267.21976 1.8745.2727 2.8027.16406.92827-.10863 1.8336-.38045 2.6641-.80664 1.6609-.85236 2.889-2.2661 3.3945-3.9434a.5.5 0 00-.02344-.042969.5.5 0 00.002-.00195.5.5 0 00.02149-.34961c-.16667-.55272-.41436-1.0834-.73442-1.5762a.5.5 0 00-.31445-.2168v.00195a.5.5 0 00-.09766-.011716zm-2.4707 1.4062a.5.5 0 00-.48438.37109c-.35206 1.3139-1.5362 2.2246-2.8965 2.2246a.5.5 0 00-.5.5.5.5 0 00.5.5c1.808 0 3.3953-1.2184 3.8633-2.9648a.5.5 0 00-.35352-.61328.5.5 0 00-.12891-.017578z"/>
</svg>
