<svg width="17" height="17" version="1.1" viewBox="0 0 17 17" xmlns="http://www.w3.org/2000/svg">
 <path d="m8.5 4c-4.8101 0-7.4238 4.2363-7.4238 4.2363l-0.16406 0.26367 0.16406 0.26367s2.6137 4.2363 7.4238 4.2363c4.8101 0 7.4238-4.2363 7.4238-4.2363l0.16406-0.26367-0.16406-0.26367s-2.6137-4.2363-7.4238-4.2363zm0 1c3.9232 0 6.0306 3.0431 6.3359 3.5-0.30535 0.45695-2.4127 3.5-6.3359 3.5-3.9232 0-6.0306-3.0431-6.3359-3.5 0.30535-0.45695 2.4127-3.5 6.3359-3.5zm0 1a2.5 2.5 0 0 0-2.5 2.5 2.5 2.5 0 0 0 2.5 2.5 2.5 2.5 0 0 0 2.5-2.5 2.5 2.5 0 0 0-2.5-2.5zm0 1a1.5 1.5 0 0 1 1.5 1.5 1.5 1.5 0 0 1-1.5 1.5 1.5 1.5 0 0 1-1.5-1.5 1.5 1.5 0 0 1 1.5-1.5zm0 1a0.5 0.5 0 0 0-0.5 0.5 0.5 0.5 0 0 0 0.5 0.5 0.5 0.5 0 0 0 0.5-0.5 0.5 0.5 0 0 0-0.5-0.5z"/>
</svg>
