<svg width="17" height="17" version="1.1" viewBox="0 0 17 17" xmlns="http://www.w3.org/2000/svg">
    <path d="m8.5 3c-.073508 0-.1462.0038639-.21875.0078125-5.1663.1406-7.1799 5.1441-7.2363 5.2871a.5.5 0 00-.0019531.0039062c-.0005792.0014721-.0097657.021484-.0097657.021484a.5.5 0 00-.015625.087891.5.5 0 00-.015625.091797.5.5 0 00.015625.091797.5.5 0 00.015625.087891s.0091865.020012.0097657.021484a.5.5 0 00.0019531.0039062c.05722.14502 2.1248 5.2949 7.4551 5.2949 5.3254 0 7.3942-5.1389 7.4551-5.293.000135-.0003419.001838-.0036137.001953-.0039062a.5.5 0 00.001953-.0039062c.00046-.0011704.007813-.019531.007813-.019531a.5.5 0 00.007812-.029297.5.5 0 00.011719-.039062.5.5 0 00.001953-.0078125.5.5 0 00.001953-.013672.5.5 0 00.007813-.052734.5.5 0 00.001953-.037109.5.5 0 00-.001953-.037109.5.5 0 00-.007813-.052734.5.5 0 00-.001953-.013672.5.5 0 00-.001953-.0078125.5.5 0 00-.011719-.039062.5.5 0 00-.007812-.029297s-.007353-.018361-.007813-.019531c-9.5e-5-.0002427-.001838-.0036137-.001953-.0039062a.5.5 0 00-.001953-.0039062c-.060846-.15403-2.1297-5.293-7.4551-5.293zm0 1c.058977 0 .11576.0044342.17383.0058594 1.5809.089649 2.8262 1.3899 2.8262 2.9941 0 1.6628-1.3372 3-3 3-1.6628 0-3-1.3372-3-3s1.3372-3 3-3zm-3.4473.97656c-.35044.59423-.55273 1.286-.55273 2.0234 0 2.2032 1.7968 4 4 4 2.2032 0 4-1.7968 4-4 0-.73742-.20229-1.4292-.55273-2.0234 1.8481 1.1548 2.7645 2.9721 3.0098 3.5234-.36652.82393-2.2371 4.5-6.457 4.5-4.2199 0-6.0905-3.6761-6.457-4.5.24527-.55138 1.1617-2.3686 3.0098-3.5234zm4.1719.16016a1.5 1.5 0 01.27539.86328 1.5 1.5 0 01-1.5 1.5 1.5 1.5 0 01-1.4238-1.0332 2 2 0 00-.076172.5332 2 2 0 002 2 2 2 0 002-2 2 2 0 00-1.2754-1.8633z"/>
</svg>
