<svg width="16" height="16" version="1.1" viewBox="0 0 16 16" xmlns="http://www.w3.org/2000/svg">
    <path d="m8 3c-3.2541 0-6.1379 1.9427-7 4.8027a.5.5 0 00.027344.34375.5.5 0 00-.027344.050781c.86214 2.86 3.7459 4.8027 7 4.8027s6.1359-1.9427 6.998-4.8027a.5.5 0 00-.02344-.044922.5.5 0 00.02344-.34961c-.86214-2.86-3.7439-4.8027-6.998-4.8027zm0 1c.052117 0 .1044.0008235.15625.00195 1.5901.080002 2.8438 1.3872 2.8438 2.998 0 1.6628-1.3372 3.002-3 3.002s-3-1.3392-3-3.002c0-1.6088 1.2525-2.9151 2.8398-2.998.00196-4.4e-5.0039 4.25e-5.00586 0 .051294-.00258.10233-.00195.1543-.00195zm-3.3906.88086c-.38599.61493-.60938 1.3421-.60938 2.1191 0 2.2032 1.7968 4.002 4 4.002s4-1.7987 4-4.002c0-.77714-.22328-1.5042-.60938-2.1191 1.2502.71234 2.199 1.8095 2.6211 3.1191-.75379 2.3385-3.192 4-6.0117 4-2.8198 0-5.2579-1.6615-6.0117-4 .42196-1.3091 1.3717-2.4068 2.6211-3.1191zm3.3906.11914a2 2 0 00-.58594.089844 1 1 0 01.58594.91016 1 1 0 01-1 1 1 1 0 01-.91016-.58594 2 2 0 00-.089844.58594 2 2 0 002 2 2 2 0 002-2 2 2 0 00-2-2z"/>
</svg>
