<svg width="17" height="17" version="1.1" viewBox="0 0 17 17" xmlns="http://www.w3.org/2000/svg">
    <path d="m8.5 4c-4.8101 0-7.4238 4.2363-7.4238 4.2363l-.16406.26367.16406.26367s2.6137 4.2363 7.4238 4.2363 7.4238-4.2363 7.4238-4.2363l.16406-.26367-.16406-.26367s-2.6137-4.2363-7.4238-4.2363zm0 1c1.2064 0 2.2401.28938 3.1035.70117.43503 1.3079.003389 2.7587-1.1035 3.6152-1.183.91541-2.8276.91312-4.0078-.0058593-1.1015-.85768-1.5292-2.3053-1.0957-3.6094.86338-.41179 1.8972-.70117 3.1035-.70117zm0 .23047a1.5 1.5 0 00-1.5 1.5 1.5 1.5 0 001.5 1.5 1.5 1.5 0 001.5-1.5 1.5 1.5 0 00-1.5-1.5zm-4.2539 1.1504c-.11419 1.4049.47244 2.8168 1.6309 3.7187 1.5366 1.1965 3.6961 1.1997 5.2363.007813 1.1644-.90102 1.7548-2.3154 1.6406-3.7246 1.2201.86914 1.917 1.8702 2.082 2.1172-.30535.45695-2.4127 3.5-6.3359 3.5-3.9232 0-6.0306-3.0431-6.3359-3.5.16508-.24704.86133-1.2498 2.082-2.1191z"/>
</svg>
