<svg width="17" height="17" version="1.1" viewBox="0 0 17 17" xmlns="http://www.w3.org/2000/svg">
    <path d="m3.5 1c-.27613 2.76e-5-.49997.22387-.5.5v14c2.76e-5.27613.22387.49997.5.5h10c.27613-2.8e-5.49997-.22387.5-.5v-10c-5e-6-.02947-.0026-.058881-.0078-.087891-.000634-.00326-.0013-.00652-.002-.00977-.0012-.00523-.0025-.010438-.0039-.015625-.0054-.023933-.0126-.047434-.02148-.070313-.0048-.011255-.01001-.02233-.01563-.033203-.007-.01536-.01487-.030354-.02344-.044922-.0085-.013448-.01761-.026484-.02734-.039062-.01212-.015736-.02516-.030737-.03906-.044922-.0019-.00262-.0039-.00523-.0059-.00781l-.03125-.03125-3.9395-3.9375c-.00931-.01083-.019089-.021257-.029297-.03125-.0013-.0006557-.0026-.00131-.00391-.00195-.032532-.032223-.069336-.059825-.10938-.082031-.0013-.00131-.0026-.00261-.00391-.00391-.00324-.00134-.0065-.00264-.00977-.00391-.040714-.020797-.084088-.035912-.12891-.044922-.032153-.0064499-.064862-.009721-.097656-.009766h-6zm.5 1h5v3.5c2.76e-5.27613.22387.49997.5.5h3.5v9h-9zm6 .70898 2.291 2.291h-2.291z"/>
</svg>
