<svg width="16" height="16" version="1.1" viewBox="0 0 16 16" xmlns="http://www.w3.org/2000/svg">
    <path d="m3.5 1a.50005.50005 0 00-.5.5v13a.50005.50005 0 00.5.5h9a.50005.50005 0 00.5-.5v-9a.50005.50005 0 00-.0078-.087891.5.5 0 00-.002-.00977.50005.50005 0 00-.0039-.015625.5.5 0 00-.02148-.070313.50005.50005 0 00-.01563-.033203.5.5 0 00-.02344-.044922.50005.50005 0 00-.02734-.039062.5.5 0 00-.03906-.044922.5.5 0 00-.0059-.00781l-.03125-.03125-3.9395-3.9375a.5.5 0 00-.029297-.03125.50005.50005 0 00-.00391-.00195.5.5 0 00-.10938-.082031.5.5 0 00-.00391-.00391.50005.50005 0 00-.00977-.00391.5.5 0 00-.12891-.044922.5.5 0 00-.097656-.009766h-5zm.5 1h4v3.5a.50005.50005 0 00.5.5h3.5v8h-8zm5 .70898 2.291 2.291h-2.291z"/>
</svg>
