<svg width="16" height="16" version="1.1" viewBox="0 0 16 16" xmlns="http://www.w3.org/2000/svg">
    <path d="m6.58.93a.5.5 0 00-.35351.14844.5.5 0 000 .70703l1.0605 1.0606-5.3027 5.3027a.50005.50005 0 000 .70704l5.6562 5.6582a.50005.50005 0 00.70703 0l5.6562-5.6582a.50005.50005 0 000-.70704l-4.209-4.207a.5.5 0 00-.0156-.0176l-.0176-.0195-2.8281-2.8262a.5.5 0 00-.35352-.14844zm1.4141 2.623 4.4492 4.4492h-8.8984zm-4.4492 5.4492h8.8984l-4.4492 4.4512zm10.449 2-.8418 1.457a1 1 0 00-.004.01l-.0195.0332a1 1 0 00-.13476.5 1 1 0 001 1 1 1 0 001-1 1 1 0 00-.13477-.5 1 1 0 00-.01-.0156z"/>
</svg>
