<svg width="17" height="17" version="1.1" viewBox="0 0 17 17" xmlns="http://www.w3.org/2000/svg">
 <path d="m6.5273 0.93359a0.5 0.5 0 0 0-0.29688 0.14258 0.5 0.5 0 0 0 0 0.70703l1.0605 1.0605-5.3027 5.3027a0.50005 0.50005 0 0 0 0 0.70703l5.6562 5.6563a0.50005 0.50005 0 0 0 0.70703 0l4.4902-4.4883 1.6191-0.32422a0.50005 0.50005 0 0 0 0.25586-0.84375l-6.0117-6.0098-1.7676-1.7676a0.5 0.5 0 0 0-0.41016-0.14258zm1.4707 2.6172 4.2422 4.2422c-0.086533-0.018739-0.16857-0.037715-0.26172-0.056641-0.63912-0.12985-1.3934-0.262-2-0.23633-1.5758 0.066703-2.8289 0.9561-3.998 1-0.40404 0.015171-1.1485-0.1024-1.7559-0.23242-0.30024-0.06428-0.56961-0.12827-0.76562-0.17773l4.5391-4.5391zm2.0234 4.9492c0.40549-0.017164 1.15 0.093297 1.7578 0.2168 0.60786 0.1235 1.0918 0.25195 1.0918 0.25195l0.058594 0.015625-0.43359 0.085938a0.50005 0.50005 0 0 0-0.25586 0.13672l-4.2422 4.2422-4.2676-4.2676c0.093459 0.021408 0.18372 0.042736 0.28516 0.064453 0.63921 0.13685 1.394 0.2768 2.0039 0.25391 1.5776-0.059236 2.8315-0.95046 4.002-1zm4.9785 3.5-0.8418 1.457c-0.0014 0.0033-0.002606 0.006466-0.003906 0.009766l-0.019531 0.033203c-0.08804 0.15194-0.13453 0.32439-0.13477 0.5 0 0.55228 0.44772 1 1 1s1-0.44772 1-1c-2.42e-4 -0.17561-0.046716-0.34806-0.13477-0.5-0.0033-0.0052-0.006365-0.010455-0.009765-0.015625l-0.85547-1.4844z"/>
</svg>
