<svg width="17" height="17" version="1.1" viewBox="0 0 17 17" xmlns="http://www.w3.org/2000/svg">
    <path d="m6.58.93c-.13288.00053941-.26008.053951-.35351.14844-.19521.19525-.19521.51178 0 .70703l1.0605 1.0606-5.3027 5.3027c-.19519.19527-.19519.51177 0 .70704l5.6562 5.6582c.19526.19518.51177.19518.70703 0l5.6562-5.6582c.19519-.19527.19519-.51177 0-.70704l-4.209-4.207c-.00506-.00599-.010263-.011856-.0156-.0176l-.0176-.0195-2.8281-2.8262c-.093433-.094491-.22064-.1479-.35352-.14844zm1.4141 2.623 4.4492 4.4492h-8.8984zm-4.4492 5.4492h8.8984l-4.4492 4.4512zm10.449 2.9976-.8418 1.457c-.0014.0033-.0027.0067-.004.01l-.0195.0332c-.08804.15194-.13452.32439-.13476.5 0 .55228.44772 1 1 1s1-.44772 1-1c-.000242-.17561-.04672-.34806-.13477-.5-.0033-.0052-.0066-.01043-.01-.0156z"/>
</svg>
