<svg width="17" height="17" version="1.1" viewBox="0 0 17 17" xmlns="http://www.w3.org/2000/svg">
    <path d="m6.488 5.5569m-1.7563-.90188m10.49 1.3765c-.33228-.75948-.94936-1.5664-1.4715-1.8512.4272.80694.66454 1.6139.75948 2.231-.80694-2.0411-2.231-2.8955-3.3702-4.6993-.047475-.094936-.094927-.18988-.18988-.2848-.047474-.047467-.047474-.094936-.094927-.1424-.047474-.094936-.094927-.18988-.094927-.2848-1.6139.94936-2.2785 2.6107-2.4683 3.655-.52214.047468-.99682.1424-1.424.37974-.094936.047468-.1424.1424-.094936.23734.047468.094936.1424.1424.23734.094936.37974-.18988.80694-.2848 1.2816-.33228h.23734c.33228 0 .71202.047468 1.0443.1424h.047458c.047467 0 .094934.047468.18988.047468.047472 0 .094931.047468.1424.047468.047472 0 .047472.047467.094933.047467.04747 0 .09493.047468.1424.094936l.04747.047468c.04747.047467.09493.047467.1424.094936.04747 0 .04747.047468.09493.047468.52214.33228.94936.75948 1.2816 1.3291-.37974-.2848-1.0918-.52214-1.7563-.42722 2.6107 1.3291 1.8988 5.8385-1.7088 5.6487-.33228 0-.66454-.09493-.94936-.18988-.094936-.04747-.1424-.04747-.23734-.09493-.047467 0-.094936-.04747-.1424-.04747-.90188-.47468-1.6139-1.3291-1.7088-2.3734 0 0 .33228-1.2342 2.4209-1.2342.23734 0 .85442-.61708.85442-.80694 0-.047468-1.2816-.56962-1.7563-1.0443-.2848-.23734-.37974-.37974-.52214-.47468-.047468-.047468-.1424-.094936-.18988-.1424-.1424-.56962-.18988-1.1867 0-1.8037-.75948.2848-1.3765.80694-1.8037 1.2816-.2848-.37974-.23734-1.5664-.23734-1.8037 0 0-.23734.094936-.23734.1424-.23734.1424-.52214.37974-.71202.56962-.23734.23734-.47468.52214-.66454.80694-.47468.66454-.80694 1.424-.99682 2.1835 0 0-.047468.2848-.094936.66454 0 .047468 0 .094936-.047467.18988 0 .1424-.047468.2848-.047468.4272v.28481c8e-7 4.0822 3.2278 7.31 7.2626 7.31 3.6075 0 6.598-2.6107 7.1676-6.0759 0-.094931 0-.18988.04747-.2848.1424-1.1867 0-2.5158-.47468-3.6075z"/>
</svg>
