<svg width="16" height="16" version="1.1" viewBox="0 0 16 16" xmlns="http://www.w3.org/2000/svg">
    <path d="m6.1368 5.2532m-1.6392-.84177m9.7911 1.2848c-.31013-.70886-.88608-1.462-1.3734-1.7278.39873.75316.62025 1.5063.70886 2.0823-.75316-1.9051-2.0823-2.7025-3.1456-4.3861-.044308-.088608-.088604-.17722-.17722-.26582-.044308-.044303-.044308-.088608-.088604-.13291-.044308-.088608-.088604-.17722-.088604-.26582-1.5063.88608-2.1266 2.4367-2.3038 3.4114-.48734.044304-.93038.13291-1.3291.35443-.088608.044304-.13291.13291-.088608.22152.044304.088608.13291.13291.22152.088608.35443-.17722.75316-.26582 1.1962-.31013h.22152c.31013 0 .66456.044304.97468.13291h.044303c.044303 0 .088607.044304.17722.044304.044308 0 .088604.044304.13291.044304.044308 0 .044308.044303.088604.044303.044308 0 .088604.044304.13291.088608l.044308.044304c.044308.044303.088604.044303.13291.088608.044308 0 .044308.044304.088604.044304.48734.31013.88608.70886 1.1962 1.2405-.35443-.26582-1.019-.48734-1.6392-.39874 2.4367 1.2405 1.7722 5.4494-1.5949 5.2722-.31013 0-.62025-.0886-.88608-.17722-.088608-.04431-.13291-.04431-.22152-.0886-.044303 0-.088608-.04431-.13291-.04431-.84177-.44304-1.5063-1.2405-1.5949-2.2152 0 0 .31013-1.1519 2.2595-1.1519.22152 0 .79747-.57595.79747-.75316 0-.044304-1.1962-.53165-1.6392-.97468-.26582-.22152-.35443-.35443-.48734-.44304-.044304-.044304-.13291-.088608-.17722-.13291-.13291-.53165-.17722-1.1076 0-1.6835-.70886.26582-1.2848.75316-1.6835 1.1962-.26582-.35443-.22152-1.462-.22152-1.6835 0 0-.22152.088608-.22152.13291-.22152.13291-.48734.35443-.66456.53165-.22152.22152-.44304.48734-.62025.75316-.44304.62025-.75316 1.3291-.93038 2.038 0 0-.044304.26582-.088608.62025 0 .044304 0 .088608-.044303.17722 0 .13291-.044304.26582-.044304.39873v.26582c-1e-7 3.8101 3.0127 6.8228 6.7785 6.8228 3.3671 0 6.1582-2.4367 6.6899-5.6709 0-.088604 0-.17722.04431-.26582.13291-1.1076 0-2.3481-.44304-3.3671z"/>
</svg>
