<svg width="17" height="17" version="1.1" viewBox="0 0 17 17" xmlns="http://www.w3.org/2000/svg">
    <path d="m13.994 6.4219a.50005.50005 0 00-.30859-.38672l-10-4a.50005.50005 0 00-.68555.46484v4a.50005.50005 0 00.5.5h10a.50005.50005 0 00.49023-.40625.50005.50005 0 00.0039-.17188zm0 4.1562a.50005.50005 0 00-.0039-.17188.50005.50005 0 00-.49023-.40625h-10a.50005.50005 0 00-.5.5v4a.50005.50005 0 00.68555.46484l10-4a.50005.50005 0 00.30859-.38672zm-3.0918-4.5781h-6.9023v-2.7617zm0 5-6.9023 2.7617v-2.7617z"/>
</svg>
