<svg width="17" height="17" version="1.1" viewBox="0 0 17 17" xmlns="http://www.w3.org/2000/svg">
    <path d="m6.4219 3.0059a.50005.50005 0 00-.38672.30859l-4 10a.50005.50005 0 00.46484.68555h4a.50005.50005 0 00.5-.5v-10a.50005.50005 0 00-.40625-.49023.50005.50005 0 00-.17188-.0039062zm4.1562 0a.50005.50005 0 00-.17188.0039062.50005.50005 0 00-.40625.49023v10a.50005.50005 0 00.5.5h4a.50005.50005 0 00.46484-.68555l-4-10a.50005.50005 0 00-.38672-.30859zm-4.5781 3.0918v6.9023h-2.7617l2.7617-6.9023zm5 0 2.7617 6.9023h-2.7617v-6.9023z"/>
</svg>
