<svg width="17" height="17" version="1.1" viewBox="0 0 17 17" xmlns="http://www.w3.org/2000/svg">
 <path d="m2.5 2a0.50005 0.50005 0 0 0-0.5 0.5v3.5a0.5 0.5 0 0 0 0.5 0.5 0.5 0.5 0 0 0 0.5-0.5v-3h3a0.5 0.5 0 0 0 0.5-0.5 0.5 0.5 0 0 0-0.5-0.5h-3.5zm8.5 0a0.49975 0.49975 0 0 0-0.5 0.5 0.49975 0.49975 0 0 0 0.5 0.5h3v3a0.49975 0.49975 0 0 0 0.5 0.5 0.49975 0.49975 0 0 0 0.5-0.5v-3.5a0.4998 0.4998 0 0 0-0.5-0.5h-3.5zm-2.5 2.5a0.5 0.5 0 0 0-0.5 0.5v1.0508c-0.97492 0.20011-1.7484 0.97456-1.9492 1.9492h-1.0508a0.5 0.5 0 0 0-0.5 0.5 0.5 0.5 0 0 0 0.5 0.5h1.0508v0.0019531c0.20072 0.97403 0.97519 1.7465 1.9492 1.9473v1.0508a0.5 0.5 0 0 0 0.5 0.5 0.5 0.5 0 0 0 0.5-0.5v-1.0508h0.0019531c0.97403-0.20072 1.7465-0.97519 1.9473-1.9492h1.0508a0.5 0.5 0 0 0 0.5-0.5 0.5 0.5 0 0 0-0.5-0.5h-1.0508v-0.0019531c-0.20084-0.97466-0.9743-1.7472-1.9492-1.9473v-1.0508a0.5 0.5 0 0 0-0.5-0.5zm0 2.5c0.83435 0 1.5 0.66565 1.5 1.5s-0.66565 1.5-1.5 1.5-1.5-0.66565-1.5-1.5 0.66565-1.5 1.5-1.5zm-6 3.5a0.5 0.5 0 0 0-0.5 0.5v3.5a0.50005 0.50005 0 0 0 0.5 0.5h3.5a0.5 0.5 0 0 0 0.5-0.5 0.5 0.5 0 0 0-0.5-0.5h-3v-3a0.5 0.5 0 0 0-0.5-0.5zm12 0a0.5 0.5 0 0 0-0.5 0.5v3h-3a0.5 0.5 0 0 0-0.5 0.5 0.5 0.5 0 0 0 0.5 0.5h3.5a0.50005 0.50005 0 0 0 0.5-0.5v-3.5a0.5 0.5 0 0 0-0.5-0.5z"/>
</svg>
