<svg width="17" height="17" version="1.1" viewBox="0 0 17 17" xmlns="http://www.w3.org/2000/svg">
    <path d="m1.5 2c-.27613 2.76e-5-.49997.22387-.5.5v4.5c0 .27614.22386.5.5.5s.5-.22386.5-.5v-4h3.793l2.8535 2.8535c.093758.093768.22092.14646.35352.14648h6v8h-6c-.27614 0-.5.22386-.5.5s.22386.5.5.5h6.5c.27613-2.8e-5.49997-.22387.5-.5v-9c-2.8e-5-.27613-.22387-.49997-.5-.5h-.5v-1.5c-2.8e-5-.27613-.22387-.49997-.5-.5h-7.293l-.85352-.85352c-.093758-.093768-.22092-.14646-.35352-.14648h-4.5zm6.707 2h5.793v1h-4.793zm-4.707 5.5c-.27614 0-.5.22386-.5.5v2h-2c-.27614 0-.5.22386-.5.5s.22386.5.5.5h2v2c0 .27614.22386.5.5.5s.5-.22386.5-.5v-2h2c.27614 0 .5-.22386.5-.5s-.22386-.5-.5-.5h-2v-2c0-.27614-.22386-.5-.5-.5z"/>
</svg>
