<svg width="16" height="16" version="1.1" viewBox="0 0 16 16" xmlns="http://www.w3.org/2000/svg">
    <path d="m1.5 2a.50005.50005 0 00-.5.5v4.5a.5.5 0 00.5.5.5.5 0 00.5-.5v-4h3.793l2.8535 2.8535a.50005.50005 0 00.35352.14648h5v7h-6a.5.5 0 00-.5.5.5.5 0 00.5.5h6.5a.50005.50005 0 00.5-.5v-8a.50005.50005 0 00-.5-.5h-.5v-1.5a.50005.50005 0 00-.5-.5h-6.293l-.85352-.85352a.50005.50005 0 00-.35352-.14648h-4.5zm6.707 2h4.793v1h-3.793l-1-1zm-4.707 4.5a.5.5 0 00-.5.5v2h-2a.5.5 0 00-.5.5.5.5 0 00.5.5h2v2a.5.5 0 00.5.5.5.5 0 00.5-.5v-2h2a.5.5 0 00.5-.5.5.5 0 00-.5-.5h-2v-2a.5.5 0 00-.5-.5z"/>
</svg>
