<svg width="17" height="17" version="1.1" viewBox="0 0 17 17" xmlns="http://www.w3.org/2000/svg">
 <path d="m4.5 3.5c-0.54833 0-1 0.45167-1 1s0.45167 1 1 1 1-0.45167 1-1-0.45167-1-1-1zm4 0c-0.54833 0-1 0.45167-1 1s0.45167 1 1 1c0.54833 0 1-0.45167 1-1s-0.45167-1-1-1zm4 0c-0.54833 0-1 0.45167-1 1s0.45167 1 1 1 1-0.45167 1-1-0.45167-1-1-1zm-8 4c-0.54833 0-1 0.45167-1 1s0.45167 1 1 1 1-0.45167 1-1-0.45167-1-1-1zm4 0c-0.54833 0-1 0.45167-1 1s0.45167 1 1 1 1-0.45167 1-1-0.45167-1-1-1zm4 0c-0.54833 0-1 0.45167-1 1s0.45167 1 1 1 1-0.45167 1-1-0.45167-1-1-1zm-8 4c-0.54833 0-1 0.45167-1 1s0.45167 1 1 1 1-0.45167 1-1-0.45167-1-1-1zm4 0c-0.54833 0-1 0.45167-1 1s0.45167 1 1 1 1-0.45167 1-1-0.45167-1-1-1zm4 0c-0.54833 0-1 0.45167-1 1s0.45167 1 1 1 1-0.45167 1-1-0.45167-1-1-1z"/>
</svg>
