<svg width="17" height="17" version="1.1" viewBox="0 0 17 17" xmlns="http://www.w3.org/2000/svg">
    <path d="m1.5 2a.5.5 0 00-.5.5.5.5 0 00.5.5h1a.5.5 0 00.5-.5.5.5 0 00-.5-.5h-1zm4 0a.5.5 0 00-.5.5.5.5 0 00.5.5h1a.5.5 0 00.5-.5.5.5 0 00-.5-.5h-1zm4 0a.5.5 0 00-.5.5.5.5 0 00.5.5h1a.5.5 0 00.5-.5.5.5 0 00-.5-.5h-1zm4 0a.5.5 0 00-.5.5.5.5 0 00.5.5h1a.5.5 0 00.5-.5.5.5 0 00-.5-.5h-1zm-10 2c-.27613 2.76e-5-.49997.22387-.5.5v4c2.76e-5.27613.22387.49997.5.5h6c.27613-2.76e-5.49997-.22387.5-.5v-4c-2.76e-5-.27613-.22387-.49997-.5-.5h-6zm12 0a.5.5 0 00-.5.5v1a.5.5 0 00.5.5.5.5 0 00.5-.5v-1a.5.5 0 00-.5-.5zm-14 1a.5.5 0 00-.5.5v1a.5.5 0 00.5.5.5.5 0 00.5-.5v-1a.5.5 0 00-.5-.5zm2.5 0h5v3h-5v-3zm8.5 3c-.27614 0-.5.22386-.5.5s.22386.5.5.5h.5v3h-5v-.5c0-.27614-.22386-.5-.5-.5s-.5.22386-.5.5v1c2.76e-5.27613.22387.49997.5.5h6c.27613-2.8e-5.49997-.22387.5-.5v-4c-2.8e-5-.27613-.22387-.49997-.5-.5h-1zm3 0a.5.5 0 00-.5.5v1a.5.5 0 00.5.5.5.5 0 00.5-.5v-1a.5.5 0 00-.5-.5zm-14 1a.5.5 0 00-.5.5v1a.5.5 0 00.5.5.5.5 0 00.5-.5v-1a.5.5 0 00-.5-.5zm14 3a.5.5 0 00-.5.5v1a.5.5 0 00.5.5.5.5 0 00.5-.5v-1a.5.5 0 00-.5-.5zm-14 1a.5.5 0 00-.5.5v1a.5.5 0 00.5.5.5.5 0 00.5-.5v-1a.5.5 0 00-.5-.5zm3 1a.5.5 0 00-.5.5.5.5 0 00.5.5h1a.5.5 0 00.5-.5.5.5 0 00-.5-.5h-1zm4 0a.5.5 0 00-.5.5.5.5 0 00.5.5h1a.5.5 0 00.5-.5.5.5 0 00-.5-.5h-1zm4 0a.5.5 0 00-.5.5.5.5 0 00.5.5h1a.5.5 0 00.5-.5.5.5 0 00-.5-.5h-1z"/>
</svg>
