<svg width="16" height="16" version="1.1" viewBox="0 0 16 16" xmlns="http://www.w3.org/2000/svg">
    <path d="m1.5 2a.5.5 0 00-.5.5.5.5 0 00.5.5h1a.5.5 0 00.5-.5.5.5 0 00-.5-.5zm3 0a.5.5 0 00-.5.5.5.5 0 00.5.5h1a.5.5 0 00.5-.5.5.5 0 00-.5-.5zm3 0a.5.5 0 00-.5.5.5.5 0 00.5.5h1a.5.5 0 00.5-.5.5.5 0 00-.5-.5zm3 0a.5.5 0 00-.5.5.5.5 0 00.5.5h1a.5.5 0 00.5-.5.5.5 0 00-.5-.5zm3 0a.5.5 0 00-.5.5.5.5 0 00.5.5h1a.5.5 0 00.5-.5.5.5 0 00-.5-.5zm-12 2a.5.5 0 00-.5.5v1a.5.5 0 00.5.5.5.5 0 00.5-.5v-1a.5.5 0 00-.5-.5zm2 0a.50005.50005 0 00-.5.5v4a.50005.50005 0 00.5.5h6a.50005.50005 0 00.5-.5v-4a.50005.50005 0 00-.5-.5zm11 0a.5.5 0 00-.5.5v1a.5.5 0 00.5.5.5.5 0 00.5-.5v-1a.5.5 0 00-.5-.5zm-10.5 1h5v3h-5zm-2.5 2a.5.5 0 00-.5.5v1a.5.5 0 00.5.5.5.5 0 00.5-.5v-1a.5.5 0 00-.5-.5zm10.5 0a.5.5 0 00-.5.5.5.5 0 00.5.5v3h-5a.5.5 0 00-.5-.5.5.5 0 00-.5.5v.5a.50005.50005 0 00.5.5h6a.50005.50005 0 00.5-.5v-4a.50005.50005 0 00-.5-.5zm2.5 0a.5.5 0 00-.5.5v1a.5.5 0 00.5.5.5.5 0 00.5-.5v-1a.5.5 0 00-.5-.5zm-13 3a.5.5 0 00-.5.5v1a.5.5 0 00.5.5.5.5 0 00.5-.5v-1a.5.5 0 00-.5-.5zm13 0a.5.5 0 00-.5.5v1a.5.5 0 00.5.5.5.5 0 00.5-.5v-1a.5.5 0 00-.5-.5zm-13 3a.5.5 0 00-.5.5.5.5 0 00.5.5h1a.5.5 0 00.5-.5.5.5 0 00-.5-.5zm3 0a.5.5 0 00-.5.5.5.5 0 00.5.5h1a.5.5 0 00.5-.5.5.5 0 00-.5-.5zm3 0a.5.5 0 00-.5.5.5.5 0 00.5.5h1a.5.5 0 00.5-.5.5.5 0 00-.5-.5zm3 0a.5.5 0 00-.5.5.5.5 0 00.5.5h1a.5.5 0 00.5-.5.5.5 0 00-.5-.5zm3 0a.5.5 0 00-.5.5.5.5 0 00.5.5h1a.5.5 0 00.5-.5.5.5 0 00-.5-.5z"/>
</svg>
