<svg width="17" height="17" version="1.1" viewBox="0 0 17 17" xmlns="http://www.w3.org/2000/svg">
    <path d="m7.5 1c-.27613 2.76e-5-.49997.22387-.5.5v.5h-1.5c-.27613 2.76e-5-.49997.22387-.5.5v3.5h-1.5c-.27613 2.76e-5-.49997.22387-.5.5v3 .5.5a.50005.50005 0 00.070312.25781l3 5a.50005.50005 0 00.42969.24219h5.5a.50005.50005 0 00.47461-.3418l1.5-4.5a.50005.50005 0 00.025391-.1582v-2-.5-4c-2.8e-5-.27613-.22387-.49997-.5-.5h-1.5v-1.5c-2.8e-5-.27613-.22387-.49997-.5-.5h-1.5v-.5c-2.76e-5-.27613-.22387-.49997-.5-.5h-2zm.5 1h1v5.5c.0093.6573.9907.6573 1 0v-4.5h1v5c.0093.6573.9907.6573 1 0v-3h1v3.5.5 1.918l-1.3613 4.082h-4.8555l-2.7832-4.6387v-.36133-.5-2.5h1v2c.0093.6573.9907.6573 1 0v-6h1v4.5c.0032367.27384.22614.49413.5.49414.27386-8.3e-6.49676-.2203.5-.49414v-5-.5z"/>
</svg>
