<svg width="16" height="16" version="1.1" viewBox="0 0 16 16" xmlns="http://www.w3.org/2000/svg">
    <path d="m6.5 1a.50005.50005 0 00-.5.5v.5h-1.5a.50005.50005 0 00-.5.5v3.5h-1.5a.50005.50005 0 00-.5.5v3.5a.50005.50005 0 00.0918.29101l2.5 3.5a.50005.50005 0 00.4082.20899h6a.50005.50005 0 00.48242-.36719l1.5-5.5a.50005.50005 0 00.0176-.13281v-3.5a.50005.50005 0 00-.5-.5h-1.5v-1.5a.50005.50005 0 00-.5-.5h-1.5v-.5a.50005.50005 0 00-.5-.5zm.5 1h1v4.5a.50005.50005 0 001 0v-3.5h1v4a.50005.50005 0 001 0v-2h1v2.9336l-1.3828 5.0664h-5.3613l-2.2559-3.1602v-2.8398h1v1.5a.50005.50005 0 001 0v-5.5h1v3.5a.50005.50005 0 00.5.49414.50005.50005 0 00.5-.49414v-4z"/>
</svg>
