<svg width="16" height="16" version="1.1" viewBox="0 0 16 16" xmlns="http://www.w3.org/2000/svg">
    <path d="m6.5 2c-.8225 0-1.5.67749-1.5 1.5 0 .6475.42004 1.2041 1 1.4121v6.1738c-.57996.20798-1 .76655-1 1.4141 0 .8225.6775 1.5 1.5 1.5.82251 0 1.5-.6775 1.5-1.5 0-.64751-.42004-1.2061-1-1.4141v-1.3066l3.832-3.4062c.10713-.09516.1683-.23171.16797-.375v-1.0859c.57996-.20798 1-.7646 1-1.4121 0-.82251-.67749-1.5-1.5-1.5-.8225 0-1.5.67749-1.5 1.5 0 .6475.42004 1.2041 1 1.4121v.86523l-3 2.666v-3.5312c.57996-.20798 1-.7646 1-1.4121 0-.82251-.67749-1.5-1.5-1.5zm0 1c.28207 0 .5.21793.5.5 0 .28206-.21793.5-.5.5-.28206 0-.5-.21794-.5-.5 0-.28207.21794-.5.5-.5zm4 0c.28207 0 .5.21793.5.5 0 .27747-.21095.4911-.48633.49805-.0046-6.23e-5-.0091-6.23e-5-.01367 0v.00195c-.28206 0-.5-.21794-.5-.5 0-.28207.21794-.5.5-.5zm-4 9c.28207 0 .5.21793.5.5 0 .28206-.21793.5-.5.5-.28206 0-.5-.21794-.5-.5 0-.28207.21794-.5.5-.5z" />
</svg>
