<svg width="17" height="17" version="1.1" viewBox="0 0 17 17" xmlns="http://www.w3.org/2000/svg">
    <path d="m5.5 2c-.8225 0-1.5.67749-1.5 1.5 0 .6475.42004 1.2041 1 1.4121v7.1738c-.57996.20798-1 .76647-1 1.4141 0 .8225.6775 1.5 1.5 1.5.82251 0 1.5-.6775 1.5-1.5 0-.64751-.42004-1.2061-1-1.4141v-.37891l5.8535-5.8535c.093768-.093756.14646-.22092.14648-.35352v-.58789c.57996-.20798 1-.76462 1-1.4121 0-.82251-.67749-1.5-1.5-1.5-.8225 0-1.5.67749-1.5 1.5 0 .6475.42004 1.2041 1 1.4121v.38086l-5 5v-5.3809c.57996-.20798 1-.76462 1-1.4121 0-.82251-.67749-1.5-1.5-1.5zm0 1c.28207 0 .5.21793.5.5 0 .28206-.21793.5-.5.5-.28206 0-.5-.21794-.5-.5 0-.28207.21794-.5.5-.5zm6 0c.28207 0 .5.21793.5.5 0 .27747-.21095.4911-.48633.49805-.0046-6.23e-5-.0091-6.23e-5-.01367 0v.0019531c-.28206 0-.5-.21794-.5-.5 0-.28207.21794-.5.5-.5zm-6 10c.28207 0 .5.21793.5.5 0 .28206-.21793.5-.5.5-.28206 0-.5-.21794-.5-.5 0-.28207.21794-.5.5-.5z"/>
</svg>
