<svg width="17" height="17" version="1.1" viewBox="0 0 17 17" xmlns="http://www.w3.org/2000/svg">
    <path d="m15.965 8.8562c0-1.1907-.30819-2.3114-.84052-3.292 2.3114-5.1831-2.4515-4.4127-2.7317-4.4127-.9806.19612-1.9612.51129-2.8017.91054-3.222-.038736-6.0236 1.681-6.9342 5.2532 1.681-1.8912 2.8717-2.6616 3.5722-2.9418-.14709.13302-.29418.27315-.44126.41323-1.1207 1.1207-2.0312 2.2413-2.8018 3.4321-.59534 1.0507-1.2608 1.9613-1.6109 3.1519-1.8911 6.8641 4.0625 3.9924 4.903 3.5021.91055.44826 1.8912.69342 3.0119.69342 2.9418 0 5.4634-1.8912 6.3739-4.4828h-3.5722c-1.681 2.6616-5.6735 1.4709-5.8135-1.4008h9.6659c.036483-.28719.056012-.57436.056012-.8405zm-1.2608-6.654c.58136.39223 1.0506.98058.24516 3.0818-.77049-1.2608-1.8912-2.2413-3.292-2.7317.62336-.30119 2.1714-.91055 3.0818-.35021zm-12.398 12.678c-.47628-.48329-.56034-1.681.4903-3.8524.52531 1.541 1.6109 2.8017 2.9418 3.5722-.67943.37123-2.4515 1.1907-3.4321.23116zm3.9223-7.0043c.053973-1.541 1.4008-2.8017 3.0818-2.8017 1.681 0 3.0119 1.2608 3.0819 2.8017h-6.0937z"/>
</svg>
