<svg width="16" height="16" version="1.1" viewBox="0 0 16 16" xmlns="http://www.w3.org/2000/svg">
    <path d="m14.947 8.3291c0-1.1097-.28722-2.1541-.78332-3.068 2.1541-4.8304-2.2847-4.1124-2.5458-4.1124-.91387.18277-1.8277.4765-2.611.84858-3.0027-.0361-5.6137 1.5666-6.4623 4.8957 1.5666-1.7625 2.6763-2.4805 3.3291-2.7416-.13708.12397-.27416.25456-.41123.38511-1.0444 1.0444-1.893 2.0888-2.6111 3.1985-.55483.97916-1.175 1.8278-1.5013 2.9374-1.7624 6.397 3.786 3.7207 4.5693 3.2638.84859.41776 1.7625.64623 2.8069.64623 2.7416 0 5.0916-1.7625 5.9401-4.1777h-3.3291c-1.5666 2.4805-5.2874 1.3708-5.4179-1.3055h9.0081c.034-.26765.0522-.53527.0522-.7833zm-1.175-6.2012c.5418.36554.97914.91385.22848 2.8721-.71806-1.175-1.7625-2.0888-3.068-2.5458.58094-.28069 2.0236-.84859 2.8721-.32638zm-11.554 11.815c-.44387-.4504-.52221-1.5666.45693-3.5902.48956 1.4361 1.5013 2.611 2.7416 3.3291-.63319.34597-2.2847 1.1097-3.1985.21543zm3.6554-6.5276c.0503-1.4361 1.3055-2.611 2.8721-2.611s2.8069 1.175 2.8722 2.611h-5.679z" />
</svg>
