<svg width="16" height="16" version="1.1" viewBox="0 0 16 16" xmlns="http://www.w3.org/2000/svg">
    <path d="m2.5 2a.50005.50005 0 00-.5.5v11a.50005.50005 0 00.5.5h11a.50005.50005 0 00.5-.5v-11a.50005.50005 0 00-.5-.5h-11zm.5 1h10v10h-10v-10zm7.5 1c-.8225 0-1.5.67749-1.5 1.5 0 .8225.6775 1.5 1.5 1.5.82251 0 1.5-.6775 1.5-1.5 0-.82251-.67749-1.5-1.5-1.5zm0 1c.28207 0 .5.21793.5.5 0 .28206-.21793.5-.5.5-.28206 0-.5-.21794-.5-.5 0-.28207.21794-.5.5-.5zm-4.0605 1a.50005.50005 0 00-.4082.31055l-2 5a.50005.50005 0 00.46484.68555h7a.50005.50005 0 00.41602-.77734l-2-3a.50005.50005 0 00-.78516-.058594l-.49219.53711-1.7285-2.4863a.50005.50005 0 00-.4668-.21094zm.17578 1.5449 1.5547 2.2383a.50005.50005 0 00.7793.050781l.48438-.5293 1.1289 1.6914h-5.3281l1.3809-3.4512z"/>
</svg>
