<svg width="17" height="17" version="1.1" viewBox="0 0 17 17" xmlns="http://www.w3.org/2000/svg">
    <path d="m2.5 2c-.27613 2.76e-5-.49997.22387-.5.5v12c2.76e-5.27613.22387.49997.5.5h12c.27613-2.8e-5.49997-.22387.5-.5v-12c-2.8e-5-.27613-.22387-.49997-.5-.5zm.5 1h11v11h-11zm7.5 1c-.8225 0-1.5.67749-1.5 1.5 0 .8225.6775 1.5 1.5 1.5.82251 0 1.5-.6775 1.5-1.5 0-.82251-.67749-1.5-1.5-1.5zm0 1c.28207 0 .5.21793.5.5 0 .28206-.21793.5-.5.5-.28206 0-.5-.21794-.5-.5 0-.28207.21794-.5.5-.5zm-3.6231 1.0039c-.18284.020538-.33963.13982-.4082.31055l-2 5c-.13127.32862.11097.68588.46484.68555h7c.39929-8.4e-5.63744-.44506.41602-.77734l-2-3c-.18063-.26981-.56648-.2986-.78516-.058594l-.49219.53711-1.7285-2.4863c-.10504-.15072-.28427-.23171-.4668-.21094zm.17578 1.5449 1.5547 2.2383c.18349.26272.56327.28747.7793.05078l.48438-.5293 1.1289 1.6914h-5.3281l1.3809-3.4512z"/>
</svg>
