<svg width="17" height="17" version="1.1" viewBox="0 0 17 17" xmlns="http://www.w3.org/2000/svg">
    <path d="m3.5352 1c-.27613 3e-5-.49997.22387-.5.5v14c3e-5.27613.22387.49997.5.5h10c.27613-3e-5.49998-.22387.5-.5v-1.5c0-.27614-.22386-.5-.5-.5s-.5.22386-.5.5v1h-9v-13h5v3.5c3e-5.27613.22387.49997.5.5h3.5v1c0 .27614.22386.5.5.5s.5-.22386.5-.5v-1c.000368-.011065.000368-.022138 0-.033203v-.4668c0-.0295-.0028-.058891-.0078-.087891-.000632-.003-.000908-.00677-.002-.00977-.001-.005-.0019-.010425-.0039-.015625-.005-.0239-.01258-.047413-.02148-.070313-.005-.0113-.01001-.022303-.01563-.033203-.007-.0154-.01494-.030422-.02344-.044922-.008-.0135-.01764-.026462-.02734-.039062-.0121-.0157-.02516-.030722-.03906-.044922-.002-.003-.0039-.00481-.0059-.00781l-.03125-.03125-3.9395-3.9375c-.009-.0108-.019097-.02125-.029297-.03125-.001-.00065-.00291-.0009564-.00391-.00195-.0325-.0322-.06929-.059831-.10938-.082031l-.00391-.00391c-.003-.001-.00677-.00291-.00977-.00391-.0407-.0208-.084092-.035922-.12891-.044922-.032044-.0059834-.064778-.009759-.097578-.009759zm6.5 1.709 2.291 2.291h-2.291zm.96484 5.791c-.1326 1.99e-5-.25976.052711-.35352.14648l-1.5 1.5c-.19518.19526-.19518.51177 0 .70703l1.5 1.5c.19525.19521.51178.19521.70703 0 .19521-.19525.19521-.51178 0-.70703l-.64648-.64648h3.793c.27614 0 .5-.22386.5-.5s-.22386-.5-.5-.5h-3.793l.64648-.64648c.19521-.19525.19521-.51178 0-.70703-.093753-.093773-.22092-.14646-.35352-.14648z"/>
</svg>
