<svg width="17" height="17" version="1.1" viewBox="0 0 17 17" xmlns="http://www.w3.org/2000/svg">
    <path d="m8.5 1c-4.1362 0-7.5 3.3638-7.5 7.5 0 4.1362 3.3638 7.5 7.5 7.5 4.1362 0 7.5-3.3638 7.5-7.5 0-4.1362-3.3638-7.5-7.5-7.5zm0 1c3.5958 0 6.5 2.9042 6.5 6.5 0 3.5958-2.9042 6.5-6.5 6.5-3.5958 0-6.5-2.9042-6.5-6.5 0-3.5958 2.9042-6.5 6.5-6.5zm0 3a.5.5 0 00-.5.5.5.5 0 00.5.5.5.5 0 00.5-.5.5.5 0 00-.5-.5zm0 3c-.27614 0-.5.22386-.5.5v3c0 .27614.22386.5.5.5s.5-.22386.5-.5v-3c0-.27614-.22386-.5-.5-.5z"/>
</svg>
