<svg width="17" height="17" version="1.1" viewBox="0 0 17 17" xmlns="http://www.w3.org/2000/svg">
    <path d="m1.5 1c-.27613 2.76e-5-.49997.22387-.5.5v9c2.76e-5.27613.22387.49997.5.5h2.584c.47791 2.8333 2.9491 5 5.916 5 3.3078 0 6-2.6922 6-6 0-2.9669-2.1667-5.4381-5-5.916v-2.584c-2.8e-5-.27613-.22387-.49997-.5-.5h-9zm.5 1h8v2c-3.3078 0-6 2.6922-6 6h-2v-8zm7 3.0996v.90039h1v1h-1v1h1v1h-1v1h-1v-1h-1v1h-1v-1h-.90039c.070282-.3482.17811-.68237.31641-1h.58398v-1h-.0039062c.0010941-.00146.0028105-.0024475.0039062-.0039062v.0039062h1v-1h-.0039062c.0014587-.0010957.0024462-.0028121.0039062-.0039062v.0039062h1v-.58398c.31763-.1383.6518-.24612 1-.31641zm-1 .90039v1h1v-1h-1zm0 1h-1v1h1v-1zm0 1v1h1v-1h-1zm-1 0h-1v1h1v-1zm4-2.9004c2.2861.46143 4 2.4755 4 4.9004 0 2.7673-2.2327 5-5 5-2.4249 0-4.439-1.7139-4.9004-4h5.4004c.27613-2.8e-5.49997-.22387.5-.5v-5.4004z"/>
</svg>
