<svg width="17" height="17" version="1.1" viewBox="0 0 17 17" xmlns="http://www.w3.org/2000/svg">
 <path d="m1.5 1a0.5 0.5 0 0 0-0.5 0.5 0.5 0.5 0 0 0 0.5 0.5h1a0.5 0.5 0 0 0 0.5-0.5 0.5 0.5 0 0 0-0.5-0.5h-1zm4 0a0.5 0.5 0 0 0-0.5 0.5 0.5 0.5 0 0 0 0.5 0.5h1a0.5 0.5 0 0 0 0.5-0.5 0.5 0.5 0 0 0-0.5-0.5h-1zm4 0a0.5 0.5 0 0 0-0.5 0.5 0.5 0.5 0 0 0 0.5 0.5h1a0.5 0.5 0 0 0 0.5-0.5 0.5 0.5 0 0 0-0.5-0.5h-1zm-8 3a0.5 0.5 0 0 0-0.5 0.5v1a0.5 0.5 0 0 0 0.5 0.5 0.5 0.5 0 0 0 0.5-0.5v-1a0.5 0.5 0 0 0-0.5-0.5zm9 0a0.5 0.5 0 0 0-0.5 0.5v1a0.5 0.5 0 0 0 0.5 0.5 0.5 0.5 0 0 0 0.5-0.5v-1a0.5 0.5 0 0 0-0.5-0.5zm0 2h-3-1a0.50005 0.50005 0 0 0-0.5 0.5v3 1.0078a0.50005 0.50005 0 0 0 0.0039062 0.056641 0.50005 0.50005 0 0 0 0.49609 0.44336h4a0.50005 0.50005 0 0 0 0.5-0.5v-1.0078-1-1.5h0.5a0.5 0.5 0 0 0 0.5-0.5 0.5 0.5 0 0 0-0.5-0.5h-1zm4 0a0.5 0.5 0 0 0-0.5 0.5 0.5 0.5 0 0 0 0.5 0.5h1a0.5 0.5 0 0 0 0.5-0.5 0.5 0.5 0 0 0-0.5-0.5h-1zm-7.5 1h0.5 2.5v1.5 1 0.50781h-1.4121a0.5 0.5 0 0 0-0.087891-0.007812h-1a0.5 0.5 0 0 0-0.087891 0.007812h-0.41211v-0.50781-2.5zm-5.5 1a0.5 0.5 0 0 0-0.5 0.5v1a0.5 0.5 0 0 0 0.5 0.5 0.5 0.5 0 0 0 0.5-0.5v-1a0.5 0.5 0 0 0-0.5-0.5zm14 1a0.5 0.5 0 0 0-0.5 0.5v1a0.5 0.5 0 0 0 0.5 0.5 0.5 0.5 0 0 0 0.5-0.5v-1a0.5 0.5 0 0 0-0.5-0.5zm-12 1a0.5 0.5 0 0 0-0.5 0.5 0.5 0.5 0 0 0 0.5 0.5h1a0.5 0.5 0 0 0 0.5-0.5 0.5 0.5 0 0 0-0.5-0.5h-1zm3 3a0.5 0.5 0 0 0-0.5 0.5v1a0.5 0.5 0 0 0 0.5 0.5 0.5 0.5 0 0 0 0.5-0.5v-1a0.5 0.5 0 0 0-0.5-0.5zm9 0a0.5 0.5 0 0 0-0.5 0.5v1a0.5 0.5 0 0 0 0.5 0.5 0.5 0.5 0 0 0 0.5-0.5v-1a0.5 0.5 0 0 0-0.5-0.5zm-7 2a0.5 0.5 0 0 0-0.5 0.5 0.5 0.5 0 0 0 0.5 0.5h1a0.5 0.5 0 0 0 0.5-0.5 0.5 0.5 0 0 0-0.5-0.5h-1zm4 0a0.5 0.5 0 0 0-0.5 0.5 0.5 0.5 0 0 0 0.5 0.5h1a0.5 0.5 0 0 0 0.5-0.5 0.5 0.5 0 0 0-0.5-0.5h-1z" stop-color="#000000" stroke-linecap="round" stroke-linejoin="round"/>
</svg>
