<svg width="17" height="17" version="1.1" viewBox="0 0 17 17" xmlns="http://www.w3.org/2000/svg">
 <path d="m1.5 1a0.5 0.5 0 0 0-0.5 0.5 0.5 0.5 0 0 0 0.5 0.5h1a0.5 0.5 0 0 0 0.5-0.5 0.5 0.5 0 0 0-0.5-0.5h-1zm4 0a0.5 0.5 0 0 0-0.5 0.5 0.5 0.5 0 0 0 0.5 0.5h1a0.5 0.5 0 0 0 0.5-0.5 0.5 0.5 0 0 0-0.5-0.5h-1zm4 0a0.5 0.5 0 0 0-0.5 0.5 0.5 0.5 0 0 0 0.5 0.5h1a0.5 0.5 0 0 0 0.5-0.5 0.5 0.5 0 0 0-0.5-0.5h-1zm4 0a0.5 0.5 0 0 0-0.5 0.5 0.5 0.5 0 0 0 0.5 0.5h1a0.5 0.5 0 0 0 0.5-0.5 0.5 0.5 0 0 0-0.5-0.5h-1zm-10 2a0.50005 0.50005 0 0 0-0.22461 0.060547 0.50005 0.50005 0 0 0-0.056641 0.037109 0.50005 0.50005 0 0 0-0.12109 0.12109 0.50005 0.50005 0 0 0-0.037109 0.056641 0.50005 0.50005 0 0 0-0.060547 0.22461v4a0.50005 0.50005 0 0 0 0.060547 0.22461 0.50005 0.50005 0 0 0 0.037109 0.056641 0.50005 0.50005 0 0 0 0.12109 0.12109 0.50005 0.50005 0 0 0 0.056641 0.037109 0.50005 0.50005 0 0 0 0.22461 0.060547h4a0.50005 0.50005 0 0 0 0.22461-0.060547 0.50005 0.50005 0 0 0 0.056641-0.037109 0.50005 0.50005 0 0 0 0.12109-0.12109 0.50005 0.50005 0 0 0 0.037109-0.056641 0.50005 0.50005 0 0 0 0.060547-0.22461v-4a0.50005 0.50005 0 0 0-0.060547-0.22461 0.50005 0.50005 0 0 0-0.037109-0.056641 0.50005 0.50005 0 0 0-0.12109-0.12109 0.50005 0.50005 0 0 0-0.056641-0.037109 0.50005 0.50005 0 0 0-0.22461-0.060547h-4zm6 0a0.50005 0.50005 0 0 0-0.22461 0.060547 0.50005 0.50005 0 0 0-0.056641 0.037109 0.50005 0.50005 0 0 0-0.12109 0.12109 0.50005 0.50005 0 0 0-0.037109 0.056641 0.50005 0.50005 0 0 0-0.060547 0.22461v4a0.50005 0.50005 0 0 0 0.060547 0.22461 0.50005 0.50005 0 0 0 0.037109 0.056641 0.50005 0.50005 0 0 0 0.12109 0.12109 0.50005 0.50005 0 0 0 0.056641 0.037109 0.50005 0.50005 0 0 0 0.22461 0.060547h4a0.50005 0.50005 0 0 0 0.22461-0.060547 0.50005 0.50005 0 0 0 0.056641-0.037109 0.50005 0.50005 0 0 0 0.12109-0.12109 0.50005 0.50005 0 0 0 0.037109-0.056641 0.50005 0.50005 0 0 0 0.060547-0.22461v-4a0.50005 0.50005 0 0 0-0.060547-0.22461 0.50005 0.50005 0 0 0-0.037109-0.056641 0.50005 0.50005 0 0 0-0.12109-0.12109 0.50005 0.50005 0 0 0-0.056641-0.037109 0.50005 0.50005 0 0 0-0.22461-0.060547h-4zm6 0a0.5 0.5 0 0 0-0.5 0.5v1a0.5 0.5 0 0 0 0.5 0.5 0.5 0.5 0 0 0 0.5-0.5v-1a0.5 0.5 0 0 0-0.5-0.5zm-14 1a0.5 0.5 0 0 0-0.5 0.5v1a0.5 0.5 0 0 0 0.5 0.5 0.5 0.5 0 0 0 0.5-0.5v-1a0.5 0.5 0 0 0-0.5-0.5zm2.5 0h3v3h-3v-3zm6 0h3v3h-3v-3zm5.5 3a0.5 0.5 0 0 0-0.5 0.5v1a0.5 0.5 0 0 0 0.5 0.5 0.5 0.5 0 0 0 0.5-0.5v-1a0.5 0.5 0 0 0-0.5-0.5zm-14 1a0.5 0.5 0 0 0-0.5 0.5v1a0.5 0.5 0 0 0 0.5 0.5 0.5 0.5 0 0 0 0.5-0.5v-1a0.5 0.5 0 0 0-0.5-0.5zm2 1a0.50005 0.50005 0 0 0-0.22461 0.060547 0.50005 0.50005 0 0 0-0.056641 0.037109 0.50005 0.50005 0 0 0-0.12109 0.12109 0.50005 0.50005 0 0 0-0.037109 0.056641 0.50005 0.50005 0 0 0-0.060547 0.22461v4a0.50005 0.50005 0 0 0 0.060547 0.22461 0.50005 0.50005 0 0 0 0.037109 0.056641 0.50005 0.50005 0 0 0 0.12109 0.12109 0.50005 0.50005 0 0 0 0.056641 0.037109 0.50005 0.50005 0 0 0 0.22461 0.060547h4a0.50005 0.50005 0 0 0 0.22461-0.060547 0.50005 0.50005 0 0 0 0.056641-0.037109 0.50005 0.50005 0 0 0 0.12109-0.12109 0.50005 0.50005 0 0 0 0.037109-0.056641 0.50005 0.50005 0 0 0 0.060547-0.22461v-4a0.50005 0.50005 0 0 0-0.060547-0.22461 0.50005 0.50005 0 0 0-0.037109-0.056641 0.50005 0.50005 0 0 0-0.12109-0.12109 0.50005 0.50005 0 0 0-0.056641-0.037109 0.50005 0.50005 0 0 0-0.22461-0.060547h-4zm5.9375 0a0.4381 0.4381 0 0 0-0.4375 0.4375v0.0625 4 0.0625a0.4381 0.4381 0 0 0 0.4375 0.4375h0.0625 4 0.0625a0.4381 0.4381 0 0 0 0.4375-0.4375v-0.0625-3.9824a0.5 0.5 0 0 0 0-0.017578v-0.0625a0.4381 0.4381 0 0 0-0.017578-0.0625 0.4381 0.4381 0 0 0-0.00586-0.029297 0.5 0.5 0 0 0-0.003906-0.0058593 0.4381 0.4381 0 0 0-0.33984-0.32031 0.5 0.5 0 0 0-0.023437-0.0078124 0.4381 0.4381 0 0 0-0.046875-0.011719h-0.0625-0.035156-4.0273zm-5.4375 1h3v3h-3v-3zm11.5 1a0.5 0.5 0 0 0-0.5 0.5v1a0.5 0.5 0 0 0 0.5 0.5 0.5 0.5 0 0 0 0.5-0.5v-1a0.5 0.5 0 0 0-0.5-0.5zm-14 1a0.5 0.5 0 0 0-0.5 0.5v1a0.5 0.5 0 0 0 0.5 0.5 0.5 0.5 0 0 0 0.5-0.5v-1a0.5 0.5 0 0 0-0.5-0.5zm1 3a0.5 0.5 0 0 0-0.5 0.5 0.5 0.5 0 0 0 0.5 0.5h1a0.5 0.5 0 0 0 0.5-0.5 0.5 0.5 0 0 0-0.5-0.5h-1zm4 0a0.5 0.5 0 0 0-0.5 0.5 0.5 0.5 0 0 0 0.5 0.5h1a0.5 0.5 0 0 0 0.5-0.5 0.5 0.5 0 0 0-0.5-0.5h-1zm4 0a0.5 0.5 0 0 0-0.5 0.5 0.5 0.5 0 0 0 0.5 0.5h1a0.5 0.5 0 0 0 0.5-0.5 0.5 0.5 0 0 0-0.5-0.5h-1zm4 0a0.5 0.5 0 0 0-0.5 0.5 0.5 0.5 0 0 0 0.5 0.5h1a0.5 0.5 0 0 0 0.5-0.5 0.5 0.5 0 0 0-0.5-0.5h-1z"/>
</svg>
