<svg width="17" height="17" version="1.1" viewBox="0 0 17 17" xmlns="http://www.w3.org/2000/svg">
 <path d="m1.5 2a0.50005 0.50005 0 0 0-0.5 0.5v10a0.50005 0.50005 0 0 0 0.5 0.5h2v3a0.50005 0.50005 0 0 0 0.85352 0.35352l3.3535-3.3535h7.793a0.50005 0.50005 0 0 0 0.5-0.5v-10a0.50005 0.50005 0 0 0-0.5-0.5h-14zm0.5 1h13v9h-7.5a0.5 0.5 0 0 0-0.19141 0.039062 0.5 0.5 0 0 0-0.03125 0.013672 0.5 0.5 0 0 0-0.03125 0.017578 0.5 0.5 0 0 0-0.050781 0.033204 0.5 0.5 0 0 0-0.0039063 0.003906 0.5 0.5 0 0 0-0.044922 0.039062 0.5 0.5 0 0 0-0.0058594 0.00586l-2.6406 2.6406v-2.293a0.5 0.5 0 0 0-0.5-0.5h-2v-9zm6.5 1a0.50005 0.50005 0 0 0-0.47461 0.3418l-2 6a0.5 0.5 0 0 0 0.31641 0.63281 0.5 0.5 0 0 0 0.63281-0.31641l0.55273-1.6582h1.9453l0.55273 1.6582a0.5 0.5 0 0 0 0.63281 0.31641 0.5 0.5 0 0 0 0.31641-0.63281l-2-6a0.50005 0.50005 0 0 0-0.47461-0.3418zm0 2.082 0.63867 1.918h-1.2773l0.63867-1.918z"/>
</svg>
