<svg width="17" height="17" version="1.1" viewBox="0 0 17 17" xmlns="http://www.w3.org/2000/svg">
 <path d="m8.5 1c-4.1362 0-7.5 3.3638-7.5 7.5-1.2e-7 4.1362 3.3638 7.5 7.5 7.5 4.1362 0 7.5-3.3638 7.5-7.5 0-4.1362-3.3638-7.5-7.5-7.5zm0 1c3.5958-3e-7 6.5 2.9042 6.5 6.5 0 3.5958-2.9042 6.5-6.5 6.5-3.5958 0-6.5-2.9042-6.5-6.5 0-3.5958 2.9042-6.5 6.5-6.5zm-1.1426 4.3887c-0.53028 0-0.94418 0.18571-1.2402 0.55859-0.29418 0.37288-0.44141 0.88926-0.44141 1.5488 1e-7 0.68393 0.13001 1.2068 0.38672 1.5703 0.25858 0.36351 0.6257 0.54492 1.1035 0.54492 0.40099 0 0.7807-0.074787 1.1367-0.22656v-2.1074h-1.2578v0.67383h0.50977v0.94141c-0.12742 0.031854-0.25328 0.048828-0.37695 0.048828-0.23422 0-0.41344-0.12368-0.53711-0.36914-0.1218-0.24546-0.18164-0.5996-0.18164-1.0605 0-0.44783 0.083314-0.80001 0.25195-1.0586 0.17051-0.26045 0.40097-0.39062 0.69141-0.39062 0.20237 0 0.42 0.068214 0.65234 0.20312l0.24219-0.625c-0.29793-0.16864-0.61154-0.25195-0.93945-0.25195zm-3.8672 0.058594v4.1094h1.8242v-0.66992h-1.0605v-3.4395h-0.76367zm5.4375 0v4.1094h0.76562v-1.4902h0.19141c0.41598 0 0.73389-0.11531 0.95313-0.34766 0.2211-0.23422 0.33008-0.57122 0.33008-1.0078 0-0.8432-0.39904-1.2637-1.1973-1.2637h-1.043zm2.7578 0v4.1094h1.8242v-0.66992h-1.0586v-3.4395h-0.76562zm-1.9922 0.66016h0.18555c0.17613 0 0.30631 0.053272 0.39062 0.1582 0.08432 0.10306 0.12695 0.26108 0.12695 0.47656 0 0.23422-0.046857 0.4028-0.13867 0.50586-0.091814 0.10306-0.23059 0.1543-0.41797 0.1543h-0.14648v-1.2949z"/>
</svg>
