<svg width="17" height="17" version="1.1" viewBox="0 0 17 17" xmlns="http://www.w3.org/2000/svg">
    <path d="m8.5.99414a.5.5 0 00-.5.5v2.0059a.5.5 0 00.5.5.5.5 0 00.5-.5v-2.0059a.5.5 0 00-.5-.5zm5 2.0059a.5.5 0 00-.35352.14648l-1.418 1.418a.5.5 0 000 .70703.5.5 0 00.70703 0l1.418-1.418a.5.5 0 000-.70703.5.5 0 00-.35352-.14648zm-10.057.0039062a.5.5 0 00-.29688.14258.5.5 0 000 .70703l1.418 1.418a.5.5 0 00.70703 0 .5.5 0 000-.70703l-1.418-1.418a.5.5 0 00-.41016-.14258zm5.0566 1.9961c-1.9274 0-3.5 1.5726-3.5 3.5 1e-7 1.9274 1.5726 3.5 3.5 3.5 1.9274 0 3.5-1.5726 3.5-3.5 0-1.9274-1.5726-3.5-3.5-3.5zm0 .94141c1.4191 0 2.5586 1.1395 2.5586 2.5586 0 1.4191-1.1395 2.5586-2.5586 2.5586-1.4191 0-2.5586-1.1395-2.5586-2.5586 0-1.4191 1.1395-2.5586 2.5586-2.5586zm-7.0059 2.0586a.5.5 0 00-.5.5.5.5 0 00.5.5h2.0059a.5.5 0 00.5-.5.5.5 0 00-.5-.5h-2.0059zm11.996 0a.5.5 0 00-.5.5.5.5 0 00.5.5h2.0039a.5.5 0 00.5-.5.5.5 0 00-.5-.5h-2.0039zm-8.4727 3.4824a.5.5 0 00-.35352.14648l-1.418 1.418a.5.5 0 000 .70703.5.5 0 00.70703 0l1.418-1.418a.5.5 0 000-.70703.5.5 0 00-.35352-.14648zm6.9082.003906a.5.5 0 00-.29688.14258.5.5 0 000 .70703l1.418 1.418a.5.5 0 00.70703 0 .5.5 0 000-.70703l-1.418-1.418a.5.5 0 00-.41016-.14258zm-3.4258 1.5039a.5.5 0 00-.5.5v2.0039a.5.5 0 00.5.5.5.5 0 00.5-.5v-2.0039a.5.5 0 00-.5-.5z"/>
</svg>
