<svg width="17" height="17" version="1.1" viewBox="0 0 17 17" xml:space="preserve" xmlns="http://www.w3.org/2000/svg"><path d="m4.5 3c-0.8225 0-1.5 0.6775-1.5 1.5s0.6775 1.5 1.5 1.5 1.5-0.6775 1.5-1.5-0.6775-1.5-1.5-1.5zm0 1c0.28206 0 0.5 0.21794 0.5 0.5s-0.21794 0.5-0.5 0.5-0.5-0.21794-0.5-0.5 0.21794-0.5 0.5-0.5zm3.5 0a0.5 0.5 0 0 0-0.5 0.5 0.5 0.5 0 0 0 0.5 0.5h5a0.5 0.5 0 0 0 0.5-0.5 0.5 0.5 0 0 0-0.5-0.5h-5zm-3.5 3c-0.8225 0-1.5 0.6775-1.5 1.5s0.6775 1.5 1.5 1.5 1.5-0.6775 1.5-1.5-0.6775-1.5-1.5-1.5zm0 1c0.28206 0 0.5 0.21794 0.5 0.5s-0.21794 0.5-0.5 0.5-0.5-0.21794-0.5-0.5 0.21794-0.5 0.5-0.5zm3.5 0a0.5 0.5 0 0 0-0.5 0.5 0.5 0.5 0 0 0 0.5 0.5h5a0.5 0.5 0 0 0 0.5-0.5 0.5 0.5 0 0 0-0.5-0.5h-5zm-3.5 3c-0.8225 0-1.5 0.6775-1.5 1.5s0.6775 1.5 1.5 1.5 1.5-0.6775 1.5-1.5-0.6775-1.5-1.5-1.5zm0 1c0.28206 0 0.5 0.21794 0.5 0.5s-0.21794 0.5-0.5 0.5-0.5-0.21794-0.5-0.5 0.21794-0.5 0.5-0.5zm3.5 0a0.5 0.5 0 0 0-0.5 0.5 0.5 0.5 0 0 0 0.5 0.5h5a0.5 0.5 0 0 0 0.5-0.5 0.5 0.5 0 0 0-0.5-0.5h-5z"/></svg>
