<svg width="16" height="16" version="1.1" viewBox="0 0 16 16" xmlns="http://www.w3.org/2000/svg">
    <path d="m6 1c-2.7555 0-5 2.2445-5 5s2.2445 5 5 5c1.1975 0 2.298-.42532 3.1602-1.1309l4.4863 4.4863a.5.5 0 00.70703 0 .5.5 0 000-.70898l-4.4844-4.4844c.70664-.86253 1.1309-1.9636 1.1309-3.1621 0-2.7555-2.2445-5-5-5zm0 1c2.2151 0 4 1.7849 4 4 0 1.099-.43904 2.0907-1.1523 2.8125a.5.5 0 00-.019531.015625.5.5 0 00-.013672.017578c-.72179.71344-1.7153 1.1543-2.8145 1.1543-2.2151 0-4-1.7849-4-4s1.7849-4 4-4z"/>
</svg>
