<svg width="17" height="17" version="1.1" viewBox="0 0 17 17" xmlns="http://www.w3.org/2000/svg">
    <path d="m8.5 1.5c-.27614 0-.5.22386-.5.5v2h-5.5c-.27613 2.76e-5-.49997.22387-.5.5v3c2.76e-5.27613.22387.49997.5.5h5.5v1h-2.5c-.27613 2.76e-5-.49997.22387-.5.5v3c2.76e-5.27613.22387.49997.5.5h2.5v2c0 .27614.22386.5.5.5s.5-.22386.5-.5v-2h2.5c.27613-2.8e-5.49997-.22387.5-.5v-3c-2.8e-5-.27613-.22387-.49997-.5-.5h-2.5v-1h5.5c.27613-2.76e-5.49997-.22387.5-.5v-3c-2.8e-5-.27613-.22387-.49997-.5-.5h-5.5v-2c0-.27614-.22386-.5-.5-.5zm-5.5 3.5h11v2h-11zm3 5h4.9999v2h-4.9999z"/>
</svg>
