<svg width="16" height="16" version="1.1" viewBox="0 0 16 16" xmlns="http://www.w3.org/2000/svg">
    <path d="m8 1.5c-.27614 0-.5.22386-.5.5v2h-5c-.27613 2.76e-5-.49997.22387-.5.5v3c2.76e-5.27613.22387.49997.5.5h5v1h-2.502c-.27613 2.76e-5-.49997.22387-.5.5v3c2.76e-5.27613.22387.49997.5.5h2.502v2c0 .27614.22386.5.5.5s.5-.22386.5-.5v-2h2.502c.27613-2.8e-5.49997-.22387.5-.5v-3c-2.8e-5-.27613-.22387-.49997-.5-.5h-2.502v-1h5c.27613-2.76e-5.49997-.22387.5-.5v-3c-2.8e-5-.27613-.22387-.49997-.5-.5h-5v-2c0-.27614-.22386-.5-.5-.5zm-5 3.5h10v2h-10zm2.498 5h5.0039v2h-5.0039z"/>
</svg>
