<svg width="17" height="17" version="1.1" viewBox="0 0 17 17" xmlns="http://www.w3.org/2000/svg">
    <path d="m1.5 8.5c0 .27614.22386.5.5.5h2v5.5c3e-5.27613.22387.49997.5.5h3c.27613-3e-5.49997-.22387.5-.5v-5.5h1v2.502c3e-5.27613.22387.49998.5.5h3c.27613-2e-5.49997-.22387.5-.5v-2.502h2c.27614 0 .5-.22386.5-.5s-.22386-.5-.5-.5h-2v-2.502c-3e-5-.27613-.22387-.49997-.5-.5h-3c-.27613 3e-5-.49997.22387-.5.5v2.502h-1v-5.5c-3e-5-.27613-.22387-.49997-.5-.5h-3c-.27613 3e-5-.49997.22387-.5.5v5.5h-2c-.27614 0-.5.22386-.5.5zm3.5 5.5v-11h2v11zm5-2.998v-5.0039h2v5.0039z"/>
</svg>
