<svg width="17" height="17" version="1.1" viewBox="0 0 17 17" xmlns="http://www.w3.org/2000/svg">
    <path d="m4.5 14.998c-.27613-2.8e-5-.49997-.22387-.5-.5v-9.998c2.8e-5-.27613.22387-.49997.5-.5h3c.27613 2.8e-5.49997.22387.5.5v9.998c-2.8e-5.27613-.22387.49997-.5.5zm.5-1h2v-8.998h-2zm4.5-3c-.27613-2.8e-5-.49997-.22387-.5-.5v-6c2.8e-5-.27613.22387-.49997.5-.5h3c.27613 2.8e-5.49997.22387.5.5v6c-2.8e-5.27613-.22387.49997-.5.5zm.5-1h2v-5h-2zm-6.5-7c-.27614 0-.5-.22386-.5-.5s.22386-.5.5-.5h10c.27614 0 .5.22386.5.5s-.22386.5-.5.5z"/>
</svg>
