<svg width="17" height="17" version="1.1" viewBox="0 0 17 17" xmlns="http://www.w3.org/2000/svg">
    <path d="m2 4.5c2.8e-5-.27613.22387-.49997.5-.5h9.998c.27613 2.76e-5.49997.22387.5.5v3c-2.8e-5.27613-.22387.49997-.5.5h-9.998c-.27613-2.76e-5-.49997-.22387-.5-.5zm1 .5v2h8.998v-2zm3 4.5c2.8e-5-.27613.22387-.49997.5-.5h6c.27613 2.76e-5.49997.22387.5.5v3c-2.8e-5.27613-.22387.49997-.5.5h-6c-.27613-2.8e-5-.49997-.22387-.5-.5zm1 .5v2h5v-2zm7-6.5c0-.27614.22386-.5.5-.5s.5.22386.5.5v10c0 .27614-.22386.5-.5.5s-.5-.22386-.5-.5z"/>
</svg>
