<svg width="17" height="17" version="1.1" viewBox="0 0 17 17" xmlns="http://www.w3.org/2000/svg">
    <path d="m16 8.5005c0 2.2207-.96636 4.2184-2.5021 5.5901-1.9247.93756-3.7182.28152-4.3098-.12818 1.8898-.41354 3.3156-2.6985 3.3156-5.4607 0-2.7627-1.4267-5.0473-3.3156-5.4638.59405-.41078 2.3875-1.0654 4.3095-.12926-.87888-.58187-1.905-.91792-3.0023-.91792-1.7872 0-3.3859.88524-4.4649 2.2821l.0005625.0005625c-.82879.97881-1.3647 2.4254-1.4007 4.052v.35376c.035999 1.623.57494 3.0704 1.4037 4.049 1.0754 1.3979 2.6743 2.2821 4.4614 2.2821 1.0987 0 2.127-.33386 3.0057-.91708-1.3301 1.1869-3.0815 1.9069-5.0004 1.9069-.12016 0-.23973-.002786-.3571-.00825-3.9758-.18768-7.1431-3.4691-7.1431-7.4915 0-4.1429 3.3574-7.5002 7.5-7.5002h.02878c1.9097.00576 3.6507.72686 4.9716 1.9105l-.0028-.00164c1.5344 1.3743 2.5018 3.3718 2.5018 5.5927v-.0011z"/>
</svg>
