<svg width="16" height="16" version="1.1" viewBox="0 0 16 16" xmlns="http://www.w3.org/2000/svg">
    <path d="m15 8.0004c0 2.0726-.90193 3.9371-2.3353 5.2174-1.7964.87505-3.4703.26275-4.0224-.11963 1.7638-.38597 3.0945-2.5186 3.0945-5.0966 0-2.5785-1.3316-4.7108-3.0945-5.0995.55444-.38339 2.2283-.99439 4.0222-.12064-.82028-.54307-1.778-.85672-2.8021-.85672-1.668 0-3.1601.82622-4.1672 2.1299l.000525.000525c-.77353.91355-1.2737 2.2637-1.3073 3.7818v.33017c.033599 1.5148.53661 2.8657 1.3101 3.779 1.0037 1.3047 2.496 2.1299 4.1639 2.1299 1.0254 0 1.9852-.3116 2.8053-.85593-1.2414 1.1078-2.876 1.7798-4.667 1.7798-.11215 0-.22375-.0026-.33329-.0077-3.7107-.17517-6.6668-3.2378-6.6668-6.992 0-3.8667 3.1335-7.0001 6.9999-7.0001h.026861c1.7824.005382 3.4073.6784 4.6401 1.7831l-.0026-.00153c1.4321 1.2827 2.335 3.147 2.335 5.2198v-.0010293z"/>
</svg>
