<svg width="17" height="17" version="1.1" viewBox="0 0 17 17" xmlns="http://www.w3.org/2000/svg">
    <path d="m3.5 1c-.27613 2.76e-5-.49997.22387-.5.5v6.5c0 .27614.22386.5.5.5s.5-.22386.5-.5v-6h5v3.5c2.76e-5.27613.22387.49997.5.5h3.5v9h-2c-.27614 0-.5.22386-.5.5s.22386.5.5.5h2.5c.27613-2.8e-5.49997-.22387.5-.5v-10c-9e-6-.02947-.0026-.058881-.0078-.087891-.00062-.00326-.0013-.00652-.002-.00977-.0012-.00523-.0025-.010438-.0039-.015625-.0054-.023933-.01261-.047434-.02148-.070313-.0048-.011255-.01-.02233-.01563-.033203-.007-.015361-.01487-.030354-.02344-.044922-.0085-.013448-.01761-.026483-.02734-.039062-.01212-.015737-.02516-.030737-.03906-.044922-.0019-.00262-.0039-.00523-.0059-.00781l-.03125-.03125-3.9395-3.9375c-.00931-.01083-.019089-.021257-.029297-.03125-.0013-.0006567-.0026-.00131-.00391-.00195-.032532-.032223-.069331-.059825-.10938-.082031-.00129-.00131-.0026-.00261-.00391-.00391-.00324-.00134-.0065-.00264-.00977-.00391-.040636-.02079-.084006-.035905-.12883-.044915-.032153-.00645-.064863-.0097196-.097656-.0097656zm6.5 1.709 2.291 2.291h-2.291zm-4.5 7.791c-.27614 0-.5.22386-.5.5v2h-2c-.27614 0-.5.22386-.5.5s.22386.5.5.5h2v2c0 .27614.22386.5.5.5s.5-.22386.5-.5v-2h2c.27614 0 .5-.22386.5-.5s-.22386-.5-.5-.5h-2v-2c0-.27614-.22386-.5-.5-.5z"/>
</svg>
