<svg width="17" height="17" version="1.1" viewBox="0 0 17 17" xmlns="http://www.w3.org/2000/svg">
 <path d="m3.5 1c-0.27613 2.76e-5 -0.49997 0.22387-0.5 0.5v14c2.76e-5 0.27613 0.22387 0.49997 0.5 0.5h10c0.27613-2.8e-5 0.49997-0.22387 0.5-0.5v-10c-5e-6 -0.02947-0.0026-0.058881-0.0078-0.087891-6.34e-4 -0.00326-0.0013-0.00652-2e-3 -0.00977-0.0012-0.00523-0.0025-0.010438-0.0039-0.015625-0.0054-0.023933-0.0126-0.047434-0.02148-0.070313-0.0048-0.011255-0.01001-0.02233-0.01563-0.033203-7e-3 -0.01536-0.01487-0.030354-0.02344-0.044922-0.0085-0.013448-0.01761-0.026484-0.02734-0.039062-0.01212-0.015736-0.02516-0.030737-0.03906-0.044922-0.0019-0.00262-0.0039-0.00523-0.0059-0.00781l-0.03125-0.03125-3.9395-3.9375c-0.00931-0.01083-0.019089-0.021257-0.029297-0.03125-0.0013-6.557e-4 -0.0026-0.00131-0.00391-0.00195-0.032532-0.032223-0.069336-0.059825-0.10938-0.082031-0.0013-0.00131-0.0026-0.00261-0.00391-0.00391-0.00324-0.00134-0.0065-0.00264-0.00977-0.00391-0.040714-0.020797-0.084088-0.035912-0.12891-0.044922-0.032153-0.0064499-0.064862-0.009721-0.097656-0.009766h-6zm0.5 1h5v3.5c2.76e-5 0.27613 0.22387 0.49997 0.5 0.5h3.5v9h-9zm6 0.70898 2.291 2.291h-2.291z"/>
</svg>
