<svg width="17" height="17" version="1.1" viewBox="0 0 17 17" xmlns="http://www.w3.org/2000/svg">
 <path d="m6.5 1a0.50005 0.50005 0 0 0-0.5 0.5v2a0.50005 0.50005 0 0 0 0.5 0.5h3a0.50005 0.50005 0 0 0 0.5-0.5v-2a0.50005 0.50005 0 0 0-0.5-0.5h-3zm-2.9805 1a0.50005 0.50005 0 0 0-0.5 0.5l-0.019531 12a0.50005 0.50005 0 0 0 0.5 0.5h1.5a0.5 0.5 0 0 0 0.5-0.5 0.5 0.5 0 0 0-0.5-0.5h-1l0.017578-11h0.48242a0.5 0.5 0 0 0 0.5-0.5 0.5 0.5 0 0 0-0.5-0.5h-0.98047zm3.4805 0h2v1h-2v-1zm4.5 0a0.5 0.5 0 0 0-0.5 0.5 0.5 0.5 0 0 0 0.5 0.5h0.5v2a0.5 0.5 0 0 0 0.5 0.5 0.5 0.5 0 0 0 0.5-0.5v-2.5a0.50005 0.50005 0 0 0-0.5-0.5h-1zm-4 5a0.50055 0.50055 0 0 0-0.5 0.5v8a0.50055 0.50055 0 0 0 0.5 0.50195h6a0.50055 0.50055 0 0 0 0.50195-0.50195v-8a0.50055 0.50055 0 0 0-0.50195-0.5h-6zm0.50195 1.002h4.998v6.998h-4.998v-6.998zm1.498 0.99805a0.50096 0.50096 0 0 0-0.5 0.5 0.50096 0.50096 0 0 0 0.5 0.5h2a0.50096 0.50096 0 0 0 0.5-0.5 0.50096 0.50096 0 0 0-0.5-0.5h-2zm0 2a0.50096 0.50096 0 0 0-0.5 0.5 0.50096 0.50096 0 0 0 0.5 0.5h2a0.50096 0.50096 0 0 0 0.5-0.5 0.50096 0.50096 0 0 0-0.5-0.5h-2zm0 1.998a0.50112 0.50112 0 0 0-0.50195 0.50195 0.50112 0.50112 0 0 0 0.50195 0.50195h2a0.50112 0.50112 0 0 0 0.50195-0.50195 0.50112 0.50112 0 0 0-0.50195-0.50195h-2z"/>
</svg>
