<svg width="16" height="16" version="1.1" viewBox="0 0 16 16" xmlns="http://www.w3.org/2000/svg">
    <path d="m11 2a.50005.50005 0 00-.35352.14648l-8 8a.50005.50005 0 00-.14062.27148l-.5 3a.50005.50005 0 00.57617.57617l3-.5a.50005.50005 0 00.27148-.14062l8-8a.50005.50005 0 00.14648-.35352v-1a.50005.50005 0 00-.14648-.35352l-1.5-1.5a.50005.50005 0 00-.35352-.14648h-1zm.20703 1h.58594l1.207 1.207v.58594l-.75.75-1.793-1.793.75-.75zm-1.457 1.457 1.793 1.793-5.793 5.793-1.793-1.793 5.793-5.793zm-6.3457 6.6543 1.4824 1.4824-1.2324.20508-.45508-.45508.20508-1.2324z" color="#000000" stroke-linecap="round" stroke-linejoin="round" style="-inkscape-stroke:none"/>
</svg>
