<svg width="17" height="17" version="1.1" viewBox="0 0 17 17" xmlns="http://www.w3.org/2000/svg">
    <path d="m12 2c-.1326 2.32e-5-.25976.052712-.35352.14648l-8.9997 8.9997c-.074067.07359-.12324.16852-.14062.27148l-.5 3c-.05712.33907.2371.63329.57617.57617l3-.5c.10296-.01738.19789-.06655.27148-.14062l8.9997-8.9997c.09377-.093758.14646-.22092.14648-.35352v-1c-2.3e-5-.1326-.05271-.25976-.14648-.35352l-1.5-1.5c-.093758-.093768-.22092-.14646-.35352-.14648h-1zm.20703 1h.58594l1.207 1.207v.58594l-.75.75-1.793-1.793.75-.75zm-1.457 1.457 1.793 1.793-6.7927 6.7927-1.793-1.793zm-7.3454 7.654 1.4824 1.4824-1.2324.20508-.45508-.45508z"/>
</svg>
