<svg width="16" height="16" version="1.1" viewBox="0 0 16 16" xmlns="http://www.w3.org/2000/svg">
    <path d="m4.4297 1.5059a.50005.50005 0 00-.16992.056641.50005.50005 0 00-.25977.4375v10.551a.50005.50005 0 00.92969.25586l2.5664-4.3223 3.0723 5.2676a.5.5 0 00.68359.18164.5.5 0 00.17969-.68359l-3.0625-5.25h4.6309a.50005.50005 0 00.27148-.91797l-8.5-5.5a.50005.50005 0 00-.3418-.076172zm.57031 1.4141 6.3066 4.0801h-3.8066a.5.5 0 00-.00195 0 .5.5 0 00-.15039.027344.50005.50005 0 00-.041016.015625.5.5 0 00-.058594.025391.5.5 0 00-.037109.03125.50005.50005 0 00-.046875.037109.5.5 0 00-.070312.082031.50005.50005 0 00-.023438.027344l-2.0703 3.4844v-7.8105z"/>
</svg>
