<svg width="17" height="17" version="1.1" viewBox="0 0 17 17" xmlns="http://www.w3.org/2000/svg">
    <path d="m4.4531 2.002a.50005.50005 0 00-.17578.050781.50005.50005 0 00-.27734.44727v12a.50005.50005 0 00.91016.28711l3.0371-4.3398 2.6133 4.793a.5.5 0 00.67969.19922.5.5 0 00.19922-.67969l-2.5957-4.7598h4.957a.50005.50005 0 00.30078-.90039l-9.3008-7a.50005.50005 0 00-.34766-.097656zm.54688 1.502 7.3027 5.4961h-4.291-.011719a.50005.50005 0 00-.0078125.0019531.5.5 0 00-.22266.054688.5.5 0 00-.0097656.0039063.5.5 0 00-.1543.13867.50005.50005 0 00-.015625.013672l-2.5898 3.6992v-9.4082z"/>
</svg>
