<svg width="17" height="17" version="1.1" viewBox="0 0 17 17" xmlns="http://www.w3.org/2000/svg">
 <path d="m7.5 2c-0.27613 2.76e-5 -0.49997 0.22387-0.5 0.5v1.793l-2.707 2.707h-1.793c-0.27613 2.8e-5 -0.49997 0.22387-0.5 0.5v2c2.8e-5 0.27613 0.22387 0.49997 0.5 0.5h2c0.27613-2.8e-5 0.49997-0.22387 0.5-0.5v-0.5h7v0.29297l-2.707 2.707h-1.793c-0.27613 2.8e-5 -0.49997 0.22387-0.5 0.5v2c2.8e-5 0.27613 0.22387 0.49997 0.5 0.5h2c0.27613-2.8e-5 0.49997-0.22387 0.5-0.5v-1.793l2.707-2.707h1.793c0.27613-2.8e-5 0.49997-0.22387 0.5-0.5v-2c-2.8e-5 -0.27613-0.22387-0.49997-0.5-0.5h-2c-0.27613 2.8e-5 -0.49997 0.22387-0.5 0.5v0.5h-7v-0.29297l2.707-2.707h1.793c0.27613-2.76e-5 0.49997-0.22387 0.5-0.5v-2c-2.76e-5 -0.27613-0.22387-0.49997-0.5-0.5h-2zm0.5 1h1v1h-1v-1zm-5 5h1v1h-1v-1zm10 0h1v1h-1v-1zm-5 5h1v1h-1v-1z"/>
</svg>
