<svg width="17" height="17" version="1.1" viewBox="0 0 17 17" xmlns="http://www.w3.org/2000/svg">
 <path d="m2.5 2a0.50005 0.50005 0 0 0-0.5 0.5v2a0.50005 0.50005 0 0 0 0.5 0.5h0.5v7h-0.5a0.50005 0.50005 0 0 0-0.5 0.5v2a0.50005 0.50005 0 0 0 0.5 0.5h2a0.50005 0.50005 0 0 0 0.5-0.5v-0.5h7v0.5a0.50005 0.50005 0 0 0 0.5 0.5h2a0.50005 0.50005 0 0 0 0.5-0.5v-2a0.50005 0.50005 0 0 0-0.5-0.5h-1.5605l-1.9414-2.4297a0.50005 0.50005 0 0 0 0.007812-0.070312v-2a0.50005 0.50005 0 0 0-0.007812-0.072266l1.9414-2.4277h1.5605a0.50005 0.50005 0 0 0 0.5-0.5v-2a0.50005 0.50005 0 0 0-0.5-0.5h-2a0.50005 0.50005 0 0 0-0.5 0.5v0.5h-7v-0.5a0.50005 0.50005 0 0 0-0.5-0.5h-2zm0.5 1h1v1h-1v-1zm10 0h1v1h-1v-1zm-8 1h7v0.5a0.50005 0.50005 0 0 0 0.007812 0.064453l-1.9473 2.4355h-1.5547a0.50005 0.50005 0 0 0-0.5 0.5v2a0.50005 0.50005 0 0 0 0.5 0.5h1.5547l1.9473 2.4336a0.50005 0.50005 0 0 0-0.007812 0.066406v0.5h-7v-0.5a0.50005 0.50005 0 0 0-0.5-0.5h-0.5v-7h0.5a0.50005 0.50005 0 0 0 0.5-0.5v-0.5zm4.0059 4h1v1h-1v-1zm-6.0059 5h1v1h-1v-1zm10 0h1v1h-1v-1z"/>
</svg>
