<svg width="17" height="17" version="1.1" viewBox="0 0 17 17" xmlns="http://www.w3.org/2000/svg">
    <path transform="matrix(.5 -.86603 -.86603 -.5 11.203 19.966)" d="m12.076 1.5117-6.9473.03125a.50005.50005 0 00-.42969.25l-3.5 6.0605a.50005.50005 0 00-.00195.49805l3.4473 6.0313a.50005.50005 0 00.43555.25195l6.9473-.03125a.50005.50005 0 00.42969-.25l3.5-6.0605a.50005.50005 0 00.002-.49805l-3.4473-6.0312a.50005.50005 0 00-.4356-.25195zm-.28711 1.002 3.1582 5.5273-3.2129 5.5645-6.3672.0293-3.1582-5.5293 3.2129-5.5645z"/>
</svg>
