<svg width="17" height="17" version="1.1" viewBox="0 0 17 17" xmlns="http://www.w3.org/2000/svg">
 <path d="m5.5 2a0.50005 0.50005 0 0 0-0.5 0.5v2.5h-2.5a0.50005 0.50005 0 0 0-0.5 0.5v6a0.50005 0.50005 0 0 0 0.5 0.5h2.5v2.5a0.50005 0.50005 0 0 0 0.5 0.5h6a0.50005 0.50005 0 0 0 0.5-0.5v-2.5h2.5a0.50005 0.50005 0 0 0 0.5-0.5v-6a0.50005 0.50005 0 0 0-0.5-0.5h-2.5v-2.5a0.50005 0.50005 0 0 0-0.5-0.5h-6zm0.5 1h5v2h-5v-2zm-3 3h2.5 6 2.5v5h-2v-2.5a0.50005 0.50005 0 0 0-0.5-0.5h-6a0.50005 0.50005 0 0 0-0.5 0.5v2.5h-2v-5zm3 3h5v2.5 2.5h-5v-2.5-2.5zm1.5 1a0.5 0.5 0 0 0-0.5 0.5 0.5 0.5 0 0 0 0.5 0.5h2a0.5 0.5 0 0 0 0.5-0.5 0.5 0.5 0 0 0-0.5-0.5h-2zm0 2a0.5 0.5 0 0 0-0.5 0.5 0.5 0.5 0 0 0 0.5 0.5h2a0.5 0.5 0 0 0 0.5-0.5 0.5 0.5 0 0 0-0.5-0.5h-2z"/>
</svg>
