<svg width="17" height="17" version="1.1" viewBox="0 0 17 17" xmlns="http://www.w3.org/2000/svg">
 <path d="m2.5 2a0.50005 0.50005 0 0 0-0.5 0.5v12a0.50005 0.50005 0 0 0 0.5 0.5h12a0.50005 0.50005 0 0 0 0.5-0.5v-12a0.50005 0.50005 0 0 0-0.5-0.5h-12zm0.5 1h11v11h-11v-11zm2.5 2a0.5 0.5 0 0 0-0.5 0.5 0.5 0.5 0 0 0 0.5 0.5 0.5 0.5 0 0 0 0.5-0.5 0.5 0.5 0 0 0-0.5-0.5zm2.5 0a0.5 0.5 0 0 0-0.5 0.5 0.5 0.5 0 0 0 0.5 0.5h3.5059a0.5 0.5 0 0 0 0.5-0.5 0.5 0.5 0 0 0-0.5-0.5h-3.5059zm3.5039 2.9941-3.5039 0.0058594a0.5 0.5 0 0 0-0.5 0.5 0.5 0.5 0 0 0 0.5 0.5l3.5059-0.0058594a0.5 0.5 0 0 0 0.5-0.5 0.5 0.5 0 0 0-0.50195-0.5zm-6.0039 0.0058594a0.5 0.5 0 0 0-0.5 0.5 0.5 0.5 0 0 0 0.5 0.5 0.5 0.5 0 0 0 0.5-0.5 0.5 0.5 0 0 0-0.5-0.5zm6.0039 2.9941-3.5039 0.005859a0.5 0.5 0 0 0-0.5 0.5 0.5 0.5 0 0 0 0.5 0.5l3.5059-0.005859a0.5 0.5 0 0 0 0.5-0.5 0.5 0.5 0 0 0-0.50195-0.5zm-6.0039 0.005859a0.5 0.5 0 0 0-0.5 0.5 0.5 0.5 0 0 0 0.5 0.5 0.5 0.5 0 0 0 0.5-0.5 0.5 0.5 0 0 0-0.5-0.5z"/>
</svg>
