<svg width="17" height="17" version="1.1" viewBox="0 0 17 17" xmlns="http://www.w3.org/2000/svg">
 <path d="m1.5 3c-0.27613 2.76e-5 -0.49997 0.22387-0.5 0.5v2c2.76e-5 0.27613 0.22387 0.49997 0.5 0.5h0.5v6.5c2.76e-5 0.27613 0.22387 0.49997 0.5 0.5h10.5v0.5c2.8e-5 0.27613 0.22387 0.49997 0.5 0.5h2c0.27613-2.8e-5 0.49997-0.22387 0.5-0.5v-2c-2.8e-5 -0.27613-0.22387-0.49997-0.5-0.5h-0.5v-6.5c-2.8e-5 -0.27613-0.22387-0.49997-0.5-0.5h-10.5v-0.5c-2.76e-5 -0.27613-0.22387-0.49997-0.5-0.5zm0.5 1h1v1h-1zm2 1h10v6h-0.5c-0.27613 2.8e-5 -0.49997 0.22387-0.5 0.5v0.5h-10v-6h0.5c0.27613-2.76e-5 0.49997-0.22387 0.5-0.5zm10 7h1v1h-1z"/>
</svg>
