<?xml version="1.0" encoding="UTF-8" standalone="no"?>
<svg
   width="16"
   height="16"
   version="1.1"
   viewBox="0 0 16 16"
   id="svg6"
   sodipodi:docname="redo.svg"
   inkscape:version="1.1.1 (3bf5ae0d25, 2021-09-20, custom)"
   xmlns:inkscape="http://www.inkscape.org/namespaces/inkscape"
   xmlns:sodipodi="http://sodipodi.sourceforge.net/DTD/sodipodi-0.dtd"
   xmlns="http://www.w3.org/2000/svg"
   xmlns:svg="http://www.w3.org/2000/svg">
  <defs
     id="defs10" />
  <sodipodi:namedview
     id="namedview8"
     pagecolor="#ffffff"
     bordercolor="#999999"
     borderopacity="1"
     inkscape:pageshadow="0"
     inkscape:pageopacity="0"
     inkscape:pagecheckerboard="0"
     showgrid="false"
     inkscape:zoom="44.75"
     inkscape:cx="7.9888268"
     inkscape:cy="8"
     inkscape:window-width="2560"
     inkscape:window-height="1372"
     inkscape:window-x="0"
     inkscape:window-y="0"
     inkscape:window-maximized="1"
     inkscape:current-layer="svg6" />
  <path
     d="m 7.4961,1 c 1.1527,3e-7 2.3051,0.43787 3.1816,1.3145 a -0.5,0.5 0 0 1 0.002,0.00195 l 0.97852,0.97852 V 2.50005 a -0.5,0.5 0 0 1 0.5,-0.5 -0.5,0.5 0 0 1 0.5,0.5 v 2 a -0.50005,0.50005 0 0 1 -0.5,0.5 h -2 a -0.5,0.5 0 0 1 -0.5,-0.5 -0.5,0.5 0 0 1 0.5,-0.5 h 0.79102 L 9.97263,3.02153 a -0.5,0.5 0 0 1 -0.00195,0 c -1.371,-1.371 -3.5782,-1.371 -4.9492,0 -1.371,1.371 -1.371,3.5802 0,4.9512 l 6.1777,6.1777 a -0.5,0.5 0 0 1 0,0.70703 -0.5,0.5 0 0 1 -0.70703,0 l -6.1777,-6.1797 c -1.7522,-1.7533 -1.7528,-4.6104 0,-6.3633 0.87659,-0.87659 2.0289,-1.3145 3.1816,-1.3145 z"
     color="#000000"
     stroke-linecap="round"
     stroke-linejoin="round"
     style="-inkscape-stroke:none"
     id="path2" />
</svg>
