<svg width="17" height="17" version="1.1" viewBox="0 0 17 17" xmlns="http://www.w3.org/2000/svg">
    <path d="m7.9961 1c-1.2807-2e-8-2.5609.48672-3.5352 1.4609-1.9484 1.9484-1.9484 5.1219 0 7.0703a.5.5 0 000 .0019531l.35352.35156 6.0117 6.0117a.5.5 0 00.70703 0 .5.5 0 000-.70703l-6.3652-6.3652c-1.5663-1.5663-1.5663-4.09 0-5.6562 1.5663-1.5663 4.09-1.5663 5.6563 0l.35352.35352h.001954l.56055.56055h-.91406a.5.5 0 00-.5.5.5.5 0 00.5.5h2.1211a.50005.50005 0 00.5-.5v-2.1211a.5.5 0 00-.5-.5.5.5 0 00-.5.5v.91406l-.56055-.56055h-.001953l-.35352-.35352c-.97422-.97422-2.2545-1.4609-3.5352-1.4609z"/>
</svg>
