<svg width="17" height="17" version="1.1" viewBox="0 0 17 17" xmlns="http://www.w3.org/2000/svg">
    <path d="m8.4062 2.0059c-1.6584.024435-3.2827.68305-4.502 1.9023a.5.5 0 000 .70703.5.5 0 00.70703 0c1.574-1.574 3.9376-2.0432 5.9941-1.1914 2.0547.85109 3.3922 2.8526 3.3945 5.0762l-.55859-.55859c-.19526-.19526-.51177-.19526-.70703 0-.19526.19526-.19526.51177 0 .70703l1.4141 1.4141c.19527.19523.51176.19523.70703 0l1.4141-1.4141c.19526-.19526.19526-.51177 0-.70703-.19526-.19526-.51177-.19526-.70703 0l-.5625.55859c-.002355-2.6252-1.586-4.9952-4.0117-6-.60689-.25138-1.2384-.40465-1.8711-.46484-.23727-.022572-.47402-.032788-.71094-.029297zm-5.5059 4.7949c-.12794 0-.25588.04887-.35352.14648l-1.4141 1.4141c-.19526.19526-.19526.51177 0 .70703.19526.19526.51177.19526.70703 0l.5625-.55859c.0023544 2.6252 1.586 4.9952 4.0117 6 .60689.25138 1.2364.40465 1.8691.46484 1.8982.18058 3.8214-.47957 5.2148-1.873a.5.5 0 000-.70703.5.5 0 00-.70703 0c-1.574 1.574-3.9376 2.0432-5.9941 1.1914-2.0547-.85109-3.3922-2.8526-3.3945-5.0762l.55859.55859c.19526.19526.51177.19526.70703 0 .19526-.19526.19526-.51177 0-.70703l-1.4141-1.4141c-.097635-.097615-.22558-.14648-.35352-.14648z"/>
</svg>
