<svg width="16" height="16" version="1.1" viewBox="0 0 16 16" xmlns="http://www.w3.org/2000/svg">
    <path d="m7.9141 2.002c-1.531.022865-3.0308.63041-4.1562 1.7559-1.715 1.715-2.2289 4.2964-1.3008 6.5371.92814 2.2407 3.1176 3.7051 5.543 3.7051a.5.5 0 00.5-.5.5.5 0 00-.5-.5c-2.0237 0-3.8447-1.2162-4.6191-3.0859-.77445-1.8697-.34702-4.0182 1.084-5.4492s3.5795-1.8584 5.4492-1.084c1.8697.77445 3.0859 2.5954 3.0859 4.6191l-.55859-.55859c-.19526-.19526-.51177-.19526-.70703 0-.19526.19526-.19526.51177 0 .70703l1.4141 1.4141c.19527.19523.51176.19523.70703 0l1.4141-1.4141c.19526-.19526.19526-.51177 0-.70703s-.51177-.19526-.70703 0l-.5625.55859c0-2.4253-1.4644-4.6148-3.7051-5.543-.56018-.23203-1.1406-.37413-1.7246-.42969-.21902-.020833-.43754-.028657-.65625-.025391z"/>
</svg>
