<svg width="17" height="17" version="1.1" viewBox="0 0 17 17" xmlns="http://www.w3.org/2000/svg">
    <path d="m8.4062 2c-1.6584.024809-3.2827.685-4.502 1.9043-1.858 1.858-2.4157 4.6545-1.4102 7.082 1.0055 2.4276 3.3783 4.0137 6.0059 4.0137a.5.5 0 00.5-.5.5.5 0 00-.5-.5c-2.226 0-4.2302-1.34-5.082-3.3965-.85184-2.0565-.38064-4.4182 1.1934-5.9922 1.574-1.574 3.9357-2.0452 5.9922-1.1934 2.0565.85184 3.3965 2.8561 3.3965 5.082l-.55859-.55859c-.19526-.19526-.51177-.19526-.70703 0-.19526.19526-.19526.51177 0 .70703l1.4141 1.4141c.19527.19523.51176.19523.70703 0l1.4141-1.4141c.19526-.19526.19526-.51177 0-.70703-.19526-.19526-.51177-.19526-.70703 0l-.5625.55859c0-2.6276-1.5861-5.0003-4.0137-6.0059-.60689-.25138-1.2364-.40465-1.8691-.46484-.23727-.022572-.47402-.032841-.71094-.029297z"/>
</svg>
