<svg width="16" height="16" version="1.1" viewBox="0 0 16 16" xmlns="http://www.w3.org/2000/svg">
    <path d="m7.8965 1.002c-1.7862.02638-3.5345.73569-4.8477 2.0488-2.001 2.001-2.5985 5.0145-1.5156 7.6289s3.637 4.3203 6.4668 4.3203c.27614 0 .5-.22386.5-.5s-.22386-.5-.5-.5c-2.4282 0-4.6137-1.4598-5.543-3.7031-.92923-2.2434-.41622-4.8221 1.3008-6.5391 1.717-1.717 4.2937-2.23 6.5371-1.3008 2.2434.92923 3.7051 3.1148 3.7051 5.543h-1l1.502 3 1.498-3h-1c0-2.8298-1.7079-5.3839-4.3223-6.4668-.6536-.27073-1.3323-.43517-2.0137-.5-.25552-.024311-.5124-.035018-.76758-.03125z"/>
</svg>
