<svg width="16" height="16" version="1.1" viewBox="0 0 16 16" xmlns="http://www.w3.org/2000/svg">
    <path d="m8.1 1c1.7862.0264 3.5345.73569 4.8477 2.0488 2.001 2.001 2.5985 5.0145 1.5156 7.6289s-3.637 4.3203-6.4668 4.3203c-.27614 0-.5-.22386-.5-.5s.22386-.5.5-.5c2.4282 0 4.6137-1.4598 5.543-3.7031s.41622-4.8221-1.3008-6.5391c-1.717-1.717-4.2937-2.23-6.5371-1.3008-2.2434.92923-3.7051 3.1148-3.7051 5.543h1l-1.5019 3-1.4981-3h1c0-2.8298 1.7079-5.3839 4.3223-6.4668.6536-.27073 1.3323-.43517 2.0137-.5.25552-.0243.5124-.035.76757-.0312z"/>
</svg>
