<svg width="16" height="16" version="1.1" viewBox="0 0 16 16" xmlns="http://www.w3.org/2000/svg">
    <path d="m2.502 1.002c-.065619-.0003088-.13066.012301-.19141.037109-.18647.077282-.30819.25909-.30859.46094v12c2.76e-5.27613.22387.49997.5.5h12c.44532-.000174.6683-.53852.35352-.85352l-12-12c-.094075-.093052-.2212-.14502-.35352-.14453zm.5 1.7051 1.791 1.793-.29297.29297c-.19521.19525-.19521.51178 0 .70703.19525.19521.51178.19521.70703 0l.29297-.29297 1.293 1.293-.29297.29297c-.19521.19525-.19521.51178 0 .70703.19525.19521.51178.19521.70703 0l.29297-.29297 1.293 1.293-.29297.29297c-.19521.19525-.19521.51178 0 .70703.19525.19521.51178.19521.70703 0l.29297-.29297 1.293 1.293-.29297.29297c-.19521.19525-.19521.51178 0 .70703.19525.19521.51178.19521.70703 0l.29297-.29297 1.793 1.7949h-10.291zm2.5391 5.2969c-.07852-.0066-.15749.00544-.23047.035156-.18647.077282-.30819.25909-.30859.46094v2c2.76e-5.27613.22387.49997.5.5h2c.44532-.000174.66829-.53852.35352-.85352l-2-2c-.084565-.083353-.19603-.13389-.31445-.14258zm.46094 1.7051.29102.29102h-.29102z"/>
</svg>
