<svg width="17" height="17" version="1.1" viewBox="0 0 17 17" xmlns="http://www.w3.org/2000/svg">
    <path d="m2.5 1a.50005.50005 0 00-.19141.037109.50005.50005 0 00-.30859.46289v13a.50005.50005 0 00.5.5h13a.50005.50005 0 00.35352-.85352l-2.4785-2.4785a.5.5 0 00-.021484-.021485l-1.9785-1.9785a.5.5 0 00-.021484-.021484l-1.9785-1.9785a.5.5 0 00-.021484-.021484l-1.9785-1.9785a.5.5 0 00-.021484-.021484l-1.9785-1.9785a.5.5 0 00-.021484-.021484l-2.5-2.5a.50005.50005 0 00-.35352-.14648zm.5 1.707 1.293 1.293-.14648.14648a.5.5 0 000 .70703.5.5 0 00.70703 0l.14648-.14648 1.293 1.293-.14648.14648a.5.5 0 000 .70703.5.5 0 00.70703 0l.14648-.14648 1.293 1.293-.14648.14648a.5.5 0 000 .70703.5.5 0 00.70703 0l.14648-.14648 1.293 1.293-.14648.14648a.5.5 0 000 .70703.5.5 0 00.70703 0l.14648-.14648 1.293 1.293-.14648.14648a.5.5 0 000 .70703.5.5 0 00.70703 0l.14648-.14648 1.293 1.293h-11.293v-11.293zm2.4512 5.2969a.50005.50005 0 00-.14258.035156.50005.50005 0 00-.30859.46094v3a.50005.50005 0 00.5.5h3a.50005.50005 0 00.35352-.85352l-3-3a.50005.50005 0 00-.40234-.14258zm.54883 1.7031 1.293 1.293h-1.293v-1.293z"/>
</svg>
