<svg width="16" height="16" version="1.1" viewBox="0 0 16 16" xmlns="http://www.w3.org/2000/svg">
    <path d="m2.5 2a.50005.50005 0 00-.5.5v11a.50005.50005 0 00.5.5h3a.50005.50005 0 00.5-.5v-7.5h7.5a.50005.50005 0 00.5-.5v-3a.50005.50005 0 00-.5-.5h-11zm.5 1h1.5v.5c0 .27614.22386.5.5.5s.5-.22386.5-.5v-.5h2v.5c0 .27614.22386.5.5.5s.5-.22386.5-.5v-.5h2v.5c0 .27614.22386.5.5.5s.5-.22386.5-.5v-.5h1.5v2h-7.5a.50005.50005 0 00-.5.5v7.5h-2v-1.5h.5c.27614 0 .5-.22386.5-.5s-.22386-.5-.5-.5h-.5v-2h.5c.27614 0 .5-.22386.5-.5s-.22386-.5-.5-.5h-.5v-2h.5c.27614 0 .5-.22386.5-.5s-.22386-.5-.5-.5h-.5v-1.5z"/>
</svg>
