<svg width="17" height="17" version="1.1" viewBox="0 0 17 17" xmlns="http://www.w3.org/2000/svg">
    <path d="m2.5 2c-.27613 2.76e-5-.49997.22387-.5.5v12c2.76e-5.27613.22387.49997.5.5h3c.27613-2.8e-5.49997-.22387.5-.5v-8.5h8.5c.27613-2.76e-5.49997-.22387.5-.5v-3c-2.8e-5-.27613-.22387-.49997-.5-.5zm.5 1h2v.5c0 .27614.22386.5.5.5s.5-.22386.5-.5v-.5h2v.5c0 .27614.22386.5.5.5s.5-.22386.5-.5v-.5h2v.5c0 .27614.22386.5.5.5s.5-.22386.5-.5v-.5h2v2h-8.5c-.27613 2.76e-5-.49997.22387-.5.5v8.5h-2v-2h.5c.27614 0 .5-.22386.5-.5s-.22386-.5-.5-.5h-.5v-2h.5c.27614 0 .5-.22386.5-.5s-.22386-.5-.5-.5h-.5v-2h.5c.27614 0 .5-.22386.5-.5s-.22386-.5-.5-.5h-.5z"/>
</svg>
