<svg width="16" height="16" version="1.1" viewBox="0 0 16 16" xmlns="http://www.w3.org/2000/svg">
    <path d="m8 1c-3.8668 0-7 3.1332-7 7 0 3.8668 3.1332 7 7 7 3.8668 0 7-3.1332 7-7 0-3.8668-3.1332-7-7-7zm1.0877.97044.21418.043138-.25629 1.287-.2142-.042897zm-2.1755 12.057-.21418-.04316.25629-1.2869.2142.04288zm2.7607-11.921.20902.063809-.19066.62836-.20904-.063809zm-3.3459 11.787-.20902-.063831.19066-.62834.20904.06381zm4.1187-11.511-.50253 1.2128-.20204-.083956.50225-1.2128.20232.083978zm-4.8896 11.234.50225-1.2125.20206.08398-.50225 1.2125-.20206-.084zm5.2346-11.07.19224.10307-.30877.57851-.1925-.10336zm-5.5813 10.907-.19224-.10336.30979-.57822.1925.1031zm8.2448-8.2441-.57798.30953-.10308-.1925.57746-.30953a5.8681 5.8681 0 00-.19688-.32839l-1.0908.7299-.11988-.18292 1.0911-.7299c-.073369-.10412-.1496-.20462-.22916-.30616l-.50564.41571-.13926-.16975.50562-.41571c-.082403-.096119-.16975-.18913-.25734-.28162l-.34234.34234-3.1908 4.7853-4.7855 3.1911-.34442.34234c.09275.08756.18655.17491.28422.25708l.41571-.50564.16975.13926-.41571.50564c.098941.07879.20204.15321.30616.22658l.72472-1.0911.18292.11988-.72988 1.0908c.76812.49529 1.6507.82316 2.6031.93271l.063044-.65341.21858.0217-.063044.65341c.12841.01138.25449.01654.38316.01938v-1.3128h.21884v1.3128c.12867-.0028.25734-.0088.38342-.01938l-.065362-.65341.21858-.0217.065362.65341c.12841-.01499.25423-.03434.38032-.05683l-.25605-1.2857.21446-.04288.25578 1.2862c.12556-.02712.24802-.05917.3705-.09406l-.19095-.62781.20904-.06383.19092.62836-.20438.06252c.1925-.05478.38008-.11911.56429-.19119l-.50148-1.2107.20204-.084.50175 1.211c.11703-.05064.23074-.10515.34388-.16303l-.30925-.57746.1925-.1031.30951.57798c.11213-.06228.22297-.12635.3302-.19585l-.7299-1.0908.18292-.11988.7299 1.0911c.10412-.07337.20462-.14958.30616-.22916l-.41571-.50564.16975-.13926.41571.50822c.09509-.08216.18913-.16949.28162-.25734l-.92652-.92652.15553-.15579.92678.92678c.08759-.09301.17494-.1855.25734-.28448l-.50562-.41571.13926-.16975.50564.41573.000503-.000262c.07882-.10154.15579-.20206.2266-.301l-1.0911-.7299.11988-.18292 1.0908.72988c.17828-.27619.33305-.5684.46585-.87224l-1.2125-.50203.08398-.20204 1.2128.50227c.19016-.48289.32115-.99444.38264-1.529l-.65341-.063044.0217-.21858.65341.063044c.01137-.12841.01654-.25449.01938-.38316l-1.3128-.0002625v-.21858h1.3128c-.0028-.12867-.0088-.25734-.01936-.38342l-.65341.065362-.02172-.21858.65341-.065362a6.084 6.084 0 00-.62989-2.0822zm-10.904 5.5816.57746-.30927.1031.1925-.57772.30951c.061469.11213.12556.22142.19506.32839l1.0911-.7299.12066.18294-1.0911.72988v-.000765c.073369.10412.147.20746.2266.30616l.50562-.41571.13926.16975-.50562.41571c.082403.09533.16975.18913.25734.28188l.34234-.34234 3.1908-4.7855 4.7855-3.1909.34985-.34234c-.09301-.087587-.1855-.17491-.28446-.25734l-.41573.50564-.16975-.13926.41576-.50566c-.09767-.078531-.20206-.15295-.30618-.22658l-.72988 1.0911-.18292-.12064.72988-1.0911c-.76812-.49503-1.6507-.82316-2.6031-.93247l-.063044.65341-.21858-.021941.063044-.65341c-.12841-.011112-.25449-.016538-.38316-.019119v1.3125h-.21962v-1.3125c-.12867.0025813-.25732.0085313-.3834.019119l.065625.65341-.2186.021963-.065625-.65341c-.95106.10929-1.8347.43483-2.6028.93012l.7299 1.0911-.18292.12066-.7299-1.0911c-.10412.074397-.20488.15061-.30616.23019l.41545.50564-.16949.13926-.41571-.50822c-.096381.082425-.18913.16975-.28188.25734l.92678.92652-.15579.15579-.92678-.92652c-.087588.09275-.17491.18655-.25708.28422l.50562.41571-.13926.16975-.50564-.41571c-.078794.098941-.15321.20204-.22658.30616l1.0937.72472-.12066.18294-1.0911-.7299a5.9626 5.9626 0 00-.20048.33458l.57822.30824-.10334.19353-.57798-.30903a6.2261 6.2261 0 00-.16225.3439l1.2125.50253-.083978.20204-1.2123-.50225c-.047031.11882-.089644.23975-.12943.36223l.62705.19066-.063809.20902-.62604-.19016c-.034606.12195-.064575.24522-.091962.37026l1.2833.25578-.043159.21418-1.2833-.2555c-.02275.12296-.041081.24802-.055803.37308l.65367.063022-.021962.2186-.65341-.063044c-.011375.12841-.016538.25449-.019119.38316l1.3125.0002625v.21858h-1.3125c.00258.12867.00853.25734.019119.38342l.65341-.065384.021962.2186-.65367.065362c.014722.12764.034628.2532.056591.37824l1.2836-.2555.042875.21416-1.2841.25581c.027125.12582.059675.24933.094281.37205l.62449-.18966.063831.20904-.62552.1899a6.0762 6.0762 0 00.12893.36017l1.2089-.50072.083978.20204-1.2094.50098c.050641.11756.10592.23201.16406.34545zm11.067-5.2346.083978.20204-1.2125.50227-.083979-.20204zm.27567.77175-.62834.19092-.06383-.20902.62836-.19092zm.13488.58443-1.2872.25629-.04288-.21418 1.2869-.25631zm-.04211 2.3897-1.287-.25633.0429-.21418 1.2872.25629-.04314.2142zm-.15658.58004-.62836-.19068.063831-.20902.62836.19068zm-11.52-4.1448.075447-.18112a6.6562 6.6562 0 00-.075447.18112zm11.041 5.2456-.57951-.30874.10308-.1925.57953.30901zm-8.3347-8.3334.1925-.1031.31003.57824-.1925.10334zm.74386-.34932.50225 1.2128-.20204.083956-.50225-1.2125zm.56892-.19403.19066.62836-.20902.063809-.19068-.62836zm.58625-.13383.25629 1.2869-.2142.043159-.25629-1.2872.21418-.042875zm7.1899 5.4924-.01396-.14521c.0028.048825.008.095069.01396.14521zm-.95725-2.7896-.098963-.14779c.03231.048825.06536.097912.09896.14779zm-.37982-.52242-.06044-.073653c.0217.024544.04108.049087.06044.073653zm-.84796-.86089-.07337-.060463c.02712.0217.04909.040819.07337.060463zm-.44542-.33976-.14779-.097912c.04882.033578.09894.065625.14779.097913zm-2.7922-1.0384-.14779-.013934c.048825.00284.098941.00801.14779.013956zm-1.2159-.016778-.14779.013956c.048847-.00284.097672-.00801.14779-.013956zm-2.7896.95725-.14779.097934c.048847-.033338.097934-.065362.14779-.097913zm-.52242.37982-.070788.057881c.024281-.019119.046244-.0385.070788-.057881zm-.86089.84796-.060462.073391c.021722-.024544.040841-.049087.060462-.073391zm-.33974.44544-.097934.14779c.0336-.048847.065625-.097934.097934-.14779zm-1.0384 2.7922-.013934.14779c.00284-.048847.00801-.097934.013934-.14779zm-.016778 1.2169.013956.14779c-.00284-.048825-.00803-.098678-.013956-.14779zm.95725 2.786.097934.14779c-.033338-.04624-.065384-.09533-.097934-.14779zm.43768.59581c-.019119-.02428-.0385-.04624-.057859-.07079zm.7901.7901.070787.05786c-.024544-.01912-.046506-.03824-.070787-.05786zm.44542.3369.14779.09896c-.048825-.02971-.097912-.06304-.14779-.09896zm2.7922 1.0412.14779.01394c-.048825-.0028-.097912-.008-.14779-.01396zm1.2169.01678.14523-.01396c-.048847.0028-.095353.008-.14521.01396zm2.7886-.95725.14779-.09896c-.04883.03229-.09896.06536-.14779.09896zm.52242-.37982.07363-.06044c-.02454.0217-.04909.04106-.07363.06044zm.47876-.42967.01035-.01032zm.38214-.41829.06046-.07337c-.0217.02454-.04082.04909-.06046.07337zm1.3949-3.3854c-.0052.048825-.008.098963-.01394.14779zm-.95725 2.7922c-.03255.04882-.06563.09896-.09896.14779z"/>
</svg>
