<svg width="17" height="17" version="1.1" viewBox="0 0 17 17" xmlns="http://www.w3.org/2000/svg">
    <path d="m8.5 1a7.5 7.5 0 00-7.5 7.5 7.5 7.5 0 007.5 7.5 7.5 7.5 0 007.5-7.5 7.5 7.5 0 00-7.5-7.5zm-.11328 1v1.3926h.23242v-1.3926c.13653.0027386.27.0077407.40625.019531l-.066406.69336.23242.023438.066406-.69336c.19385.022248.38421.056757.57227.095703l-.17578-.035156-.27148 1.3652.22656.044922.27148-1.3652c.20983.04521.41556.10102.61719.16602.12946.041736.25705.087192.38281.13672.072136.028408.14399.056994.21484.087891.32219.14049.63083.30531.92383.49414l-.77344 1.1582.19336.12695.77539-1.1582c.11048.078126.22058.15886.32422.24219l-.44141.53516.17969.14844.44141-.53711c.105.087464.20404.1805.30273.27344l-.37109.36328-5.0781 3.3848-3.3867 5.0781-.36328.36328c-.092939-.098414-.18405-.19768-.27148-.29883l.53516-.44141-.14648-.17969-.53711.44141c-.084461-.10473-.16238-.21374-.24023-.32422l1.1582-.77539-.12891-.19336-1.1582.77539c-.073744-.1135-.14181-.23063-.20703-.34961l.61328-.32812-.10938-.20508-.61328.33008c-.06169-.12037-.1201-.24245-.17383-.36719l1.2832-.53125-.087891-.21484-1.2832.53125c-.049601-.12592-.09514-.25402-.13672-.38281l.66406-.20117-.068359-.2207-.66211.20117c-.036718-.13021-.070828-.26298-.099609-.39648l1.3613-.27148-.044922-.22656-1.3613.27148c-.023304-.13268-.044926-.26691-.060547-.40234l.69336-.068359-.023438-.23242-.69336.070312c-.011237-.13378-.016791-.27168-.019531-.4082h1.3926v-.23047h-1.3926c.0027385-.13653.0074621-.27195.019531-.4082l.69336.068359.023438-.23242-.69336-.066406c.015621-.1327.034455-.26602.058594-.39648l1.3613.27148.046875-.22852-1.3613-.27148c.029059-.13268.060936-.26318.097656-.39258l.66406.20312.066406-.22266-.66406-.20312c.042216-.12996.086816-.25674.13672-.38281l1.2871.5332.087891-.21484-1.2871-.5332c.053658-.12336.11274-.24538.17383-.36523l.61328.32812.10938-.20508-.61328-.32812c.067017-.12063.13813-.23948.21289-.35547l1.1562.77539.12891-.19336-1.1602-.76953c.077851-.11048.15663-.21924.24023-.32422l.53516.43945.14844-.17969-.53711-.44141c.087188-.10363.1805-.20237.27344-.30078l.98438.98242.16406-.16406-.98242-.98438c.098414-.092939.19656-.18598.29883-.27344l.44141.54102.17969-.14844-.44141-.53711c.10746-.08444.21374-.1652.32422-.24414l.77539 1.1582.19336-.12891-.77344-1.1562c.16979-.10949.34542-.20933.52539-.30273l-.17773.095703.32812.61328.20508-.10938-.33008-.61328c.3087-.15846.63208-.29266.9668-.40039.073896-.023783.14763-.047182.22266-.068359.33049-.093286.67167-.16293 1.0215-.20312l.068359.69336.23242-.023438-.068359-.69336c.13378-.011235.26972-.016798.40625-.019531zm-1.6602.24609-.22266.068359.20312.66602.2207-.066406-.20117-.66797zm4.3691.29297-.21484-.087891-.5332 1.2871.21484.087891.5332-1.2871zm-.59766-.22461-.22266-.066406-.20312.66602.22266.068359.20312-.66797zm-3.1504-.20898-.22656.044922.27148 1.3652.22852-.044922-.27344-1.3652zm-1.2246.34766-.21484.089844.5332 1.2852.21484-.087891-.5332-1.2871zm5.3379.26172-.32813.61328.20508.10938.32812-.61328-.20508-.10938zm1.7168 1.2734c.092939.098138.186.19684.27344.29883l-.53711.44141.14844.17969.53711-.43945c.084418.10774.16434.21374.24219.32422l-1.1582.77344.12695.19531 1.1582-.77539c.073406.11384.14316.23122.20898.34961l-.61328.32812.10938.20312.61328-.32812c.062001.121.11971.24476.17383.36914l-1.2871.5332.089844.21289 1.2852-.5332-.074219-.17773c.025262.058994.050744.11806.074219.17773.049818.12665.095033.25337.13672.38281l-.66602.20312.066407.22266.66602-.20312c-.005153-.018224-.010312-.03651-.015625-.054688l-.042969-.14062c.01482.046722.029217.093578.042969.14062l.017578.054688h-.001953c.036636.12956.069174.26088.097656.39258.010522.048652.019899.097576.029297.14648l.017578.080078h-.001953c.023944.1337.047011.26708.0625.40234l-.69336.070312.021484.23242.69336-.070312c.01124.13378.018484.26972.021484.40625h-1.3926v.23242h1.3926c-.00301.13653-.009424.27195-.021484.4082l-.69336-.068359-.021484.23242.69336.066406c-.021669.18838-.054261.37387-.091797.55664l-.013672.068359h-.001953c-.028748.13258-.060913.26321-.097656.39258h.001953l-.041015.13672c-.008844.02871-.018115.057397-.027344.085938-.041705.12897-.085377.2574-.13477.38281l-1.2871-.5332-.089844.21484 1.2871.5332c-.05416.12392-.11464.24328-.17578.36328l.001953.001954-.029297.054687c-.023868.045765-.047347.091594-.072265.13672l.072265-.13672c.009701-.0186.017816-.037938.027344-.056641l-.61328-.32422-.10938.20312.61523.32812c-.066788.12025-.13653.23824-.21094.35352l-1.1582-.77344-.12695.19336 1.1582.77539c-.075134.10498-.1566.21062-.24024.31836h-.001953l-.53516-.43945-.14844.17969.53711.44141c-.087431.10503-.1805.20209-.27344.30078l-.98242-.98242-.16602.16406.98242.98438c-.098137.093215-.19793.18626-.29883.27344l-.43945-.54102-.18164.14844.44141.53711c-.10774.08444-.21374.16434-.32422.24219l-.77539-1.1562-.19336.12695.77344 1.1562c-.11378.073745-.23063.14289-.34961.20898l-.32812-.61328-.20508.10938.32812.61133c-.12005.061414-.2391.12009-.36328.17383l-.5332-1.2852-.21484.089844.5332 1.2832c-.12554.049123-.25389.094887-.38281.13672l-.20312-.66602-.2207.06836.20312.66602c-.12996.03702-.2613.07084-.39453.099609l-.27148-1.3652-.22656.044922.27148 1.3652c-.13379.02385-.26805.044637-.4043.060547l-.068359-.69336-.23242.021484.070312.69336c-.13378.01126-.27168.018484-.4082.021484v-1.3926h-.23242v1.3926c-.13653-.003014-.27-.009414-.40625-.021484l.066406-.69336-.23047-.021484-.068359.69336c-.34935-.040183-.6879-.1098-1.0176-.20312l-.025391-.007812c-.065697-.01889-.1305-.039651-.19531-.060547-.12946-.041737-.25705-.087192-.38281-.13672-.072136-.028408-.14399-.056992-.21484-.08789-.12445-.054272-.24689-.1121-.36719-.17383l.33008-.61328-.20508-.10938-.32812.61328c-.12004-.067088-.24016-.13658-.35547-.21094l.77539-1.1582-.19531-.12695-.76758 1.1582c-.11048-.077851-.22119-.15662-.32617-.24024l.44141-.53711-.17969-.14648-.44141.53516c-.10363-.087189-.20237-.17858-.30078-.27148l.36523-.36328 5.0781-3.3867 3.3848-5.0781.36328-.36328zm-7.2715 10.473.21484.08789.5332-1.2871-.21484-.087891-.5332 1.2871zm.59766.22461.19531.060547c.0083338.002396.017043.003496.025391.005859l.20312-.66406-.22266-.06836-.20117.66602zm8.1816-4.1875.027344-.085938c.013928-.045221.026102-.091085.039062-.13672l-.66602-.20117-.066407.2207.66602.20312zm.16406-.61523c.004962-.022883.010907-.045384.015625-.068359l.03125-.16016-1.3652-.27148-.044922.22656 1.3633.27344zm.044922-2.5371c-.004797-.026787-.010491-.053363-.015625-.080078l-.029297-.14648-1.3652.27148.046875.22852 1.3633-.27344zm-7.5039 6.1387-.27148 1.3652.22656.046875.27148-1.3652-.22656-.046875z"/>
</svg>
