<svg width="17" height="17" version="1.1" viewBox="0 0 17 17" xmlns="http://www.w3.org/2000/svg">
    <path d="m6.9434 1c-3.282 0-5.9238 2.6418-5.9238 5.9238v3.1523c0 3.282 2.6418 5.9238 5.9238 5.9238h3.1309c3.282 0 5.9238-2.6418 5.9238-5.9238v-3.1523c0-3.282-2.6418-5.9238-5.9238-5.9238h-3.1309zm1.5566 3c2.1742 0 3.9947 1.5549 4.4102 3.6094.84137.4998 1.4316 1.0085 1.7305 1.5898.16104.31328.23094.67678.12695 1.0195-.10398.34275-.36275.6131-.68555.79883-.56815.3269-1.3218.45205-2.2148.46094-.82536.93192-2.0288 1.5215-3.3672 1.5215-2.1735 0-3.994-1.5539-4.4102-3.6074-.72107-.42633-1.2856-.88291-1.625-1.4062-.20544-.3168-.31965-.66919-.27148-1.0234.048169-.35425.26674-.65896.54883-.86523.55289-.4043 1.3487-.56003 2.3887-.57422.82541-.93311 2.0298-1.5234 3.3691-1.5234zm0 1c-1.9389 0-3.5 1.5611-3.5 3.5 0 .088897.0033165.17648.0097656.26367.0073471.0039096.014102.0078168.021484.011719.8671.4583 1.9727.8832 3.1699 1.1973 1.1473.30098 2.258.46564 3.1934.49805.38188-.56088.60547-1.2381.60547-1.9707 0-1.9389-1.5611-3.5-3.5-3.5zm-4.0645 1.5723c-.5467.070778-.93204.20521-1.1055.33203-.12301.089951-.13915.1414-.14648.19531-.0073305.05391.0031528.15993.12109.3418.12848.19812.37556.43984.71094.69336.044933-.55455.19116-1.0824.41992-1.5625zm8.5488 2.293c-.044883.55393-.19159 1.0809-.41992 1.5605.4569-.057151.81511-.15582 1.0195-.27344.17122-.098512.21173-.17581.22656-.22461.014808-.048807.019514-.11953-.058594-.27148-.10218-.19878-.3619-.48256-.76758-.79102zm-7.6309 1.1738c.56773 1.163 1.7606 1.9609 3.1465 1.9609.72611 0 1.399-.21802 1.957-.59375-.79046-.083198-1.6396-.23854-2.5098-.4668-.93427-.24509-1.8139-.55396-2.5938-.90039z"/>
</svg>
