<svg width="16" height="16" version="1.1" viewBox="0 0 16 16" xmlns="http://www.w3.org/2000/svg">
    <path d="m6.5488 1c-3.0632 0-5.5293 2.4661-5.5293 5.5293v2.9414c0 3.0632 2.4661 5.5293 5.5293 5.5293h2.9219c3.0632 0 5.5293-2.4661 5.5293-5.5293v-2.9414c0-3.0632-2.4661-5.5293-5.5293-5.5293h-2.9219zm1.4512 3c1.7561 0 3.2534 1.1417 3.7891 2.7207.64277.39999 1.1174.82519 1.3984 1.2988.1693.28532.27125.60444.23438.93359s-.22095.63569-.48242.85156c-.43824.36182-1.0345.52368-1.7363.58594-.73056.97584-1.895 1.6094-3.2031 1.6094-2.0426 0-3.7347-1.5446-3.9707-3.5254-.43745-.30822-.78988-.64273-1.0293-1.0176-.18874-.29551-.2993-.61931-.27539-.94922.023912-.32991.19563-.63703.43555-.85352.47984-.43297 1.1922-.61203 2.1094-.65625l.0039063.080078c.71533-.66803 1.6745-1.0781 2.7266-1.0781zm0 1c-1.6319 0-2.9496 1.2886-2.998 2.9082.10755.065469.21767.13204.33594.19531.74127.39658 1.6778.75062 2.6816.99414.95841.2325 1.8749.33684 2.625.32227.22643-.42244.35547-.905.35547-1.4199 0-.21408-.022281-.42192-.064453-.62305-.014069-.0078548-.026757-.015603-.041016-.023438l.025391-.046875c-.31126-1.3258-1.4961-2.3066-2.9199-2.3066zm-3.5273 1.1191c-.31916.080624-.54024.185-.64258.27734-.088157.079546-.10303.12297-.10742.18359-.0043938.060621.012104.17031.11914.33789.056665.088717.13818.18699.23828.28906.078024-.38545.21195-.75086.39258-1.0879zm7.5234 2.0137c-.01297.39295-.081997.77211-.20117 1.1289.23423-.068173.41121-.14876.50781-.22852.10485-.086588.11854-.13368.125-.19141.006467-.057727-.006603-.15905-.097656-.3125-.06829-.11509-.18074-.25044-.33398-.39648zm-6.7617 1.0371c.45404 1.0776 1.5185 1.8301 2.7656 1.8301.68153 0 1.3081-.22387 1.8105-.60352-.63706-.047092-1.3205-.15713-2.0254-.32812-.92622-.22469-1.7981-.53497-2.5508-.89844z"/>
</svg>
