<svg width="17" height="17" version="1.1" viewBox="0 0 17 17" xmlns="http://www.w3.org/2000/svg">
    <path d="m2.5 2c-.27613 2.76e-5-.49997.22387-.5.5v12c2.76e-5.27613.22387.49997.5.5h1.9883c.0039.000713.0078.0014.011719.002h8c.0039-.00062.0078-.0013.01172-.002h1.9883c.27613-2.8e-5.49997-.22387.5-.5v-9.4648c-2.3e-5-.13164-.05196-.25797-.14453-.35156l-2.4941-2.5332c-.09406-.096164-.2229-.15038-.35742-.15039h-9.5039zm.5 1h1v2.5c2.76e-5.27613.22387.49997.5.5h5c.27613-2.76e-5.49997-.22387.5-.5v-2.5h1.7949l2.2051 2.2402v8.7598h-1v-4.5c-2.8e-5-.27613-.22387-.49997-.5-.5h-8c-.27613 2.76e-5-.49997.22387-.5.5v4.5h-1v-11zm2 0h4v2h-4zm0 7h7v4h-7z"/>
</svg>
