<svg width="17" height="17" version="1.1" viewBox="0 0 17 17" xml:space="preserve" xmlns="http://www.w3.org/2000/svg"><path d="m2.5 2c-0.27613 2.76e-5 -0.49997 0.22387-0.5 0.5v12c2.76e-5 0.27613 0.22387 0.49997 0.5 0.5h4.5c0.27614 0 0.5-0.22386 0.5-0.5s-0.22386-0.5-0.5-0.5h-2.002l0.0019531-4h5c0.27614 0 0.5-0.22386 0.5-0.5s-0.22386-0.5-0.5-0.5h-5.5c-0.27613 2.76e-5 -0.49997 0.22387-0.5 0.5l-0.0019531 4.5h-0.99805v-11h1v2.5c2.76e-5 0.27613 0.22387 0.49997 0.5 0.5h5c0.27613-2.76e-5 0.49997-0.22387 0.5-0.5v-2.5h1.793l2.207 2.207v1.793c0 0.27614 0.22386 0.5 0.5 0.5s0.5-0.22386 0.5-0.5v-2c-2.5e-5 -0.1326-0.05272-0.25976-0.14648-0.35352l-2.5-2.5c-0.093756-0.093768-0.22092-0.14646-0.35352-0.14648h-7.5zm2.5 1h4v2h-4zm9 5.5c-0.1326 2.54e-5 -0.25976 0.052716-0.35352 0.14648l-4.5 4.5c-0.00266 0.0039-0.00526 0.0078-0.00781 0.01172-0.039188 0.0418-0.0709 0.09003-0.09375 0.14258-0.00277 0.0071-0.00537 0.01426-0.00781 0.02149-0.00736 0.01592-0.013882 0.03222-0.019531 0.04883l-0.5 1.8652c-0.094625 0.35422 0.2115 0.68646 0.57227 0.62109l2-0.36523c0.03561-0.0073 0.07032-0.01841 0.10352-0.0332 0.05969-0.02449 0.11408-0.06031 0.16016-0.10547 0.0088-0.0088 0.01727-0.01792 0.02539-0.02734l4.4746-4.4727c0.19518-0.19526 0.19518-0.51177 0-0.70703l-1.5-1.5c-0.093761-0.093784-0.22092-0.14648-0.35352-0.1465zm0 1.207 0.79297 0.79297-3.793 3.793-0.79297-0.79297z"/></svg>
