<svg width="16" height="16" version="1.1" viewBox="0 0 16 16" xmlns="http://www.w3.org/2000/svg">
    <path d="m2.5 2a.50005.50005 0 00-.5.5v11a.50005.50005 0 00.5.5h1.9883a.50005.50005 0 00.011719.002h7a.50005.50005 0 00.011719-.002h1.9883a.50005.50005 0 00.5-.5v-8.4648a.50005.50005 0 00-.14453-.35156l-2.4941-2.5332a.50005.50005 0 00-.35742-.15039h-8.5039zm.5 1h1v2.5a.50005.50005 0 00.5.5h5a.50005.50005 0 00.5-.5v-2.5h.79492l2.2051 2.2402v7.7598h-1v-3.5a.50005.50005 0 00-.5-.5h-7a.50005.50005 0 00-.5.5v3.5h-1v-10zm2 0h4v2h-4zm0 7h6v3h-6z"/>
</svg>
