<svg width="17" height="17" version="1.1" viewBox="0 0 17 17" xmlns="http://www.w3.org/2000/svg">
 <path d="m1.5 1a0.5 0.5 0 0 0-0.5 0.5 0.5 0.5 0 0 0 0.5 0.5h1a0.5 0.5 0 0 0 0.5-0.5 0.5 0.5 0 0 0-0.5-0.5h-1zm4 0a0.5 0.5 0 0 0-0.5 0.5 0.5 0.5 0 0 0 0.5 0.5h1a0.5 0.5 0 0 0 0.5-0.5 0.5 0.5 0 0 0-0.5-0.5h-1zm4 0a0.5 0.5 0 0 0-0.5 0.5 0.5 0.5 0 0 0 0.5 0.5h1a0.5 0.5 0 0 0 0.5-0.5 0.5 0.5 0 0 0-0.5-0.5h-1zm4 0a0.5 0.5 0 0 0-0.5 0.5 0.5 0.5 0 0 0 0.5 0.5h1a0.5 0.5 0 0 0 0.5-0.5 0.5 0.5 0 0 0-0.5-0.5h-1zm-10 2a0.50005 0.50005 0 0 0-0.5 0.5v4a0.50005 0.50005 0 0 0 0.5 0.5h4a0.50005 0.50005 0 0 0 0.5-0.5v-4a0.50005 0.50005 0 0 0-0.5-0.5h-4zm6 0a0.50005 0.50005 0 0 0-0.5 0.5v4a0.50005 0.50005 0 0 0 0.5 0.5h4a0.50005 0.50005 0 0 0 0.5-0.5v-4a0.50005 0.50005 0 0 0-0.5-0.5h-4zm6 0a0.5 0.5 0 0 0-0.5 0.5v1a0.5 0.5 0 0 0 0.5 0.5 0.5 0.5 0 0 0 0.5-0.5v-1a0.5 0.5 0 0 0-0.5-0.5zm-14 1a0.5 0.5 0 0 0-0.5 0.5v1a0.5 0.5 0 0 0 0.5 0.5 0.5 0.5 0 0 0 0.5-0.5v-1a0.5 0.5 0 0 0-0.5-0.5zm2.5 0h3v3h-3v-3zm6 0h3v3h-3v-3zm5.5 3a0.5 0.5 0 0 0-0.5 0.5v1a0.5 0.5 0 0 0 0.5 0.5 0.5 0.5 0 0 0 0.5-0.5v-1a0.5 0.5 0 0 0-0.5-0.5zm-14 1a0.5 0.5 0 0 0-0.5 0.5v1a0.5 0.5 0 0 0 0.5 0.5 0.5 0.5 0 0 0 0.5-0.5v-1a0.5 0.5 0 0 0-0.5-0.5zm2 1a0.50005 0.50005 0 0 0-0.5 0.5v4a0.50005 0.50005 0 0 0 0.5 0.5h4a0.50005 0.50005 0 0 0 0.5-0.5v-4a0.50005 0.50005 0 0 0-0.5-0.5h-4zm9.9648 0a0.5 0.5 0 0 0-0.38867 0.23438l-2.168 3.4668-1.0547-1.0547a0.5 0.5 0 0 0-0.70703 0 0.5 0.5 0 0 0 0 0.70703l1.5 1.5a0.50005 0.50005 0 0 0 0.77734-0.087891l2.5-4a0.5 0.5 0 0 0-0.1582-0.68945 0.5 0.5 0 0 0-0.30078-0.076172zm-9.4648 1h3v3h-3v-3zm11.5 1a0.5 0.5 0 0 0-0.5 0.5v1a0.5 0.5 0 0 0 0.5 0.5 0.5 0.5 0 0 0 0.5-0.5v-1a0.5 0.5 0 0 0-0.5-0.5zm-14 1a0.5 0.5 0 0 0-0.5 0.5v1a0.5 0.5 0 0 0 0.5 0.5 0.5 0.5 0 0 0 0.5-0.5v-1a0.5 0.5 0 0 0-0.5-0.5zm1 3a0.5 0.5 0 0 0-0.5 0.5 0.5 0.5 0 0 0 0.5 0.5h1a0.5 0.5 0 0 0 0.5-0.5 0.5 0.5 0 0 0-0.5-0.5h-1zm4 0a0.5 0.5 0 0 0-0.5 0.5 0.5 0.5 0 0 0 0.5 0.5h1a0.5 0.5 0 0 0 0.5-0.5 0.5 0.5 0 0 0-0.5-0.5h-1zm4 0a0.5 0.5 0 0 0-0.5 0.5 0.5 0.5 0 0 0 0.5 0.5h1a0.5 0.5 0 0 0 0.5-0.5 0.5 0.5 0 0 0-0.5-0.5h-1zm4 0a0.5 0.5 0 0 0-0.5 0.5 0.5 0.5 0 0 0 0.5 0.5h1a0.5 0.5 0 0 0 0.5-0.5 0.5 0.5 0 0 0-0.5-0.5h-1z"/>
</svg>
