<svg width="17" height="17" version="1.1" viewBox="0 0 17 17" xmlns="http://www.w3.org/2000/svg">
 <path d="m1.5 1c-0.27614 0-0.5 0.22386-0.5 0.5s0.22386 0.5 0.5 0.5h1c0.27614 0 0.5-0.22386 0.5-0.5s-0.22386-0.5-0.5-0.5h-1zm4 0c-0.27614 0-0.5 0.22386-0.5 0.5s0.22386 0.5 0.5 0.5h1c0.27614 0 0.5-0.22386 0.5-0.5s-0.22386-0.5-0.5-0.5h-1zm4 0c-0.27614 0-0.5 0.22386-0.5 0.5s0.22386 0.5 0.5 0.5h1c0.27614 0 0.5-0.22386 0.5-0.5s-0.22386-0.5-0.5-0.5h-1zm4 0c-0.27614 0-0.5 0.22386-0.5 0.5s0.22386 0.5 0.5 0.5h1c0.27614 0 0.5-0.22386 0.5-0.5s-0.22386-0.5-0.5-0.5h-1zm-10 2c-0.27613 2.76e-5 -0.49997 0.22387-0.5 0.5v4c2.76e-5 0.27613 0.22387 0.49997 0.5 0.5h4c0.27613-2.76e-5 0.49997-0.22387 0.5-0.5v-4c-2.76e-5 -0.27613-0.22387-0.49997-0.5-0.5h-4zm8 0a0.50005 0.50005 0 0 0-0.44727 0.27734l-2 4a0.50005 0.50005 0 0 0 0.44727 0.72266h4a0.50005 0.50005 0 0 0 0.44727-0.72266l-2-4a0.50005 0.50005 0 0 0-0.44727-0.27734zm4 0c-0.27614 0-0.5 0.22386-0.5 0.5v1c0 0.27614 0.22386 0.5 0.5 0.5s0.5-0.22386 0.5-0.5v-1c0-0.27614-0.22386-0.5-0.5-0.5zm-14 1c-0.27614 0-0.5 0.22386-0.5 0.5v1c0 0.27614 0.22386 0.5 0.5 0.5s0.5-0.22386 0.5-0.5v-1c0-0.27614-0.22386-0.5-0.5-0.5zm2.5 0h3v3h-3v-3zm7.5 0.61719 1.1914 2.3828h-2.3828l1.1914-2.3828zm4 2.3828c-0.27614 0-0.5 0.22386-0.5 0.5v1c0 0.27614 0.22386 0.5 0.5 0.5s0.5-0.22386 0.5-0.5v-1c0-0.27614-0.22386-0.5-0.5-0.5zm-14 1c-0.27614 0-0.5 0.22386-0.5 0.5v1c0 0.27614 0.22386 0.5 0.5 0.5s0.5-0.22386 0.5-0.5v-1c0-0.27614-0.22386-0.5-0.5-0.5zm4 1c-1.3748 0-2.5 1.1252-2.5 2.5s1.1252 2.5 2.5 2.5 2.5-1.1252 2.5-2.5-1.1252-2.5-2.5-2.5zm7.9648 0c-0.1596 0.011437-0.30408 0.09856-0.38867 0.23438l-2.168 3.4668-1.0547-1.0547c-0.19525-0.19521-0.51178-0.19521-0.70703 0-0.19521 0.19525-0.19521 0.51178 0 0.70703l1.5 1.5c0.22717 0.22727 0.60666 0.18436 0.77734-0.087891l2.5-4c0.14681-0.23405 0.075959-0.54282-0.1582-0.68945-0.089646-0.056644-0.19498-0.083319-0.30078-0.076172zm-7.9648 1c0.83435 0 1.5 0.66565 1.5 1.5s-0.66565 1.5-1.5 1.5-1.5-0.66565-1.5-1.5 0.66565-1.5 1.5-1.5zm10 1c-0.27614 0-0.5 0.22386-0.5 0.5v1c0 0.27614 0.22386 0.5 0.5 0.5s0.5-0.22386 0.5-0.5v-1c0-0.27614-0.22386-0.5-0.5-0.5zm-14 1c-0.27614 0-0.5 0.22386-0.5 0.5v1c0 0.27614 0.22386 0.5 0.5 0.5s0.5-0.22386 0.5-0.5v-1c0-0.27614-0.22386-0.5-0.5-0.5zm1 3c-0.27614 0-0.5 0.22386-0.5 0.5s0.22386 0.5 0.5 0.5h1c0.27614 0 0.5-0.22386 0.5-0.5s-0.22386-0.5-0.5-0.5h-1zm4 0c-0.27614 0-0.5 0.22386-0.5 0.5s0.22386 0.5 0.5 0.5h1c0.27614 0 0.5-0.22386 0.5-0.5s-0.22386-0.5-0.5-0.5h-1zm4 0c-0.27614 0-0.5 0.22386-0.5 0.5s0.22386 0.5 0.5 0.5h1c0.27614 0 0.5-0.22386 0.5-0.5s-0.22386-0.5-0.5-0.5h-1zm4 0c-0.27614 0-0.5 0.22386-0.5 0.5s0.22386 0.5 0.5 0.5h1c0.27614 0 0.5-0.22386 0.5-0.5s-0.22386-0.5-0.5-0.5h-1z"/>
</svg>
