<svg width="17" height="17" version="1.1" viewBox="0 0 17 17" xmlns="http://www.w3.org/2000/svg">
 <path d="m1.5 1c-0.27613 2.76e-5 -0.49997 0.22387-0.5 0.5v10c2.76e-5 0.27613 0.22387 0.49997 0.5 0.5h5c0.27614 0 0.5-0.22386 0.5-0.5s-0.22386-0.5-0.5-0.5h-4.5v-9h9v4.5c0 0.27614 0.22386 0.5 0.5 0.5s0.5-0.22386 0.5-0.5v-5c-2.8e-5 -0.27613-0.22387-0.49997-0.5-0.5zm8 8c-0.27613 2.76e-5 -0.49997 0.22387-0.5 0.5v6c2.76e-5 0.27613 0.22387 0.49997 0.5 0.5h6c0.27613-2.8e-5 0.49997-0.22387 0.5-0.5v-6c-2.8e-5 -0.27613-0.22387-0.49997-0.5-0.5zm0.5 1h5v5h-5z"/>
</svg>
