<svg width="17" height="17" version="1.1" viewBox="0 0 17 17" xmlns="http://www.w3.org/2000/svg">
    <path d="m1.5 1c-.27613 3e-5-.49997.22387-.5.5v4c3e-5.27613.22387.49997.5.5h4c.27614 0 .5-.22386.5-.5v-4.002c-3e-5-.27613-.22387-.49802-.5-.49805h-4zm.5 1h3v3h-3zm6.5 2c-.27614 0-.5.22386-.5.5s.22386.5.5.5h3.5v3.5c0 .27614.22386.5.5.5s.5-.22386.5-.5v-4c-2.8e-5-.27613-.22387-.49997-.5-.5zm-4 4c-.27614 0-.5.22386-.5.5v4c2.76e-5.27613.22387.49997.5.5h4c.27614 0 .5-.22386.5-.5s-.22386-.5-.5-.5h-3.5v-3.5c0-.27614-.22386-.5-.5-.5zm7 3c-.1326 2e-5-.25976.05271-.35352.14648-.093773.093753-.14646.22092-.14648.35352v4c2.8e-5.27613.22387.49997.5.5h4c.27613-2.8e-5.49997-.22387.5-.5v-4c-2.8e-5-.27613-.22387-.49997-.5-.5zm.5 1h3v3h-3z"/>
</svg>
