<svg width="17" height="17" version="1.1" viewBox="0 0 17 17" xml:space="preserve" xmlns="http://www.w3.org/2000/svg"><path d="m2.4961 2a0.5 0.5 0 0 0-0.35156 0.14844 0.5 0.5 0 0 0 0.0039063 0.70703l5.6484 5.5664-5.6523 5.7266a0.5 0.5 0 0 0 0.0039063 0.70703 0.5 0.5 0 0 0 0.70703-0.003907l6.0059-6.084a0.50005 0.50005 0 0 0-0.0058593-0.70703l-6.0039-5.916a0.5 0.5 0 0 0-0.35547-0.14453zm7.0039 12a0.5 0.5 0 0 0-0.5 0.5 0.5 0.5 0 0 0 0.5 0.5h6a0.5 0.5 0 0 0 0.5-0.5 0.5 0.5 0 0 0-0.5-0.5h-6z"/></svg>
