<svg width="17" height="17" version="1.1" viewBox="0 0 17 17" xmlns="http://www.w3.org/2000/svg">
 <path d="m8.5 1c-3.032 0-5.7694 1.8277-6.9297 4.6289-1.1603 2.8012-0.51701 6.0299 1.627 8.1738 2.144 2.144 5.3726 2.7873 8.1738 1.627 2.8012-1.1603 4.6289-3.8977 4.6289-6.9297a0.5 0.5 0 0 0-0.5-0.5 0.5 0.5 0 0 0-0.5 0.5c0 2.6304-1.5815 4.9992-4.0117 6.0059-2.4302 1.0066-5.224 0.44984-7.084-1.4102-1.86-1.86-2.4168-4.6538-1.4102-7.084 1.0066-2.4302 3.3754-4.0117 6.0059-4.0117a0.5 0.5 0 0 0 0.5-0.5 0.5 0.5 0 0 0-0.5-0.5z"/>
</svg>
