<svg width="17" height="17" version="1.1" viewBox="0 0 17 17" xmlns="http://www.w3.org/2000/svg">
    <path d="m1.5 1c-.27613 2.76e-5-.49997.22387-.5.5v9c2.76e-5.27613.22387.49997.5.5h2.584c.47791 2.8333 2.9491 5 5.916 5 3.3078 0 6-2.6922 6-6 0-2.9669-2.1667-5.4381-5-5.916v-2.584c-2.8e-5-.27613-.22387-.49997-.5-.5h-9zm.5 1h1v1h1v-1h1v1h1v-1h1v1h1v-1h1v1h1v1h-1v.083984c-.344.058024-.67836.14564-1 .25977v-.34375h-1v.80664c-.10633.061675-.21041.12547-.3125.19336h-.6875v.5332c-.16367.14676-.32004.30312-.4668.4668h-.5332v.6875c-.067886.10209-.13168.20617-.19336.3125h-.80664v1h.34375c-.11412.32164-.20174.656-.25977 1h-.083984v1h-1v-1h-1v-1h1v-1h-1v-1h1v-1h-1v-1h1v-1h-1v-1zm1 2v1h1v-1h-1zm1 0h1v-1h-1v1zm1 0v1h1v-1h-1zm1 0h1v-1h-1v1zm-1 1h-1v1h1v-1zm-1 1h-1v1h1v-1zm-1 2v1h1v-1h-1zm5-4h1v-1h-1v1zm2 1c2.7673 0 5 2.2327 5 5 0 2.7673-2.2327 5-5 5-2.7673 0-5-2.2327-5-5 0-1.1268.37044-2.1651.99609-3h.0039062v-.0039062c.28353-.37748.61862-.71256.99609-.99609h.0039062v-.0039062c.83486-.62565 1.8732-.99609 3-.99609z"/>
</svg>
