<svg width="17" height="17" version="1.1" viewBox="0 0 17 17" xmlns="http://www.w3.org/2000/svg">
 <path d="m8.5 1c-4.1362 0-7.5 3.3638-7.5 7.5s3.3638 7.5 7.5 7.5 7.5-3.3638 7.5-7.5-3.3638-7.5-7.5-7.5zm0 1c3.5958 0 6.5 2.9042 6.5 6.5s-2.9042 6.5-6.5 6.5-6.5-2.9042-6.5-6.5 2.9042-6.5 6.5-6.5zm3.4785 3.1621a0.5 0.5 0 0 0-0.38672 0.21094l-3.6953 5.2441-2.584-2.0605a0.5 0.5 0 0 0-0.70312 0.080078 0.5 0.5 0 0 0 0.078125 0.70312l3 2.3906a0.50005 0.50005 0 0 0 0.7207-0.10352l4-5.6777a0.5 0.5 0 0 0-0.12109-0.69727 0.5 0.5 0 0 0-0.30859-0.089844z"/>
</svg>
