<svg width="16" height="16" version="1.1" viewBox="0 0 16 16" xmlns="http://www.w3.org/2000/svg">
    <path d="m2.5 2a.50005.50005 0 00-.5.5v11a.50005.50005 0 00.5.5h7a.5.5 0 00.023438-.0039.50005.50005 0 00.14844-.03125.5.5 0 00.029297-.01172.50005.50005 0 00.15234-.09766v-.002l4-3.998a.50005.50005 0 000-.00195.50005.50005 0 00.10938-.16211.50005.50005 0 000-.00195.50005.50005 0 00.03711-.20898v-6.9805a.50005.50005 0 00-.5-.5h-11zm.5 1h10v6h-3.5a.50005.50005 0 00-.5.5v3.5h-6zm7 7h2.293l-2.293 2.293z"/>
</svg>
