<svg width="17" height="17" version="1.1" viewBox="0 0 17 17" xmlns="http://www.w3.org/2000/svg">
    <path d="m2.5 2c-.27613 2.76e-5-.49997.22387-.5.5v12c2.76e-5.27613.22387.49997.5.5h8c.0078-.0011.01566-.0024.02344-.0039.05078-.0028.10084-.01335.14844-.03125.0099-.0036.01966-.0075.0293-.01172.0563-.02302.10792-.05611.15234-.09766v-.002l4-3.998c1e-6-.00065 1e-6-.0013 0-.002.04677-.04631.08394-.1014.10938-.16211 1e-6-.00065 1e-6-.0013 0-.0019.02718-.0662.03984-.13747.03711-.20898v-7.9805c-2.8e-5-.27613-.22387-.49997-.5-.5h-12zm.5 1h11v7h-3.5c-.27613 2.8e-5-.49997.22387-.5.5v3.5h-7zm8 8h2.293l-2.293 2.293z"/>
</svg>
