<svg width="17" height="17" version="1.1" viewBox="0 0 17 17" xmlns="http://www.w3.org/2000/svg">
 <path d="m11.5 3a0.5 0.5 0 0 0-0.35352 0.14648 0.5 0.5 0 0 0 0 0.70703l1.1465 1.1465-7.7949-0.0058594a0.5 0.5 0 0 0-0.5 0.5 0.5 0.5 0 0 0 0.5 0.5l7.7949 0.0058594-1.1465 1.1465a0.5 0.5 0 0 0 0 0.70703 0.5 0.5 0 0 0 0.70703 0l2-2a0.50005 0.50005 0 0 0 0-0.70703l-2-2a0.5 0.5 0 0 0-0.35352-0.14648zm-6 6a0.5 0.5 0 0 0-0.35352 0.14648l-2 2a0.50005 0.50005 0 0 0-0.095703 0.14062 0.5 0.5 0 0 0-0.019531 0.048829 0.50005 0.50005 0 0 0-0.03125 0.16406 0.50005 0.50005 0 0 0 0.03125 0.16406 0.5 0.5 0 0 0 0.019531 0.048829 0.50005 0.50005 0 0 0 0.095703 0.14062l2 2a0.5 0.5 0 0 0 0.70703 0 0.5 0.5 0 0 0 0-0.70703l-1.1465-1.1465h7.793a0.5 0.5 0 0 0 0.5-0.5 0.5 0.5 0 0 0-0.5-0.5h-7.793l1.1465-1.1465a0.5 0.5 0 0 0 0-0.70703 0.5 0.5 0 0 0-0.35352-0.14648z"/>
</svg>
