<svg width="17" height="17" version="1.1" viewBox="0 0 17 17" xmlns="http://www.w3.org/2000/svg">
    <path d="m2.9996 13.5c.0003098.06575.013584.1308.039062.19141.077283.18647.25909.30818.46094.30859h10c.27613-2.8e-5.49997-.22387.5-.5v-3c0-.27614-.22386-.5-.5-.5s-.5.22386-.5.5v2.5h-8.293l1.1465-1.1465c.19521-.19525.19521-.51178 0-.70703-.19525-.19521-.51178-.19521-.70703 0l-2 2c-.093768.09376-.14646.22092-.14648.35352zm0-7c0 .27614.22386.5.5.5s.5-.22386.5-.5v-2.5h8.293l-1.1465 1.1465c-.19521.19525-.19521.51178 0 .70703.19525.19521.51178.19521.70703 0l2-2c.31479-.315.09181-.85335-.35352-.85352h-10c-.27613 2.8e-5-.49997.22387-.5.5v3z"/>
</svg>
