<svg width="16" height="16" version="1.1" viewBox="0 0 16 16" xmlns="http://www.w3.org/2000/svg">
    <path d="m3.5 3a.50005.50005 0 00-.19141.039062.50005.50005 0 00-.30859.46094v9a.50005.50005 0 00.5.5h3a.5.5 0 00.5-.5.5.5 0 00-.5-.5h-2.5v-7.293l1.1465 1.1465a.5.5 0 00.70703 0 .5.5 0 000-.70703l-2-2a.50005.50005 0 00-.35352-.14648zm6 0a.5.5 0 00-.5.5.5.5 0 00.5.5h2.5v7.293l-1.1465-1.1465a.5.5 0 00-.70703 0 .5.5 0 000 .70703l2 2a.50005.50005 0 00.85352-.35352v-9a.50005.50005 0 00-.5-.5h-3z"/>
</svg>
