<svg width="17" height="17" version="1.1" viewBox="0 0 17 17" xmlns="http://www.w3.org/2000/svg">
    <path d="m3.5 3c-.065751.0003098-.1308.013584-.19141.039062-.18647.077283-.30818.25909-.30859.46094v10c2.76e-5.27613.22387.49997.5.5h3c.27614 0 .5-.22386.5-.5s-.22386-.5-.5-.5h-2.5v-8.293l1.1465 1.1465c.19525.19521.51178.19521.70703 0 .19521-.19525.19521-.51178 0-.70703l-2-2c-.093758-.093768-.22092-.14646-.35352-.14648zm7 0c-.27614 0-.5.22386-.5.5s.22386.5.5.5h2.5v8.293l-1.1465-1.1465c-.19525-.19521-.51178-.19521-.70703 0-.19521.19525-.19521.51178 0 .70703l2 2c.315.31479.85335.09181.85352-.35352v-10c-2.8e-5-.27613-.22387-.49997-.5-.5h-3z"/>
</svg>
