<svg width="17" height="17" version="1.1" viewBox="0 0 17 17" xmlns="http://www.w3.org/2000/svg">
 <path d="m14 11.5a0.5 0.5 0 0 0-0.14648-0.35352 0.5 0.5 0 0 0-0.70703 0l-1.1465 1.1465 0.0059-7.7949a0.5 0.5 0 0 0-0.5-0.5 0.5 0.5 0 0 0-0.5 0.5l-0.0059 7.7949-1.1465-1.1465a0.5 0.5 0 0 0-0.70703 0 0.5 0.5 0 0 0 0 0.70703l2 2a0.50005 0.50005 0 0 0 0.70703 0l2-2a0.5 0.5 0 0 0 0.14648-0.35352zm-6-6a0.5 0.5 0 0 0-0.14648-0.35352l-2-2a0.50005 0.50005 0 0 0-0.14062-0.095703 0.5 0.5 0 0 0-0.048829-0.019531 0.50005 0.50005 0 0 0-0.16406-0.03125 0.50005 0.50005 0 0 0-0.16406 0.03125 0.5 0.5 0 0 0-0.048829 0.019531 0.50005 0.50005 0 0 0-0.14062 0.095703l-2 2a0.5 0.5 0 0 0 0 0.70703 0.5 0.5 0 0 0 0.70703 0l1.1465-1.1465v7.793a0.5 0.5 0 0 0 0.5 0.5 0.5 0.5 0 0 0 0.5-0.5v-7.793l1.1465 1.1465a0.5 0.5 0 0 0 0.70703 0 0.5 0.5 0 0 0 0.14648-0.35352z"/>
</svg>
