<svg width="17" height="17" version="1.1" viewBox="0 0 17 17" xmlns="http://www.w3.org/2000/svg">
 <path d="m2.5 3a0.50005 0.50005 0 0 0-0.5 0.5v7a0.50005 0.50005 0 0 0 0.5 0.5h3.498v1h-1.498a0.50005 0.50005 0 0 0-0.5 0.5v2a0.50005 0.50005 0 0 0 0.5 0.5h8a0.50005 0.50005 0 0 0 0.5-0.5v-2a0.50005 0.50005 0 0 0-0.5-0.5h-1.502v-1h3.502a0.50005 0.50005 0 0 0 0.5-0.5v-7a0.50005 0.50005 0 0 0-0.5-0.5h-12zm0.5 1h11v6h-3.4883a0.50005 0.50005 0 0 0-0.013672-0.0019531h-4a0.50005 0.50005 0 0 0-0.013672 0.0019531h-3.4844v-6zm3.998 7h3v0.99805h-3v-0.99805zm-1.998 2h7v1h-7v-1z"/>
</svg>
