<svg width="17" height="17" version="1.1" viewBox="0 0 17 17" xmlns="http://www.w3.org/2000/svg">
 <path d="m5.5059 2.9941c-0.64901 0-1.2072 0.42187-1.4141 1.0039h-1.0918v-0.47656a0.5 0.5 0 0 0-0.5-0.5 0.5 0.5 0 0 0-0.5 0.5v8.9785 1a0.5 0.5 0 0 0 0.5 0.5 0.5 0.5 0 0 0 0.5-0.5v-0.5h4.0938c0.20798 0.57996 0.7646 1 1.4121 1 0.64751 0 1.2041-0.42004 1.4121-1h4.582a0.5 0.5 0 0 0 0.5-0.5 0.5 0.5 0 0 0-0.5-0.5h-4.582c-0.20798-0.57996-0.7646-1-1.4121-1-0.64751 0-1.2041 0.42004-1.4121 1h-4.0938v-3h8.0957c0.20959 0.57698 0.76479 0.99414 1.4102 0.99414s1.2006-0.41716 1.4102-0.99414h0.58398a0.5 0.5 0 0 0 0.5-0.5 0.5 0.5 0 0 0-0.5-0.5h-0.58008c-0.20634-0.58293-0.76441-1.0059-1.4141-1.0059s-1.2077 0.42293-1.4141 1.0059h-8.0918v-3.002h1.0938c0.20895 0.57817 0.76589 0.99609 1.4121 0.99609 0.64537 0 1.2006-0.41716 1.4102-0.99414l7.582 0.0019531a0.5 0.5 0 0 0 0.5-0.5 0.5 0.5 0 0 0-0.5-0.5l-7.5781-0.0019531c-0.20634-0.58293-0.76441-1.0059-1.4141-1.0059zm-0.070312 1.0039 0.14258 0.0019531c0.246 0.03378 0.42773 0.2368 0.42773 0.49414 0 0.28206-0.21794 0.5-0.5 0.5s-0.5-0.21794-0.5-0.5c0-0.25814 0.18252-0.46327 0.42969-0.49609zm6.9941 4.002h0.15234c0.244 0.035405 0.42383 0.23818 0.42383 0.49414 0 0.28206-0.21794 0.5-0.5 0.5-0.28206 0-0.5-0.21794-0.5-0.5 0-0.25596 0.17983-0.45874 0.42383-0.49414zm-3.9238 4c0.28206 0 0.5 0.21794 0.5 0.5s-0.21794 0.5-0.5 0.5-0.5-0.21794-0.5-0.5 0.21794-0.5 0.5-0.5z"/>
</svg>
