<svg width="17" height="17" version="1.1" viewBox="0 0 17 17" xmlns="http://www.w3.org/2000/svg">
 <path d="m13.95 3.5502c-1.8e-5 -0.1326-0.05271-0.25977-0.14648-0.35352-0.19525-0.19521-0.51178-0.19521-0.70703 0l-4.5963 4.5963-4.5963-4.5963c-0.19525-0.19521-0.51178-0.19521-0.70703 0-0.19521 0.19525-0.19521 0.51178 0 0.70703l4.5963 4.5963-4.5963 4.5963c-0.19521 0.19525-0.19523 0.5118-2e-7 0.70703 0.19523 0.19523 0.51178 0.19521 0.70703 0l4.5963-4.5963 4.5963 4.5963c0.19525 0.19521 0.51178 0.19521 0.70703 1e-6 0.19521-0.19525 0.19521-0.51178 0-0.70703l-4.5963-4.5963 4.5963-4.5963c0.09377-0.093755 0.14646-0.22092 0.14648-0.35352z"/>
</svg>
