<svg width="17" height="17" version="1.1" viewBox="0 0 17 17" xmlns="http://www.w3.org/2000/svg">
 <path d="m3.5 2a0.50005 0.50005 0 0 0-0.5 0.5v2a0.50005 0.50005 0 0 0 0.5 0.5h1.5v3.5 5a0.50005 0.50005 0 0 0 0.5 0.5h3.5v0.5a0.50005 0.50005 0 0 0 0.5 0.5h4a0.50005 0.50005 0 0 0 0.5-0.5v-2a0.50005 0.50005 0 0 0-0.5-0.5h-4a0.50005 0.50005 0 0 0-0.5 0.5v0.5h-3v-4h3v0.5a0.50005 0.50005 0 0 0 0.5 0.5h4a0.50005 0.50005 0 0 0 0.5-0.5v-2a0.50005 0.50005 0 0 0-0.5-0.5h-4a0.50005 0.50005 0 0 0-0.5 0.5v0.5h-3v-3h1.5a0.50005 0.50005 0 0 0 0.5-0.5v-2a0.50005 0.50005 0 0 0-0.5-0.5h-4zm0.5 1h3v1h-1.5-1.5v-1zm6 5h3v1h-3v-1zm0 5h3v1h-3v-0.5-0.5z"/>
</svg>
