<svg width="17" height="17" version="1.1" viewBox="0 0 17 17" xmlns="http://www.w3.org/2000/svg">
    <path d="m9.0035 1c1.2807 0 2.5609.48672 3.5352 1.4609 1.9484 1.9484 1.9484 5.1219 0 7.0703a.5.5 0 010 .002l-.35352.35156-6.0117 6.0117a.5.5 0 01-.70703 0 .5.5 0 010-.70703l6.0117-6.0118.35352-.35352c1.5663-1.5663 1.5663-4.09 0-5.6562-1.5663-1.5663-4.09-1.5663-5.6563 0l-.35352.35352h-.002l-.56055.56055h.91406a.5.5 0 01.5.5.5.5 0 01-.5.5h-2.1211a.50005.50005 0 01-.5-.5v-2.1211a.5.5 0 01.5-.5.5.5 0 01.5.5v.91406l.56059-.56055h.002l.35347-.35352c.97422-.97422 2.2545-1.4609 3.5352-1.4609z"/>
</svg>
