<svg width="16" height="16" version="1.1" viewBox="0 0 16 16" xmlns="http://www.w3.org/2000/svg">
    <path d="m8.5039 1c-1.1527 3e-7-2.3051.43787-3.1816 1.3145a.5.5 0 00-.00195.00195l-.97852.97852v-.79492a.5.5 0 00-.5-.5.5.5 0 00-.5.5v2a.50005.50005 0 00.5.5h2a.5.5 0 00.5-.5.5.5 0 00-.5-.5h-.79102l.97656-.97852a.5.5 0 00.00195 0c1.371-1.371 3.5782-1.371 4.9492 0s1.371 3.5802 0 4.9512l-6.1777 6.1777a.5.5 0 000 .70703.5.5 0 00.70703 0l6.1777-6.1797c1.7522-1.7533 1.7528-4.6104 0-6.3633-.87659-.87659-2.0289-1.3145-3.1816-1.3145z"/>
</svg>
