<svg width="16" height="16" version="1.1" viewBox="0 0 16 16" xmlns="http://www.w3.org/2000/svg">
    <path d="m13.5 1a.5.5 0 00-.5.5v.5h-.5a.5.5 0 00-.5.5.5.5 0 00.5.5h.5v.5a.5.5 0 00.5.5.5.5 0 00.5-.5v-.5h.5a.5.5 0 00.5-.5.5.5 0 00-.5-.5h-.5v-.5a.5.5 0 00-.5-.5zm-11 1a.50005.50005 0 00-.5.5v6a.50005.50005 0 00.5.5h8a.50005.50005 0 00.5-.5v-6a.50005.50005 0 00-.5-.5h-8zm.5 1h7v5h-7v-5zm10 4a.5.5 0 00-.5.5.5.5 0 00.5.5v5h-7v-2a.5.5 0 00-.5-.5.5.5 0 00-.5.5v2.5a.50005.50005 0 00.5.5h8a.50005.50005 0 00.5-.5v-6a.50005.50005 0 00-.5-.5h-.5zm-10.5 5a.5.5 0 00-.5.5v.5h-.5a.5.5 0 00-.5.5.5.5 0 00.5.5h.5v.5a.5.5 0 00.5.5.5.5 0 00.5-.5v-.5h.5a.5.5 0 00.5-.5.5.5 0 00-.5-.5h-.5v-.5a.5.5 0 00-.5-.5z"/>
</svg>
