<svg width="17" height="17" version="1.1" viewBox="0 0 17 17" xmlns="http://www.w3.org/2000/svg">
    <path d="m13.443 2.0042c-.11222.012637-.21686.06289-.29688.14258-.19521.19525-.19521.51178 0 .70703l.64648.64648-.64648.64648c-.19521.19525-.19521.51178 0 .70703.19525.19521.51178.19521.70703 0l.64648-.64648.64648.64648c.19525.19521.51178.19521.70703 0 .19521-.19525.19521-.51178 0-.70703l-.64648-.64648.64648-.64648c.19521-.19525.19521-.51178 0-.70703-.19525-.19521-.51178-.19521-.70703 0l-.64648.64648-.64648-.64648c-.10787-.10751-.25886-.16-.41016-.14258zm-9.9434 1.9958c-.27613 2.76e-5-.49997.22387-.5.5v4c2.76e-5.27613.22387.49997.5.5h6c.27613-2.76e-5.49997-.22387.5-.5v-4c-2.76e-5-.27613-.22387-.49997-.5-.5zm.5 1h5v3h-5zm8.5 3c-.27614 0-.5.22386-.5.5s.22386.5.5.5h.5v3h-5v-.5c0-.27614-.22386-.5-.5-.5s-.5.22386-.5.5v1c2.76e-5.27613.22387.49997.5.5h6c.27613-2.8e-5.49997-.22387.5-.5v-4c-2.8e-5-.27613-.22387-.49997-.5-.5zm-11 4.0002c-.1326 2e-5-.25976.05271-.35352.14648-.19521.19525-.19521.51178 0 .70703l.64648.64648-.64648.64648c-.19521.19525-.19521.51178 0 .70703.19525.19521.51178.19521.70703 0l.64648-.64648.64648.64648c.19525.19521.51178.19521.70703 0 .19521-.19525.19521-.51178 0-.70703l-.64648-.64648.64648-.64648c.19521-.19525.19521-.51178 0-.70703-.093753-.093773-.22092-.14646-.35352-.14648-.1326 2e-5-.25976.05271-.35352.14648l-.64648.64648-.64648-.64648c-.093753-.093773-.22092-.14646-.35352-.14648z"/>
</svg>
