<svg width="16" height="16" version="1.1" viewBox="0 0 16 16" xmlns="http://www.w3.org/2000/svg">
    <path d="m1.5 1a.50005.50005 0 00-.5.5v9a.50005.50005 0 00.5.5h2.709c.70327 2.4836 3.0665 4.1689 5.6758 3.9863 2.7394-.1917 4.9226-2.3849 5.1035-5.125.17179-2.6025-1.5136-4.9515-3.9883-5.6523v-2.709a.50005.50005 0 00-.5-.5h-9zm.5 1h8v2.6016a.5.5 0 00.011719.060547.5.5 0 00.013672.068359.5.5 0 00.044921.11133.5.5 0 00.042969.064453.5.5 0 00.082031.082031.5.5 0 00.064454.042969.5.5 0 00.10352.042969.5.5 0 00.039063.017578c2.208.45148 3.7363 2.4563 3.5879 4.7051-.14844 2.2488-1.9276 4.0341-4.1758 4.1914-2.2469.15724-4.2571-1.3622-4.7188-3.5664a.5.5 0 000-.003906.5.5 0 00-.0019531-.00586.5.5 0 00-.49219-.41211h-2.6016v-8z" color="#000000" stroke-linecap="round" stroke-linejoin="round" style="-inkscape-stroke:none"/>
    <path d="m3 2h1v1h-1z" fill="none" stop-color="#000000" stroke-linecap="round" stroke-linejoin="round"/>
    <path d="m4 10h1v1h-1z" stop-color="#000000" stroke-linecap="round" stroke-linejoin="round"/>
    <path d="m5 9h1v1h-1z" stop-color="#000000" stroke-linecap="round" stroke-linejoin="round"/>
    <path d="m6 8h1v1h-1z" stop-color="#000000" stroke-linecap="round" stroke-linejoin="round"/>
    <path d="m7 7h1v1h-1z" stop-color="#000000" stroke-linecap="round" stroke-linejoin="round"/>
    <path d="m8 6h1v1h-1z" stop-color="#000000" stroke-linecap="round" stroke-linejoin="round"/>
    <path d="m9 5h1v1h-1z" stop-color="#000000" stroke-linecap="round" stroke-linejoin="round"/>
    <path d="m10 4h1v1h-1z" stop-color="#000000" stroke-linecap="round" stroke-linejoin="round"/>
    <path d="m8 4h1v1h-1z" stop-color="#000000" stroke-linecap="round" stroke-linejoin="round"/>
    <path d="m7 3h1v1h-1z" stop-color="#000000" stroke-linecap="round" stroke-linejoin="round"/>
    <path d="m6 2h1v1h-1z" stop-color="#000000" stroke-linecap="round" stroke-linejoin="round"/>
    <path d="m8 2h1v1h-1z" stop-color="#000000" stroke-linecap="round" stroke-linejoin="round"/>
    <path d="m9 3h1v1h-1z" stop-color="#000000" stroke-linecap="round" stroke-linejoin="round"/>
    <path d="m4 2h1v1h-1z" stop-color="#000000" stroke-linecap="round" stroke-linejoin="round"/>
    <path d="m5 3h1v1h-1z" stop-color="#000000" stroke-linecap="round" stroke-linejoin="round"/>
    <path d="m6 4h1v1h-1z" stop-color="#000000" stroke-linecap="round" stroke-linejoin="round"/>
    <path d="m7 5h1v1h-1z" stop-color="#000000" stroke-linecap="round" stroke-linejoin="round"/>
    <path d="m10 6h1v1h-1z" stop-color="#000000" stroke-linecap="round" stroke-linejoin="round"/>
    <path d="m11 7h1v1h-1z" stop-color="#000000" stroke-linecap="round" stroke-linejoin="round"/>
    <path d="m12 8h1v1h-1z" stop-color="#000000" stroke-linecap="round" stroke-linejoin="round"/>
    <path d="m13 9h1v1h-1z" stop-color="#000000" stroke-linecap="round" stroke-linejoin="round"/>
    <path d="m13 7h1v1h-1z" stop-color="#000000" stroke-linecap="round" stroke-linejoin="round"/>
    <path d="m12 6h1v1h-1z" stop-color="#000000" stroke-linecap="round" stroke-linejoin="round"/>
    <path d="m11 5h1v1h-1z" stop-color="#000000" stroke-linecap="round" stroke-linejoin="round"/>
    <path d="m9 7h1v1h-1z" stop-color="#000000" stroke-linecap="round" stroke-linejoin="round"/>
    <path d="m10 8h1v1h-1z" stop-color="#000000" stroke-linecap="round" stroke-linejoin="round"/>
    <path d="m11 9h1v1h-1z" stop-color="#000000" stroke-linecap="round" stroke-linejoin="round"/>
    <path d="m12 10h1v1h-1z" stop-color="#000000" stroke-linecap="round" stroke-linejoin="round"/>
    <path d="m13 11h1v1h-1z" stop-color="#000000" stroke-linecap="round" stroke-linejoin="round"/>
    <path d="m12 12h1v1h-1z" stop-color="#000000" stroke-linecap="round" stroke-linejoin="round"/>
    <path d="m11 11h1v1h-1z" stop-color="#000000" stroke-linecap="round" stroke-linejoin="round"/>
    <path d="m10 10h1v1h-1z" stop-color="#000000" stroke-linecap="round" stroke-linejoin="round"/>
    <path d="m9 9h1v1h-1z" stop-color="#000000" stroke-linecap="round" stroke-linejoin="round"/>
    <path d="m8 8h1v1h-1z" stop-color="#000000" stroke-linecap="round" stroke-linejoin="round"/>
    <path d="m6 6h1v1h-1z" stop-color="#000000" stroke-linecap="round" stroke-linejoin="round"/>
    <path d="m5 5h1v1h-1z" stop-color="#000000" stroke-linecap="round" stroke-linejoin="round"/>
    <path d="m4 4h1v1h-1z" stop-color="#000000" stroke-linecap="round" stroke-linejoin="round"/>
    <path d="m3 3h1v1h-1z" stop-color="#000000" stroke-linecap="round" stroke-linejoin="round"/>
    <path d="m2 2h1v1h-1z" stop-color="#000000" stroke-linecap="round" stroke-linejoin="round"/>
    <path d="m2 4h1v1h-1z" stop-color="#000000" stroke-linecap="round" stroke-linejoin="round"/>
    <path d="m2 6h1v1h-1z" stop-color="#000000" stroke-linecap="round" stroke-linejoin="round"/>
    <path d="m2 8h1v1h-1z" stop-color="#000000" stroke-linecap="round" stroke-linejoin="round"/>
    <path d="m3 9h1v1h-1z" stop-color="#000000" stroke-linecap="round" stroke-linejoin="round"/>
    <path d="m4 8h1v1h-1z" stop-color="#000000" stroke-linecap="round" stroke-linejoin="round"/>
    <path d="m4 6h1v1h-1z" stop-color="#000000" stroke-linecap="round" stroke-linejoin="round"/>
    <path d="m3 7h1v1h-1z" stop-color="#000000" stroke-linecap="round" stroke-linejoin="round"/>
    <path d="m5 7h1v1h-1z" stop-color="#000000" stroke-linecap="round" stroke-linejoin="round"/>
    <path d="m3 5h1v1h-1z" stop-color="#000000" stroke-linecap="round" stroke-linejoin="round"/>
    <path d="m7 9h1v1h-1z" stop-color="#000000" stroke-linecap="round" stroke-linejoin="round"/>
    <path d="m6 10h1v1h-1z" stop-color="#000000" stroke-linecap="round" stroke-linejoin="round"/>
    <path d="m8 10h1v1h-1z" stop-color="#000000" stroke-linecap="round" stroke-linejoin="round"/>
    <path d="m7 11h1v1h-1z" stop-color="#000000" stroke-linecap="round" stroke-linejoin="round"/>
    <path d="m6 12h1v1h-1z" stop-color="#000000" stroke-linecap="round" stroke-linejoin="round"/>
    <path d="m7 13h1v1h-1z" stop-color="#000000" stroke-linecap="round" stroke-linejoin="round"/>
    <path d="m8 12h1v1h-1z" stop-color="#000000" stroke-linecap="round" stroke-linejoin="round"/>
    <path d="m5 11h1v1h-1z" stop-color="#000000" stroke-linecap="round" stroke-linejoin="round"/>
    <path d="m9 11h1v1h-1z" stop-color="#000000" stroke-linecap="round" stroke-linejoin="round"/>
    <path d="m9 13h1v1h-1z" stop-color="#000000" stroke-linecap="round" stroke-linejoin="round"/>
    <path d="m10 12h1v1h-1z" stop-color="#000000" stroke-linecap="round" stroke-linejoin="round"/>
    <path d="m11 13h1v1h-1z" stop-color="#000000" stroke-linecap="round" stroke-linejoin="round"/>
</svg>
