<svg width="17" height="17" version="1.1" viewBox="0 0 17 17" xmlns="http://www.w3.org/2000/svg">
    <path d="m1.5 1a.50005.50005 0 00-.5.5v9a.50005.50005 0 00.5.5h2.5.085938c.34061 2.0123 1.6917 3.7446 3.6191 4.543 2.2407.92814 4.8221.41419 6.5371-1.3008 1.715-1.715 2.2289-4.2983 1.3008-6.5391-.79833-1.9273-2.5308-3.2749-4.543-3.6152v-.087891-2.5a.50005.50005 0 00-.5-.5h-9zm1.5 1h1v1h1v-1h1v1h1v-1h1v1h1v-1h1v1h-1v1h1v1c.34066 0 .67486.037276 1 .10352v.89648h1v-.57812c.35391.15455.688.34738.99609.57812h-.99609v1h1v-.99805c.37542.28167.71071.61771.99609.99805h-.99609v1h1v-.99414c.22771.30437.42376.63599.58008.99414h-.58008v1h.89648c.067908.33172.099603.66626.09961 1h-.99609v1h.89844c-.069969.34302-.1756.67747-.31641 1h-.58203v.99609c-.00085.001134-.001102.002773-.001953.003906h-.99805v.99805.001953h-.001953-.99805v.58398c-.32183.14057-.65777.24448-1 .31445v-.89844h-1v.99805c-.33359-7e-6-.66837-.033656-1-.10156v-.89648h-1v.58008c-.35836-.15653-.6915-.35207-.99609-.58008h.99609v-1h-1v.99805c-.38074-.28552-.716-.62239-.99805-.99805h.99805v-1h-1v.99609c-.23083-.30801-.42346-.64231-.57812-.99609h.57812v-1h-.89648c-.066346-.32517-.10352-.6593-.10352-1h-1v-1h-1v1h-1v-1h1v-1h-1v-1h1v-1h-1v-1h1v-1h-1v-1h1v-1zm0 1v1h1v-1h-1zm1 1v1h1v-1h-1zm1 0h1v-1h-1v1zm1 0v1h1v-1h-1zm1 0h1v-1h-1v1zm1 0v1h1v-1h-1zm1 1v1h1v-1h-1zm1 1v1h1v-1h-1zm1 1v1h1v-1h-1zm1 1v1h1v-1h-1zm1 1v1h1v-1h-1zm0 1h-1v1h1v-1zm0 1v1h1v-1h-1zm0 1h-1v1h1v-1zm-1 1h-1v1h1v-1zm-1 0v-1h-1v1h1zm-1 0h-1v1h1v-1zm-1 0v-1h-1v1h1zm-1-1v-1h-1v1h1zm-1-1v-1h-1v1h1zm-1-1v-1h-1v1h1zm-1-1v-1h-1v1h1zm-1-1v-1h-1v1h1zm0-1h1v-1h-1v1zm0-1v-1h-1v1h1zm1 0h1v-1h-1v1zm1 0v1h1v-1h-1zm1 0h1v-1h-1v1zm1 0v1h1v-1h-1zm1 1v1h1v-1h-1zm1 1v1h1v-1h-1zm1 1v1h1v-1h-1zm0 1h-1v1h1v-1zm0 1v1h1v-1h-1zm-1 0h-1v1h1v-1zm-1 0v-1h-1v1h1zm-1-1v-1h-1v1h1zm-1-1v-1h-1v1h1zm-1-1v-1h-1v1h1zm1 0h1v-1h-1v1zm1 0v1h1v-1h-1zm1 1v1h1v-1h-1z"/>
</svg>
