<svg width="17" height="17" version="1.1" viewBox="0 0 17 17" xmlns="http://www.w3.org/2000/svg">
 <path d="m8.5 2a0.50005 0.50005 0 0 0-0.43164 0.24805l-7 12a0.50005 0.50005 0 0 0 0.43164 0.75195h14a0.50005 0.50005 0 0 0 0.43164-0.75195l-7-12a0.50005 0.50005 0 0 0-0.43164-0.24805zm0 1.4922 6.1289 10.508h-12.258l6.1289-10.508zm0 3.0078c-0.27614 0-0.5 0.22386-0.5 0.5v3c0 0.27614 0.22386 0.5 0.5 0.5s0.5-0.22386 0.5-0.5v-3c0-0.27614-0.22386-0.5-0.5-0.5zm0 5.5c-0.27614 0-0.5 0.22386-0.5 0.5s0.22386 0.5 0.5 0.5 0.5-0.22386 0.5-0.5-0.22386-0.5-0.5-0.5z"/>
</svg>
