<svg width="16" height="16" version="1.1" viewBox="0 0 16 16" xmlns="http://www.w3.org/2000/svg">
    <path d="m5.3379 1c-.018227.002734-.040497.012762-.060547.027344-.0401.032808-.061457.07357-.046875.091797l.67383.79688c-1.7644.77646-2.0219 2.6214-2.0547 3.1719h8.1504c-.036454-.54681-.29957-2.4159-2.0566-3.1777l.66797-.78711c.01458-.025517-.006775-.062634-.046875-.091797s-.085029-.033852-.099609-.015625l-.69141.81641c-.49577-.1932-1.1062-.31224-1.8535-.30859-.74366 0-1.348.12346-1.8438.32031l-.69922-.83008c-.005468-.010936-.020836-.016406-.039062-.013672zm.78516 1.7617c.2734 0 .49219.22022.49219.48633 0 .26611-.22243.48438-.49219.48438s-.49219-.21826-.49219-.48438c0-.26611.22243-.48633.49219-.48633zm3.5879 0c.2734 0 .49219.22022.49219.48633 0 .26611-.22243.48438-.49219.48438-.2734 0-.49219-.21826-.49219-.48438 0-.26611.22243-.48633.49219-.48633zm-7.334 2.3223c-.48483 0-.875.39017-.875.875v3.5c0 .48483.39017.875.875.875s.875-.39017.875-.875v-3.5c0-.48483-.39017-.875-.875-.875zm11.082 0c-.48483 0-.875.39017-.875.875v3.5c0 .48483.39017.875.875.875s.875-.39017.875-.875v-3.5c0-.48483-.39017-.875-.875-.875zm-9.625.58398v6.0547c0 .24788.16084.50781.41602.50781h1.0059v1.8945c0 .48484.39017.875.875.875h.017578c.20414 0 .39494-.073323.53711-.19727.19685-.1604.32031-.40433.32031-.67773v-1.8945h1.7871v1.8945c0 .48484.38821.875.87305.875.48483 0 .875-.39016.875-.875v-1.8945h1.043c.25153 0 .41602-.26019.41602-.51172v-3.2656-2.7852h-8.166z"/>
</svg>
