<svg width="17" height="17" version="1.1" viewBox="0 0 17 17" xmlns="http://www.w3.org/2000/svg">
    <path d="m5.6977 1.0145c-.019529.00293-.043389.013673-.064872.029297-.042964.035151-.065847.078825-.050223.098354l.72196.8538c-1.8904.83192-2.1663 2.8086-2.2015 3.3985h8.7326c-.039054-.58587-.32097-2.5885-2.2035-3.4047l.71568-.84333c.01562-.02734-.0073-.067108-.05022-.098354-.04297-.031246-.0911-.03627-.10672-.016741l-.7408.87472c-.53118-.207-1.1852-.33454-1.9859-.33063-.79678 0-1.4443.13228-1.9755.34319l-.74917-.88937c-.00586-.011717-.022324-.017578-.041852-.014649zm.84124 1.8875c.29293 0 .52735.23595.52735.52107s-.23832.51898-.52735.51898-.52735-.23385-.52735-.51898c0-.28512.23832-.52107.52735-.52107zm3.8442 0c.29293 0 .52734.23595.52734.52107s-.23832.51898-.52734.51898c-.29293 0-.52734-.23385-.52734-.51898 0-.28512.23832-.52107.52734-.52107zm-7.8578 2.4882c-.51946 0-.9375.41804-.9375.9375v3.75c0 .51946.41804.9375.9375.9375.51946 0 .9375-.41804.9375-.9375v-3.75c0-.51946-.41804-.9375-.9375-.9375zm11.874 0c-.51946 0-.9375.41804-.9375.9375v3.75c0 .51946.41804.9375.9375.9375.51946 0 .9375-.41804.9375-.9375v-3.75c0-.51946-.41804-.9375-.9375-.9375zm-10.312.62569v6.4872c0 .26559.17233.54408.44573.54408h1.0777v2.0298c0 .51947.41804.9375.9375.9375h.018833c.21872 0 .42315-.07856.57547-.21136.21091-.17186.34319-.43321.34319-.72614v-2.0298h1.9147v2.0298c0 .51947.41594.9375.93541.9375.51946 0 .9375-.41803.9375-.9375v-2.0298h1.1175c.2695 0 .44574-.27877.44574-.54827v-6.483h-8.7493z"/>
</svg>
