<svg width="17" height="17" version="1.1" viewBox="0 0 17 17" xmlns="http://www.w3.org/2000/svg">
 <path d="m6.5 1c-3.0316 0-5.5 2.4684-5.5 5.5s2.4684 5.5 5.5 5.5c1.3363 0 2.5633-0.47939 3.5176-1.2754l4.6289 4.6289a0.5 0.5 0 0 0 0.70703 0 0.5 0.5 0 0 0 0-0.70703l-4.6289-4.6289c0.79599-0.95426 1.2754-2.1813 1.2754-3.5176 0-3.0316-2.4684-5.5-5.5-5.5zm0 1c2.4912 0 4.5 2.0088 4.5 4.5s-2.0088 4.5-4.5 4.5-4.5-2.0088-4.5-4.5 2.0088-4.5 4.5-4.5zm-2.5 4a0.5 0.5 0 0 0-0.5 0.5 0.5 0.5 0 0 0 0.5 0.5h5a0.5 0.5 0 0 0 0.5-0.5 0.5 0.5 0 0 0-0.5-0.5h-5z"/>
</svg>
