<svg width="720" height="576" version="1.1" viewBox="0 0 720 576" xmlns="http://www.w3.org/2000/svg">
 <rect width="720" height="576" rx="0" ry="0" fill="#e93976" stop-color="#000000" stroke-width="4.1824" style="-inkscape-stroke:none;font-variation-settings:normal"/>
 <path d="m360.39 147.6c-23.178 0-45.114 5.746-64.466 15.869-8.2116-10.039-20.496-15.863-33.466-15.864-23.882-1e-4 -43.24 19.36-43.24 43.24l0.7781 237.56h140.4c77.026 0 140.4-63.366 140.4-140.39s-63.366-140.41-140.4-140.41zm0 86.464c30.3 0 53.926 23.64 53.926 53.938 0 30.3-23.63 53.93-53.926 53.93h-53.91v-54.75c0.42366-29.902 23.886-53.12 53.91-53.12z" fill="#fff" stop-color="#000000" stroke-width="4.1824" style="font-variation-settings:normal"/>
</svg>
