<?xml version="1.0" encoding="UTF-8"?>
<svg width="720" height="576" version="1.1" viewBox="0 0 720 576" xmlns="http://www.w3.org/2000/svg" xmlns:xlink="http://www.w3.org/1999/xlink">
 <defs>
  <linearGradient id="linearGradient4" x1="349.46" x2="349.46" y1="557.68" y2="2.442" gradientTransform="matrix(1.0374,0,0,1.0374,-2.5333,-2.5333)" gradientUnits="userSpaceOnUse">
   <stop stop-color="#d01761" offset="0"/>
   <stop stop-color="#e93976" offset="1"/>
  </linearGradient>
  <linearGradient id="linearGradient8" x1="1516.3" x2="1624.9" y1="732.63" y2="732.63" gradientTransform="translate(405.48 -253.79)" gradientUnits="userSpaceOnUse">
   <stop stop-color="#d2d2d2" offset="0"/>
   <stop stop-color="#fff" stop-opacity="0" offset="1"/>
  </linearGradient>
 </defs>
 <path d="m360.31 153.77v2e-3c-22.368 0.1116-44.388 5.5687-64.215 15.917-8.1666-9.7621-20.227-15.419-32.954-15.46-23.814 1e-3 -43.124 19.295-43.145 43.11v237.07h86.128v-2e-3h0.1681v-11.082c17.096 7.2305 35.459 11.001 54.02 11.085 39.813 0 75.75-16.58 101.29-43.212 24.17-25.205 39.024-59.414 39.028-97.092l0.011-0.0129c0-77.497-62.821-140.32-140.32-140.32zm0 86.132c29.928 0 54.189 24.261 54.189 54.188h-0.0121c0 29.928-24.261 54.188-54.188 54.188-28.776 0-52.248-22.447-54.016-50.778v-4.8626c0.78505-29.296 24.719-52.657 54.027-52.736z" fill-opacity=".10124" stop-color="#000000" stroke-width="4.169" style="-inkscape-stroke:none;font-variation-settings:normal"/>
 <rect width="720" height="576" rx="0" ry="0" fill="url(#linearGradient4)" stop-color="#000000" stroke-width=".97479" style="-inkscape-stroke:none;font-variation-settings:normal"/>
 <g transform="matrix(.9193 0 0 .9193 -1456.6 -152.19)">
  <path d="m1976.1 338.21a140.63 140.63 0 0 0-140.63 140.63 140.63 140.63 0 0 0 0.016 0.22852h-0.016v140.4h86.32v-11.176a140.63 140.63 0 0 0 54.309 11.176 140.63 140.63 0 0 0 140.63-140.63 140.63 140.63 0 0 0-140.63-140.63zm0 86.32a54.309 54.309 0 0 1 54.309 54.309 54.309 54.309 0 0 1-54.309 54.309 54.309 54.309 0 0 1-54.309-54.309 54.309 54.309 0 0 1 54.309-54.309z" fill="#fff" style="-inkscape-stroke:none;font-variation-settings:normal"/>
  <path d="m1921.8 478.83v129.46a140.63 140.63 0 0 0 54.31 11.176 140.63 140.63 0 0 0 140.63-140.63 140.63 140.63 0 0 0 0-2e-3h-86.32a54.309 54.309 0 0 1 0 2e-3 54.309 54.309 0 0 1-54.309 54.309 54.309 54.309 0 0 1-54.308-54.309 54.309 54.309 0 0 1 0-2e-3z" fill="url(#linearGradient8)" stop-color="#000000" stroke-width="3.6859" style="-inkscape-stroke:none;font-variation-settings:normal"/>
 </g>
</svg>
