<svg width="644" height="368" version="1.1" viewBox="0 0 644 368" xmlns="http://www.w3.org/2000/svg" xmlns:xlink="http://www.w3.org/1999/xlink">
    <rect x="6.1035e-6" y="1.77e-6" width="644" height="368" rx="0" ry="0" fill="#383838" stop-color="#000000" style="-inkscape-stroke:none;font-variation-settings:normal"/>
    <path d="m322.25 93.154c-14.997 0-29.191 3.718-41.713 10.268-5.3133-6.4959-13.262-10.264-21.654-10.265-15.453-7.4e-5-27.979 12.527-27.979 27.979l.50347 153.71h90.843c49.839 0 90.843-41.001 90.843-90.84 0-49.839-41.001-90.849-90.843-90.849zm0 55.947c19.605 0 34.893 15.296 34.893 34.901 0 19.605-15.29 34.896-34.893 34.896h-34.882v-35.426c.27413-19.348 15.455-34.371 34.882-34.371z" fill="#f00061" stop-color="#000000" stroke-width="2.7062" style="-inkscape-stroke:none;font-variation-settings:normal"/>
</svg>
