<svg width="720" height="576" version="1.1" viewBox="0 0 720 576" xmlns="http://www.w3.org/2000/svg">
    <rect width="720" height="576" rx="0" ry="0" fill="#414141" stop-color="#000000" stroke-width="1.3228" style="-inkscape-stroke:none;font-variation-settings:normal"/>
    <path d="m520.7 276.01a1.0024.9795 0 00-.86918.4897l-6.5072 11.011a1.0024.9795 0 000 .9794l6.5072 11.011a1.0024.9795 0 00.86918.4897h13.006a1.0024.9795 0 00.86918-.4897l6.5072-11.011a1.0024.9795 0 000-.9794l-6.5072-11.011a1.0024.9795 0 00-.86918-.4897zm.57554 1.9588h11.855l5.9238 10.031-5.9238 10.031h-11.855l-5.9238-10.031z" fill="#fff" stroke-width="2"/>
    <path d="m296.08 275.99v3c0 .55228.44772 1 1 1s1-.44772 1-1v-1h9v20h-1c-.55228 0-1 .44772-1 1s.44772 1 1 1h4c.55228 0 1-.44772 1-1s-.44772-1-1-1h-1v-20h9v1c0 .55228.44772 1 1 1s1-.44772 1-1v-3z" fill="#fff" stroke-width="2"/>
    <path d="m360.39 147.6c-23.178 0-45.114 5.746-64.466 15.869-8.2116-10.039-20.496-15.863-33.466-15.864-23.882-1e-4-43.24 19.36-43.24 43.24l.7781 237.56h140.4c77.026 0 140.4-63.366 140.4-140.39s-63.366-140.41-140.4-140.41zm0 86.464c30.3 0 53.926 23.64 53.926 53.938 0 30.3-23.63 53.93-53.926 53.93h-53.91v-54.75c.42366-29.902 23.886-53.12 53.91-53.12z" fill="#f00061" stop-color="#000000" stroke-width="4.1824" style="-inkscape-stroke:none;font-variation-settings:normal"/>
    <path d="m644.79 276.49c-1.0258 0-2.0512.3872-2.8282 1.1641a1 1 0 00-.004.004l-3.1562 3.1562-.70704-.70704a1 1 0 00-.70704-.29296 1 1 0 00-.70704.29296 1 1 0 000 1.4141l1.4141 1.4141-10.414 10.418a1 1 0 00-.02.016v.004c-.75524.75668-1.0541 1.8617-.77734 2.8946.0482.1796.1128.35116.1914.51562l-1 1a1 1 0 000 1.418 1 1 0 001.4141 0l1-1.0039c.1644.0786.33608.1432.51562.1914 1.0328.27674 2.1378-.0222 2.8946-.77734h.004l10.434-10.434 1.4141 1.4141a1 1 0 001.4141 0 1 1 0 000-1.4141l-.70704-.70704 3.1562-3.1562a1 1 0 00.004 0c1.5537-1.5537 1.5537-4.1064 0-5.6602-.77686-.77686-1.8023-1.1641-2.8282-1.1641zm0 1.9883c.50976 0 1.0193.1952 1.4141.58984.78942.78942.78942 2.0426 0 2.832h-.004l-3.1562 3.1562-2.8282-2.8282 3.1562-3.1562a1 1 0 00.004-.004c.39472-.39472.90432-.58984 1.4141-.58984zm-5.2812 5.871 1.4141 1.4141-10.414 10.418a1 1 0 00-.02.016v.004c-.25368.2523-.6191.35046-.96484.25782-.34666-.0928-.61416-.3604-.70704-.70704-.0928-.34666.004-.715.25782-.96876a1 1 0 00.0548-.0586l10.379-10.375z" fill="#fff" stroke-width="2"/>
    <path d="m405.64 275.99a1.0001 1.0001 0 00-1 1v22a1.0001 1.0001 0 001 1h22a1.0001 1.0001 0 001-1v-22a1.0001 1.0001 0 00-1-1zm1 2h20v20h-20zm15 2c-1.645 0-3 1.355-3 3s1.355 3 3 3 3-1.355 3-3-1.355-3-3-3zm0 2c.56414 0 1 .43586 1 1 0 .56412-.43586 1-1 1-.56412 0-1-.43588-1-1 0-.56414.43588-1 1-1zm-8.121 2a1.0001 1.0001 0 00-.8164.6211l-4 10a1.0001 1.0001 0 00.92968 1.3711h14a1.0001 1.0001 0 00.83204-1.5547l-4-6a1.0001 1.0001 0 00-1.5703-.1172l-.98438 1.0742-3.457-4.9726a1.0001 1.0001 0 00-.9336-.42188zm.35156 3.0898 3.1094 4.4766a1.0001 1.0001 0 001.5586.1016l.96876-1.0586 2.2578 3.3828h-10.656l2.7618-6.9024z" fill="#fff" stroke-width="2"/>
    <path d="m198.53 273.81-10 .004c-.55226 6e-5-.99994.44774-1 1v26c6e-5.55226.44774.99994 1 1h18c.55226-6e-5.99996-.44774 1-1v-5a1 1 0 00-1-1 1 1 0 00-1 1v4h-16v-24h8v7c6e-5.55226.44774.99994 1 1h7v2a1 1 0 001 1 1 1 0 001-1v-2a1 1 0 000-.004 1 1 0 000-.004 1 1 0 000-.004 1 1 0 000-.004 1 1 0 000-.004 1 1 0 000-.004 1 1 0 000-.004 1 1 0 000-.004 1 1 0 000-.004 1 1 0 000-.004 1 1 0 000-.004 1 1 0 000-.004 1 1 0 000-.004 1 1 0 000-.004 1 1 0 000-.004 1 1 0 000-.004 1 1 0 000-.004v-.9337c0-.059-.006-.1178-.016-.1758-.001-.006-.002-.018-.004-.0234-.002-.01-.004-.0208-.008-.0312-.01-.0478-.0252-.0948-.043-.1406-.01-.0226-.02-.0446-.0312-.0664-.014-.0308-.0298-.0608-.0468-.0898-.016-.027-.0352-.053-.0546-.0782-.0242-.0314-.0504-.0614-.0782-.0898-.004-.006-.008-.01-.012-.016l-.0624-.0624-7.879-7.875c-.018-.0216-.0382-.0424-.0586-.0624-.002-.001-.006-.002-.008-.004-.065-.0644-.1386-.1196-.21876-.164l-.008-.008c-.006-.002-.014-.006-.02-.008-.0814-.0416-.1682-.0718-.25782-.0898-.064-.012-.1296-.02-.1952-.02zm1 3.4218 4.582 4.582h-4.582zm2.4102 9.75a1 1 0 00-.70704.29688l-3.5352 3.5352 3.5352 3.539a1 1 0 001.4141 0 1 1 0 000-1.4141l-1.125-1.125h9.004a1 1 0 001-1 1 1 0 00-1-1h-8.996l1.1172-1.1211a1 1 0 000-1.4141 1 1 0 00-.70704-.29688z" fill="#fff" stroke-width="2"/>
    <path d="m85.967 274.49c-5.511 0-10 4.489-10 10s4.489 10 10 10c2.395 0 4.596-.85064 6.3204-2.2618l8.9726 8.9726a1 1 0 001.4141 0 1 1 0 000-1.418l-8.9688-8.9688c1.4133-1.7251 2.2618-3.9272 2.2618-6.3242 0-5.511-4.489-10-10-10zm0 2c4.4302 0 8 3.5698 8 8 0 2.198-.87808 4.1814-2.3046 5.625a1 1 0 00-.039.0312 1 1 0 00-.0274.0352c-1.4436 1.4269-3.4306 2.3086-5.629 2.3086-4.4302 0-8-3.5698-8-8s3.5698-8 8-8z" fill="#fff" stroke-width="2"/>
</svg>
