<svg width="644" height="368" version="1.1" viewBox="0 0 644 368" xmlns="http://www.w3.org/2000/svg" xmlns:xlink="http://www.w3.org/1999/xlink">
    <defs>
        <linearGradient id="linearGradient14500">
            <stop stop-color="#46001c" offset="0"/>
            <stop stop-color="#b10048" offset="1"/>
        </linearGradient>
        <linearGradient id="linearGradient14876">
            <stop stop-color="#cf0052" offset="0"/>
            <stop stop-color="#b10048" offset="1"/>
        </linearGradient>
        <linearGradient id="linearGradient14949">
            <stop stop-color="#cf0052" offset="0"/>
            <stop stop-color="#ed0060" offset="1"/>
        </linearGradient>
        <linearGradient id="linearGradient7972">
            <stop offset="0"/>
            <stop stop-opacity="0" offset="1"/>
        </linearGradient>
        <linearGradient id="linearGradient15545">
            <stop stop-color="#f0005e" offset="0"/>
            <stop stop-color="#ed0060" offset="1"/>
        </linearGradient>
        <linearGradient id="linearGradient2950" x1="-194.6" x2="-162.13" y1="309.23" y2="309.23" gradientTransform="translate(0,-2.6e-4)" gradientUnits="userSpaceOnUse" xlink:href="#linearGradient14500"/>
        <linearGradient id="linearGradient2952" x1="-149.65" x2="-162.13" y1="302.99" y2="302.99" gradientTransform="translate(1.07e-6)" gradientUnits="userSpaceOnUse" xlink:href="#linearGradient14876"/>
        <linearGradient id="linearGradient2954" x1="-149.65" x2="-162.12" y1="347.94" y2="347.94" gradientUnits="userSpaceOnUse" xlink:href="#linearGradient14949"/>
        <linearGradient id="linearGradient2956" x1="-138.48" x2="-138.48" y1="169.9" y2="156.59" gradientTransform="matrix(1 0 0 1.2271 -46.125 139.44)" gradientUnits="userSpaceOnUse" xlink:href="#linearGradient7972"/>
        <linearGradient id="linearGradient2958" x1="-138.48" x2="-138.48" y1="169.9" y2="156.59" gradientTransform="matrix(1 0 0 1.2271 323.08 -556.43)" gradientUnits="userSpaceOnUse" xlink:href="#linearGradient7972"/>
        <linearGradient id="linearGradient2960" x1="-148.48" x2="-117.55" y1="169.9" y2="169.9" gradientTransform="translate(-46.125 178.04)" gradientUnits="userSpaceOnUse" xlink:href="#linearGradient15545"/>
    </defs>
    <g transform="translate(484.65 -68.844)">
        <rect x="-484.65" y="68.844" width="644" height="368" rx="0" ry="0" fill="#383838" stop-color="#000000" style="-inkscape-stroke:none;font-variation-settings:normal"/>
        <rect x="-13.248" y="-366.29" width="644.68" height="368.57" rx="0" ry="0" fill="#fff" stop-color="#000000" style="-inkscape-stroke:none;font-variation-settings:normal"/>
        <g transform="matrix(1.1389 0 0 1.1389 31.543 -28.456)">
            <path d="m-218.43 175.76v149.5h33.84v-37.323h21.107c30.146 0 54.946-24.8 54.946-54.946 0-30.146-24.8-54.95-54.946-54.95-7.462 0-14.595 1.5217-21.107 4.2659v-6.5428zm54.947 36.117c11.858 0 21.106 9.2521 21.106 21.11 0 11.858-9.2481 21.107-21.106 21.107h-21.107v-21.107c0-.37059.0142-.73856.0268-1.1038.55369-11.323 9.593-20.006 21.081-20.006z" color="#000000" fill-opacity=".22199" stop-color="#000000" style="-inkscape-stroke:none;font-variation-settings:normal"/>
            <g transform="matrix(1.692 0 0 1.692 110.83 -319.86)">
                <path d="m-162.13 292.99c-17.817 0-32.475 14.659-32.475 32.477h20c0-7.0084 5.4663-12.477 12.475-12.477 7.0084 0 12.474 5.4684 12.474 12.477s-5.4658 12.475-12.474 12.475h-32.475v20h32.475c17.817 0 32.475-14.657 32.475-32.474s-14.657-32.477-32.475-32.477z" color="#000000" fill="#f00061" stop-color="#000000" style="-inkscape-stroke:none;font-variation-settings:normal"/>
                <path d="m-162.13 292.99c-17.817 0-32.475 14.659-32.475 32.477h20c0-7.0084 5.4663-12.477 12.475-12.477 7.0084 0 12.474 5.4684 12.474 12.477s-5.4658 12.475-12.474 12.475h-32.475v20h32.475c17.817 0 32.475-14.657 32.475-32.474s-14.657-32.477-32.475-32.477z" color="#000000" fill="#f00061" stop-color="#000000" style="-inkscape-stroke:none;font-variation-settings:normal"/>
                <path d="m-162.13 292.99c-17.817 0-32.475 14.659-32.475 32.477h20c0-7.0084 5.4663-12.477 12.475-12.477z" color="#000000" fill="url(#linearGradient2950)" stop-color="#000000" style="-inkscape-stroke:none;font-variation-settings:normal"/>
                <path d="m-129.65 325.46c0-17.817-14.659-32.475-32.477-32.475v20c7.0084 0 12.477 5.4663 12.477 12.475z" color="#000000" fill="url(#linearGradient2952)" stop-color="#000000" style="-inkscape-stroke:none;font-variation-settings:normal"/>
                <path d="m-162.12 357.94c17.817 0 32.475-14.659 32.475-32.477h-20c0 7.0084-5.4663 12.477-12.475 12.477z" color="#000000" fill="url(#linearGradient2954)" stop-color="#000000" style="-inkscape-stroke:none;font-variation-settings:normal"/>
                <path d="m-194.6 291.64v88.355h20v-88.355z" color="#000000" fill="#d50057" stop-color="#000000" style="-inkscape-stroke:none;font-variation-settings:normal"/>
                <rect x="-194.6" y="331.61" width="20" height="16.334" fill="url(#linearGradient2956)" opacity=".54664" stop-color="#000000" style="-inkscape-stroke:none;font-variation-settings:normal"/>
                <rect transform="scale(-1)" x="174.6" y="-364.27" width="20" height="16.334" fill="url(#linearGradient2958)" opacity=".54664" stop-color="#000000" style="-inkscape-stroke:none;font-variation-settings:normal"/>
                <rect x="-194.6" y="337.94" width="30.926" height="20" fill="url(#linearGradient2960)" stop-color="#000000" style="-inkscape-stroke:none;font-variation-settings:normal"/>
            </g>
            <path d="m-217.6 178.1v149.5h33.84v-37.323h21.107c30.146 0 54.946-24.8 54.946-54.946 0-30.146-24.8-54.95-54.946-54.95-7.462 0-14.595 1.5217-21.107 4.2659v-6.5428zm54.947 36.117c11.858 0 21.106 9.2521 21.106 21.11 0 11.858-9.2481 21.107-21.106 21.107h-21.107v-21.107c0-.37073.0142-.73855.0268-1.1038.55369-11.323 9.593-20.006 21.081-20.006z" color="#000000" fill-opacity=".22199" stop-color="#000000" style="-inkscape-stroke:none;font-variation-settings:normal"/>
            <g transform="matrix(1.692 0 0 1.692 111.66 -318.94)">
                <path d="m-162.13 292.99c-17.817 0-32.475 14.659-32.475 32.477h20c0-7.0084 5.4663-12.477 12.475-12.477 7.0084 0 12.474 5.4684 12.474 12.477s-5.4658 12.475-12.474 12.475h-32.475v20h32.475c17.817 0 32.475-14.657 32.475-32.474s-14.657-32.477-32.475-32.477z" color="#000000" fill="#f00061" stop-color="#000000" style="-inkscape-stroke:none;font-variation-settings:normal"/>
                <path d="m-162.13 292.99c-17.817 0-32.475 14.659-32.475 32.477h20c0-7.0084 5.4663-12.477 12.475-12.477 7.0084 0 12.474 5.4684 12.474 12.477s-5.4658 12.475-12.474 12.475h-32.475v20h32.475c17.817 0 32.475-14.657 32.475-32.474s-14.657-32.477-32.475-32.477z" color="#000000" fill="#f00061" stop-color="#000000" style="-inkscape-stroke:none;font-variation-settings:normal"/>
                <path d="m-162.13 292.99c-17.817 0-32.475 14.659-32.475 32.477h20c0-7.0084 5.4663-12.477 12.475-12.477z" color="#000000" fill="url(#linearGradient2950)" stop-color="#000000" style="-inkscape-stroke:none;font-variation-settings:normal"/>
                <path d="m-129.65 325.46c0-17.817-14.659-32.475-32.477-32.475v20c7.0084 0 12.477 5.4663 12.477 12.475z" color="#000000" fill="url(#linearGradient2952)" stop-color="#000000" style="-inkscape-stroke:none;font-variation-settings:normal"/>
                <path d="m-162.12 357.94c17.817 0 32.475-14.659 32.475-32.477h-20c0 7.0084-5.4663 12.477-12.475 12.477z" color="#000000" fill="url(#linearGradient2954)" stop-color="#000000" style="-inkscape-stroke:none;font-variation-settings:normal"/>
                <path d="m-194.6 291.64v88.355h20v-88.355z" color="#000000" fill="#d50057" stop-color="#000000" style="-inkscape-stroke:none;font-variation-settings:normal"/>
                <rect x="-194.6" y="331.61" width="20" height="16.334" fill="url(#linearGradient2956)" opacity=".54664" stop-color="#000000" style="-inkscape-stroke:none;font-variation-settings:normal"/>
                <rect transform="scale(-1)" x="174.6" y="-364.27" width="20" height="16.334" fill="url(#linearGradient2958)" opacity=".54664" stop-color="#000000" style="-inkscape-stroke:none;font-variation-settings:normal"/>
                <rect x="-194.6" y="337.94" width="30.926" height="20" fill="url(#linearGradient2960)" stop-color="#000000" style="-inkscape-stroke:none;font-variation-settings:normal"/>
            </g>
        </g>
    </g>
</svg>
