<svg width="640" height="320" version="1.1" viewBox="0 0 640 320" xmlns="http://www.w3.org/2000/svg">
    <rect width="640" height="320" rx="0" ry="0" fill="#33445b" stop-color="#000000" stroke-width=".9296" style="-inkscape-stroke:none;font-variation-settings:normal"/>
    <path d="m409.73 154.01a.5012.48975 0 00-.43459.24485l-3.2536 5.5054a.5012.48975 0 000 .4897l3.2536 5.5054a.5012.48975 0 00.43459.24485h6.5032a.5012.48975 0 00.43459-.24485l3.2536-5.5054a.5012.48975 0 000-.4897l-3.2536-5.5054a.5012.48975 0 00-.43459-.24485zm.28777.97941h5.9277l2.9619 5.0157-2.9619 5.0157h-5.9277l-2.9619-5.0157z" fill="#fff"/>
    <path d="m320.19 89.802c-11.589 0-22.557 2.873-32.233 7.9345-4.1058-5.0196-10.248-7.9314-16.733-7.9322-11.941-5.7e-5-21.62 9.6801-21.62 21.62l.38905 118.78h70.198c38.513 0 70.198-31.683 70.198-70.196s-31.683-70.203-70.198-70.203zm0 43.232c15.15 0 26.963 11.82 26.963 26.969 0 15.15-11.815 26.965-26.963 26.965h-26.955v-27.375c.21183-14.951 11.943-26.56 26.955-26.56z" fill="#f00061" stop-color="#000000" stroke-width="2.0912" style="-inkscape-stroke:none;font-variation-settings:normal"/>
    <path d="m503.28 155a.50005.50005 0 00-.5.5v.5h-3.6367a1 1 0 00-.86328-.5 1 1 0 00-1 1 1 1 0 001 1 1 1 0 00.86328-.5h1.8184c-1.6328 1.0857-2.6816 2.941-2.6816 5h-.5a.50005.50005 0 00-.5.5v2a.50005.50005 0 00.5.5h2a.50005.50005 0 00.5-.5v-2a.50005.50005 0 00-.5-.5h-.5c0-2.207 1.4368-4.1227 3.5-4.7695v.26953a.50005.50005 0 00.5.5h2a.50005.50005 0 00.5-.5v-.26953c2.0642.6467 3.5 2.5629 3.5 4.7695h-.5a.50005.50005 0 00-.5.5v2a.50005.50005 0 00.5.5h2a.50005.50005 0 00.5-.5v-2a.50005.50005 0 00-.5-.5h-.5c0-2.059-1.0494-3.9144-2.6836-5h1.8203a1 1 0 00.86328.5 1 1 0 001-1 1 1 0 00-1-1 1 1 0 00-.86328.5h-3.6367v-.5a.50005.50005 0 00-.5-.5zm.5 1h1v1h-1zm-5.5 7h1v1h-1zm11 0h1v1h-1z" fill="#fff"/>
    <path d="m553.18 154a.50005.50005 0 00-.35352.14648l-8 8a.50005.50005 0 00-.14062.27148l-.5 3a.50005.50005 0 00.57617.57617l3-.5a.50005.50005 0 00.27148-.14062l8-8a.50005.50005 0 00.14648-.35352v-1a.50005.50005 0 00-.14648-.35352l-1.5-1.5a.50005.50005 0 00-.35352-.14648h-1zm.20703 1h.58594l1.207 1.207v.58594l-.75.75-1.793-1.793.75-.75zm-1.457 1.457 1.793 1.793-5.793 5.793-1.793-1.793zm-6.3457 6.6543 1.4824 1.4824-1.2324.20508-.45508-.45508z" color="#000000" fill="#fff" stroke-linecap="round" stroke-linejoin="round" style="-inkscape-stroke:none"/>
    <path d="m133.09 154v12h4v-8h8v-4h-9zm1 1h1.5v.5a.5.5 0 00.5.5.5.5 0 00.5-.5v-.5h2v.5a.5.5 0 00.5.5.5.5 0 00.5-.5v-.5h2v.5a.5.5 0 00.5.5.5.5 0 00.5-.5v-.5h1.5v2h-8v8h-2v-1.5h.5a.5.5 0 00.5-.5.5.5 0 00-.5-.5h-.5v-2h.5a.5.5 0 00.5-.5.5.5 0 00-.5-.5h-.5v-2h.5a.5.5 0 00.5-.5.5.5 0 00-.5-.5h-.5z" fill="#fff"/>
    <g transform="translate(588.08,152)" fill="#fff" stroke-linecap="round" stroke-linejoin="round">
        <path d="m1.5 1c-.27613 2.76e-5-.49997.22387-.5.5v9c2.76e-5.27613.22387.49997.5.5h9c.27613-2.8e-5.49997-.22387.5-.5v-9c-2.8e-5-.27613-.22387-.49997-.5-.5zm.5 1h8v8h-8z" color="#000000" style="-inkscape-stroke:none"/>
        <path d="m9.5 4c-3.0316 0-5.5 2.4684-5.5 5.5s2.4684 5.5 5.5 5.5 5.5-2.4684 5.5-5.5-2.4684-5.5-5.5-5.5zm0 1c2.4912 0 4.5 2.0088 4.5 4.5s-2.0088 4.5-4.5 4.5-4.5-2.0088-4.5-4.5 2.0088-4.5 4.5-4.5z" color="#000000" style="-inkscape-stroke:none"/>
        <path d="m7 5v1h1v-1zm1 1v1h1v-1zm1 0h1v-1h-1zm0 1v1h1v-1zm0 1h-1v1h1zm0 1v1h1v-1zm-1 0h-1v1h1zm-1 0v-1h-1v1zm-1 0h-1v1h1zm0-1v-1h-1v1zm0-1h1v-1h-1zm1 0v1h1v-1z" color="#000000" stroke-dasharray="1, 2" style="-inkscape-stroke:none"/>
    </g>
    <path d="m93.689 153.51a.50005.50005 0 00-.5.5v.5h-1.5a.50005.50005 0 00-.5.5v3.5h-1.5a.50005.50005 0 00-.5.5v3.5a.50005.50005 0 00.0918.29101l2.5 3.5a.50005.50005 0 00.4082.20899h6a.50005.50005 0 00.48242-.36719l1.5-5.5a.50005.50005 0 00.0176-.13281v-3.5a.50005.50005 0 00-.5-.5h-1.5v-1.5a.50005.50005 0 00-.5-.5h-1.5v-.5a.50005.50005 0 00-.5-.5zm.5 1h1v4.5a.50005.50005 0 001 0v-3.5h1v4a.50005.50005 0 001 0v-2h1v2.9336l-1.3828 5.0664h-5.3613l-2.2559-3.1602v-2.8398h1v1.5a.50005.50005 0 001 0v-5.5h1v3.5a.50005.50005 0 00.5.49414.50005.50005 0 00.5-.49414v-4z" fill="#fff"/>
    <path d="m42.791 153a.5.5 0 00-.5.5.5.5 0 00.5.5h1a.5.5 0 00.5-.5.5.5 0 00-.5-.5zm3 0a.5.5 0 00-.5.5.5.5 0 00.5.5h1a.5.5 0 00.5-.5.5.5 0 00-.5-.5zm3 0a.5.5 0 00-.5.5.5.5 0 00.5.5h1a.5.5 0 00.5-.5.5.5 0 00-.5-.5zm3 0a.5.5 0 00-.5.5.5.5 0 00.5.5h1a.5.5 0 00.5-.5.5.5 0 00-.5-.5zm3 0a.5.5 0 00-.5.5.5.5 0 00.5.5h1a.5.5 0 00.5-.5.5.5 0 00-.5-.5zm-12 2a.5.5 0 00-.5.5v1a.5.5 0 00.5.5.5.5 0 00.5-.5v-1a.5.5 0 00-.5-.5zm2 0a.50005.50005 0 00-.5.5v4a.50005.50005 0 00.5.5h6a.50005.50005 0 00.5-.5v-4a.50005.50005 0 00-.5-.5zm11 0a.5.5 0 00-.5.5v1a.5.5 0 00.5.5.5.5 0 00.5-.5v-1a.5.5 0 00-.5-.5zm-10.5 1h5v3h-5zm-2.5 2a.5.5 0 00-.5.5v1a.5.5 0 00.5.5.5.5 0 00.5-.5v-1a.5.5 0 00-.5-.5zm10.5 0a.5.5 0 00-.5.5.5.5 0 00.5.5v3h-5a.5.5 0 00-.5-.5.5.5 0 00-.5.5v.5a.50005.50005 0 00.5.5h6a.50005.50005 0 00.5-.5v-4a.50005.50005 0 00-.5-.5zm2.5 0a.5.5 0 00-.5.5v1a.5.5 0 00.5.5.5.5 0 00.5-.5v-1a.5.5 0 00-.5-.5zm-13 3a.5.5 0 00-.5.5v1a.5.5 0 00.5.5.5.5 0 00.5-.5v-1a.5.5 0 00-.5-.5zm13 0a.5.5 0 00-.5.5v1a.5.5 0 00.5.5.5.5 0 00.5-.5v-1a.5.5 0 00-.5-.5zm-13 3a.5.5 0 00-.5.5.5.5 0 00.5.5h1a.5.5 0 00.5-.5.5.5 0 00-.5-.5zm3 0a.5.5 0 00-.5.5.5.5 0 00.5.5h1a.5.5 0 00.5-.5.5.5 0 00-.5-.5zm3 0a.5.5 0 00-.5.5.5.5 0 00.5.5h1a.5.5 0 00.5-.5.5.5 0 00-.5-.5zm3 0a.5.5 0 00-.5.5.5.5 0 00.5.5h1a.5.5 0 00.5-.5.5.5 0 00-.5-.5zm3 0a.5.5 0 00-.5.5.5.5 0 00.5.5h1a.5.5 0 00.5-.5.5.5 0 00-.5-.5z" fill="#fff"/>
    <path d="m462.39 154.25c-.51289 0-1.0256.1936-1.4141.58203a.5.5 0 00-.002.002l-1.5781 1.5781-.35352-.35352a.5.5 0 00-.35352-.14648.5.5 0 00-.35352.14648.5.5 0 000 .70703l.70703.70703-5.207 5.209a.5.5 0 00-.01.008v.002c-.37762.37834-.52704.93086-.38867 1.4473.0241.0898.0564.17558.0957.25781l-.5.5a.5.5 0 000 .70898.5.5 0 00.70703 0l.5-.50195c.0822.0393.16804.0716.25781.0957.51641.13837 1.0689-.0111 1.4473-.38867h.002l5.2168-5.2168.70703.70703a.5.5 0 00.70703 0 .5.5 0 000-.70703l-.35352-.35352 1.5781-1.5781a.5.5 0 00.002 0c.77686-.77686.77686-2.0532 0-2.8301-.38843-.38843-.90117-.58203-1.4141-.58203zm0 .99414c.25488 0 .50967.0976.70703.29492.39471.39471.39471 1.0213 0 1.416h-.002l-1.5781 1.5781-1.4141-1.4141 1.5781-1.5781a.5.5 0 00.002-.002c.19736-.19736.45216-.29492.70703-.29492zm-2.6406 2.9355.70703.70703-5.207 5.209a.5.5 0 00-.01.008v.002c-.12684.12615-.30955.17523-.48242.12891-.17333-.0464-.30708-.1802-.35352-.35352-.0464-.17333.002-.3575.12891-.48438a.5.5 0 00.0274-.0293l5.1895-5.1875z" fill="#fff"/>
    <path d="m361.57 154a.50005.50005 0 00-.5.5v11a.50005.50005 0 00.5.5h11a.50005.50005 0 00.5-.5v-11a.50005.50005 0 00-.5-.5zm.5 1h10v10h-10zm7.5 1c-.8225 0-1.5.67749-1.5 1.5 0 .8225.6775 1.5 1.5 1.5.82251 0 1.5-.6775 1.5-1.5 0-.82251-.67749-1.5-1.5-1.5zm0 1c.28207 0 .5.21793.5.5 0 .28206-.21793.5-.5.5-.28206 0-.5-.21794-.5-.5 0-.28207.21794-.5.5-.5zm-4.0605 1a.50005.50005 0 00-.4082.31055l-2 5a.50005.50005 0 00.46484.68555h7a.50005.50005 0 00.41602-.77734l-2-3a.50005.50005 0 00-.78516-.0586l-.49219.53711-1.7285-2.4863a.50005.50005 0 00-.4668-.21094zm.17578 1.5449 1.5547 2.2383a.50005.50005 0 00.7793.0508l.48438-.5293 1.1289 1.6914h-5.3281l1.3809-3.4512z" fill="#fff"/>
    <path d="m229.88 152.91-5 .002c-.27613 3e-5-.49997.22387-.5.5v13c3e-5.27613.22387.49997.5.5h9c.27613-3e-5.49998-.22387.5-.5v-2.5a.5.5 0 00-.5-.5.5.5 0 00-.5.5v2h-8v-12h4v3.5c3e-5.27613.22387.49997.5.5h3.5v1a.5.5 0 00.5.5.5.5 0 00.5-.5v-1a.5.5 0 000-.002.5.5 0 000-.002.5.5 0 000-.002.5.5 0 000-.002.5.5 0 000-.002.5.5 0 000-.002.5.5 0 000-.002.5.5 0 000-.002.5.5 0 000-.002.5.5 0 000-.002.5.5 0 000-.002.5.5 0 000-.002.5.5 0 000-.002.5.5 0 000-.002.5.5 0 000-.002.5.5 0 000-.002.5.5 0 000-.002v-.46685c0-.0295-.003-.0589-.008-.0879-.00063-.003-.00086-.009-.002-.0117-.001-.005-.002-.0104-.004-.0156-.005-.0239-.0126-.0474-.0215-.0703-.005-.0113-.01-.0223-.0156-.0332-.007-.0154-.0149-.0304-.0234-.0449-.008-.0135-.0176-.0265-.0273-.0391-.0121-.0157-.0252-.0307-.0391-.0449-.002-.003-.004-.005-.006-.008l-.0312-.0312-3.9395-3.9375c-.009-.0108-.0191-.0212-.0293-.0312-.001-.00065-.003-9e-4-.004-.002-.0325-.0322-.0693-.0598-.10938-.082l-.004-.004c-.003-.001-.007-.003-.01-.004-.0407-.0208-.0841-.0359-.12891-.0449-.032-.006-.0648-.01-.0976-.01zm.5 1.7109 2.291 2.291h-2.291zm1.2051 4.875a.5.5 0 00-.35352.14844l-1.7676 1.7676 1.7676 1.7695a.5.5 0 00.70703 0 .5.5 0 000-.70703l-.5625-.5625h4.502a.5.5 0 00.5-.5.5.5 0 00-.5-.5h-4.498l.55859-.56055a.5.5 0 000-.70703.5.5 0 00-.35352-.14844z" fill="#fff"/>
    <path d="m182.98 153.25c-2.7555 0-5 2.2445-5 5s2.2445 5 5 5c1.1975 0 2.298-.42532 3.1602-1.1309l4.4863 4.4863a.5.5 0 00.70703 0 .5.5 0 000-.70898l-4.4844-4.4844c.70664-.86253 1.1309-1.9636 1.1309-3.1621 0-2.7555-2.2445-5-5-5zm0 1c2.2151 0 4 1.7849 4 4 0 1.099-.43904 2.0907-1.1523 2.8125a.5.5 0 00-.0195.0156.5.5 0 00-.0137.0176c-.72179.71344-1.7153 1.1543-2.8145 1.1543-2.2151 0-4-1.7849-4-4s1.7849-4 4-4z" fill="#fff"/>
    <path d="m316.18 154v1.5c0 .27614.22386.5.5.5s.5-.22386.5-.5v-.5h4.5v10h-.5c-.27614 0-.5.22386-.5.5s.22386.5.5.5h2c.27614 0 .5-.22386.5-.5s-.22386-.5-.5-.5h-.5v-10h4.5v.5c0 .27614.22386.5.5.5s.5-.22386.5-.5v-1.5z" fill="#fff"/>
</svg>
