<svg width="640" height="320" version="1.1" viewBox="0 0 640 320" xmlns="http://www.w3.org/2000/svg">
    <rect width="640" height="320" rx="0" ry="0" fill="#33445b" stop-color="#000000" stroke-width=".9296" style="-inkscape-stroke:none;font-variation-settings:normal"/>
    <g transform="matrix(.81372 0 0 .81372 46.497 33.251)" fill="#fff" fill-opacity=".5" stop-color="#000000" stroke-width=".30721" style="inline-size:142.681;white-space:pre" aria-label="Scalable Vector  Graphics  Manipulation  Tool">
        <path d="m252.26 273.96q-.75255 0-1.2679-.23722-.51534-.2454-.78528-.67076-.26176-.43353-.26176-.97341h.62168q0 .34356.1636.64622.17178.29447.53987.48261.37628.17996.98977.17996.56442 0 .93252-.1636.37627-.1636.55623-.44171.18814-.27812.18814-.62168 0-.43353-.34356-.71983-.33537-.29448-1.0143-.35174l-.68711-.0654q-.76892-.0654-1.227-.47443-.4499-.41718-.4499-1.0961 0-.51533.2454-.90797.2454-.39263.69529-.62167.45808-.22904 1.0961-.22904.64622 0 1.1043.23722.46625.22904.71165.63803.2454.409.2454.94887h-.62168q0-.32719-.14724-.61349-.14723-.2863-.46625-.45808-.31902-.17996-.82618-.17996-.48261 0-.80163.1636-.31084.1636-.46625.43354-.14724.26994-.14724.58895 0 .40082.28629.67894.2863.27812.82618.31902l.68711.0654q.60532.0491 1.0307.26993.43354.21268.66258.56442.22904.34356.22904.80981 0 .52352-.2863.93251-.27812.409-.79346.63804-.51533.22904-1.2188.22904z" stop-color="#000000"/>
        <path d="m257.73 273.96q-.54805 0-.95705-.18814-.40082-.19632-.67075-.52352-.26994-.33537-.409-.73619-.13088-.40082-.13088-.80981v-.11452q0-.41718.13088-.80982.13906-.40081.409-.71983.26993-.3272.67075-.51534.409-.19631.94069-.19631.53988 0 .95705.19631.42536.19632.68712.55624t.31084.85071h-.58896q-.0736-.44989-.42536-.74437-.34355-.30266-.94069-.30266-.51533 0-.85889.23722-.33538.22904-.50716.62985-.17177.39264-.17177.87526 0 .47443.17177.88343.17178.40081.51534.64621.34356.23722.86707.23722.40082 0 .6953-.13906.30265-.14724.48261-.39263.18814-.2454.22086-.53988h.58895q-.0327.4908-.31083.85889-.26994.35992-.70348.56442-.43353.19632-.97341.19632z" stop-color="#000000"/>
        <path d="m263.48 273.83v-1.3006h-.0982v-1.5378q0-.48261-.25357-.73619-.25358-.26176-.78528-.26176-.24539 0-.49897.008-.2454.008-.47444.0245-.22086.008-.39263.0245v-.53988q.17995-.0164.36809-.0327.18814-.0164.38446-.0164.2045-.008.39264-.008.66257 0 1.0634.1636.40899.1636.59713.51534.18814.34356.18814.91615v2.7812zm-1.4642.11452q-.45808 0-.80982-.1636-.35173-.1636-.54805-.47444-.18814-.31084-.18814-.75255 0-.43354.19632-.7362.2045-.30265.58077-.45807.38446-.1636.92433-.1636h1.2679v.46626h-1.3088q-.51534 0-.79346.25357-.26994.2454-.26994.64622 0 .40899.2863.65439.2863.23722.7771.23722.30265 0 .58077-.10634.27812-.11452.46626-.37628.18813-.26993.20449-.73619l.17996.25358q-.0327.48261-.22904.80981-.19631.31902-.53169.48262t-.78527.1636z" stop-color="#000000"/>
        <path d="m265.54 273.83v-5.9714h.61349v5.9714zm-.62986-5.4724v-.49897h1.2434v.49897z" stop-color="#000000"/>
        <path d="m270.38 273.83v-1.3006h-.0982v-1.5378q0-.48261-.25358-.73619-.25358-.26176-.78527-.26176-.2454 0-.49898.008-.2454.008-.47443.0245-.22086.008-.39264.0245v-.53988q.17996-.0164.3681-.0327.18813-.0164.38445-.0164.2045-.008.39264-.008.66257 0 1.0634.1636.409.1636.59713.51534.18814.34356.18814.91615v2.7812zm-1.4642.11452q-.45808 0-.80981-.1636-.35174-.1636-.54806-.47444-.18814-.31084-.18814-.75255 0-.43354.19632-.7362.2045-.30265.58078-.45807.38445-.1636.92433-.1636h1.2679v.46626h-1.3088q-.51534 0-.79345.25357-.26994.2454-.26994.64622 0 .40899.2863.65439.28629.23722.77709.23722.30266 0 .58077-.10634.27812-.11452.46626-.37628.18814-.26993.2045-.73619l.17996.25358q-.0327.48261-.22904.80981-.19632.31902-.5317.48262-.33537.1636-.78527.1636z" stop-color="#000000"/>
        <path d="m274.63 273.96q-.57259 0-1.0061-.25358-.42535-.25358-.67075-.71166-.23722-.45807-.25358-1.0552h.18814v1.8814h-.4908v-5.9714h.6135v2.9857l-.23722.54806q.0164-.6544.26176-1.1043.25357-.45808.67075-.6953.42536-.23721.96523-.23721.47444 0 .8589.17995.38445.17996.65439.4908.27812.31084.41718.71983.14723.40082.14723.85072v.11452q0 .44171-.14723.85071-.14724.40081-.42536.71983-.26994.31902-.66257.50716-.39264.17996-.88344.17996zm-.0654-.53988q.4908 0 .84254-.23722.35173-.23722.53987-.63803.18814-.40082.18814-.89979 0-.50716-.19632-.8998-.18814-.40081-.54805-.62985-.35174-.22904-.82618-.22904-.44171 0-.80163.19632t-.57259.55623q-.2045.35174-.2045.83436v.40081q0 .45808.2045.80982.21267.34355.57259.53987t.80163.19632z" stop-color="#000000"/>
        <path d="m278.03 273.83v-5.9714h.6135v5.9714zm-.62985-5.4724v-.49897h1.2434v.49897z" stop-color="#000000"/>
        <path d="m282.04 273.96q-.55623 0-.96523-.18814-.409-.19632-.67075-.51534-.26176-.3272-.39264-.72801-.1227-.40082-.1227-.82617v-.11452q0-.41718.1227-.818.13088-.40081.39264-.71983.26175-.31902.65439-.50716.40082-.19631.93251-.19631.67894 0 1.1288.30265.45808.30266.68712.7771.22903.46625.22903 1.0061v.31901h-3.8691v-.47443h3.4438l-.15542.23722q0-.48262-.17178-.84254-.1636-.36809-.4908-.57259-.31901-.21268-.80163-.21268-.50715 0-.84253.23722t-.50716.62985q-.1636.39264-.1636.89162 0 .49079.1636.89979.17178.40081.51534.63803.35174.23722.88343.23722.56442 0 .91615-.25358.35174-.26175.43354-.61349h.57259q-.0818.43353-.34355.75255-.26176.31084-.66258.48262-.40081.17178-.91615.17178z" stop-color="#000000"/>
        <path d="m251.74 284.05-2.135-5.9714h.63803l1.9796 5.5869-.33538-.17996h.86707l-.35992.17996 1.8405-5.5869h.62985l-2.0041 5.9714z" stop-color="#000000"/>
        <path d="m257.43 284.19q-.55623 0-.96523-.18814-.409-.19632-.67076-.51534-.26175-.32719-.39263-.72801-.1227-.40082-.1227-.82617v-.11452q0-.41718.1227-.818.13088-.40081.39263-.71983.26176-.31902.6544-.50716.40082-.19631.93251-.19631.67894 0 1.1288.30265.45808.30266.68712.7771.22903.46625.22903 1.0061v.31902h-3.8691v-.47444h3.4438l-.15542.23722q0-.48262-.17178-.84254-.1636-.36809-.4908-.57259-.31901-.21268-.80163-.21268-.50715 0-.84253.23722t-.50716.62985q-.1636.39264-.1636.89162 0 .49079.1636.89979.17178.40082.51534.63803.35174.23722.88343.23722.56442 0 .91615-.25358.35174-.26175.43354-.61349h.57259q-.0818.43353-.34355.75255-.26176.31084-.66258.48262-.40081.17178-.91615.17178z" stop-color="#000000"/>
        <path d="m262.43 284.19q-.54805 0-.95705-.18814-.40082-.19632-.67075-.52352-.26994-.33537-.409-.73619-.13088-.40082-.13088-.80981v-.11452q0-.41718.13088-.80982.13906-.40081.409-.71983.26993-.3272.67075-.51534.409-.19631.94069-.19631.53988 0 .95705.19631.42536.19632.68712.55624t.31084.85071h-.58896q-.0736-.44989-.42536-.74437-.34355-.30266-.94069-.30266-.51533 0-.85889.23722-.33538.22904-.50716.62985-.17177.39264-.17177.87526 0 .47443.17177.88343.17178.40082.51534.64621.34356.23722.86707.23722.40082 0 .6953-.13906.30265-.14724.48261-.39263.18814-.2454.22086-.53988h.58895q-.0327.4908-.31083.85889-.26994.35992-.70348.56442-.43353.19632-.97341.19632z" stop-color="#000000"/>
        <path d="m267.11 284.1q-.44989 0-.77709-.13088t-.50716-.44172q-.17996-.31901-.17996-.85071v-4.319h.58896v4.409q0 .37628.2045.58077.2045.19632.58077.19632h.7771v.55624zm-2.2413-3.91v-.46626h2.9284v.46626z" stop-color="#000000"/>
        <path d="m270.88 284.19q-.55623 0-.98159-.18814-.41718-.19632-.71165-.51534-.2863-.32719-.44172-.72801-.14724-.40082-.14724-.81799v-.11452q0-.41718.15542-.818.15542-.40899.4499-.72801.29447-.31902.71165-.50716.42536-.19631.96523-.19631.54806 0 .96523.19631.42536.18814.71984.50716.29447.31902.44171.72801.15542.40082.15542.818v.11452q0 .41717-.14724.81799t-.44171.72801q-.2863.31902-.71166.51534-.42535.18814-.98159.18814zm0-.54806q.53988 0 .90797-.23722.37628-.24539.5726-.63803.19632-.40082.19632-.88343 0-.4908-.2045-.88344-.19632-.40081-.5726-.62985-.37627-.23722-.89979-.23722-.51533 0-.89161.23722-.37628.22904-.58078.62985-.19631.39264-.19631.88344 0 .48261.19631.88343.19632.39264.56442.63803.37628.23722.90797.23722z" stop-color="#000000"/>
        <path d="m274.42 284.05v-4.3272h.49079v1.8078h-.0491q0-.94887.41718-1.3988.41718-.45807 1.3088-.45807h.13906v.55623h-.25358q-.70347 0-1.0716.3681-.3681.35991-.3681 1.0634v2.3885z" stop-color="#000000"/>
        <path d="m252.95 294.41q-.73619 0-1.3088-.2454-.56441-.24539-.94887-.67075-.38446-.43354-.58896-.98977-.19631-.56442-.19631-1.1861v-.14724q0-.5726.18813-1.1125.19632-.53988.56442-.97341.3681-.43354.91615-.68712.54806-.25358 1.2434-.25358.72801 0 1.2924.27812.56441.26994.90797.76074.35174.49079.409 1.137h-.62986q-.0654-.52352-.35173-.88344-.27812-.35991-.70348-.53987-.42535-.17996-.92433-.17996-.52352 0-.94887.18814-.42536.18814-.71984.53169-.29447.34356-.45807.80982-.15542.45807-.15542 1.0061 0 .58077.1636 1.0634.1636.47444.47443.81799.31084.34356.75256.5317.44989.18814 1.0225.18814.70347 0 1.2352-.26994.53987-.27812.83435-.72802l-.2454.76892v-1.7669h.58896v1.4888q-.38446.49898-.99795.78527-.6135.27812-1.4151.27812zm-.22086-2.4213v-.52351h3.1656v.52351z" stop-color="#000000"/>
        <path d="m257 294.28v-4.3272h.49079v1.8078h-.0491q0-.94887.41717-1.3988.41718-.45808 1.3088-.45808h.13906v.55624h-.25358q-.70347 0-1.0716.36809-.3681.35992-.3681 1.0634v2.3885z" stop-color="#000000"/>
        <path d="m262.92 294.28v-1.3006h-.0982v-1.5378q0-.48262-.25358-.7362-.25357-.26175-.78527-.26175-.2454 0-.49898.008-.24539.008-.47443.0245-.22086.008-.39264.0245v-.53987q.17996-.0164.3681-.0327.18814-.0164.38446-.0164.20449-.008.39263-.008.66258 0 1.0634.1636.409.1636.59714.51533.18814.34356.18814.91616v2.7812zm-1.4642.11452q-.45807 0-.80981-.1636t-.54806-.47443q-.18813-.31084-.18813-.75256 0-.43353.19631-.73619.2045-.30266.58078-.45808.38446-.1636.92433-.1636h1.2679v.46626h-1.3088q-.51533 0-.79345.25358-.26994.2454-.26994.64621 0 .409.2863.6544.2863.23722.77709.23722.30266 0 .58078-.10634.27811-.11452.46625-.37628.18814-.26994.2045-.73619l.17996.25357q-.0327.48262-.22904.80982-.19632.31901-.53169.48261-.33538.1636-.78528.1636z" stop-color="#000000"/>
        <path d="m264.94 295.91v-5.9632h.4908v1.8568l-.14724.0164q.0327-.65439.27812-1.1043.25358-.44989.67893-.67893.43354-.23722.96524-.23722.47443 0 .85889.18814.39263.17996.66257.49897.27812.31084.41718.71984.14724.40082.14724.84253v.11452q0 .44172-.14724.85071-.14724.40082-.42536.71984-.26994.31083-.66257.49897-.38446.17996-.86707.17996-.51534 0-.94888-.22904-.42535-.23721-.69529-.69529-.26176-.45808-.2863-1.1288l.29448.61349v2.9366zm2.1677-2.0368q.49079 0 .84253-.22904.35174-.23722.53987-.63804.18814-.40899.18814-.89979 0-.50715-.19632-.89979-.18813-.40082-.53987-.62986-.35174-.23721-.83435-.23721-.44172 0-.80164.19631-.35991.19632-.57259.55624-.2045.35174-.2045.83435v.40082q0 .45808.2045.80981.21268.34356.57259.53988.35992.19632.80164.19632z" stop-color="#000000"/>
        <path d="m270.53 294.28v-5.9714h.61349v3.3783l-.17996.13906q0-.60531.17178-1.0552.17996-.44989.5317-.69529.35991-.25358.89979-.25358h.0327q.78527 0 1.1861.51534.409.51533.409 1.4315v2.5112h-.60532v-2.6421q0-.58078-.31902-.91616-.31901-.33537-.85889-.33537-.58077 0-.92433.37627-.34356.3681-.34356.97341v2.544z" stop-color="#000000"/>
        <path d="m275.96 294.28v-4.3272h.60532v4.3272zm-.69529-3.8364v-.4908h1.3006v.4908zm.82617-1.2924q-.22086 0-.33538-.11452-.10633-.1227-.10633-.30266t.10633-.29448q.11452-.1227.33538-.1227t.3272.1227q.10634.11452.10634.29448t-.10634.30266q-.10634.11452-.3272.11452z" stop-color="#000000"/>
        <path d="m280 294.41q-.54806 0-.95706-.18814-.40081-.19632-.67075-.52351-.26994-.33538-.409-.7362-.13088-.40081-.13088-.80981v-.11452q0-.41717.13088-.80981.13906-.40082.409-.71984.26994-.32719.67075-.51533.409-.19632.9407-.19632.53987 0 .95705.19632.42535.19632.68711.55623.26176.35992.31084.85072h-.58896q-.0736-.4499-.42535-.74438-.34356-.30265-.94069-.30265-.51534 0-.8589.23721-.33537.22904-.50715.62986-.17178.39264-.17178.87525 0 .47444.17178.88343.17178.40082.51533.64622.34356.23722.86708.23722.40081 0 .69529-.13906.30266-.14724.48262-.39264.18813-.2454.22085-.53987h.58896q-.0327.49079-.31084.85889-.26994.35991-.70347.56441-.43354.19632-.97341.19632z" stop-color="#000000"/>
        <path d="m284.48 294.4q-.83435 0-1.2842-.35992-.4499-.36809-.45808-.98159h.5726q.0164.31084.27812.56442.26993.25358.89161.25358.58077 0 .86707-.23722.29448-.2454.29448-.58896 0-.31901-.2454-.49079-.23722-.17996-.69529-.22904l-.4908-.0491q-.58895-.0654-.95705-.35992-.35992-.30265-.35992-.82617 0-.38446.19632-.67075.19632-.2863.54806-.44172.35991-.1636.84253-.1636.69529 0 1.1288.3272.44172.3272.4499.93251h-.5726q-.008-.31084-.26176-.52352-.25358-.21267-.74437-.21267-.50716 0-.76073.22085-.2454.22086-.2454.53988 0 .26994.18814.4499.18813.17177.58895.21267l.4908.0491q.65439.0736 1.0634.37628.41717.30266.41717.86707 0 .38446-.22085.6953-.21268.30265-.60532.47443t-.91615.17178z" stop-color="#000000"/>
        <path d="m250.34 304.5v-5.9714h.80981l1.8814 4.1309h.14724l1.8732-4.1309h.82617v5.9714h-.62167v-5.2761l.0491.008-1.816 4.0082h-.81799l-1.8241-4.0082.0654-.008v5.2761z" stop-color="#000000"/>
        <path d="m260.24 304.5v-1.3006h-.0982v-1.5378q0-.48261-.25358-.73619-.25357-.26176-.78527-.26176-.2454 0-.49897.008-.2454.008-.47444.0245-.22086.008-.39264.0245v-.53988q.17996-.0164.3681-.0327.18814-.0164.38446-.0164.2045-.008.39263-.008.66258 0 1.0634.1636.409.1636.59714.51534.18814.34356.18814.91615v2.7812zm-1.4642.11452q-.45807 0-.80981-.1636t-.54805-.47444q-.18814-.31084-.18814-.75255 0-.43354.19632-.7362.20449-.30265.58077-.45807.38446-.1636.92433-.1636h1.2679v.46626h-1.3088q-.51533 0-.79345.25357-.26994.2454-.26994.64622 0 .40899.2863.65439.2863.23722.77709.23722.30266 0 .58078-.10634.27812-.11452.46625-.37628.18814-.26993.2045-.73619l.17996.25358q-.0327.48261-.22904.80981-.19632.31902-.53169.48262-.33538.1636-.78528.1636z" stop-color="#000000"/>
        <path d="m262.26 304.5v-4.3272h.49079v1.816h-.0982q0-.60532.17996-1.0388.17996-.43354.53988-.67076.35991-.23721.90797-.23721h.0245q.81799 0 1.2188.51533.40082.50716.40082 1.4315v2.5112h-.60532v-2.6421q0-.56442-.31084-.90797-.31083-.34356-.86707-.34356-.57259 0-.92433.35992-.34356.35173-.34356.93251v2.6012z" stop-color="#000000"/>
        <path d="m267.69 304.5v-4.3272h.60532v4.3272zm-.69529-3.8364v-.4908h1.3006v.4908zm.82617-1.2924q-.22086 0-.33538-.11452-.10633-.1227-.10633-.30266 0-.17995.10633-.29447.11452-.1227.33538-.1227t.3272.1227q.10634.11452.10634.29447 0 .17996-.10634.30266-.10634.11452-.3272.11452z" stop-color="#000000"/>
        <path d="m269.9 306.14v-5.9632h.4908v1.8568l-.14724.0164q.0327-.6544.27812-1.1043.25357-.4499.67893-.67894.43354-.23721.96523-.23721.47444 0 .85889.18813.39264.17996.66258.49898.27812.31084.41718.71983.14723.40082.14723.84254v.11452q0 .44171-.14723.85071-.14724.40081-.42536.71983-.26994.31084-.66258.49898-.38445.17996-.86707.17996-.51533 0-.94887-.22904-.42536-.23722-.69529-.6953-.26176-.45807-.2863-1.1288l.29448.6135v2.9366zm2.1677-2.0368q.4908 0 .84254-.22904.35173-.23722.53987-.63803.18814-.409.18814-.89979 0-.50716-.19632-.8998-.18814-.40081-.53987-.62985-.35174-.23722-.83436-.23722-.44171 0-.80163.19632t-.5726.55623q-.20449.35174-.20449.83436v.40081q0 .45808.20449.80982.21268.34355.5726.53987t.80163.19632z" stop-color="#000000"/>
        <path d="m276.99 304.62q-.77709 0-1.1861-.49898-.409-.50716-.409-1.407v-2.5521h.60532v2.6748q0 .56442.29448.89979.30265.3272.83435.3272.55623 0 .88343-.35174.33538-.35173.33538-.94069v-2.6094h.61349v4.3354h-.49079v-1.8078h.0982q0 .60532-.17178 1.0388-.17178.42536-.51534.66258-.34355.22904-.86707.22904z" stop-color="#000000"/>
        <path d="m280.61 304.5v-5.9714h.61349v5.9714zm-.62986-5.4724v-.49897h1.2434v.49897z" stop-color="#000000"/>
        <path d="m285.44 304.5v-1.3006h-.0982v-1.5378q0-.48261-.25358-.73619-.25358-.26176-.78527-.26176-.2454 0-.49898.008-.2454.008-.47443.0245-.22086.008-.39264.0245v-.53988q.17996-.0164.3681-.0327.18813-.0164.38445-.0164.2045-.008.39264-.008.66257 0 1.0634.1636.409.1636.59713.51534.18814.34356.18814.91615v2.7812zm-1.4642.11452q-.45808 0-.80981-.1636-.35174-.1636-.54806-.47444-.18814-.31084-.18814-.75255 0-.43354.19632-.7362.2045-.30265.58078-.45807.38445-.1636.92433-.1636h1.2679v.46626h-1.3088q-.51534 0-.79345.25357-.26994.2454-.26994.64622 0 .40899.2863.65439.28629.23722.77709.23722.30266 0 .58077-.10634.27812-.11452.46626-.37628.18814-.26993.2045-.73619l.17996.25358q-.0327.48261-.22904.80981-.19632.31902-.5317.48262-.33537.1636-.78527.1636z" stop-color="#000000"/>
        <path d="m289.04 304.55q-.4499 0-.7771-.13088-.32719-.13088-.50715-.44172-.17996-.31902-.17996-.85071v-4.319h.58895v4.409q0 .37627.2045.58077.2045.19632.58078.19632h.77709v.55624zm-2.2413-3.91v-.46626h2.9284v.46626z" stop-color="#000000"/>
        <path d="m291.14 304.5v-4.3272h.60531v4.3272zm-.6953-3.8364v-.4908h1.3006v.4908zm.82618-1.2924q-.22086 0-.33538-.11452-.10634-.1227-.10634-.30266 0-.17995.10634-.29447.11452-.1227.33538-.1227.22085 0 .32719.1227.10634.11452.10634.29447 0 .17996-.10634.30266-.10634.11452-.32719.11452z" stop-color="#000000"/>
        <path d="m295.29 304.64q-.55624 0-.98159-.18814-.41718-.19632-.71166-.51534-.28629-.3272-.44171-.72801-.14724-.40082-.14724-.81799v-.11452q0-.41718.15542-.818.15542-.40899.44989-.72801.29448-.31902.71166-.50716.42535-.19631.96523-.19631.54805 0 .96523.19631.42536.18814.71983.50716.29448.31902.44172.72801.15542.40082.15542.818v.11452q0 .41717-.14724.81799-.14724.40081-.44172.72801-.28629.31902-.71165.51534-.42536.18814-.98159.18814zm0-.54806q.53987 0 .90797-.23722.37628-.2454.5726-.63803.19631-.40082.19631-.88343 0-.4908-.20449-.88344-.19632-.40081-.5726-.62985-.37628-.23722-.89979-.23722-.51534 0-.89161.23722-.37628.22904-.58078.62985-.19632.39264-.19632.88344 0 .48261.19632.88343.19632.39263.56442.63803.37627.23722.90797.23722z" stop-color="#000000"/>
        <path d="m298.83 304.5v-4.3272h.4908v1.816h-.0982q0-.60532.17996-1.0388.17996-.43354.53987-.67076.35992-.23721.90798-.23721h.0245q.81799 0 1.2188.51533.40081.50716.40081 1.4315v2.5112h-.60531v-2.6421q0-.56442-.31084-.90797-.31084-.34356-.86707-.34356-.5726 0-.92433.35992-.34356.35173-.34356.93251v2.6012z" stop-color="#000000"/>
        <path d="m251.51 314.73v-5.5624h.62168v5.5624zm-1.865-5.4069v-.56442h4.3517v.56442z" stop-color="#000000"/>
        <path d="m256.46 314.86q-.55624 0-.98159-.18814-.41718-.19632-.71166-.51533-.2863-.3272-.44171-.72802-.14724-.40081-.14724-.81799v-.11452q0-.41718.15542-.81799.15541-.409.44989-.72802.29448-.31901.71166-.50715.42535-.19632.96523-.19632.54805 0 .96523.19632.42536.18814.71983.50715.29448.31902.44172.72802.15542.40081.15542.81799v.11452q0 .41718-.14724.81799-.14724.40082-.44172.72802-.2863.31901-.71165.51533-.42536.18814-.98159.18814zm0-.54806q.53987 0 .90797-.23721.37628-.2454.57259-.63804.19632-.40081.19632-.88343 0-.4908-.2045-.88343-.19631-.40082-.57259-.62986-.37628-.23721-.89979-.23721-.51534 0-.89162.23721-.37627.22904-.58077.62986-.19632.39263-.19632.88343 0 .48262.19632.88343.19632.39264.56441.63804.37628.23721.90798.23721z" stop-color="#000000"/>
        <path d="m261.93 314.86q-.55624 0-.9816-.18814-.41717-.19632-.71165-.51533-.2863-.3272-.44172-.72802-.14723-.40081-.14723-.81799v-.11452q0-.41718.15541-.81799.15542-.409.4499-.72802.29448-.31901.71165-.50715.42536-.19632.96524-.19632.54805 0 .96523.19632.42535.18814.71983.50715.29448.31902.44172.72802.15542.40081.15542.81799v.11452q0 .41718-.14724.81799-.14724.40082-.44172.72802-.2863.31901-.71165.51533-.42536.18814-.98159.18814zm0-.54806q.53987 0 .90797-.23721.37627-.2454.57259-.63804.19632-.40081.19632-.88343 0-.4908-.2045-.88343-.19632-.40082-.57259-.62986-.37628-.23721-.89979-.23721-.51534 0-.89162.23721-.37627.22904-.58077.62986-.19632.39263-.19632.88343 0 .48262.19632.88343.19632.39264.56441.63804.37628.23721.90798.23721z" stop-color="#000000"/>
        <path d="m265.5 314.73v-5.9714h.61349v5.9714zm-.62985-5.4724v-.49898h1.2433v.49898z" stop-color="#000000"/>
    </g>
    <path d="m409.73 154.01a.5012.48975 0 00-.43459.24485l-3.2536 5.5054a.5012.48975 0 000 .4897l3.2536 5.5054a.5012.48975 0 00.43459.24485h6.5032a.5012.48975 0 00.43459-.24485l3.2536-5.5054a.5012.48975 0 000-.4897l-3.2536-5.5054a.5012.48975 0 00-.43459-.24485zm.28777.97941h5.9277l2.9619 5.0157-2.9619 5.0157h-5.9277l-2.9619-5.0157z" fill="#fff"/>
    <path d="m320.19 89.802c-11.589 0-22.557 2.873-32.233 7.9345-4.1058-5.0196-10.248-7.9314-16.733-7.9322-11.941-5.7e-5-21.62 9.6801-21.62 21.62l.38905 118.78h70.198c38.513 0 70.198-31.683 70.198-70.196s-31.683-70.203-70.198-70.203zm0 43.232c15.15 0 26.963 11.82 26.963 26.969 0 15.15-11.815 26.965-26.963 26.965h-26.955v-27.375c.21183-14.951 11.943-26.56 26.955-26.56z" fill="#f00061" stop-color="#000000" stroke-width="2.0912" style="-inkscape-stroke:none;font-variation-settings:normal"/>
    <g transform="translate(0 21.649)" fill="#fff" stop-color="#000000" stroke-width=".15188" aria-label="repath.studio">
        <path d="m249.61 220.6v-3.4377h.89681v1.4947h-.0125q0-.72243.29893-1.1335.30517-.41103.87189-.41103h.13702v.97153h-.26157q-.3799 0-.59164.20552-.20552.20552-.20552.59164v1.7189z" stop-color="#000000"/>
        <path d="m253.85 220.73q-.43594 0-.77224-.14946-.3363-.14947-.56673-.40481t-.35499-.57296q-.11832-.31761-.11832-.65391v-.12456q0-.34876.11832-.66637.12456-.32385.34876-.57296.23043-.24911.5605-.39235.33007-.14947.74734-.14947.55427 0 .94039.24911.38612.24912.59164.66015.20552.40481.20552.88435v.36121h-3.0392v-.61033h2.3852l-.39235.27403q0-.29271-.081-.492-.0747-.20551-.23043-.31139-.14947-.10587-.37989-.10587-.22421 0-.39236.10587-.16192.0996-.24911.31139-.0872.20552-.0872.52314 0 .28648.081.49822.081.20552.24912.31762.16815.1121.43594.1121.23666 0 .38612-.081.1557-.081.21798-.21798h1.0338q-.0747.34876-.29893.62278-.21798.27403-.5605.42972-.33631.15569-.77848.15569z" stop-color="#000000"/>
        <path d="m256.15 221.85v-4.6833h.8968v1.4822h-.0996q.0187-.50445.19928-.85943.18684-.35499.50446-.53559.31761-.18684.72865-.18684.35498 0 .64146.13079.28648.12455.49199.36121.20552.23043.31139.54805.1121.31761.1121.69751v.14946q0 .3799-.0996.70374-.0996.31762-.29893.56051-.19929.23665-.492.36744-.28648.13078-.66015.13078-.39857 0-.70374-.1557-.30516-.16192-.48576-.47954-.17438-.32384-.18684-.80961l.27403.3363v2.242zm1.8932-2.0676q.2242 0 .39235-.1121.17437-.11833.26779-.32384.0996-.20552.0996-.46709 0-.26779-.0996-.46086-.0934-.19928-.26157-.30516-.16815-.1121-.39857-.1121-.20552 0-.38613.0934-.17438.0934-.28648.27402-.1121.18061-.1121.43595v.21174q0 .24289.11833.41726.11833.16815.29894.26157.1806.0872.36744.0872z" stop-color="#000000"/>
        <path d="m262.64 220.6v-1.0089h-.18684v-1.0774q0-.23666-.1121-.34876-.10587-.11832-.35498-.11832-.11833 0-.34876.006t-.48577.0187q-.25533.0125-.46708.0249v-.94663q.14947-.0125.35498-.0249.20552-.0125.42349-.0187.2242-.006.41104-.006.52936 0 .8968.1557.37367.15569.56673.46708.19929.31139.19929.79093v2.0863zm-1.0899.0872q-.36121 0-.64146-.13079-.28025-.13078-.44217-.37366-.1557-.24911-.1557-.59164 0-.38613.20552-.62278.20552-.24289.56673-.35499t.82829-.1121h.66638v.58542h-.66638q-.23042 0-.35498.11832-.12455.1121-.12455.30517 0 .18683.12455.30516.12456.1121.35498.1121.14947 0 .26157-.0498.11833-.056.19306-.18684.0747-.13078.0872-.36121l.26157.24911q-.0311.35499-.17438.6041-.13701.24288-.38612.37366-.24289.13079-.6041.13079z" stop-color="#000000"/>
        <path d="m265.93 220.65q-.5605 0-.8968-.13701-.33008-.13701-.47954-.45463-.14947-.31762-.14947-.85943l.006-2.9333h1.0463l-.006 2.9644q0 .23042.11833.35498.12455.11833.35498.11833h.47331v.94662zm-2.024-2.6655v-.82207h2.4911v.82207z" stop-color="#000000"/>
        <path d="m267.01 220.6v-4.5463h1.1335v2.5908h-.14947q0-.52313.13079-.87812.13078-.35498.37989-.53559.25534-.1806.62901-.1806h.0498q.5605 0 .85321.40481.29893.4048.29893 1.1895v1.9555h-1.1335v-1.9991q0-.23666-.14324-.38612-.14324-.1557-.37989-.1557-.23666 0-.38612.1557-.14947.14946-.14947.39857v1.9867z" stop-color="#000000"/>
        <path d="m270.93 220.6v-1.2331h1.2206v1.2331z" stop-color="#000000"/>
        <path d="m274.18 220.72q-.74733 0-1.177-.30516-.42972-.31139-.46086-.87189h.99645q.0249.15569.19306.26779.16815.1121.47331.1121.21798 0 .37367-.0623.16192-.0685.16192-.21797 0-.13078-.12455-.21174-.12456-.0872-.45463-.11833l-.23666-.0249q-.66014-.0685-.97153-.36121t-.31139-.73488q0-.3799.18683-.62278.18684-.24911.51691-.37367t.75356-.12456q.69129 0 1.1148.30517.42349.29893.4484.86566h-.99645q-.0249-.1557-.16815-.26157-.14324-.1121-.41103-.1121-.19306 0-.31762.0685-.11833.0685-.11833.19306 0 .13078.1121.19306.11833.0623.37367.0934l.23666.0249q.66014.0685 1.0151.36744.36122.2927.36122.77224 0 .35499-.19306.61033-.18684.25534-.54182.39235-.34876.13701-.83453.13701z" stop-color="#000000"/>
        <path d="m277.95 220.65q-.56051 0-.89681-.13701-.33007-.13701-.47954-.45463-.14946-.31762-.14946-.85943l.006-2.9333h1.0463l-.006 2.9644q0 .23042.11832.35498.12456.11833.35499.11833h.47331v.94662zm-2.024-2.6655v-.82207h2.4911v.82207z" stop-color="#000000"/>
        <path d="m280.18 220.72q-.58541 0-.90926-.3799-.31761-.38612-.31761-1.177v-1.9929h1.1334v2.024q0 .23043.13701.37367.13702.14324.36744.14324.23043 0 .37367-.14324t.14324-.38612v-2.0116h1.1335v3.4377h-.8968v-1.4448h.0623q0 .52936-.13702.87812-.13078.34253-.39235.51068-.26156.16815-.64769.16815z" stop-color="#000000"/>
        <path d="m284.49 220.72q-.36121 0-.66015-.13078-.2927-.13079-.51068-.36122-.21174-.23665-.33007-.55427-.1121-.31762-.1121-.69128v-.14947q0-.37367.10587-.69129.1121-.32384.31762-.5605.20552-.24288.49822-.37366.29271-.13702.65392-.13702.41726 0 .70997.18684.29893.1806.45463.52936.16192.34876.17438.84698l-.26157-.19306v-2.379h1.1335v4.5463h-.8968v-1.395h.12455q-.0125.46086-.18683.80339-.17438.3363-.48577.52313-.30516.18061-.72865.18061zm.30516-.93417q.20552 0 .37367-.0934.17438-.0934.28025-.27402.10587-.1806.10587-.43594v-.21175q0-.24911-.1121-.41726-.10587-.16815-.28025-.25534-.16815-.0934-.36744-.0934-.2242 0-.40481.11833-.17437.1121-.28025.31762-.0996.19929-.0996.46708 0 .2678.0996.46709.10588.19306.28025.30516.18061.10587.40481.10587z" stop-color="#000000"/>
        <path d="m287.65 220.6v-3.4377h1.1335v3.4377zm-.43595-2.6157v-.82207h1.5694v.82207zm.90303-1.0961q-.31139 0-.46085-.1557-.14324-.16192-.14324-.41103t.14324-.40481q.14946-.16192.45462-.16192.31139 0 .45463.16192.14324.1557.14324.40481t-.14324.41103q-.14324.1557-.4484.1557z" stop-color="#000000"/>
        <path d="m291.33 220.73q-.45463 0-.80962-.13701-.35498-.13701-.60409-.37989-.24289-.24289-.37367-.5605-.12456-.31762-.12456-.67883v-.14947q0-.37367.13079-.69751.13701-.32385.38612-.56673t.6041-.3799q.35498-.13701.79093-.13701.44217 0 .79093.13701.35498.13702.60409.3799t.3799.56673q.13701.32384.13701.69751v.14947q0 .36121-.13079.67883-.12455.31761-.37366.5605-.24289.24288-.59787.37989-.35499.13701-.80961.13701zm0-.94662q.26156 0 .42971-.1121.17438-.1121.26157-.31139.0872-.20552.0872-.46086 0-.26779-.0934-.46708-.0872-.20552-.26156-.32384-.17438-.11833-.42349-.11833-.24912 0-.42349.11833-.17438.11832-.2678.32384-.0872.19929-.0872.46708 0 .25534.0872.46086.0872.19929.26157.31139.17438.1121.42972.1121z" stop-color="#000000"/>
    </g>
    <path d="m503.28 155a.50005.50005 0 00-.5.5v.5h-3.6367a1 1 0 00-.86328-.5 1 1 0 00-1 1 1 1 0 001 1 1 1 0 00.86328-.5h1.8184c-1.6328 1.0857-2.6816 2.941-2.6816 5h-.5a.50005.50005 0 00-.5.5v2a.50005.50005 0 00.5.5h2a.50005.50005 0 00.5-.5v-2a.50005.50005 0 00-.5-.5h-.5c0-2.207 1.4368-4.1227 3.5-4.7695v.26953a.50005.50005 0 00.5.5h2a.50005.50005 0 00.5-.5v-.26953c2.0642.6467 3.5 2.5629 3.5 4.7695h-.5a.50005.50005 0 00-.5.5v2a.50005.50005 0 00.5.5h2a.50005.50005 0 00.5-.5v-2a.50005.50005 0 00-.5-.5h-.5c0-2.059-1.0494-3.9144-2.6836-5h1.8203a1 1 0 00.86328.5 1 1 0 001-1 1 1 0 00-1-1 1 1 0 00-.86328.5h-3.6367v-.5a.50005.50005 0 00-.5-.5zm.5 1h1v1h-1zm-5.5 7h1v1h-1zm11 0h1v1h-1z" fill="#fff"/>
    <path d="m553.18 154a.50005.50005 0 00-.35352.14648l-8 8a.50005.50005 0 00-.14062.27148l-.5 3a.50005.50005 0 00.57617.57617l3-.5a.50005.50005 0 00.27148-.14062l8-8a.50005.50005 0 00.14648-.35352v-1a.50005.50005 0 00-.14648-.35352l-1.5-1.5a.50005.50005 0 00-.35352-.14648h-1zm.20703 1h.58594l1.207 1.207v.58594l-.75.75-1.793-1.793.75-.75zm-1.457 1.457 1.793 1.793-5.793 5.793-1.793-1.793zm-6.3457 6.6543 1.4824 1.4824-1.2324.20508-.45508-.45508z" color="#000000" fill="#fff" stroke-linecap="round" stroke-linejoin="round" style="-inkscape-stroke:none"/>
    <path d="m133.09 154v12h4v-8h8v-4h-9zm1 1h1.5v.5a.5.5 0 00.5.5.5.5 0 00.5-.5v-.5h2v.5a.5.5 0 00.5.5.5.5 0 00.5-.5v-.5h2v.5a.5.5 0 00.5.5.5.5 0 00.5-.5v-.5h1.5v2h-8v8h-2v-1.5h.5a.5.5 0 00.5-.5.5.5 0 00-.5-.5h-.5v-2h.5a.5.5 0 00.5-.5.5.5 0 00-.5-.5h-.5v-2h.5a.5.5 0 00.5-.5.5.5 0 00-.5-.5h-.5z" fill="#fff"/>
    <g transform="translate(588.08,152)" fill="#fff" stroke-linecap="round" stroke-linejoin="round">
        <path d="m1.5 1c-.27613 2.76e-5-.49997.22387-.5.5v9c2.76e-5.27613.22387.49997.5.5h9c.27613-2.8e-5.49997-.22387.5-.5v-9c-2.8e-5-.27613-.22387-.49997-.5-.5zm.5 1h8v8h-8z" color="#000000" style="-inkscape-stroke:none"/>
        <path d="m9.5 4c-3.0316 0-5.5 2.4684-5.5 5.5s2.4684 5.5 5.5 5.5 5.5-2.4684 5.5-5.5-2.4684-5.5-5.5-5.5zm0 1c2.4912 0 4.5 2.0088 4.5 4.5s-2.0088 4.5-4.5 4.5-4.5-2.0088-4.5-4.5 2.0088-4.5 4.5-4.5z" color="#000000" style="-inkscape-stroke:none"/>
        <path d="m7 5v1h1v-1zm1 1v1h1v-1zm1 0h1v-1h-1zm0 1v1h1v-1zm0 1h-1v1h1zm0 1v1h1v-1zm-1 0h-1v1h1zm-1 0v-1h-1v1zm-1 0h-1v1h1zm0-1v-1h-1v1zm0-1h1v-1h-1zm1 0v1h1v-1z" color="#000000" stroke-dasharray="1, 2" style="-inkscape-stroke:none"/>
    </g>
    <path d="m93.689 153.51a.50005.50005 0 00-.5.5v.5h-1.5a.50005.50005 0 00-.5.5v3.5h-1.5a.50005.50005 0 00-.5.5v3.5a.50005.50005 0 00.0918.29101l2.5 3.5a.50005.50005 0 00.4082.20899h6a.50005.50005 0 00.48242-.36719l1.5-5.5a.50005.50005 0 00.0176-.13281v-3.5a.50005.50005 0 00-.5-.5h-1.5v-1.5a.50005.50005 0 00-.5-.5h-1.5v-.5a.50005.50005 0 00-.5-.5zm.5 1h1v4.5a.50005.50005 0 001 0v-3.5h1v4a.50005.50005 0 001 0v-2h1v2.9336l-1.3828 5.0664h-5.3613l-2.2559-3.1602v-2.8398h1v1.5a.50005.50005 0 001 0v-5.5h1v3.5a.50005.50005 0 00.5.49414.50005.50005 0 00.5-.49414v-4z" fill="#fff"/>
    <path d="m42.791 153a.5.5 0 00-.5.5.5.5 0 00.5.5h1a.5.5 0 00.5-.5.5.5 0 00-.5-.5zm3 0a.5.5 0 00-.5.5.5.5 0 00.5.5h1a.5.5 0 00.5-.5.5.5 0 00-.5-.5zm3 0a.5.5 0 00-.5.5.5.5 0 00.5.5h1a.5.5 0 00.5-.5.5.5 0 00-.5-.5zm3 0a.5.5 0 00-.5.5.5.5 0 00.5.5h1a.5.5 0 00.5-.5.5.5 0 00-.5-.5zm3 0a.5.5 0 00-.5.5.5.5 0 00.5.5h1a.5.5 0 00.5-.5.5.5 0 00-.5-.5zm-12 2a.5.5 0 00-.5.5v1a.5.5 0 00.5.5.5.5 0 00.5-.5v-1a.5.5 0 00-.5-.5zm2 0a.50005.50005 0 00-.5.5v4a.50005.50005 0 00.5.5h6a.50005.50005 0 00.5-.5v-4a.50005.50005 0 00-.5-.5zm11 0a.5.5 0 00-.5.5v1a.5.5 0 00.5.5.5.5 0 00.5-.5v-1a.5.5 0 00-.5-.5zm-10.5 1h5v3h-5zm-2.5 2a.5.5 0 00-.5.5v1a.5.5 0 00.5.5.5.5 0 00.5-.5v-1a.5.5 0 00-.5-.5zm10.5 0a.5.5 0 00-.5.5.5.5 0 00.5.5v3h-5a.5.5 0 00-.5-.5.5.5 0 00-.5.5v.5a.50005.50005 0 00.5.5h6a.50005.50005 0 00.5-.5v-4a.50005.50005 0 00-.5-.5zm2.5 0a.5.5 0 00-.5.5v1a.5.5 0 00.5.5.5.5 0 00.5-.5v-1a.5.5 0 00-.5-.5zm-13 3a.5.5 0 00-.5.5v1a.5.5 0 00.5.5.5.5 0 00.5-.5v-1a.5.5 0 00-.5-.5zm13 0a.5.5 0 00-.5.5v1a.5.5 0 00.5.5.5.5 0 00.5-.5v-1a.5.5 0 00-.5-.5zm-13 3a.5.5 0 00-.5.5.5.5 0 00.5.5h1a.5.5 0 00.5-.5.5.5 0 00-.5-.5zm3 0a.5.5 0 00-.5.5.5.5 0 00.5.5h1a.5.5 0 00.5-.5.5.5 0 00-.5-.5zm3 0a.5.5 0 00-.5.5.5.5 0 00.5.5h1a.5.5 0 00.5-.5.5.5 0 00-.5-.5zm3 0a.5.5 0 00-.5.5.5.5 0 00.5.5h1a.5.5 0 00.5-.5.5.5 0 00-.5-.5zm3 0a.5.5 0 00-.5.5.5.5 0 00.5.5h1a.5.5 0 00.5-.5.5.5 0 00-.5-.5z" fill="#fff"/>
    <path d="m462.39 154.25c-.51289 0-1.0256.1936-1.4141.58203a.5.5 0 00-.002.002l-1.5781 1.5781-.35352-.35352a.5.5 0 00-.35352-.14648.5.5 0 00-.35352.14648.5.5 0 000 .70703l.70703.70703-5.207 5.209a.5.5 0 00-.01.008v.002c-.37762.37834-.52704.93086-.38867 1.4473.0241.0898.0564.17558.0957.25781l-.5.5a.5.5 0 000 .70898.5.5 0 00.70703 0l.5-.50195c.0822.0393.16804.0716.25781.0957.51641.13837 1.0689-.0111 1.4473-.38867h.002l5.2168-5.2168.70703.70703a.5.5 0 00.70703 0 .5.5 0 000-.70703l-.35352-.35352 1.5781-1.5781a.5.5 0 00.002 0c.77686-.77686.77686-2.0532 0-2.8301-.38843-.38843-.90117-.58203-1.4141-.58203zm0 .99414c.25488 0 .50967.0976.70703.29492.39471.39471.39471 1.0213 0 1.416h-.002l-1.5781 1.5781-1.4141-1.4141 1.5781-1.5781a.5.5 0 00.002-.002c.19736-.19736.45216-.29492.70703-.29492zm-2.6406 2.9355.70703.70703-5.207 5.209a.5.5 0 00-.01.008v.002c-.12684.12615-.30955.17523-.48242.12891-.17333-.0464-.30708-.1802-.35352-.35352-.0464-.17333.002-.3575.12891-.48438a.5.5 0 00.0274-.0293l5.1895-5.1875z" fill="#fff"/>
    <path d="m361.57 154a.50005.50005 0 00-.5.5v11a.50005.50005 0 00.5.5h11a.50005.50005 0 00.5-.5v-11a.50005.50005 0 00-.5-.5zm.5 1h10v10h-10zm7.5 1c-.8225 0-1.5.67749-1.5 1.5 0 .8225.6775 1.5 1.5 1.5.82251 0 1.5-.6775 1.5-1.5 0-.82251-.67749-1.5-1.5-1.5zm0 1c.28207 0 .5.21793.5.5 0 .28206-.21793.5-.5.5-.28206 0-.5-.21794-.5-.5 0-.28207.21794-.5.5-.5zm-4.0605 1a.50005.50005 0 00-.4082.31055l-2 5a.50005.50005 0 00.46484.68555h7a.50005.50005 0 00.41602-.77734l-2-3a.50005.50005 0 00-.78516-.0586l-.49219.53711-1.7285-2.4863a.50005.50005 0 00-.4668-.21094zm.17578 1.5449 1.5547 2.2383a.50005.50005 0 00.7793.0508l.48438-.5293 1.1289 1.6914h-5.3281l1.3809-3.4512z" fill="#fff"/>
    <path d="m229.88 152.91-5 .002c-.27613 3e-5-.49997.22387-.5.5v13c3e-5.27613.22387.49997.5.5h9c.27613-3e-5.49998-.22387.5-.5v-2.5a.5.5 0 00-.5-.5.5.5 0 00-.5.5v2h-8v-12h4v3.5c3e-5.27613.22387.49997.5.5h3.5v1a.5.5 0 00.5.5.5.5 0 00.5-.5v-1a.5.5 0 000-.002.5.5 0 000-.002.5.5 0 000-.002.5.5 0 000-.002.5.5 0 000-.002.5.5 0 000-.002.5.5 0 000-.002.5.5 0 000-.002.5.5 0 000-.002.5.5 0 000-.002.5.5 0 000-.002.5.5 0 000-.002.5.5 0 000-.002.5.5 0 000-.002.5.5 0 000-.002.5.5 0 000-.002.5.5 0 000-.002v-.46685c0-.0295-.003-.0589-.008-.0879-.00063-.003-.00086-.009-.002-.0117-.001-.005-.002-.0104-.004-.0156-.005-.0239-.0126-.0474-.0215-.0703-.005-.0113-.01-.0223-.0156-.0332-.007-.0154-.0149-.0304-.0234-.0449-.008-.0135-.0176-.0265-.0273-.0391-.0121-.0157-.0252-.0307-.0391-.0449-.002-.003-.004-.005-.006-.008l-.0312-.0312-3.9395-3.9375c-.009-.0108-.0191-.0212-.0293-.0312-.001-.00065-.003-9e-4-.004-.002-.0325-.0322-.0693-.0598-.10938-.082l-.004-.004c-.003-.001-.007-.003-.01-.004-.0407-.0208-.0841-.0359-.12891-.0449-.032-.006-.0648-.01-.0976-.01zm.5 1.7109 2.291 2.291h-2.291zm1.2051 4.875a.5.5 0 00-.35352.14844l-1.7676 1.7676 1.7676 1.7695a.5.5 0 00.70703 0 .5.5 0 000-.70703l-.5625-.5625h4.502a.5.5 0 00.5-.5.5.5 0 00-.5-.5h-4.498l.55859-.56055a.5.5 0 000-.70703.5.5 0 00-.35352-.14844z" fill="#fff"/>
    <path d="m182.98 153.25c-2.7555 0-5 2.2445-5 5s2.2445 5 5 5c1.1975 0 2.298-.42532 3.1602-1.1309l4.4863 4.4863a.5.5 0 00.70703 0 .5.5 0 000-.70898l-4.4844-4.4844c.70664-.86253 1.1309-1.9636 1.1309-3.1621 0-2.7555-2.2445-5-5-5zm0 1c2.2151 0 4 1.7849 4 4 0 1.099-.43904 2.0907-1.1523 2.8125a.5.5 0 00-.0195.0156.5.5 0 00-.0137.0176c-.72179.71344-1.7153 1.1543-2.8145 1.1543-2.2151 0-4-1.7849-4-4s1.7849-4 4-4z" fill="#fff"/>
    <path d="m316.18 154v1.5c0 .27614.22386.5.5.5s.5-.22386.5-.5v-.5h4.5v10h-.5c-.27614 0-.5.22386-.5.5s.22386.5.5.5h2c.27614 0 .5-.22386.5-.5s-.22386-.5-.5-.5h-.5v-10h4.5v.5c0 .27614.22386.5.5.5s.5-.22386.5-.5v-1.5z" fill="#fff"/>
</svg>
