<svg width="256" height="256" version="1.1" viewBox="0 0 67.731 67.734" xmlns="http://www.w3.org/2000/svg">
    <path d="m11.009.00029408c-1.7789-9.8021e-6-3.5264.46818-5.067 1.3576-3.1358 1.8103-5.0674 5.1561-5.0674 8.7769v57.6h32.914c18.263 4.9e-5 33.068-14.805 33.068-33.068 3.9e-5-18.263-14.805-33.068-33.068-33.068-4.9048.0019604-9.7477 1.0957-14.178 3.2008-.87677-1.4208-2.091-2.6029-3.5347-3.4415-1.5407-.88944-3.2885-1.3577-5.0674-1.3576zm22.78 21.867a12.798 12.798 0 0112.798 12.798 12.798 12.798 0 01-12.798 12.798h-12.798v-12.798a12.798 12.798 0 0112.798-12.798z" fill="#e93976" stroke-width=".9802"/>
</svg>
