<svg width="512" height="512" version="1.1" viewBox="0 0 135.47 135.47" xmlns="http://www.w3.org/2000/svg">
    <path d="m67.735 0c37.525 0 67.735 30.21 67.735 67.735s-30.21 67.735-67.735 67.735-67.735-30.21-67.735-67.735 30.21-67.735 67.735-67.735z" fill="#e93976" stop-color="#000000" style="-inkscape-stroke:none;font-variation-settings:normal"/>
    <path d="m47.907 32.203c-1.8148-1e-5-3.5976.47764-5.1693 1.385-3.1991 1.8469-5.1698 5.2603-5.1698 8.9542v58.763h33.579c18.632 5e-5 33.736-15.104 33.736-33.736 4e-5-18.632-15.104-33.736-33.736-33.736-5.0039.002-9.9446 1.1178-14.464 3.2655-.89448-1.4495-2.1332-2.6555-3.6061-3.511-1.5718-.90741-3.3549-1.3851-5.1698-1.385zm23.24 22.309a13.057 13.057 0 0113.057 13.057 13.057 13.057 0 01-13.057 13.057h-13.057v-13.057a13.057 13.057 0 0113.057-13.057z" fill="#fff"/>
</svg>
