<?xml version="1.0" encoding="UTF-8"?>
<svg width="256" height="256" version="1.1" viewBox="0 0 67.731 67.734" xmlns="http://www.w3.org/2000/svg">
 <g transform="matrix(.24082 0 0 .24082 -442.03 -81.448)" fill="#e93976" stop-color="#000000" stroke-width="4.5495" style="-inkscape-stroke:none;font-variation-settings:normal">
  <path d="m1976.1 338.21a140.63 140.63 0 0 0-140.63 140.63 140.63 140.63 0 0 0 0.016 0.22852h-0.016v140.4h86.32v-11.176a140.63 140.63 0 0 0 54.309 11.176 140.63 140.63 0 0 0 140.63-140.63 140.63 140.63 0 0 0-140.63-140.63zm0 86.32a54.309 54.309 0 0 1 54.309 54.309 54.309 54.309 0 0 1-54.309 54.309 54.309 54.309 0 0 1-54.309-54.309 54.309 54.309 0 0 1 54.309-54.309z" fill="#e93976" stop-color="#000000" stroke-width="4.5495" style="-inkscape-stroke:none;font-variation-settings:normal"/>
 </g>
</svg>
