<?xml version="1.0" encoding="UTF-8"?>
<svg width="512" height="512" version="1.1" viewBox="0 0 135.47 135.47" xmlns="http://www.w3.org/2000/svg" xmlns:xlink="http://www.w3.org/1999/xlink">
 <defs>
  <linearGradient id="linearGradient4" x1="67.735" x2="67.735" y1="131.41" y2="4.0578" gradientTransform="matrix(1.0374,0,0,1.0374,-2.5333,-2.5333)" gradientUnits="userSpaceOnUse">
   <stop stop-color="#d01761" offset="0"/>
   <stop stop-color="#e93976" offset="1"/>
  </linearGradient>
  <linearGradient id="linearGradient8" x1="1516.3" x2="1624.9" y1="732.63" y2="732.63" gradientTransform="translate(405.48 -253.79)" gradientUnits="userSpaceOnUse">
   <stop stop-color="#d2d2d2" offset="0"/>
   <stop stop-color="#fff" stop-opacity="0" offset="1"/>
  </linearGradient>
 </defs>
 <rect x="1.6763" y="3.2638" width="132.12" height="132.12" rx="23.011" ry="23.011" fill="#040002" fill-opacity=".2514" stop-color="#000000" stroke-width=".97525" style="-inkscape-stroke:none;font-variation-settings:normal"/>
 <rect x="1.6763" y="1.6763" width="132.12" height="132.12" rx="23.011" ry="23.011" fill="url(#linearGradient4)" stop-color="#000000" stroke-width=".25792" style="-inkscape-stroke:none;font-variation-settings:normal"/>
 <path d="m1.6762 106.19v4.5905c0 12.748 10.263 23.011 23.012 23.011h86.095c12.748 0 23.011-10.263 23.011-23.011v-4.5905c0 12.748-10.263 23.011-23.011 23.011h-86.095c-12.748 0-23.012-10.263-23.012-23.011z" fill="#040002" fill-opacity=".15104" stop-color="#000000" stroke-width=".97525" style="-inkscape-stroke:none;font-variation-settings:normal"/>
 <g transform="matrix(.24324 0 0 .24324 -412.37 -48.735)">
  <path d="m1976.1 338.21a140.63 140.63 0 0 0-140.63 140.63 140.63 140.63 0 0 0 0.016 0.22852h-0.016v140.4h86.32v-11.176a140.63 140.63 0 0 0 54.309 11.176 140.63 140.63 0 0 0 140.63-140.63 140.63 140.63 0 0 0-140.63-140.63zm0 86.32a54.309 54.309 0 0 1 54.309 54.309 54.309 54.309 0 0 1-54.309 54.309 54.309 54.309 0 0 1-54.309-54.309 54.309 54.309 0 0 1 54.309-54.309z" fill="#fff" style="-inkscape-stroke:none;font-variation-settings:normal"/>
  <path d="m1921.8 478.83v129.46a140.63 140.63 0 0 0 54.31 11.176 140.63 140.63 0 0 0 140.63-140.63 140.63 140.63 0 0 0 0-2e-3h-86.32a54.309 54.309 0 0 1 0 2e-3 54.309 54.309 0 0 1-54.309 54.309 54.309 54.309 0 0 1-54.308-54.309 54.309 54.309 0 0 1 0-2e-3z" fill="url(#linearGradient8)" stop-color="#000000" stroke-width="3.6859" style="-inkscape-stroke:none;font-variation-settings:normal"/>
 </g>
</svg>
