<svg width="512" height="512" version="1.1" viewBox="0 0 135.47 135.47" xmlns="http://www.w3.org/2000/svg">
    <path d="m67.735 0c37.525 0 67.735 30.21 67.735 67.735 0 37.525-30.21 67.735-67.735 67.735-37.525 0-67.735-30.21-67.735-67.735 0-37.525 30.21-67.735 67.735-67.735z" fill="#33445b" stop-color="#000000"/>
    <path d="m71.323 34.165c-5.5419 0-10.787 1.3739-15.414 3.7942-1.9634-2.4004-4.9006-3.7928-8.0018-3.7931-5.7102-2.7e-5-10.339 4.629-10.339 10.339l.18604 56.8h33.569c18.417 0 33.569-15.151 33.569-33.568 0-18.417-15.151-33.571-33.569-33.571zm0 20.674c7.2444 0 12.894 5.6522 12.894 12.897 0 7.2446-5.65 12.895-12.894 12.895h-12.89v-13.091c.1013-7.1497 5.7111-12.701 12.89-12.701z" fill="#f00061" stop-color="#000000" style="-inkscape-stroke:none;font-variation-settings:normal"/>
</svg>
