<svg width="242.25" height="329.53" version="1.1" viewBox="0 0 64.094 87.189" xmlns="http://www.w3.org/2000/svg" xmlns:xlink="http://www.w3.org/1999/xlink">
    <defs>
        <linearGradient id="linearGradient7972">
            <stop offset="0"/>
            <stop stop-opacity="0" offset="1"/>
        </linearGradient>
        <linearGradient id="linearGradient12613" x1="-138.48" x2="-138.48" y1="169.9" y2="156.59" gradientTransform="matrix(1 0 0 1.2271 -46.125 139.44)" gradientUnits="userSpaceOnUse" xlink:href="#linearGradient7972"/>
        <linearGradient id="linearGradient12615" x1="-138.48" x2="-138.48" y1="169.9" y2="156.59" gradientTransform="matrix(1 0 0 1.2271 323.08 -556.43)" gradientUnits="userSpaceOnUse" xlink:href="#linearGradient7972"/>
        <linearGradient id="linearGradient12617" x1="-148.48" x2="-117.55" y1="169.9" y2="169.9" gradientTransform="translate(-46.125 178.04)" gradientUnits="userSpaceOnUse">
            <stop stop-color="#f0005e" offset="0"/>
            <stop stop-color="#ed0060" offset="1"/>
        </linearGradient>
        <linearGradient id="linearGradient14502" x1="-194.6" x2="-162.13" y1="309.23" y2="309.23" gradientTransform="translate(0,-2.6e-4)" gradientUnits="userSpaceOnUse">
            <stop stop-color="#46001c" offset="0"/>
            <stop stop-color="#b10048" offset="1"/>
        </linearGradient>
        <linearGradient id="linearGradient14794" x1="-149.65" x2="-162.13" y1="302.99" y2="302.99" gradientTransform="translate(1.07e-6)" gradientUnits="userSpaceOnUse">
            <stop stop-color="#cf0052" offset="0"/>
            <stop stop-color="#b10048" offset="1"/>
        </linearGradient>
        <linearGradient id="linearGradient14943" x1="-149.65" x2="-162.12" y1="347.94" y2="347.94" gradientUnits="userSpaceOnUse">
            <stop stop-color="#cf0052" offset="0"/>
            <stop stop-color="#ed0060" offset="1"/>
        </linearGradient>
    </defs>
    <g transform="translate(199.87 -282.62)">
        <g transform="matrix(.9868 0 0 .9868 -7.8415 -5.1742)">
            <path d="m-162.13 292.99c-17.817 0-32.475 14.659-32.475 32.477h20c0-7.0084 5.4663-12.477 12.475-12.477 7.0084 0 12.474 5.4684 12.474 12.477s-5.4658 12.475-12.474 12.475h-32.475v20h32.475c17.817 0 32.475-14.657 32.475-32.474s-14.657-32.477-32.475-32.477z" color="#000000" fill="#f00061" stop-color="#000000" style="-inkscape-stroke:none;font-variation-settings:normal"/>
            <path d="m-162.13 292.99c-17.817 0-32.475 14.659-32.475 32.477h20c0-7.0084 5.4663-12.477 12.475-12.477 7.0084 0 12.474 5.4684 12.474 12.477s-5.4658 12.475-12.474 12.475h-32.475v20h32.475c17.817 0 32.475-14.657 32.475-32.474s-14.657-32.477-32.475-32.477z" color="#000000" fill="#f00061" stop-color="#000000" style="-inkscape-stroke:none;font-variation-settings:normal"/>
            <path d="m-162.13 292.99c-17.817 0-32.475 14.659-32.475 32.477h20c0-7.0084 5.4663-12.477 12.475-12.477z" color="#000000" fill="url(#linearGradient14502)" stop-color="#000000" style="-inkscape-stroke:none;font-variation-settings:normal"/>
            <path d="m-129.65 325.46c0-17.817-14.659-32.475-32.477-32.475v20c7.0084 0 12.477 5.4663 12.477 12.475z" color="#000000" fill="url(#linearGradient14794)" stop-color="#000000" style="-inkscape-stroke:none;font-variation-settings:normal"/>
            <path d="m-162.12 357.94c17.817 0 32.475-14.659 32.475-32.477h-20c0 7.0084-5.4663 12.477-12.475 12.477z" color="#000000" fill="url(#linearGradient14943)" stop-color="#000000" style="-inkscape-stroke:none;font-variation-settings:normal"/>
            <path d="m-194.6 291.64v88.355h20v-88.355z" color="#000000" fill="#d50057" stop-color="#000000" style="-inkscape-stroke:none;font-variation-settings:normal"/>
            <rect x="-194.6" y="331.61" width="20" height="16.334" fill="url(#linearGradient12613)" opacity=".54664" stop-color="#000000" style="-inkscape-stroke:none;font-variation-settings:normal"/>
            <rect transform="scale(-1)" x="174.6" y="-364.27" width="20" height="16.334" fill="url(#linearGradient12615)" opacity=".54664" stop-color="#000000" style="-inkscape-stroke:none;font-variation-settings:normal"/>
            <rect x="-194.6" y="337.94" width="30.926" height="20" fill="url(#linearGradient12617)" stop-color="#000000" style="-inkscape-stroke:none;font-variation-settings:normal"/>
        </g>
    </g>
</svg>
