<svg width="512" height="512" version="1.1" viewBox="0 0 135.47 135.47" xmlns="http://www.w3.org/2000/svg">
 <defs>
  <linearGradient id="linearGradient4-7" x1="1196.1" x2="1196.1" y1="681.45" y2="126.22" gradientTransform="matrix(.18987 0 0 .23795 -159.35 -28.358)" gradientUnits="userSpaceOnUse">
   <stop stop-color="#ad1457" offset="0"/>
   <stop stop-color="#d01761" offset="1"/>
  </linearGradient>
  <linearGradient id="linearGradient11-5" x1="1516.3" x2="1624.9" y1="732.63" y2="732.63" gradientTransform="matrix(.27222 0 0 .27222 -359.82 -131.7)" gradientUnits="userSpaceOnUse">
   <stop stop-color="#4e2e3d" stop-opacity=".33409" offset="0"/>
   <stop stop-color="#fff" stop-opacity="0" offset="1"/>
  </linearGradient>
 </defs>
 <rect x="1.6763" y="3.2638" width="132.12" height="132.12" rx="23.011" ry="23.011" fill="#040002" fill-opacity=".2514" stop-color="#000000" stroke-width=".97525" style="-inkscape-stroke:none;font-variation-settings:normal"/>
 <rect x="1.6763" y="1.6763" width="132.12" height="132.12" rx="23.011" ry="23.011" fill="url(#linearGradient4-7)" stop-color="#000000" stroke-width=".19973" style="-inkscape-stroke:none;font-variation-settings:normal"/>
 <path d="m67.737 29.453a38.283 38.283 0 0 0-38.283 38.283 38.283 38.283 0 0 0 4e-3 0.06222h-4e-3v38.221h23.498v-3.0421a38.283 38.283 0 0 0 14.784 3.0421 38.283 38.283 0 0 0 38.283-38.283 38.283 38.283 0 0 0-38.283-38.283zm0 23.498a14.784 14.784 0 0 1 14.784 14.784 14.784 14.784 0 0 1-14.784 14.784 14.784 14.784 0 0 1-14.784-14.784 14.784 14.784 0 0 1 14.784-14.784z" fill="#fff" stroke-width=".22859" style="-inkscape-stroke:none;font-variation-settings:normal"/>
 <path d="m52.952 67.735v35.241a38.283 38.283 0 0 0 14.784 3.0421 38.283 38.283 0 0 0 38.283-38.283 38.283 38.283 0 0 0 0-4.87e-4h-23.498a14.784 14.784 0 0 1 0 4.87e-4 14.784 14.784 0 0 1-14.784 14.784 14.784 14.784 0 0 1-14.783-14.784 14.784 14.784 0 0 1 0-4.87e-4z" fill="url(#linearGradient11-5)" stop-color="#000000" stroke-width="1.0034" style="-inkscape-stroke:none;font-variation-settings:normal"/>
</svg>
