<?xml version="1.0" encoding="UTF-8"?>
<svg width="256" height="256" version="1.1" viewBox="0 0 67.731 67.734" xmlns="http://www.w3.org/2000/svg">
 <path d="m33.865 5.1677e-4v5.1677e-4c-5.3988 0.026937-10.713 1.344-15.499 3.8417-1.9711-2.3562-4.8817-3.7217-7.9536-3.7316-5.7479 2.4049e-4 -10.409 4.6573-10.413 10.405v23.351 0.055294 33.811 5.17e-4h20.788v-5.17e-4h0.039791v-2.6753c4.1267 1.7453 8.5588 2.6556 13.04 2.6758 9.6091 0 18.283-4.0019 24.447-10.43 5.8342-6.084 9.4194-14.341 9.4197-23.436v-5.16e-4 -5.17e-4c-2.81e-4 -18.704-15.163-33.867-33.868-33.867zm5.17e-4 20.789c7.2231 0 13.079 5.8553 13.079 13.078v5.17e-4c-1.7e-5 1.7e-4 1.7e-5 3.46e-4 0 5.16e-4 -0.011548 0.11681-0.025073 0.2334-0.039791 0.34985h0.022221c-0.1877 7.0596-5.9565 12.728-13.061 12.728-6.9615 0-12.636-5.443-13.04-12.303v-1.1255c0.18948-7.0707 5.9664-12.71 13.04-12.729z" fill="#e93976" stop-color="#000000" stroke-width="1.1066" style="-inkscape-stroke:none;font-variation-settings:normal"/>
</svg>
