<svg width="512" height="512" version="1.1" viewBox="0 0 135.47 135.47" xmlns="http://www.w3.org/2000/svg">
 <defs>
  <linearGradient id="linearGradient11-6" x1="1516.3" x2="1570.6" y1="732.63" y2="732.63" gradientTransform="matrix(.31051 0 0 .31051 -419.4 -159.74)" gradientUnits="userSpaceOnUse">
   <stop stop-opacity=".14895" offset="0"/>
   <stop stop-color="#fff" stop-opacity="0" offset="1"/>
  </linearGradient>
 </defs>
 <rect y="-1.6875e-14" width="135.47" height="135.47" rx="0" ry="0" fill="#dd286c" stop-color="#000000" stroke-width=".26446" style="-inkscape-stroke:none;font-variation-settings:normal"/>
 <path d="m68.293 24.069a43.666 43.666 0 0 0-43.666 43.666 43.666 43.666 0 0 0 0.0052 0.07094h-0.0052v43.595h26.803v-3.4703a43.666 43.666 0 0 0 16.863 3.4703 43.666 43.666 0 0 0 43.666-43.666 43.666 43.666 0 0 0-43.666-43.666zm0 26.803a16.863 16.863 0 0 1 16.863 16.863 16.863 16.863 0 0 1-16.863 16.863 16.863 16.863 0 0 1-16.863-16.863 16.863 16.863 0 0 1 16.863-16.863z" fill="#fff" stroke-width=".27224" style="-inkscape-stroke:none;font-variation-settings:normal"/>
 <path d="m51.433 67.732v40.198a43.666 43.666 0 0 0 16.863 3.4703 43.666 43.666 0 0 0 43.666-43.666 43.666 43.666 0 0 0 0-5.54e-4h-26.803a16.863 16.863 0 0 1 0 5.54e-4 16.863 16.863 0 0 1-16.863 16.863 16.863 16.863 0 0 1-16.863-16.863 16.863 16.863 0 0 1 0-5.54e-4z" fill="url(#linearGradient11-6)" stop-color="#000000" stroke-width="1.1445" style="-inkscape-stroke:none;font-variation-settings:normal"/>
</svg>
