<?xml version="1.0" encoding="UTF-8"?>
<svg width="512" height="512" version="1.1" viewBox="0 0 135.47 135.47" xmlns="http://www.w3.org/2000/svg">
 <defs>
  <linearGradient id="linearGradient11-6" x1="1516.3" x2="1570.6" y1="732.63" y2="732.63" gradientTransform="matrix(.27224 0 0 .27224 -359.3 -131.71)" gradientUnits="userSpaceOnUse">
   <stop stop-opacity=".14895" offset="0"/>
   <stop stop-color="#fff" stop-opacity="0" offset="1"/>
  </linearGradient>
 </defs>
 <rect y="-1.6875e-14" width="135.47" height="135.47" rx="0" ry="0" fill="#dd286c" stop-color="#000000" stroke-width=".26446" style="-inkscape-stroke:none;font-variation-settings:normal"/>
 <path d="m68.296 29.449a38.285 38.285 0 0 0-38.285 38.285 38.285 38.285 0 0 0 0.0046 0.0622h-0.0046v38.222h23.5v-3.0426a38.285 38.285 0 0 0 14.785 3.0426 38.285 38.285 0 0 0 38.285-38.285 38.285 38.285 0 0 0-38.285-38.285zm0 23.5a14.785 14.785 0 0 1 14.785 14.785 14.785 14.785 0 0 1-14.785 14.785 14.785 14.785 0 0 1-14.785-14.785 14.785 14.785 0 0 1 14.785-14.785z" fill="#fff" stroke-width=".23869" style="-inkscape-stroke:none;font-variation-settings:normal"/>
 <path d="m53.511 67.732v35.244a38.285 38.285 0 0 0 14.785 3.0426 38.285 38.285 0 0 0 38.285-38.285 38.285 38.285 0 0 0 0-4.86e-4h-23.5a14.785 14.785 0 0 1 0 4.86e-4 14.785 14.785 0 0 1-14.785 14.785 14.785 14.785 0 0 1-14.785-14.785 14.785 14.785 0 0 1 0-4.86e-4z" fill="url(#linearGradient11-6)" stop-color="#000000" stroke-width="1.0034" style="-inkscape-stroke:none;font-variation-settings:normal"/>
</svg>
